<svg xmlns="http://www.w3.org/2000/svg" xmlns:xlink="http://www.w3.org/1999/xlink" width="42" height="24.016" viewBox="0 0 11.113 6.354"><defs><linearGradient id="b"><stop style="stop-color:#fffffc;stop-opacity:1" offset="0"/><stop style="stop-color:#fffffc;stop-opacity:0" offset="1"/></linearGradient><linearGradient id="a"><stop style="stop-color:#000009;stop-opacity:.76169264" offset="0"/><stop offset=".778" style="stop-color:#000;stop-opacity:.15812917"/><stop style="stop-color:#000;stop-opacity:.02004454" offset="1"/></linearGradient><linearGradient xlink:href="#a" id="c" x1="77.674" y1="209.021" x2="55.844" y2="185.228" gradientUnits="userSpaceOnUse" gradientTransform="matrix(.14293 0 0 .14293 77.478 124.337)"/><linearGradient xlink:href="#b" id="d" x1="164.794" y1="218.645" x2=".648" y2="92.453" gradientUnits="userSpaceOnUse" gradientTransform="matrix(.32485 0 0 .11442 74.694 138.242)"/><linearGradient xlink:href="#b" id="e" x1="78.702" y1="148.167" x2="80.755" y2="151.342" gradientUnits="userSpaceOnUse" gradientTransform="matrix(1.41786 0 0 1.00107 -33.007 1.425)"/><linearGradient xlink:href="#b" id="f" x1="78.702" y1="148.167" x2="80.755" y2="151.342" gradientUnits="userSpaceOnUse" gradientTransform="matrix(1.41786 0 0 1 -33.007 1.587)"/><linearGradient xlink:href="#b" id="g" x1="78.702" y1="148.167" x2="80.755" y2="151.342" gradientUnits="userSpaceOnUse" gradientTransform="matrix(1.41786 0 0 1.00107 -31.155 3.806)"/></defs><path style="fill:#000;fill-opacity:1;stroke:none;stroke-width:.02732436px;stroke-linecap:butt;stroke-linejoin:miter;stroke-opacity:1" d="M78.846 149.75v6.354h11.112v-6.354h-1.587v5.027h-7.938v-5.027z" transform="translate(-78.846 -149.75)"/><path style="fill:#18802a;fill-opacity:1;stroke:none;stroke-width:.0378795px;stroke-linecap:butt;stroke-linejoin:miter;stroke-opacity:1" d="M81.227 154.252v-1.587h2.91v1.587zM84.667 154.252v-1.587h2.91v1.587z" transform="translate(-78.846 -149.75)"/><path style="fill:#25c340;fill-opacity:1;stroke:none;stroke-width:.0378796px;stroke-linecap:butt;stroke-linejoin:miter;stroke-opacity:1" d="M81.227 152.4v-1.588h2.91v1.588zM84.667 152.4l-.003-1.59 2.913.003v1.587z" transform="translate(-78.846 -149.75)"/><path style="fill:url(#c);fill-opacity:1;stroke:none;stroke-width:.0378795px;stroke-linecap:butt;stroke-linejoin:miter;stroke-opacity:1" d="m85.99 150.812-1.323 1.323v.265h2.91v-1.588zm-1.852 1.853-1.588 1.587h1.588zm.529 0v1.587h2.91v-1.587z" transform="translate(-78.846 -149.75)"/><path style="fill:url(#d);fill-opacity:1;fill-rule:evenodd;stroke:none;stroke-width:.05101041px;stroke-linecap:butt;stroke-linejoin:miter;stroke-opacity:1" d="m88.37 154.777-1.587 1.327h-7.937v-6.354h1.587v5.027z" transform="translate(-78.846 -149.75)"/><path style="opacity:.33680019;fill:url(#e);fill-opacity:1;stroke-width:.31521708" d="M78.846 149.75h1.587v2.384l-1.587 1.589z" transform="translate(-78.846 -149.75)"/><path style="fill:url(#f);fill-opacity:1;stroke-width:.31504902" d="M81.227 150.808h.53l-.53.534z" transform="translate(-78.846 -149.75)"/><path style="opacity:.33680019;fill:url(#g);fill-opacity:1;stroke-width:.31521708" d="M80.433 154.777h1.588l-1.323 1.327-1.588-.004z" transform="translate(-78.846 -149.75)"/></svg>