<svg xmlns="http://www.w3.org/2000/svg" version="1.1" id="Layer_1" x="0" y="0" viewBox="0 0 75.591 75.591" xml:space="preserve" width="2cm" height="2cm"><defs id="defs11"><linearGradient id="SVGID_1_" gradientUnits="userSpaceOnUse" x1="756.987" y1="822.319" x2="1792.932" y2="1708.097" gradientTransform="matrix(1.25 0 0 -1.25 -159.784 3002)"><stop offset="0" style="stop-color:#beea2e" id="stop4"/><stop offset="1" style="stop-color:#52ba00" id="stop6"/></linearGradient></defs><style type="text/css" id="style2">.st0{fill:url(#SVGID_1_)}</style><path class="st0" d="m13.51 9.903 12.208 5.775v23.759L13.51 33.662Zm18.478-6.93-17.892 6.36 12.1 5.812 17.836-6.397Zm-.33 10.87v14.538l12.705 4.949V9.279Z" id="path9" style="fill:none;stroke-width:.5;fill-opacity:1;stroke:#000;stroke-opacity:1;stroke-miterlimit:4;stroke-dasharray:none;stroke-linejoin:round"/><path class="st0" d="M22.633 28.614c-8.188.033-14.817 6.663-14.85 14.85 0 1.64.264 3.27.783 4.824a2.124 2.124 0 0 0 2.612 1.302 2.114 2.114 0 0 0 1.262-2.603 9.799 9.799 0 0 1-.578-3.785c.179-5.914 5.117-10.564 11.03-10.386 5.915.179 10.565 5.117 10.386 11.03a10.713 10.713 0 0 1-10.058 10.37s-2.084.127-3.121.254c-.382.055-.761.13-1.136.226a.137.137 0 0 1-.194.001l-.001-.001a.136.136 0 0 1 0-.166l.322-1.76 1.958-8.806a2.036 2.036 0 0 0-3.981-.852S12.41 64.664 12.41 64.86a1.957 1.957 0 0 0 1.448 2.387h.108a1.956 1.956 0 0 0 2.384-1.405c.005-.017.01-.035.013-.053a.508.508 0 0 1 0-.097c.058-.254.645-3.122.645-3.122a5.283 5.283 0 0 1 4.373-4.158c.449-.069 2.338-.196 2.338-.196 8.156-.813 14.11-8.084 13.295-16.24a14.84 14.84 0 0 0-14.382-13.362Z" id="path4" style="fill:none;stroke-width:1;stroke:#000;stroke-opacity:1;stroke-miterlimit:4;stroke-dasharray:none"/><path d="M23.533 62.855a2.475 2.475 0 0 0-2.927 1.919l-.007.037a2.465 2.465 0 0 0 1.884 2.934l.004.001h.07a2.425 2.425 0 0 0 2.926-1.788l.008-.03v-.136a2.566 2.566 0 0 0-1.958-2.937z" id="path6" style="fill:none;stroke-width:1;stroke:#000;stroke-opacity:1;stroke-miterlimit:4;stroke-dasharray:none"/><g id="g980" style="fill:none;stroke:#000;stroke-opacity:1;stroke-width:.6;stroke-miterlimit:4;stroke-dasharray:none;stroke-linejoin:round"><path id="path876" d="M52.462 49.895V61.49l14.197-20.05z" style="fill:none;stroke-width:.6;stroke:#000;stroke-opacity:1;stroke-miterlimit:4;stroke-dasharray:none;stroke-linejoin:round"/><path id="path878" d="m52.462 15.106 14.197 23.626-14.197 8.454-14.306-8.454" style="fill:none;stroke-width:.6;stroke:#000;stroke-opacity:1;stroke-miterlimit:4;stroke-dasharray:none;stroke-linejoin:round"/><path id="path880" d="m52.462 15.106 14.197 23.626-14.34-3.889-14.163 3.89M52.462 61.49 38.326 41.337l14.136 8.558V61.49" style="fill:none;stroke:#000;stroke-width:.60000002;stroke-linejoin:round;stroke-miterlimit:4;stroke-dasharray:none;stroke-opacity:1"/><path id="path882" d="M52.462 32.23v14.956l14.197-8.454" style="fill:none;stroke-width:.6;stroke:#000;stroke-opacity:1;stroke-miterlimit:4;stroke-dasharray:none;stroke-linejoin:round"/><path id="path884" d="m38.156 38.732 14.306-23.626v32.08" style="fill:none;stroke:#000;stroke-width:.60000002;stroke-linejoin:round;stroke-miterlimit:4;stroke-dasharray:none;stroke-opacity:1"/></g></svg>