<svg xmlns="http://www.w3.org/2000/svg" xmlns:xlink="http://www.w3.org/1999/xlink" viewBox="0 0 48 48"><defs><linearGradient id="g"><stop stop-color="#2e3436"/><stop offset="1" stop-color="#babdb6"/></linearGradient><linearGradient id="f"><stop stop-color="#fff"/><stop offset="1" stop-color="#fff" stop-opacity="0"/></linearGradient><linearGradient id="e"><stop stop-color="#d3d7cf"/><stop offset="1" stop-color="#eeeeec"/></linearGradient><linearGradient id="d"><stop stop-color="#888a85"/><stop offset="1" stop-color="#555753"/></linearGradient><linearGradient id="c"><stop stop-color="#fff" stop-opacity=".5"/><stop offset="1" stop-color="#fff" stop-opacity="0"/></linearGradient><linearGradient id="b"><stop stop-color="#2e3436"/><stop offset="1" stop-color="#2e3436" stop-opacity="0"/></linearGradient><linearGradient id="a"><stop stop-color="#eee"/><stop offset="1" stop-color="#dcdcdc"/></linearGradient><linearGradient y1="5.265" x2="0" y2="42.603" id="j" xlink:href="#c" gradientUnits="userSpaceOnUse"/><linearGradient x1="9.583" y1="-12.469" x2="26.52" y2="34.548" id="m" xlink:href="#f" gradientUnits="userSpaceOnUse"/><linearGradient y1="8.164" x2="0" y2="39.695" id="k" xlink:href="#g" gradientUnits="userSpaceOnUse"/><radialGradient cx="25.02" cy="44.3" r="16.727" id="h" xlink:href="#b" gradientUnits="userSpaceOnUse" gradientTransform="matrix(1 0 0 .11504 0 39.203)"/><radialGradient cx="14.11" cy="9.421" r="18.717" id="i" xlink:href="#d" gradientUnits="userSpaceOnUse" gradientTransform="matrix(-.24286 .98187 -1.974 -.48825 37.804 -2.947)"/><radialGradient cx="26.805" cy="30.17" r="14.476" id="l" xlink:href="#e" gradientUnits="userSpaceOnUse" gradientTransform="matrix(1.19205 -1.67157 2.42344 1.72823 -79.548 24.449)"/></defs><path d="M41.744 44.3a16.727 1.924 0 1 1-33.454 0 16.727 1.924 0 1 1 33.454 0z" transform="matrix(1 0 0 1.46154 -1.017 -21.158)" opacity=".6" fill="url(#h)"/><path d="M44 24a20 19.998 0 1 1-40 0 20 19.998 0 1 1 40 0z" fill="#2e3436"/><path d="M22.75 5.375C8.615 5.627.002 23.953 8.937 35.063l-.03.03c8.111 11.986 28.438 9.02 32.656-4.843h.03c.008-.02-.007-.043 0-.063 4.665-12.21-5.734-25.953-18.78-24.812-.022.002-.041-.002-.063 0z" fill="url(#i)"/><path d="M25.156 5.781a17.154 17.154 0 0 0-2.343.063h-.032C9.016 6.063.555 24.018 9.313 34.812c7.89 11.66 27.77 8.787 31.843-4.718.003-.01-.003-.022 0-.032 4.287-11.16-4.405-23.713-16-24.28z" fill="none" stroke="url(#j)"/><path d="M22.813 8.219C11.126 8.427 3.744 24.066 11.155 33.28a2.858 2.858 0 0 1 .25.375c6.829 9.77 23.951 7.21 27.438-4.25a2.858 2.858 0 0 1 .093-.25c3.905-10.22-4.943-21.893-15.874-20.937-.508.044-.533.043-.063 0a2.858 2.858 0 0 1-.188 0z" fill="url(#k)"/><path d="M22.844 9.594c-.022.002-.046.03-.063.031-.014.001-.073-.002-.093 0h-.063c-10.35.388-17.02 14.59-10.406 22.813.11.138.221.286.312.437 6.15 8.799 21.86 6.448 25-3.875.037-.113.08-.235.125-.344 3.535-9.254-4.562-19.929-14.468-19.062-.065.005-.107-.004-.157 0-.069.002-.118 0-.187 0z" fill="url(#l)"/><path d="M24.125 9.563c-.306.004-.628.004-.938.03-.064.006-.106-.003-.156 0-.069.003-.118.002-.187 0-.022.003-.046.03-.063.032-.014.001-.073-.002-.093 0h-.063c-3.4.127-6.391 1.75-8.656 4.156l4.469 4.438a7.967 7.967 0 0 1 5.593-2.282c2.192 0 4.18.883 5.625 2.313l4.469-4.469c-2.6-2.617-6.132-4.28-10-4.219z" opacity=".9" fill="#f57900"/><path d="M13.906 13.844C9.322 18.77 7.797 26.94 12.22 32.437c.11.14.221.287.312.438.342.49.728.954 1.125 1.375l4.688-4.688a7.974 7.974 0 0 1-2.313-5.625c0-2.191.883-4.18 2.313-5.625l-4.438-4.468z" opacity=".9" fill="#8bb300"/><path d="m34.188 13.844-4.47 4.469a7.974 7.974 0 0 1 2.313 5.625c0 2.184-.891 4.149-2.312 5.593l4.625 4.625c1.44-1.395 2.564-3.108 3.187-5.156.037-.113.08-.235.125-.344 2.016-5.277.26-11.015-3.468-14.812z" opacity=".9" fill="#c00"/><path d="M26.038 23.92a2 2 0 1 1-4 0 2 2 0 1 1 4 0z" fill="#555753"/><rect width="2.837" height="13.187" ry="1.449" x="32.14" y="-6.996" transform="rotate(35.327)" fill="#555753" rx="1.418"/><path d="M24.125 9.531c-.306.005-.628.036-.938.063-.064.005-.106-.004-.156 0-.069.002-.118 0-.187 0-.022.002-.046.03-.063.031-.014.001-.073-.002-.093 0h-.063c-7.676.288-13.322 8.184-13.031 15.594 8.882-2.882 18.673-5.608 27.343-7.563-2.402-4.706-7.258-8.215-12.812-8.125z" opacity=".6" fill="url(#m)"/></svg>