<svg xmlns="http://www.w3.org/2000/svg" width="117" height="66"><path d="M6 0C2.429.005.004 2.868 0 6v54c.003 3.425 2.753 6.003 6 6h105c3.207.002 6.006-2.621 6-6V6c.004-3.29-2.758-5.996-6-6zm60.181 7.285c.042 5.757-.009 11.514.037 17.27 2.39-1.158 5.02-1.973 7.7-1.9 3.468-.072 7.032 1.005 9.614 3.38 2.993 2.756 4.446 6.802 4.91 10.773.441 4.12.123 8.475-1.79 12.222-1.657 3.389-4.67 6.039-8.222 7.28-3.347 1.228-7.01 1.185-10.525.923-3.09-.27-6.16-.813-9.149-1.667V43.541h-7.655l1.486-7.392h6.17c.004-9.253-.013-18.506.017-27.76 2.47-.402 4.936-.816 7.404-1.216l.002.077zM41.71 22.511c2.997.003 6.016.536 8.787 1.679-.527 2.015-1.057 4.03-1.59 6.043-2.296-.923-4.783-1.397-7.26-1.257-2.368.055-4.793.983-6.31 2.855-1.92 2.295-2.457 5.417-2.413 8.33-.005 2.922.646 6.035 2.645 8.267 1.734 1.886 4.416 2.48 6.885 2.512 2.556.062 5.124-.38 7.52-1.27.34 2.035.74 4.103 1.03 6.119-2.133.91-4.44 1.277-6.73 1.5-3.796.289-7.758-.038-11.16-1.89-3.263-1.693-5.66-4.774-6.768-8.248-1.02-3.137-1.272-6.494-.932-9.772.5-4.463 2.586-8.898 6.204-11.638 2.871-2.224 6.501-3.266 10.092-3.23zm30.708 6.498c-2.193.044-4.357.74-6.206 1.91l-.013 5.23h9.377l-1.486 7.392H66.2v6.86c2.232.506 4.55.656 6.832.472 2.2-.23 4.31-1.331 5.65-3.11 1.95-2.485 2.398-5.79 2.27-8.86-.116-2.708-.708-5.582-2.534-7.683-1.489-1.693-3.822-2.27-6-2.211z" fill-opacity=".6"/></svg>