<svg xmlns="http://www.w3.org/2000/svg" width="500pt" height="410pt" version="1.0"><path style="font-size:300px;font-style:normal;font-variant:normal;font-weight:700;font-stretch:normal;text-align:start;line-height:125%;writing-mode:lr-tb;text-anchor:start;fill:#000;fill-opacity:1;stroke:none;stroke-width:10;stroke-linecap:butt;stroke-linejoin:miter;stroke-miterlimit:4;stroke-opacity:1;font-family:Bitstream Vera Sans" d="M531.281 218.034c-33.358.092-68.434 10.633-90.781 36.338-25.405 28.364-29.535 69.972-21.938 106.059 6.952 32.774 31.848 60.605 63.532 71.525 33.312 11.683 70.529 9.474 104.437.809 11.604-3.142 14.989-6.823 25.844-12.07.257-33.806.258-67.616 0-101.423-27.969.087-47.938-.37-75.906-.5v33.632h34.437v45.64c-18.667 7.09-39.6 6.027-58.968 2.645-15.359-2.743-28.92-12.401-35.965-26.19-16.917-30.741-15.689-72.539 7.12-99.998C498.157 257 523.199 254.433 545 254.74c23.668.534 46.727 7.893 67.313 19.138v-40.414c-25.407-11.216-53.274-15.915-81.032-15.431z"/><path style="font-size:300px;font-style:normal;font-variant:normal;font-weight:700;font-stretch:normal;text-align:start;line-height:125%;writing-mode:lr-tb;text-anchor:start;fill:#000;fill-opacity:1;stroke:none;stroke-width:1px;stroke-linecap:butt;stroke-linejoin:miter;stroke-opacity:1;font-family:Bitstream Vera Sans" d="M125.563 218.05c-32.217.078-65.592 10.76-87.244 35.337-23.963 26.209-29.284 64.255-24.194 98.29 4.21 30.297 22.854 58.49 50.156 73.037 29.39 15.735 64.973 17.83 97.25 11.175 11.438-2.596 22.6-6.617 32.906-11.858V383.99c-26.39 18.002-61.286 23.875-92 14.402-21.47-6.095-33.57-27.062-38.968-47.18-7.497-26.401-1.548-56.415 17.125-76.886 15.767-18.366 42.565-21.362 65.531-18.996 17.314 1.89 33.828 8.634 48.313 18.096v-40.042c-21.247-10.8-45.014-15.959-68.875-15.333z"/><path style="fill:#000;fill-opacity:1;fill-rule:evenodd;stroke:none;stroke-width:10;stroke-linecap:butt;stroke-linejoin:miter;stroke-miterlimit:4;stroke-opacity:1" d="M307.813.357C195.733 1.044 101.02 48.697 28 144.513c2.668 1.121 5.332 2.253 8 3.375 135.847-188.973 419.61-186.793 548.281 1.937l9.625-4.125C522.98 48.205 423.902.41 310.47.357c-.885 0-1.774-.006-2.656 0z"/><path style="fill:#000;fill-opacity:1;fill-rule:evenodd;stroke:none;stroke-width:15;stroke-linecap:butt;stroke-linejoin:miter;stroke-miterlimit:4;stroke-opacity:1" d="M308.156 84.888c-71.886.88-141.468 33.341-191.656 96.844l14.344 6.03c97.142-122.697 267.38-119.585 358.75 1.938 4.574-1.923 9.144-3.858 13.719-5.78-48.608-64.531-116.192-98.354-190-99-1.156-.011-2.315-.038-3.47-.032-.566.003-1.12-.007-1.687 0z"/><path style="fill:#000;fill-opacity:1;fill-rule:evenodd;stroke:none;stroke-width:25;stroke-linecap:butt;stroke-linejoin:miter;stroke-miterlimit:4;stroke-opacity:1" d="M307.719 153.982c-51.368.818-97.525 23.34-124.281 55.906 8.874 3.73 17.75 7.457 26.625 11.187 23.214-28.281 62.016-43.838 99.312-43.843 37.12-.006 81.265 15.498 101.906 45.375 7.803-3.28 15.604-6.564 23.406-9.844-24.36-35.22-67.795-58.91-125.75-58.781-.405.003-.814-.007-1.218 0z"/><path style="font-size:250px;font-style:normal;font-variant:normal;font-weight:700;font-stretch:normal;text-align:start;line-height:125%;writing-mode:lr-tb;text-anchor:start;fill:#000;fill-opacity:1;stroke:none;stroke-width:1px;stroke-linecap:butt;stroke-linejoin:miter;stroke-opacity:1;font-family:Nimbus Sans L Condensed" d="M302.531 218.013c-24.376.761-44.046 6.973-57.844 17.625 15.748 6.62 31.503 13.223 47.25 19.844 4.285-.793 9.03-1.188 14.188-1.188 8.85 0 16.272.966 22.406 3h.031l35.688-14.906c3.326-1.399 6.643-2.82 9.969-4.219-15.149-13.219-37.601-20.156-66.531-20.156-.84 0-1.672-.012-2.5 0-.255.004-.497-.005-.75 0-.126.002-.25-.003-.375 0s-.25-.003-.375 0c-.2.005-.395-.006-.594 0-.1.003-.183-.003-.281 0-.096.003-.186-.003-.282 0zM225.375 265.2c-2.257 3.99-3.701 9.464-3.594 19.157.185 17.24 6.536 32.748 19.188 42.187 9.585 7.67 23.776 12.68 52.531 18.875l24.156 5.313c31.822 7.079 41 12.98 41 26.843 0 17.109-16.862 27.157-46 27.157-31.438 0-47.145-11.229-49.062-34.532h-45.25c.767 17.109 3.442 25.663 10.344 36.282 14.569 22.418 44.103 34.53 83.593 34.53 56.743 0 91.625-26.273 91.625-68.75 0-31.266-16.857-47.765-59.031-57.5l-55.219-12.687c-12.043-2.882-16.945-9.658-20.625-15.25a2135.07 2135.07 0 0 0-1.156-3.906l-42.5-17.719z"/><path style="fill:#000;fill-opacity:1" d="M2.406 458h619.5v4.5H2.406z"/><text xml:space="preserve" style="font-size:35.21596146px;font-style:normal;font-variant:normal;font-weight:700;font-stretch:normal;text-align:start;line-height:100%;writing-mode:lr-tb;text-anchor:start;fill:#000;fill-opacity:1;stroke:none;stroke-width:1px;stroke-linecap:butt;stroke-linejoin:miter;stroke-opacity:1;font-family:Bitstream Vera Sans" x="1.37" y="504.4"><tspan x="1.37" y="504.4">Communication Systems Group</tspan></text></svg>