<svg xmlns="http://www.w3.org/2000/svg" width="1199" height="232"><path fill="#303030" fill-rule="evenodd" d="M120 105.29a7.003 7.003 0 0 0 0 13.42v57.58a7 7 0 1 0 8.87 5.36l27.788-14.595a7 7 0 1 0 9.284-10.466l15.79-37.594a7 7 0 1 0 0-13.99l-15.79-37.594a7 7 0 1 0-9.426-10.326l-27.653-14.701A7 7 0 1 0 120 47.71v57.58zm4 0v-53.6l12.6 32.496A6.993 6.993 0 0 0 133.5 90c0 1.558.509 2.997 1.37 4.16l-9.766 11.564a6.953 6.953 0 0 0-1.104-.434zm0 13.42a6.967 6.967 0 0 0 1.806-.834l18.133 13.68A6.985 6.985 0 0 0 143.5 134c0 1.877.738 3.58 1.94 4.838l-21.361 37.476a6.941 6.941 0 0 0-.079-.024v-57.58zm30.678 44.867-26.74 14.045 20.977-36.802a7.021 7.021 0 0 0 2.177.155l6.094 15.512A6.988 6.988 0 0 0 154.5 162c0 .542.062 1.07.178 1.577zm23.259-57.278a7.04 7.04 0 0 0-1.168 1.05l-29.376-16.122A7.08 7.08 0 0 0 147.5 90c0-1.41-.417-2.723-1.134-3.821l13.107-17.477a7 7 0 0 0 2.78.258l15.684 37.34zm-50.953-60.384 27.653 14.701a7.015 7.015 0 0 0 1.494 5.876L143.31 83.587a6.976 6.976 0 0 0-2.88-.587l-14.14-36.468a7.04 7.04 0 0 0 .694-.617zm35.27 109.125a7.079 7.079 0 0 0-1.346-.015l-6.094-15.512A6.988 6.988 0 0 0 157.5 134a7 7 0 0 0-.33-2.13l20.763-14.172.004.003-15.683 37.34zm-16.66-60.238 29.48 16.178a7.058 7.058 0 0 0 .399 3.554l-20.56 14.032a6.967 6.967 0 0 0-3.874-1.546l-6.725-31.15a7.035 7.035 0 0 0 1.28-1.068zm-7.522 1.765a6.984 6.984 0 0 0 2.393.433l6.664 30.864a6.89 6.89 0 0 0-.78.5l-17.943-13.537A6.976 6.976 0 0 0 129 112a6.968 6.968 0 0 0-.964-3.548l10.036-11.885zM112.5 225C50.368 225 0 174.632 0 112.5S50.368 0 112.5 0 225 50.368 225 112.5 174.632 225 112.5 225zM77 34a2 2 0 0 0-2 2v12a2 2 0 0 0 2 2h12a2 2 0 0 0 2-2V36a2 2 0 0 0-2-2H77zm0 20a2 2 0 0 0-2 2v12a2 2 0 0 0 2 2h12a2 2 0 0 0 2-2V56a2 2 0 0 0-2-2H77zm0 20a2 2 0 0 0-2 2v12a2 2 0 0 0 2 2h12a2 2 0 0 0 2-2V76a2 2 0 0 0-2-2H77zm0 20a2 2 0 0 0-2 2v12a2 2 0 0 0 2 2h12a2 2 0 0 0 2-2V96a2 2 0 0 0-2-2H77zm0 20a2 2 0 0 0-2 2v12a2 2 0 0 0 2 2h12a2 2 0 0 0 2-2v-12a2 2 0 0 0-2-2H77zm0 20a2 2 0 0 0-2 2v12a2 2 0 0 0 2 2h12a2 2 0 0 0 2-2v-12a2 2 0 0 0-2-2H77zm20-80a2 2 0 0 0-2 2v12a2 2 0 0 0 2 2h12a2 2 0 0 0 2-2V56a2 2 0 0 0-2-2H97zm0 20a2 2 0 0 0-2 2v12a2 2 0 0 0 2 2h12a2 2 0 0 0 2-2V76a2 2 0 0 0-2-2H97zm0 20a2 2 0 0 0-2 2v12a2 2 0 0 0 2 2h12a2 2 0 0 0 2-2V96a2 2 0 0 0-2-2H97zm0 20a2 2 0 0 0-2 2v12a2 2 0 0 0 2 2h12a2 2 0 0 0 2-2v-12a2 2 0 0 0-2-2H97zm0 20a2 2 0 0 0-2 2v12a2 2 0 0 0 2 2h12a2 2 0 0 0 2-2v-12a2 2 0 0 0-2-2H97zm0 20a2 2 0 0 0-2 2v12a2 2 0 0 0 2 2h12a2 2 0 0 0 2-2v-12a2 2 0 0 0-2-2H97zm-20 0a2 2 0 0 0-2 2v12a2 2 0 0 0 2 2h12a2 2 0 0 0 2-2v-12a2 2 0 0 0-2-2H77zm-20 0a2 2 0 0 0-2 2v12a2 2 0 0 0 2 2h12a2 2 0 0 0 2-2v-12a2 2 0 0 0-2-2H57zm0-40a2 2 0 0 0-2 2v12a2 2 0 0 0 2 2h12a2 2 0 0 0 2-2v-12a2 2 0 0 0-2-2H57zm-20 0a2 2 0 0 0-2 2v12a2 2 0 0 0 2 2h12a2 2 0 0 0 2-2v-12a2 2 0 0 0-2-2H37zm20-20a2 2 0 0 0-2 2v12a2 2 0 0 0 2 2h12a2 2 0 0 0 2-2V96a2 2 0 0 0-2-2H57zm0-40a2 2 0 0 0-2 2v12a2 2 0 0 0 2 2h12a2 2 0 0 0 2-2V56a2 2 0 0 0-2-2H57zm20 120a2 2 0 0 0-2 2v12a2 2 0 0 0 2 2h12a2 2 0 0 0 2-2v-12a2 2 0 0 0-2-2H77zM289.9 71.2h11c11.6 0 21.3-7.2 21.3-22.6 0-15.4-9.6-22.7-21.2-22.7h-11.1v45.3zM301.4 84h-25.3V13.1h25.4c20.2 0 35 13.1 35 35.5S321.6 84 301.4 84zm59.4 0h-13.3V34.8h13.3V84zm-14.9-65.3c0-4.6 3.7-8.3 8.2-8.3 4.6 0 8.2 3.7 8.2 8.3 0 4.4-3.6 8.1-8.2 8.1-4.5 0-8.2-3.7-8.2-8.1zm24.9 51.6 11.4-2.5c.3 3.9 3.2 7.5 9 7.5 4.4 0 6.5-2.3 6.5-4.9 0-2.2-1.5-4-5.3-4.8l-6.5-1.5c-9.5-2.1-13.8-7.8-13.8-14.7 0-8.8 7.8-16.1 18.4-16.1 14 0 18.7 8.9 19.3 14.2L398.7 50c-.4-2.9-2.5-6.6-8.1-6.6-3.5 0-6.3 2.1-6.3 4.9 0 2.4 1.8 3.9 4.5 4.4l7 1.5c9.7 2 14.6 7.9 14.6 15.1 0 8-6.2 16.2-19.1 16.2-14.8 0-19.9-9.6-20.5-15.2zm66.7-50.2v14.7h9.9v11.8h-9.9v20.6c0 4.3 2 5.7 5.8 5.7 1.6 0 3.4-.2 4.1-.4v11c-1.2.5-3.6 1.2-7.5 1.2-9.6 0-15.6-5.7-15.6-15.2V46.6h-8.9V34.8h2.5c5.2 0 7.6-3.4 7.6-7.8v-6.9h12zM488 34.6V48c-1.5-.3-2.8-.4-4-.4-6.8 0-12.7 3.3-12.7 13.9V84H458V34.8h12.9v7.3c3-6.5 9.8-7.7 14-7.7 1.1 0 2.1.1 3.1.2zM510.7 84h-13.3V34.8h13.3V84zm-14.9-65.3c0-4.6 3.7-8.3 8.2-8.3 4.6 0 8.2 3.7 8.2 8.3 0 4.4-3.6 8.1-8.2 8.1-4.5 0-8.2-3.7-8.2-8.1zm42 65.3h-12.9V11.6H538v28.6c2.2-3.5 7.6-6.7 14.9-6.7 14.4 0 22.7 11.1 22.7 25.7 0 14.9-9.2 26-23.2 26-6.8 0-12-3-14.6-7.2v6zm24.5-24.7c0-9-5.4-13.9-12.2-13.9-6.7 0-12.3 4.9-12.3 13.9 0 8.9 5.6 14 12.3 14 6.8 0 12.2-5 12.2-14zM618.1 84c-.2-1-.4-3.3-.4-5.3-2.7 4.6-8.4 6.6-13.6 6.6-11.9 0-18.7-8.7-18.7-19.4V34.8h13.3v28.4c0 5.5 2.8 9.9 9 9.9 5.9 0 9.3-4 9.3-9.7V34.8h13.3v40.3c0 3.8.3 7.2.5 8.9h-12.7zm42.8-63.9v14.7h9.9v11.8h-9.9v20.6c0 4.3 2 5.7 5.8 5.7 1.6 0 3.4-.2 4.1-.4v11c-1.2.5-3.6 1.2-7.5 1.2-9.6 0-15.6-5.7-15.6-15.2V46.6h-8.9V34.8h2.5c5.2 0 7.6-3.4 7.6-7.8v-6.9h12zm30.4 33.7h22c-.2-4.9-3.4-9.7-11-9.7-6.9 0-10.7 5.2-11 9.7zm23.3 12.8 11.1 3.3c-2.5 8.5-10.3 15.6-22.4 15.6-13.5 0-25.4-9.7-25.4-26.3 0-15.7 11.6-25.9 24.2-25.9 15.2 0 24.3 9.7 24.3 25.5 0 1.9-.2 3.9-.2 4.1H691c.3 6.5 5.8 11.2 12.4 11.2 6.2 0 9.6-3.1 11.2-7.5zm69.2-55v63.5c0 3.3.2 6.9.4 8.9h-12.7c-.2-1-.5-3.4-.5-5.7-2.2 3.9-7.2 6.9-13.8 6.9-14 0-24-11-24-25.9 0-14.4 9.7-25.7 23.6-25.7 8.5 0 12.5 3.5 13.9 6.1V11.6h13.1zm-37.2 47.7c0 8.8 5.2 14 12.2 14 6.8 0 12.1-5.2 12.1-14.1 0-8.8-5.3-13.7-12.1-13.7s-12.2 5-12.2 13.8zm125-29.3-12.4 3.8c-.7-3.9-3.9-10-12.9-10-6.7 0-11.1 4.3-11.1 9 0 3.9 2.5 7 7.7 8l9.9 1.9c12.9 2.5 19.8 10.9 19.8 20.9 0 10.9-9.1 21.9-25.6 21.9-18.8 0-27.1-12.1-28.2-22.2l12.8-3.4c.6 7 5.5 13.3 15.5 13.3 7.4 0 11.5-3.7 11.5-8.7 0-4.1-3.1-7.3-8.6-8.4l-9.9-2c-11.3-2.3-18.6-9.6-18.6-20.3 0-12.6 11.3-22.2 24.7-22.2 17.2 0 23.8 10.4 25.4 18.4zm26.5 73.4H884l11.6-25.6-20.9-43h14.9l13.1 28.8 12.1-28.8H929l-30.9 68.6zm34.1-33.1 11.4-2.5c.3 3.9 3.2 7.5 9 7.5 4.4 0 6.5-2.3 6.5-4.9 0-2.2-1.5-4-5.3-4.8l-6.5-1.5c-9.5-2.1-13.8-7.8-13.8-14.7 0-8.8 7.8-16.1 18.4-16.1 14 0 18.7 8.9 19.3 14.2L960.1 50c-.4-2.9-2.5-6.6-8.1-6.6-3.5 0-6.3 2.1-6.3 4.9 0 2.4 1.8 3.9 4.5 4.4l7 1.5c9.7 2 14.6 7.9 14.6 15.1 0 8-6.2 16.2-19.1 16.2-14.8 0-19.9-9.6-20.5-15.2zm66.7-50.2v14.7h9.9v11.8h-9.9v20.6c0 4.3 2 5.7 5.8 5.7 1.6 0 3.4-.2 4.1-.4v11c-1.2.5-3.6 1.2-7.5 1.2-9.6 0-15.6-5.7-15.6-15.2V46.6h-8.9V34.8h2.5c5.2 0 7.6-3.4 7.6-7.8v-6.9h12zm30.4 33.7h22c-.2-4.9-3.4-9.7-11-9.7-6.9 0-10.7 5.2-11 9.7zm23.3 12.8 11.1 3.3c-2.5 8.5-10.3 15.6-22.4 15.6-13.5 0-25.4-9.7-25.4-26.3 0-15.7 11.6-25.9 24.2-25.9 15.2 0 24.3 9.7 24.3 25.5 0 1.9-.2 3.9-.2 4.1H1029c.3 6.5 5.8 11.2 12.4 11.2 6.2 0 9.6-3.1 11.2-7.5zm35.6 17.4h-13.3V34.8h12.7v6c2.7-4.8 9-7.4 14.4-7.4 6.7 0 12.1 2.9 14.6 8.2 3.9-6 9.1-8.2 15.6-8.2 9.1 0 17.8 5.5 17.8 18.7V84h-12.9V54.8c0-5.3-2.6-9.3-8.7-9.3-5.7 0-9.1 4.4-9.1 9.7V84h-13.2V54.8c0-5.3-2.7-9.3-8.7-9.3-5.8 0-9.2 4.3-9.2 9.7V84zm71.1-13.7 11.4-2.5c.3 3.9 3.2 7.5 9 7.5 4.4 0 6.5-2.3 6.5-4.9 0-2.2-1.5-4-5.3-4.8l-6.5-1.5c-9.5-2.1-13.8-7.8-13.8-14.7 0-8.8 7.8-16.1 18.4-16.1 14 0 18.7 8.9 19.3 14.2l-11.1 2.5c-.4-2.9-2.5-6.6-8.1-6.6-3.5 0-6.3 2.1-6.3 4.9 0 2.4 1.8 3.9 4.5 4.4l7 1.5c9.7 2 14.6 7.9 14.6 15.1 0 8-6.2 16.2-19.1 16.2-14.8 0-19.9-9.6-20.5-15.2zM322.5 211l-7.3-7.7c-5.3 5.4-11.4 9-19 9-13.9 0-21.5-9.5-21.5-19 0-8.8 4.7-13.9 12.1-19.4l.5-.3-1.1-1.2c-3.4-3.6-7.8-9-7.8-15.4 0-11.9 10-18.5 19.6-18.5 11.3 0 19.7 7.3 19.7 17.9 0 7.2-4.9 12.4-10 16.2l-2.7 2 10.7 11.3 17.9-18.7v16.6l-9.9 10.4 16 16.8h-17.2zm-26.1-10.3c4.3 0 7.4-2.3 10.8-5.9L295.1 182l-1.5 1.1c-3.4 2.5-5.7 5.2-5.7 9.4 0 4.1 3.3 8.2 8.5 8.2zm-5.4-44.1c0 3 2.4 5.9 4.2 7.7l1.9 2.1 3.5-2.6c3.3-2.4 4.5-4.9 4.5-7.5 0-3.8-3-6.8-7.2-6.8-3.3 0-6.9 2.3-6.9 7.1zM413.9 211h-45.4v-70.9h13.8v57.7h31.6V211zm19.4-30.2h22c-.2-4.9-3.4-9.7-11-9.7-6.9 0-10.7 5.2-11 9.7zm23.3 12.8 11.1 3.3c-2.5 8.5-10.3 15.6-22.4 15.6-13.5 0-25.4-9.7-25.4-26.3 0-15.7 11.6-25.9 24.2-25.9 15.2 0 24.3 9.7 24.3 25.5 0 1.9-.2 3.9-.2 4.1H433c.3 6.5 5.8 11.2 12.4 11.2 6.2 0 9.6-3.1 11.2-7.5zm69.2-55v63.5c0 3.3.2 6.9.4 8.9h-12.7c-.2-1-.5-3.4-.5-5.7-2.2 3.9-7.2 6.9-13.8 6.9-14 0-24-11-24-25.9 0-14.4 9.7-25.7 23.6-25.7 8.5 0 12.5 3.5 13.9 6.1v-28.1h13.1zm-37.2 47.7c0 8.8 5.2 14 12.2 14 6.8 0 12.1-5.2 12.1-14.1 0-8.8-5.3-13.7-12.1-13.7s-12.2 5-12.2 13.8zm48.1 27.4 12-3.2c.9 5.4 5.2 9.3 11.5 9.3 8.4 0 13.1-4.2 13.1-13.7v-3.6c-2 3.2-6.6 6.3-13.7 6.3-13.1 0-22.9-10.1-22.9-23.9 0-13 9.4-24 22.9-24 7.8 0 12.3 3.4 14 6.7v-5.8h12.8v43.9c0 13.5-7.3 25.8-25.8 25.8-13.5 0-22.5-8.4-23.9-17.8zm25.2-16.3c6.8 0 11.6-4.9 11.6-12.5s-5.2-12.4-11.6-12.4c-6.6 0-11.8 4.8-11.8 12.4 0 7.7 4.9 12.5 11.8 12.5zm47.7-16.6h22c-.2-4.9-3.4-9.7-11-9.7-6.9 0-10.7 5.2-11 9.7zm23.3 12.8 11.1 3.3c-2.5 8.5-10.3 15.6-22.4 15.6-13.5 0-25.4-9.7-25.4-26.3 0-15.7 11.6-25.9 24.2-25.9 15.2 0 24.3 9.7 24.3 25.5 0 1.9-.2 3.9-.2 4.1h-35.2c.3 6.5 5.8 11.2 12.4 11.2 6.2 0 9.6-3.1 11.2-7.5zm52.3-32V175c-1.5-.3-2.8-.4-4-.4-6.8 0-12.7 3.3-12.7 13.9V211h-13.3v-49.2h12.9v7.3c3-6.5 9.8-7.7 14-7.7 1.1 0 2.1.1 3.1.2zm5.5 35.7 11.4-2.5c.3 3.9 3.2 7.5 9 7.5 4.4 0 6.5-2.3 6.5-4.9 0-2.2-1.5-4-5.3-4.8l-6.5-1.5c-9.5-2.1-13.8-7.8-13.8-14.7 0-8.8 7.8-16.1 18.4-16.1 14 0 18.7 8.9 19.3 14.2l-11.1 2.5c-.4-2.9-2.5-6.6-8.1-6.6-3.5 0-6.3 2.1-6.3 4.9 0 2.4 1.8 3.9 4.5 4.4l7 1.5c9.7 2 14.6 7.9 14.6 15.1 0 8-6.2 16.2-19.1 16.2-14.8 0-19.9-9.6-20.5-15.2zM812.1 211h-45.4v-70.9h13.8v57.7h31.6V211zm7.2-13.4c0-8.8 6.5-13.7 14.7-14.9l12.1-1.8c2.8-.4 3.7-1.8 3.7-3.5 0-3.5-2.7-6.4-8.3-6.4-5.8 0-9 3.7-9.4 8l-11.8-2.5c.8-7.7 7.9-16.2 21.1-16.2 15.6 0 21.4 8.8 21.4 18.7v24.2c0 2.6.3 6.1.6 7.8h-12.2c-.3-1.3-.5-4-.5-5.9-2.5 3.9-7.2 7.3-14.5 7.3-10.5 0-16.9-7.1-16.9-14.8zm19.7 4.9c5.6 0 10.8-2.7 10.8-11.4v-2.2l-11.1 1.7c-3.4.5-6.1 2.4-6.1 6.2 0 2.9 2.1 5.7 6.4 5.7zm50.1 8.5h-12.9v-72.4h13.1v28.6c2.2-3.5 7.6-6.7 14.9-6.7 14.4 0 22.7 11.1 22.7 25.7 0 14.9-9.2 26-23.2 26-6.8 0-12-3-14.6-7.2v6zm24.5-24.7c0-9-5.4-13.9-12.2-13.9-6.7 0-12.3 4.9-12.3 13.9 0 8.9 5.6 14 12.3 14 6.8 0 12.2-5 12.2-14z"/></svg>