<svg xmlns="http://www.w3.org/2000/svg" width="169.983" height="36.001" viewBox="0 0 44.975 9.525"><path style="fill:#000a00;fill-opacity:1;stroke-width:.26458332" d="M-489.488-193.872a.171.171 0 0 1-.126-.052.171.171 0 0 1-.052-.125v-4.823c0-.055.015-.1.044-.134a.18.18 0 0 1 .134-.052h3.215a.18.18 0 0 1 .133.052.18.18 0 0 1 .052.134v.518a.18.18 0 0 1-.052.134.198.198 0 0 1-.133.044h-2.378v1.408h2.23a.18.18 0 0 1 .133.052.18.18 0 0 1 .052.133v.519a.18.18 0 0 1-.052.133.198.198 0 0 1-.133.044h-2.23v1.838a.18.18 0 0 1-.052.133.198.198 0 0 1-.133.044zM-485.12-193.872a.171.171 0 0 1-.126-.052.171.171 0 0 1-.052-.125v-4.905c0-.054.017-.096.052-.126a.171.171 0 0 1 .126-.052h.615c.054 0 .096.018.126.052.034.03.051.072.051.126v4.905c0 .049-.017.09-.051.125a.157.157 0 0 1-.126.052zM-482.226-193.798c-.252 0-.484-.049-.697-.148a1.324 1.324 0 0 1-.496-.415.987.987 0 0 1-.178-.57c0-.336.136-.607.408-.815.271-.207.644-.348 1.118-.422l1.015-.148v-.156c0-.217-.054-.38-.163-.489-.108-.109-.284-.163-.526-.163a.75.75 0 0 0-.4.096c-.099.06-.178.119-.237.178l-.118.126c-.02.06-.057.09-.111.09h-.57a.177.177 0 0 1-.12-.045.16.16 0 0 1-.044-.119c.005-.123.064-.264.178-.422.119-.158.299-.294.54-.408.243-.113.54-.17.89-.17.583 0 1.007.13 1.274.393.267.261.4.605.4 1.03v2.326c0 .049-.017.09-.052.125a.157.157 0 0 1-.126.052h-.6a.171.171 0 0 1-.126-.052.172.172 0 0 1-.052-.125v-.29a1.232 1.232 0 0 1-.466.393c-.198.099-.445.148-.741.148zm.252-.703a.89.89 0 0 0 .666-.267c.173-.178.26-.437.26-.778v-.155l-.741.118c-.287.045-.504.116-.652.215-.143.099-.215.22-.215.363 0 .158.067.281.2.37a.848.848 0 0 0 .482.134zM-477.408-193.872c-.45 0-.788-.116-1.015-.348-.222-.237-.333-.583-.333-1.037v-1.682h-.585a.171.171 0 0 1-.126-.052.198.198 0 0 1-.052-.133v-.422c0-.05.017-.092.052-.126a.171.171 0 0 1 .126-.052h.585v-1.23c0-.054.017-.096.052-.126a.172.172 0 0 1 .126-.052h.6c.054 0 .096.018.126.052.034.03.052.072.052.126v1.23h.926c.054 0 .096.017.126.052.034.03.052.071.052.126v.422a.18.18 0 0 1-.052.133.171.171 0 0 1-.126.052h-.926v1.608c0 .212.037.373.11.481.075.11.198.163.371.163h.511c.05 0 .092.018.126.052a.172.172 0 0 1 .052.126v.46c0 .049-.017.091-.052.126a.157.157 0 0 1-.126.051zM-475.706-193.872a.171.171 0 0 1-.126-.052.17.17 0 0 1-.052-.125v-4.823c0-.055.015-.1.045-.134a.18.18 0 0 1 .133-.052h3.215a.18.18 0 0 1 .133.052.18.18 0 0 1 .052.134v.518a.18.18 0 0 1-.052.134.198.198 0 0 1-.133.044h-2.378v1.408h2.23a.18.18 0 0 1 .133.052.18.18 0 0 1 .052.133v.519a.18.18 0 0 1-.052.133.198.198 0 0 1-.133.044h-2.23v1.838a.18.18 0 0 1-.052.133.198.198 0 0 1-.133.044zM-469.936-193.798c-.548 0-.986-.158-1.311-.474-.321-.32-.492-.77-.512-1.348l-.007-.185.007-.185c.025-.563.198-1.005.519-1.327.326-.32.76-.481 1.304-.481.583 0 1.032.178 1.348.533.321.356.482.83.482 1.423v.155a.17.17 0 0 1-.052.126.18.18 0 0 1-.134.052h-2.46v.06c.01.271.085.5.223.688a.704.704 0 0 0 .585.275.85.85 0 0 0 .704-.341.494.494 0 0 1 .104-.104.288.288 0 0 1 .126-.022h.637a.15.15 0 0 1 .111.044.113.113 0 0 1 .052.097c0 .118-.072.259-.215.422a1.737 1.737 0 0 1-.6.415 2.189 2.189 0 0 1-.911.177zm.822-2.333v-.022c0-.292-.074-.526-.222-.704-.143-.178-.343-.267-.6-.267-.257 0-.457.089-.6.267-.143.178-.215.412-.215.704v.022zM-465.66-193.798c-.549 0-.986-.158-1.312-.474-.32-.32-.491-.77-.511-1.348l-.007-.185.007-.185c.025-.563.198-1.005.519-1.327.326-.32.76-.481 1.303-.481.583 0 1.033.178 1.349.533.32.356.481.83.481 1.423v.155a.17.17 0 0 1-.052.126.18.18 0 0 1-.133.052h-2.46v.06c.01.271.084.5.223.688a.704.704 0 0 0 .585.275.85.85 0 0 0 .704-.341.496.496 0 0 1 .104-.104.288.288 0 0 1 .125-.022h.638a.15.15 0 0 1 .11.044.113.113 0 0 1 .053.097c0 .118-.072.259-.215.422a1.737 1.737 0 0 1-.6.415 2.189 2.189 0 0 1-.912.177zm.822-2.333v-.022c0-.292-.074-.526-.222-.704-.144-.178-.344-.267-.6-.267-.257 0-.457.089-.6.267-.144.178-.215.412-.215.704v.022zM-461.281-193.798a2.53 2.53 0 0 1-1.008-.185 1.658 1.658 0 0 1-.652-.496 1.172 1.172 0 0 1-.237-.652c0-.04.015-.074.045-.104a.15.15 0 0 1 .11-.044h.149c.089 0 .143.05.163.148.035.237.17.444.407.622.238.178.578.267 1.023.267.47 0 .817-.084 1.044-.252a.845.845 0 0 0 .349-.719.636.636 0 0 0-.17-.459 1.296 1.296 0 0 0-.482-.318c-.213-.094-.534-.21-.963-.349a5.451 5.451 0 0 1-.897-.363 1.24 1.24 0 0 1-.474-.437c-.104-.173-.156-.392-.156-.66 0-.251.067-.478.2-.68.139-.203.336-.361.593-.475.257-.118.563-.178.919-.178.365 0 .679.067.94.2.263.129.46.294.593.497.134.197.205.397.215.6 0 .04-.015.074-.044.104-.025.03-.062.044-.111.044h-.149a.21.21 0 0 1-.103-.03c-.035-.024-.054-.064-.06-.118-.03-.247-.163-.45-.4-.608-.232-.163-.526-.244-.881-.244-.38 0-.684.074-.911.222-.223.148-.334.37-.334.667 0 .193.05.353.148.481.104.124.257.233.46.326.202.09.501.198.896.326.405.129.721.252.948.37.228.12.398.263.511.43.119.168.178.386.178.652 0 .445-.165.793-.496 1.045-.33.247-.785.37-1.363.37zM-457.151-193.872c-.366 0-.625-.108-.778-.326-.153-.222-.23-.526-.23-.91v-2.186h-.578a.16.16 0 0 1-.118-.045.16.16 0 0 1-.045-.118v-.104a.16.16 0 0 1 .045-.118.16.16 0 0 1 .118-.045h.578v-1.245a.16.16 0 0 1 .045-.118.16.16 0 0 1 .118-.045h.126a.16.16 0 0 1 .119.045c.03.03.044.069.044.118v1.245h.919a.16.16 0 0 1 .118.045c.03.03.045.069.045.118v.104a.16.16 0 0 1-.045.118.16.16 0 0 1-.118.045h-.919v2.156c0 .276.044.486.133.63.094.138.247.207.46.207h.4a.16.16 0 0 1 .118.044c.03.03.045.07.045.119v.103a.16.16 0 0 1-.045.119.16.16 0 0 1-.118.044zM-454.748-193.798c-.237 0-.457-.049-.66-.148a1.303 1.303 0 0 1-.488-.4.942.942 0 0 1-.178-.555c0-.326.13-.593.392-.8.267-.208.625-.341 1.075-.4l1.17-.164v-.259c0-.271-.084-.479-.252-.622-.163-.148-.415-.222-.755-.222-.252 0-.46.049-.623.148a.668.668 0 0 0-.303.355.274.274 0 0 1-.074.126.162.162 0 0 1-.104.03h-.104a.177.177 0 0 1-.118-.045.177.177 0 0 1-.045-.118c0-.109.05-.235.148-.378.099-.148.252-.276.46-.385.207-.109.461-.163.763-.163.528 0 .904.126 1.126.378.222.252.333.558.333.918v2.467a.16.16 0 0 1-.044.119.16.16 0 0 1-.119.044h-.126a.16.16 0 0 1-.118-.044.16.16 0 0 1-.045-.119v-.348c-.108.163-.269.301-.481.415-.208.114-.484.17-.83.17zm.074-.43c.36 0 .657-.118.889-.355.232-.237.348-.578.348-1.022v-.252l-.955.133c-.406.055-.712.148-.92.282-.207.133-.31.301-.31.504 0 .227.093.402.281.526.193.123.415.185.667.185zM-450.354-193.798c-.514 0-.911-.148-1.193-.444-.281-.301-.43-.721-.444-1.26l-.007-.296.007-.296c.015-.538.163-.956.444-1.252.282-.301.68-.452 1.193-.452.326 0 .603.06.83.178.232.113.405.262.518.444.114.178.176.363.186.556a.14.14 0 0 1-.045.118.177.177 0 0 1-.118.045h-.104c-.05 0-.086-.01-.111-.03a.553.553 0 0 1-.067-.126c-.099-.271-.237-.464-.415-.578-.177-.118-.402-.177-.674-.177-.355 0-.64.108-.852.326-.207.212-.318.54-.333.985l-.007.26.007.258c.015.445.126.776.333.993.212.213.497.319.852.319.272 0 .497-.057.674-.17.178-.12.316-.314.415-.586a.39.39 0 0 1 .067-.118c.024-.025.062-.037.111-.037h.104c.044 0 .084.017.118.051.035.03.05.067.045.112-.01.192-.072.38-.186.563a1.294 1.294 0 0 1-.518.444c-.227.114-.504.17-.83.17zM-447.671-193.872a.16.16 0 0 1-.119-.044.16.16 0 0 1-.044-.119v-4.934a.16.16 0 0 1 .044-.118.16.16 0 0 1 .119-.044h.126a.16.16 0 0 1 .118.044c.03.03.045.07.045.118v2.623l1.652-1.252a.769.769 0 0 1 .163-.104.357.357 0 0 1 .148-.022h.14c.045 0 .08.015.104.045.03.024.045.059.045.103 0 .055-.032.104-.097.149l-1.874 1.422 2.06 1.837c.064.06.096.109.096.148a.15.15 0 0 1-.044.111.14.14 0 0 1-.104.037h-.119a.652.652 0 0 1-.163-.014.625.625 0 0 1-.148-.111l-1.86-1.653v1.615a.16.16 0 0 1-.044.119.16.16 0 0 1-.118.044z" transform="translate(489.666 199.132)"/><path style="fill:#b3b3b3;stroke-width:.26458332" d="M-451-189.638a.079.079 0 0 1-.055-.02.08.08 0 0 1-.019-.053v-2.074c0-.023.006-.04.02-.054a.074.074 0 0 1 .053-.022h.87c.227 0 .397.054.511.162.115.108.172.25.172.426a.501.501 0 0 1-.273.466.58.58 0 0 1 .225.207.647.647 0 0 1 .01.645.572.572 0 0 1-.238.231.79.79 0 0 1-.381.086zm.822-1.283c.133 0 .234-.03.304-.092a.32.32 0 0 0 .108-.257c0-.108-.035-.19-.104-.248-.07-.057-.173-.086-.308-.086h-.585v.683zm.031 1.026a.428.428 0 0 0 .311-.108.363.363 0 0 0 .115-.277.36.36 0 0 0-.115-.279.428.428 0 0 0-.31-.108h-.617v.772zM-448.334-189.607a.702.702 0 0 1-.524-.2c-.129-.135-.2-.32-.212-.552l-.003-.108.003-.105c.014-.228.086-.41.216-.546a.688.688 0 0 1 .517-.203c.235 0 .417.075.546.225.13.149.194.35.194.604v.054c0 .02-.007.039-.022.054a.069.069 0 0 1-.051.019h-1.099v.028a.599.599 0 0 0 .124.353.38.38 0 0 0 .308.143.446.446 0 0 0 .378-.181.169.169 0 0 1 .041-.045.115.115 0 0 1 .054-.01h.156a.07.07 0 0 1 .047.016c.013.01.02.026.02.045 0 .046-.03.102-.09.168a.715.715 0 0 1-.244.171.867.867 0 0 1-.359.07zm.435-.977v-.01a.517.517 0 0 0-.12-.356.393.393 0 0 0-.318-.14.393.393 0 0 0-.317.14.535.535 0 0 0-.115.356v.01zM-446.582-189.638c-.335 0-.502-.187-.502-.56v-.837h-.248a.078.078 0 0 1-.054-.02.08.08 0 0 1-.019-.053v-.108c0-.022.006-.038.02-.051a.074.074 0 0 1 .053-.022h.248v-.53c0-.022.006-.039.019-.051a.074.074 0 0 1 .054-.023h.15c.02 0 .037.007.05.023.015.012.022.03.022.05v.53h.394c.021 0 .038.008.05.023.015.013.023.03.023.05v.109c0 .02-.007.039-.022.054a.069.069 0 0 1-.051.019h-.394v.816c0 .106.018.186.054.241.036.053.095.08.178.08h.194c.02 0 .038.006.05.022.015.012.023.03.023.05v.115c0 .02-.007.039-.023.054a.069.069 0 0 1-.05.019zM-445.526-189.607a.664.664 0 0 1-.29-.063.553.553 0 0 1-.212-.171.423.423 0 0 1-.076-.245c0-.14.057-.254.171-.343a.969.969 0 0 1 .47-.178l.473-.066v-.092c0-.216-.124-.324-.371-.324a.4.4 0 0 0-.362.197.084.084 0 0 1-.026.04c-.008.009-.02.014-.038.014h-.136a.074.074 0 0 1-.051-.02.076.076 0 0 1-.019-.05.334.334 0 0 1 .07-.172.55.55 0 0 1 .213-.168.769.769 0 0 1 .352-.073c.237 0 .407.056.511.168.104.11.156.248.156.413v1.029c0 .021-.007.039-.022.054a.069.069 0 0 1-.051.019h-.146a.079.079 0 0 1-.054-.02.08.08 0 0 1-.02-.053v-.137a.55.55 0 0 1-.203.172.729.729 0 0 1-.34.07zm.066-.238a.45.45 0 0 0 .337-.133c.089-.091.133-.221.133-.39v-.09l-.368.055a.833.833 0 0 0-.34.108c-.076.048-.114.11-.114.187 0 .085.035.15.105.197.07.044.152.066.247.066z" transform="translate(489.666 199.132)"/></svg>