<svg width="2cm" height="2cm" viewBox="0 0 75.591 75.591" xmlns="http://www.w3.org/2000/svg"><path d="m12 55.205-5.331-5.331a2.121 2.121 0 0 1-.226-2.733v0a2.122 2.122 0 0 1 3.226-.267l7.817 7.817A8.583 8.583 0 0 1 20 60.761v11.444h-9v-3.382a7.7 7.7 0 0 0-1.6-4.693l-5.872-7.633A12.212 12.212 0 0 1 1 49.051V34.705a2.5 2.5 0 0 1 2.5-2.5v0a2.5 2.5 0 0 1 2.5 2.5v13.5" style="fill:none;stroke:#001;stroke-width:2;stroke-linecap:round;stroke-linejoin:round;stroke-miterlimit:4;stroke-dasharray:none;stroke-opacity:1" transform="translate(.407 1.193)"/><path d="m62.777 55.205 5.33-5.331a2.121 2.121 0 0 0 .227-2.733v0a2.122 2.122 0 0 0-3.226-.267l-7.817 7.817a8.583 8.583 0 0 0-2.514 6.07v11.444h9v-3.382a7.7 7.7 0 0 1 1.6-4.693l5.872-7.633a12.212 12.212 0 0 0 2.528-7.446V34.705a2.5 2.5 0 0 0-2.5-2.5v0a2.5 2.5 0 0 0-2.5 2.5v13.5" style="fill:none;stroke:#000;stroke-width:2;stroke-linecap:round;stroke-linejoin:round;stroke-miterlimit:4;stroke-dasharray:none;stroke-opacity:1" transform="translate(.407 1.193)"/><path style="fill:none;stroke:#000;stroke-width:2;stroke-miterlimit:4;stroke-dasharray:none;stroke-opacity:1" d="M63.503 27.737c0 14.767-11.879 26.738-26.532 26.738S10.439 42.504 10.439 27.737C10.439 12.971 22.318 1 36.971 1s26.532 11.97 26.532 26.737Z" transform="translate(.407 1.193)"/><path style="fill:none;fill-opacity:1;stroke:#000;stroke-width:1.5;stroke-miterlimit:4;stroke-dasharray:none;stroke-opacity:1" d="M47.878 31.45c.421 0 .706.432.545.824L41.544 48.91a.59.59 0 0 1-.544.366h-6.584a.59.59 0 0 1-.544-.366l-4.998-15.974c-.091-.221-1.762 0-2 0h-4.327a.588.588 0 0 1-.49-.264L19.5 28.81a.598.598 0 0 1 0-.66l5.503-8.318a.588.588 0 0 1 .49-.264h9.639c.223 0 .427.127.527.328l1.148 2.314c.1.201.304.328.527.328h4.616a.59.59 0 0 1 .56.406l2.678 8.1a.59.59 0 0 0 .56.407h2.129zm-5.531-13.368h1.404c.326 0 .59-.266.59-.594v-1.782a.592.592 0 0 0-.59-.595h-.52a.589.589 0 0 0-.527.329l-.885 1.782a.594.594 0 0 0 .528.86zM31.015 8.427h1.607a.59.59 0 0 0 .53-.335l1.933-4.01a.594.594 0 0 0-.53-.854h-.811a.588.588 0 0 0-.486.258l-2.73 4.01a.594.594 0 0 0 .487.931zM44.67 2.319l-7.56 3.81a.59.59 0 0 0-.227.201l-2.686 4.06a.588.588 0 0 1-.49.265H31.5a.59.59 0 0 0-.56.406l-1.138 3.441a.595.595 0 0 0 .417.765l4.954 1.248c.201.05.414-.009.56-.156l2.43-4.219c.11-.111 1.844 0 2 0h1.134c.064 0 .127.01.187.03l4.024 1.353a.592.592 0 0 1 .385.42l1.284 5.174a.59.59 0 0 0 .572.45h2.043a.59.59 0 0 0 .567-.43l1.44-5.08a.59.59 0 0 1 .567-.431h.1a.59.59 0 0 1 .57.438l2.978 11.007a.59.59 0 0 0 .57.438h2.047a.59.59 0 0 0 .568-.438l2.088-7.713a.6.6 0 0 0-.029-.397c-3.035-6.937-8.91-12.329-16.142-14.677a.588.588 0 0 0-.445.035Zm-5.198 15.763H37.56a.592.592 0 0 0-.59.594v.261c0 .28.195.524.468.581l1.766.375a.59.59 0 0 0 .696-.447l.146-.636a.593.593 0 0 0-.574-.728z" transform="translate(.407 1.193)"/></svg>