<svg width="2cm" height="2cm" viewBox="0 0 75.591 75.591" xmlns="http://www.w3.org/2000/svg"><path style="fill:#819692;stroke-width:.157279" d="M63.91 28.93c0 14.767-11.879 26.738-26.532 26.738S10.846 43.697 10.846 28.93c0-14.766 11.879-26.737 26.532-26.737S63.91 14.163 63.91 28.93z"/><path style="fill:#8aa6a1;stroke-width:.157279" d="M59.813 25.946c0 11.805-9.496 21.375-21.21 21.375-11.715 0-21.212-9.57-21.212-21.375 0-11.806 9.497-21.376 21.211-21.376 11.715 0 21.211 9.57 21.211 21.376z"/><path d="m12.407 56.398-5.331-5.331a2.121 2.121 0 0 1-.226-2.733v0a2.122 2.122 0 0 1 3.226-.267l7.817 7.817a8.583 8.583 0 0 1 2.514 6.07v11.444h-9v-3.382a7.7 7.7 0 0 0-1.6-4.693L3.935 57.69a12.212 12.212 0 0 1-2.528-7.446V35.898a2.5 2.5 0 0 1 2.5-2.5v0a2.5 2.5 0 0 1 2.5 2.5v13.5M63.184 56.398l5.33-5.331a2.121 2.121 0 0 0 .227-2.733v0a2.122 2.122 0 0 0-3.226-.267l-7.817 7.817a8.583 8.583 0 0 0-2.514 6.07v11.444h9v-3.382a7.7 7.7 0 0 1 1.6-4.693l5.872-7.633a12.212 12.212 0 0 0 2.528-7.446V35.898a2.5 2.5 0 0 0-2.5-2.5v0a2.5 2.5 0 0 0-2.5 2.5v13.5" style="fill:#ffe8dc;stroke:#4c241d;stroke-width:2;stroke-linecap:round;stroke-linejoin:round;stroke-miterlimit:4;stroke-dasharray:none;stroke-opacity:1;fill-opacity:1"/><path style="fill:none;stroke:#000;stroke-width:2;stroke-miterlimit:4;stroke-dasharray:none;stroke-opacity:1" d="M63.91 28.93c0 14.767-11.879 26.738-26.532 26.738S10.846 43.697 10.846 28.93c0-14.766 11.879-26.737 26.532-26.737S63.91 14.163 63.91 28.93z"/><path style="fill:#9c5c2b;fill-opacity:1;stroke:#000;stroke-width:1.51181095;stroke-miterlimit:4;stroke-dasharray:none;stroke-opacity:1;stroke-linecap:round;stroke-linejoin:round" d="M48.285 32.644c.421 0 .706.431.544.822l-6.878 16.637a.59.59 0 0 1-.544.366h-6.584a.59.59 0 0 1-.544-.366L29.28 34.129c-.091-.221-1.762 0-2 0h-4.327a.588.588 0 0 1-.49-.264l-2.556-3.863a.598.598 0 0 1 0-.659l5.503-8.318a.588.588 0 0 1 .49-.265h9.639c.223 0 .427.127.527.329l1.148 2.314c.1.2.304.328.527.328h4.616a.59.59 0 0 1 .559.406l2.68 8.1a.59.59 0 0 0 .559.406h2.129zm-5.531-13.369h1.404c.326 0 .59-.266.59-.594v-1.783a.592.592 0 0 0-.59-.594h-.52a.589.589 0 0 0-.527.329l-.885 1.782a.594.594 0 0 0 .528.86zM31.422 9.62h1.607a.59.59 0 0 0 .53-.335l1.933-4.01a.594.594 0 0 0-.53-.854h-.811a.588.588 0 0 0-.487.258l-2.728 4.01a.594.594 0 0 0 .486.93zm13.656-6.108-7.56 3.809a.59.59 0 0 0-.227.202l-2.686 4.06a.588.588 0 0 1-.49.265h-2.208a.59.59 0 0 0-.56.406l-1.138 3.441a.595.595 0 0 0 .417.765l4.954 1.248c.201.05.414-.009.56-.157l2.43-4.218c.11-.111 1.844 0 2 0h1.134c.064 0 .127.01.187.03l4.024 1.352a.592.592 0 0 1 .385.42l1.284 5.175a.59.59 0 0 0 .572.45H50.2a.59.59 0 0 0 .567-.43l1.44-5.08a.59.59 0 0 1 .567-.431h.1a.59.59 0 0 1 .57.438l2.978 11.007a.59.59 0 0 0 .57.438h2.046a.59.59 0 0 0 .57-.438l2.087-7.713a.6.6 0 0 0-.029-.397c-3.035-6.937-8.91-12.329-16.142-14.677a.588.588 0 0 0-.445.035ZM39.88 19.275h-1.913a.592.592 0 0 0-.59.594v.26c0 .282.196.524.469.582l1.766.375a.59.59 0 0 0 .696-.448l.146-.635a.593.593 0 0 0-.574-.728z"/><path style="fill:#a2713e;stroke-width:.157279" d="M46.919 35.814c-1.014 2.452-2.11 3.543-4.746 3.543a6.53 6.53 0 0 1-6.028-4.05l-1.603-3.878a.59.59 0 0 0-.545-.365h-4.555a.263.263 0 0 1-.263-.265 7.606 7.606 0 0 1 0-8.383l.617-.933h5.577c.224 0 .428.127.528.328l1.148 2.314c.1.201.304.328.527.328h4.616a.59.59 0 0 1 .559.407l2.68 8.1a.59.59 0 0 0 .558.406h.067l1.871.014c-.452 1.564-.397 1.367-1.008 2.434zm7.19-26.77a27.05 27.05 0 0 0-.43-.352 26.567 26.567 0 0 0-1.23-.924c-.077-.055-.153-.112-.232-.167h-.002A26.32 26.32 0 0 0 45.357 4.2a.587.587 0 0 0-.445.035l-3.473 1.984.973 2.327a6.53 6.53 0 0 0 6.028 4.05c.757 0 1.493-.132 2.18-.378l4.938 1.244c.201.05.414-.009.56-.156l1.147-1.156a26.808 26.808 0 0 0-3.155-3.105Z"/></svg>