<svg data-name="Gruppe 1240" xmlns="http://www.w3.org/2000/svg" width="190" height="62"><g data-name="Gruppe 1237" fill="#191919"><path data-name="Pfad 706" d="M75.526 18.435a8.754 8.754 0 1 0 8.755 8.634 8.6 8.6 0 0 0-8.755-8.634Zm0 14.9a5.97 5.97 0 0 1-5.78-6.262 5.785 5.785 0 1 1 11.56 0 5.971 5.971 0 0 1-5.78 6.258Z"/><path data-name="Pfad 707" d="M93.857 25.967c-1.735-.718-3.234-1.339-3.234-2.719 0-1.241 1.165-2.178 2.709-2.178a6.286 6.286 0 0 1 3.761 1.432l1.24-2.327a7.385 7.385 0 0 0-4.977-1.74c-3.213 0-5.635 2.09-5.635 4.86 0 2.911 2.544 4.008 4.789 4.975 1.777.766 3.313 1.427 3.313 2.835 0 1.521-1.311 2.2-2.611 2.2a6.858 6.858 0 0 1-4.263-1.746l-1.555 2.153a8.344 8.344 0 0 0 5.768 2.236c3.261 0 5.538-2.018 5.538-4.908 0-3.07-2.572-4.135-4.843-5.073Z"/><path data-name="Pfad 708" d="M112.949 18.725h-10.98v2.369h4.136v14.559h2.685V21.094h4.16Z"/></g><g data-name="Gruppe 1238"><path data-name="Pfad 709" d="M46.891 8.119a27.426 27.426 0 1 0-.072 38.692c4.967-4.966 13.63-11.823 13.63-19.385-.005-7.523-8.637-14.347-13.558-19.307ZM45.51 42.99a21.876 21.876 0 0 1-15.508 6.429c-.68 0-1.35-.035-2.014-.1a23.939 23.939 0 0 1-1.009-.116 22.252 22.252 0 0 1-3.021.213 21.941 21.941 0 1 1 0-43.882 21.916 21.916 0 0 1 3.017.213 22.396 22.396 0 0 1 3.022-.217 21.874 21.874 0 0 1 15.57 6.5c3.942 3.974 10.852 9.434 10.852 15.452 0 6.05-6.935 11.537-10.909 15.508Z" fill="#191919"/><path data-name="Pfad 710" d="M8.06 27.482A21.915 21.915 0 0 1 26.98 5.754c-13.489.324-22.949 9.964-22.949 21.728S15.372 49.529 26.98 49.21A21.971 21.971 0 0 1 8.06 27.482Z" fill="#d72864"/><path data-name="Pfad 711" d="M41.483 42.992c-4.047 4.047-9.255 5.74-14.5 6.22.335.047.669.087 1.009.117.664.061 1.334.1 2.014.1a21.876 21.876 0 0 0 15.505-6.437c3.974-3.974 10.9-9.458 10.9-15.508 0-6.018-6.905-11.477-10.843-15.445a21.874 21.874 0 0 0-15.57-6.5c-.68 0-1.351.035-2.016.1-.338.031-.673.071-1.006.117 5.278.483 11.03 2.721 14.563 6.282 3.938 3.968 10.843 9.427 10.843 15.445.004 6.049-6.926 11.533-10.899 15.509Z" fill="#8c195f"/><path data-name="Pfad 712" d="M4.031 27.482c0-11.76 9.455-21.4 22.949-21.728a21.963 21.963 0 0 0-3.017-.213 21.941 21.941 0 1 0 0 43.882 23.39 23.39 0 0 0 3.021-.214c-11.595.32-22.953-9.967-22.953-21.727Z" fill="#8c195f"/><path data-name="Pfad 713" d="M39.467 42.99a21.9 21.9 0 0 1-12.487 6.22c5.248-.479 10.456-2.173 14.5-6.22 3.973-3.974 10.9-9.458 10.9-15.508 0-6.018-6.905-11.477-10.843-15.445-3.534-3.562-9.286-5.8-14.563-6.282a21.9 21.9 0 0 1 12.548 6.282c3.937 3.968 10.843 9.427 10.843 15.445.006 6.05-6.925 11.536-10.898 15.508Z" fill="#d72864"/></g><g data-name="Gruppe 1239" fill="#191919"><path data-name="Pfad 714" d="M68.917 48.969h3.2v.528h-3.809v-6.59h3.721v.527h-3.112v2.45h2.912v.536h-2.912Z"/><path data-name="Pfad 715" d="M76.584 48.751c0 .255.046.364.282.364a.956.956 0 0 0 .282-.055l.035.392a1.155 1.155 0 0 1-.554.127.55.55 0 0 1-.6-.583 2.117 2.117 0 0 1-1.547.609 1.2 1.2 0 0 1-1.376-1.254c0-1.319 1.2-1.565 2.259-1.565.263 0 .428.009.609.017v-.463c0-.71-.2-1.093-1.011-1.093-.737 0-.992.291-1.092.839l-.574-.1c.146-.865.71-1.229 1.7-1.229 1.11 0 1.583.436 1.583 1.592Zm-.6-1.456a4.331 4.331 0 0 0-.574-.027c-.637 0-1.667.046-1.667.991 0 .455.165.856.883.856a1.9 1.9 0 0 0 1.357-.637Z"/><path data-name="Pfad 716" d="m81.291 46.157-.6.073c-.109-.61-.283-.955-1.046-.955-.811 0-1 .354-1 .756 0 .545.409.673 1.11.846.855.208 1.62.392 1.62 1.4 0 .8-.6 1.328-1.72 1.328-1.019 0-1.665-.39-1.8-1.41l.583-.1a1.079 1.079 0 0 0 1.247.982c.61 0 1.073-.181 1.073-.773 0-.546-.381-.655-1.055-.829-.773-.2-1.684-.318-1.684-1.383 0-.9.774-1.337 1.647-1.337a1.423 1.423 0 0 1 1.625 1.402Z"/><path data-name="Pfad 717" d="M84.944 49.314a2.151 2.151 0 0 1-1.055.291c-.828 0-1.239-.372-1.239-1.245v-3h-.727v-.51h.727v-1.341l.61-.091v1.429h1.3v.51h-1.3v2.921c0 .528.109.829.718.829a1.848 1.848 0 0 0 .83-.237Z"/><path data-name="Pfad 718" d="M85.464 47.177c0-1.7.984-2.421 2.157-2.421 1.275 0 1.794.864 1.794 1.975a6.255 6.255 0 0 1-.046.565h-3.261c.036 1.392.683 1.765 1.492 1.765a1.034 1.034 0 0 0 1.175-.883l.573.109a1.674 1.674 0 0 1-1.793 1.319c-1.617 0-2.091-1.146-2.091-2.429Zm3.314-.375c.018-.954-.347-1.52-1.21-1.52a1.415 1.415 0 0 0-1.448 1.52Z"/><path data-name="Pfad 719" d="M93.04 45.392a2.126 2.126 0 0 0-1.676.537v3.569h-.613v-4.651h.5l.055.647a1.722 1.722 0 0 1 1.583-.738h.146Z"/><path data-name="Pfad 720" d="M97.693 49.498h-.61v-3.077c0-.71-.246-1.129-.965-1.129a2.658 2.658 0 0 0-1.547.665v3.541h-.61v-4.651h.536l.038.582a2.985 2.985 0 0 1 1.747-.673c.992 0 1.41.555 1.41 1.6Z"/><path data-name="Pfad 721" d="M101.801 44.51c0 1.9 3.642.873 3.642 3.232 0 1.347-1.066 1.865-2.248 1.865a2.027 2.027 0 0 1-2.339-1.828l.61-.091a1.569 1.569 0 0 0 1.729 1.391c.755 0 1.6-.263 1.6-1.254 0-2-3.641-.8-3.641-3.286 0-1.064.9-1.747 2.148-1.747a1.868 1.868 0 0 1 2.1 1.829l-.582.073c-.127-.637-.382-1.356-1.492-1.356-1.135-.002-1.527.517-1.527 1.172Z"/><path data-name="Pfad 722" d="m107.506 49.498-1.5-4.655h.627l1.237 4.032 1.1-4.032h.665l1.083 4.014 1.228-4.014h.583l-1.465 4.651h-.737l-1.047-3.969-1.055 3.969Z"/><path data-name="Pfad 723" d="M113.768 43.717a.482.482 0 1 1 .493-.481.443.443 0 0 1-.493.481Zm.291 5.78h-.609v-4.651h.609Z"/><path data-name="Pfad 724" d="M118.055 49.314a2.151 2.151 0 0 1-1.055.291c-.829 0-1.239-.372-1.239-1.245v-3h-.729v-.51h.729v-1.341l.61-.091v1.429h1.3v.51h-1.3v2.921c0 .528.109.829.719.829a1.847 1.847 0 0 0 .829-.237Z"/><path data-name="Pfad 725" d="M119.169 48.988h2.9v.51h-3.61v-.428l2.8-3.713h-2.758v-.514h3.478v.436Z"/><path data-name="Pfad 726" d="M122.683 47.177c0-1.7.984-2.421 2.158-2.421 1.274 0 1.793.864 1.793 1.975a6.255 6.255 0 0 1-.046.565h-3.256c.035 1.392.682 1.765 1.491 1.765a1.033 1.033 0 0 0 1.175-.883l.573.109a1.674 1.674 0 0 1-1.793 1.319c-1.621 0-2.095-1.146-2.095-2.429Zm3.314-.375c.018-.954-.346-1.52-1.21-1.52a1.415 1.415 0 0 0-1.448 1.52Z"/><path data-name="Pfad 727" d="M130.26 45.392a2.125 2.125 0 0 0-1.675.537v3.569h-.609v-4.651h.5l.055.647a1.724 1.724 0 0 1 1.585-.738h.145Z"/><path data-name="Pfad 728" d="M131.789 49.498h-.609v-6.872h.609Z"/><path data-name="Pfad 729" d="M136.589 48.751c0 .255.046.364.282.364a.956.956 0 0 0 .282-.055l.035.392a1.155 1.155 0 0 1-.554.127.55.55 0 0 1-.6-.583 2.117 2.117 0 0 1-1.547.609 1.2 1.2 0 0 1-1.375-1.256c0-1.319 1.2-1.565 2.259-1.565.263 0 .428.009.609.017v-.463c0-.71-.2-1.093-1.011-1.093-.737 0-.992.291-1.092.839l-.574-.1c.146-.865.71-1.229 1.7-1.229 1.111 0 1.585.436 1.585 1.592Zm-.6-1.456a4.331 4.331 0 0 0-.574-.027c-.637 0-1.667.046-1.667.991 0 .455.164.856.883.856a1.9 1.9 0 0 0 1.357-.637Z"/><path data-name="Pfad 730" d="M141.99 49.498h-.61v-3.077c0-.71-.246-1.129-.965-1.129a2.658 2.658 0 0 0-1.547.665v3.541h-.609v-4.651h.537l.036.582a2.988 2.988 0 0 1 1.747-.673c.992 0 1.41.555 1.41 1.6Z"/><path data-name="Pfad 731" d="M147.17 49.498h-.518l-.056-.519a2.381 2.381 0 0 1-1.6.627c-1.047 0-1.758-.673-1.758-2.376 0-1.81.911-2.475 1.966-2.475a2.284 2.284 0 0 1 1.357.436v-2.565h.609Zm-.609-3.742a2.347 2.347 0 0 0-1.357-.481c-.993 0-1.347.773-1.347 1.984 0 1.274.392 1.847 1.283 1.847a2.064 2.064 0 0 0 1.421-.692Z"/><path data-name="Pfad 732" d="M72.348 57.803V53.38h.61v4.451c0 1.511-.855 2.248-2.394 2.248-1.638 0-2.3-.8-2.3-2.257V53.38h.609v4.405a1.529 1.529 0 0 0 1.744 1.758c1.111 0 1.731-.428 1.731-1.74Z"/><path data-name="Pfad 733" d="M78.422 59.97h-.61v-3.076c0-.71-.246-1.13-.964-1.13a2.658 2.658 0 0 0-1.548.665v3.541h-.609v-4.651h.537l.036.583a2.99 2.99 0 0 1 1.747-.674c.992 0 1.41.555 1.41 1.6Z"/><path data-name="Pfad 734" d="M80.31 54.191a.483.483 0 1 1 .492-.483.444.444 0 0 1-.492.483Zm.29 5.779h-.609v-4.651h.609Z"/><path data-name="Pfad 735" d="m83.297 59.97-1.831-4.655h.665l1.52 4.05 1.5-4.05h.61l-1.784 4.651Z"/><path data-name="Pfad 736" d="M86.265 57.649c0-1.7.984-2.421 2.158-2.421 1.274 0 1.793.865 1.793 1.975-.01.182-.019.373-.046.565h-3.258c.036 1.392.683 1.766 1.492 1.766a1.033 1.033 0 0 0 1.175-.882l.573.108a1.675 1.675 0 0 1-1.793 1.32c-1.62-.001-2.094-1.147-2.094-2.431Zm3.314-.372c.018-.956-.347-1.521-1.21-1.521a1.415 1.415 0 0 0-1.448 1.521Z"/><path data-name="Pfad 737" d="M93.842 55.864a2.12 2.12 0 0 0-1.675.54v3.567h-.61v-4.652h.5l.055.645a1.724 1.724 0 0 1 1.583-.736h.146Z"/><path data-name="Pfad 738" d="m97.711 56.629-.6.074c-.108-.61-.282-.956-1.046-.956-.809 0-1 .354-1 .756 0 .545.409.673 1.11.846.855.209 1.62.392 1.62 1.4 0 .8-.6 1.328-1.72 1.328-1.019 0-1.667-.392-1.8-1.411l.583-.1a1.079 1.079 0 0 0 1.247.983c.61 0 1.073-.182 1.073-.774 0-.546-.381-.655-1.055-.829-.773-.2-1.684-.318-1.684-1.382 0-.9.773-1.339 1.647-1.339a1.424 1.424 0 0 1 1.625 1.404Z"/><path data-name="Pfad 739" d="M99.371 54.191a.483.483 0 1 1 .492-.483.444.444 0 0 1-.492.483Zm.291 5.779h-.61v-4.651h.61Z"/><path data-name="Pfad 740" d="M103.657 59.788a2.158 2.158 0 0 1-1.054.291c-.829 0-1.239-.373-1.239-1.246v-3h-.729v-.51h.729v-1.341l.61-.091v1.429h1.3v.51h-1.3v2.922c0 .527.109.828.718.828a1.843 1.843 0 0 0 .829-.237Z"/><path data-name="Pfad 741" d="M103.795 55.315h.657l1.365 3.932 1.42-3.932h.619a547.347 547.347 0 0 1-1.876 4.924c-.491 1.328-.828 1.756-1.637 1.756a2.313 2.313 0 0 1-.838-.165l.091-.472a3.045 3.045 0 0 0 .765.137c.436 0 .809-.319 1.146-1.492Z"/><path data-name="Pfad 742" d="M110.544 57.667c0-1.512.783-2.439 2.213-2.439s2.01.938 2.01 2.321c0 1.53-.609 2.53-2.13 2.53-1.574 0-2.093-1.046-2.093-2.412Zm3.587-.064c0-1.383-.519-1.847-1.412-1.847-.919 0-1.547.565-1.547 1.875s.5 1.929 1.511 1.929c.893 0 1.448-.546 1.448-1.956Z"/><path data-name="Pfad 743" d="M118.076 53.653a2.21 2.21 0 0 0-.665-.12c-.428 0-.727.191-.727.848v.937h1.319v.51h-1.32v4.141h-.61v-4.14h-.709v-.51h.709v-.846c0-.965.428-1.457 1.256-1.457a1.937 1.937 0 0 1 .774.146Z"/><path data-name="Pfad 744" d="m123.593 53.38 2.276 6.59h-.674l-.71-2.121h-2.658l-.709 2.121h-.6l2.24-6.59Zm-.428.5-1.157 3.431h2.3Z"/><path data-name="Pfad 745" d="M127.1 55.319h.537l.036.565a2.541 2.541 0 0 1 1.675-.656c.973 0 1.684.6 1.684 2.3 0 1.811-.911 2.549-1.966 2.549a2.368 2.368 0 0 1-1.374-.51v2.337h-.592Zm.609 3.686a2.333 2.333 0 0 0 1.357.555c.993 0 1.347-.847 1.347-2.057 0-1.274-.39-1.775-1.219-1.775a2.285 2.285 0 0 0-1.484.692Z"/><path data-name="Pfad 746" d="M132.355 55.319h.537l.036.565a2.539 2.539 0 0 1 1.675-.656c.973 0 1.684.6 1.684 2.3 0 1.811-.91 2.549-1.966 2.549a2.371 2.371 0 0 1-1.374-.51v2.337h-.592Zm.609 3.686a2.337 2.337 0 0 0 1.357.555c.993 0 1.347-.847 1.347-2.057 0-1.274-.391-1.775-1.219-1.775a2.288 2.288 0 0 0-1.484.692Z"/><path data-name="Pfad 747" d="M138.22 59.97h-.609v-6.872h.609Z"/><path data-name="Pfad 748" d="M140.132 54.191a.483.483 0 1 1 .493-.483.444.444 0 0 1-.493.483Zm.291 5.779h-.609v-4.651h.609Z"/><path data-name="Pfad 749" d="M141.699 57.649c0-1.7.985-2.421 2.158-2.421 1.274 0 1.793.865 1.793 1.975-.01.182-.019.373-.046.565h-3.26c.035 1.392.682 1.766 1.491 1.766a1.033 1.033 0 0 0 1.175-.882l.573.108a1.674 1.674 0 0 1-1.793 1.32c-1.617-.001-2.091-1.147-2.091-2.431Zm3.314-.372c.018-.956-.346-1.521-1.21-1.521a1.416 1.416 0 0 0-1.448 1.521Z"/><path data-name="Pfad 750" d="M150.604 59.97h-.518l-.055-.519a2.389 2.389 0 0 1-1.6.628c-1.045 0-1.757-.674-1.757-2.376 0-1.811.911-2.476 1.967-2.476a2.271 2.271 0 0 1 1.356.437v-2.566h.61Zm-.61-3.74a2.334 2.334 0 0 0-1.356-.483c-.993 0-1.348.774-1.348 1.984 0 1.274.392 1.847 1.284 1.847a2.068 2.068 0 0 0 1.42-.691Z"/><path data-name="Pfad 751" d="M154.739 54.982c0 1.9 3.642.874 3.642 3.232 0 1.347-1.066 1.866-2.248 1.866a2.028 2.028 0 0 1-2.339-1.829l.609-.091a1.571 1.571 0 0 0 1.73 1.392c.755 0 1.6-.264 1.6-1.257 0-2-3.641-.8-3.641-3.285 0-1.064.9-1.747 2.148-1.747a1.868 1.868 0 0 1 2.1 1.829l-.582.073c-.127-.636-.383-1.356-1.492-1.356-1.135-.001-1.527.518-1.527 1.173Z"/><path data-name="Pfad 752" d="M159.357 57.676c0-1.629.82-2.448 2.2-2.448a1.56 1.56 0 0 1 1.693 1.556l-.61.082c-.083-.746-.428-1.11-1.137-1.11-.729 0-1.512.4-1.512 1.838 0 1.53.747 1.939 1.492 1.939a1.1 1.1 0 0 0 1.228-1.028l.574.117a1.7 1.7 0 0 1-1.838 1.457c-1.525 0-2.09-1-2.09-2.403Z"/><path data-name="Pfad 753" d="M164.876 54.191a.483.483 0 1 1 .492-.483.444.444 0 0 1-.492.483Zm.291 5.779h-.61v-4.651h.61Z"/><path data-name="Pfad 754" d="M166.443 57.649c0-1.7.984-2.421 2.157-2.421 1.274 0 1.793.865 1.793 1.975a5.604 5.604 0 0 1-.046.565h-3.258c.035 1.392.683 1.766 1.492 1.766a1.034 1.034 0 0 0 1.175-.882l.573.108a1.676 1.676 0 0 1-1.793 1.32c-1.619-.001-2.093-1.147-2.093-2.431Zm3.314-.372c.017-.956-.347-1.521-1.211-1.521a1.414 1.414 0 0 0-1.447 1.521Z"/><path data-name="Pfad 755" d="M175.466 59.97h-.61v-3.076c0-.71-.246-1.13-.964-1.13a2.658 2.658 0 0 0-1.548.665v3.541h-.609v-4.651h.537l.036.583a2.99 2.99 0 0 1 1.747-.674c.992 0 1.41.555 1.41 1.6Z"/><path data-name="Pfad 756" d="M176.714 57.676c0-1.629.82-2.448 2.2-2.448a1.56 1.56 0 0 1 1.693 1.556l-.61.082c-.082-.746-.428-1.11-1.137-1.11-.729 0-1.512.4-1.512 1.838 0 1.53.747 1.939 1.492 1.939a1.106 1.106 0 0 0 1.229-1.028l.573.117a1.7 1.7 0 0 1-1.838 1.457c-1.525 0-2.09-1-2.09-2.403Z"/><path data-name="Pfad 757" d="M181.594 57.649c0-1.7.984-2.421 2.158-2.421 1.274 0 1.793.865 1.793 1.975-.01.182-.019.373-.046.565h-3.255c.035 1.392.682 1.766 1.491 1.766a1.033 1.033 0 0 0 1.175-.882l.573.108a1.675 1.675 0 0 1-1.789 1.319c-1.624 0-2.1-1.146-2.1-2.43Zm3.314-.372c.018-.956-.346-1.521-1.21-1.521a1.415 1.415 0 0 0-1.448 1.521Z"/><path data-name="Pfad 758" d="m189.919 56.629-.6.074c-.108-.61-.282-.956-1.046-.956-.809 0-1 .354-1 .756 0 .545.409.673 1.11.846.855.209 1.62.392 1.62 1.4 0 .8-.6 1.328-1.72 1.328-1.019 0-1.667-.392-1.8-1.411l.583-.1a1.079 1.079 0 0 0 1.247.983c.61 0 1.073-.182 1.073-.774 0-.546-.381-.655-1.055-.829-.773-.2-1.684-.318-1.684-1.382 0-.9.773-1.339 1.647-1.339a1.425 1.425 0 0 1 1.625 1.404Z"/></g></svg>