<svg xmlns="http://www.w3.org/2000/svg" viewBox="0 0 75.591 75.591" xml:space="preserve" width="2cm" height="2cm"><g transform="matrix(.10642 0 0 .10642 10.738 57.19)"><path d="M439.652 512H372.87c-9.223 0-16.696-7.473-16.696-16.696v-66.783c0-9.223 7.473-16.696 16.696-16.696h66.783c9.223 0 16.696 7.473 16.696 16.696v66.783c-.001 9.223-7.474 16.696-16.697 16.696ZM139.13 512H72.348c-9.223 0-16.696-7.473-16.696-16.696v-66.783c0-9.223 7.473-16.696 16.696-16.696h66.783c9.223 0 16.696 7.473 16.696 16.696v66.783c-.001 9.223-7.474 16.696-16.697 16.696Z" style="fill:#57565c" transform="translate(0 -436.41)"/><path d="M139.13 411.826h-33.391V512h33.391c9.223 0 16.696-7.473 16.696-16.696v-66.783c0-9.222-7.473-16.695-16.696-16.695zM439.652 411.826h-33.391V512h33.391c9.223 0 16.696-7.473 16.696-16.696v-66.783c0-9.222-7.473-16.695-16.696-16.695z" style="fill:#3e3d42" transform="translate(0 -436.41)"/><path d="M456.348-108.061H55.652V-319.54c0-64.441 52.429-116.87 116.87-116.87h166.957c64.441 0 116.87 52.429 116.87 116.87v211.478z" style="fill:#d80027"/><path d="M339.478-436.41H256v328.349H456.348V-319.54c0-64.441-52.429-116.87-116.87-116.87z" style="fill:#a5001e"/><g transform="translate(0 -436.41)"><circle r="16.696" cy="116.87" cx="205.913" style="fill:#830018"/><circle r="16.696" cy="228.174" cx="205.913" style="fill:#830018"/><circle r="16.696" cy="116.87" cx="306.087" style="fill:#830018"/></g><path d="M478.609 8.808H33.391C14.978 8.808 0-6.17 0-24.583V-191.54c0-36.826 29.956-66.783 66.783-66.783s66.783 29.956 66.783 66.783v66.783h244.87v-66.783c0-36.826 29.956-66.783 66.783-66.783S512-228.366 512-191.54v166.957c0 18.412-14.978 33.39-33.391 33.39z" style="fill:#ff0c38"/><path d="M445.217-258.322c-36.826 0-66.783 29.956-66.783 66.783v66.783H256V8.809h222.609C497.022 8.809 512-6.17 512-24.582V-191.54c0-36.827-29.956-66.783-66.783-66.783z" style="fill:#d80027"/><circle r="16.696" cy="-208.235" cx="306.087" style="fill:#830018"/></g></svg>