<svg width="132" height="67" viewBox="0 0 132 67" fill="none" xmlns="http://www.w3.org/2000/svg">
<g clip-path="url(#clip0)">
<path d="M10.9312 49.2943H8.04375L0 67H3.3L9.4875 52.9159L15.675 67H18.975L10.9312 49.2943ZM70.7437 49.2943V67H83.325V64.1832H73.8375V49.2943H70.7437ZM41.25 67L34.65 57.946L41.0437 49.2943H37.3312L32.7937 55.5315L28.2562 49.2943H24.5437L30.9375 57.946L24.3375 67H28.05L32.7937 60.3604L37.5375 67H41.25ZM62.2875 49.2943H48.8812V67H62.2875V64.1832H51.975V59.5556H62.2875V56.7388H51.975V52.1111H62.2875V49.2943ZM101.062 60.1592C102.382 59.8869 103.596 59.2596 104.569 58.3484C105.386 57.3887 105.825 56.1756 105.806 54.9279C105.806 54.1231 105.6 53.3183 105.394 52.5135C105.069 51.814 104.583 51.1965 103.976 50.7082C103.368 50.2199 102.654 49.8739 101.887 49.6967C101.062 49.4955 100.031 49.2943 99 49.2943H90.9562V67H94.05V60.7628H97.9687L102.506 67H106.219L101.062 60.1592ZM102.712 55.1291C102.712 56.1352 102.3 56.7388 101.681 57.3424C101.062 57.946 100.031 58.1472 99 58.1472H94.2562V52.1111H99C100.237 52.1111 101.062 52.3123 101.681 52.9159C102.3 53.5195 102.712 54.1231 102.712 55.1291ZM124.162 49.2943H120.862L112.406 67H116.325L122.512 52.9159L128.494 67H132L124.162 49.2943Z" fill="#04274C"/>
<path d="M83.9437 27.7658L78.5812 36.015H89.5125L83.9437 27.7658ZM75.9 12.4745L68.2687 24.1441L75.6937 34.4054L90.1312 12.2733L75.9 12.4745ZM65.7937 0L42.2812 36.2162H56.1L72.8062 10.4625L65.7937 0Z" fill="url(#paint0_linear)"/>
</g>
<defs>
<linearGradient id="paint0_linear" x1="42.2812" y1="36.2162" x2="42.2812" y2="0" gradientUnits="userSpaceOnUse">
<stop stop-color="#009BFA"/>
<stop offset="0.5" stop-color="#00B4DD"/>
<stop offset="1" stop-color="#00D3BC"/>
</linearGradient>
<clipPath id="clip0">
<rect width="132" height="67" fill="white"/>
</clipPath>
</defs>
</svg>
