<svg width="227" height="36" viewBox="0 0 227 36" fill="none" xmlns="http://www.w3.org/2000/svg">
<g clip-path="url(#clip0)">
<path d="M0.94057 34.1549L12.9215 1.11971C12.9812 1.00027 13.0559 0.940552 13.1454 0.940552H14.6682C14.7578 0.940552 14.8287 1.00027 14.8922 1.11971L26.8731 34.1549C26.9328 34.3341 26.8731 34.4237 26.6939 34.4237H25.201C25.1114 34.4237 25.0368 34.3639 24.977 34.2445L14.0412 3.88539C14.0113 3.79582 13.9665 3.75103 13.9068 3.75103C13.8471 3.75103 13.8023 3.79582 13.7725 3.88539L2.81795 34.2445C2.75824 34.3639 2.68359 34.4237 2.59401 34.4237H1.11972C0.970429 34.4237 0.910711 34.3341 0.94057 34.1549Z" fill="#CD553E"/>
<path fill-rule="evenodd" clip-rule="evenodd" d="M13.6406 1.874L13.1972 3.09677C13.3574 2.94288 13.5866 2.81829 13.9069 2.81829C14.2271 2.81829 14.4563 2.94288 14.6165 3.09677L14.1731 1.874H13.6406ZM12.0869 0.702767C12.2179 0.440845 12.543 0.0078125 13.1455 0.0078125H14.6683C15.2815 0.0078125 15.5967 0.457257 15.7162 0.682294L15.747 0.740243L27.7545 33.8486L27.7583 33.8602C27.8132 34.0248 27.9271 34.4579 27.6495 34.8744C27.3559 35.3148 26.8858 35.3571 26.694 35.3571H25.201C24.5986 35.3571 24.2734 34.9241 24.1425 34.6622L24.1179 34.6129L13.9062 6.26428L3.67708 34.6131L3.65256 34.6622C3.52161 34.9241 3.19648 35.3571 2.59404 35.3571H1.11975C0.864892 35.3571 0.451682 35.272 0.18661 34.8744C-0.0398821 34.5347 -0.00875476 34.1756 0.0201996 34.0019L0.0342571 33.9175L12.0628 0.751115L12.0869 0.702767Z" fill="#CD553E"/>
<path d="M46.5913 34.1997L56.4709 17.5198C56.4996 17.4816 56.5152 17.4351 56.5152 17.3873C56.5152 17.3395 56.4996 17.2929 56.4709 17.2548L47.084 1.20556C46.9944 1.02641 47.0504 0.93683 47.2631 0.93683H48.827C48.9763 0.93683 49.0509 0.95176 49.0509 0.981619L49.0957 1.0712L57.4562 15.3774C57.5458 15.5565 57.6354 15.5565 57.725 15.3774L66.2646 1.06746C66.2938 1.02359 66.334 0.988104 66.3811 0.964534C66.4283 0.940965 66.4807 0.930128 66.5334 0.933098H68.142C68.3212 0.933098 68.3659 1.02267 68.2764 1.20183L58.7514 17.2958C58.7215 17.3829 58.7215 17.4775 58.7514 17.5645L68.4555 34.1997C68.5451 34.3789 68.4854 34.4685 68.2764 34.4685H66.664C66.5446 34.4685 66.4848 34.4386 66.4848 34.3789L66.3542 34.1997L57.725 19.4457C57.6354 19.2665 57.5458 19.2665 57.4562 19.4457L48.603 34.3378C48.5732 34.4274 48.4836 34.4722 48.3343 34.4722H46.7257C46.5465 34.4697 46.5017 34.3789 46.5913 34.1997Z" fill="#CD553E"/>
<path fill-rule="evenodd" clip-rule="evenodd" d="M58.4283 16.0096C58.3965 16.0521 58.3598 16.0956 58.3175 16.1379C58.1934 16.262 57.9477 16.4448 57.5905 16.4448C57.2949 16.4448 57.0756 16.3196 56.9384 16.206L57.2596 16.7551C57.3824 16.9425 57.4482 17.1622 57.4482 17.3872C57.4482 17.6135 57.3817 17.8343 57.2576 18.0224L56.8673 18.6814C56.9925 18.5574 57.2369 18.3782 57.5905 18.3782C57.9477 18.3782 58.1934 18.561 58.3175 18.6851C58.3236 18.6912 58.3295 18.6973 58.3354 18.7034L57.8987 17.9547L57.8686 17.8672C57.7715 17.5839 57.7715 17.2764 57.8686 16.9932L57.8996 16.9028L58.4283 16.0096ZM47.2651 1.86991H47.263C47.2631 1.86991 47.2629 1.86991 47.263 1.86991C47.2634 1.86991 47.2642 1.86992 47.2651 1.86991ZM66.5507 -7.61865e-06C66.3475 -0.00567705 66.1459 0.0388769 65.9638 0.129938C65.7711 0.226245 65.607 0.371236 65.4877 0.550548L65.475 0.569617L57.5975 13.7699L49.917 0.627374C49.8157 0.375861 49.6238 0.226022 49.5169 0.161898C49.3718 0.0748141 49.2351 0.0444888 49.1779 0.0330427C49.0473 0.00692809 48.9163 0.00372475 48.8269 0.00372475H47.263C47.1281 0.00372475 46.5949 0.0122044 46.28 0.492058C45.9505 0.994136 46.187 1.49814 46.2493 1.62284L46.263 1.65022L55.4661 17.3851L45.7715 33.7527L45.7566 33.7824C45.6976 33.9005 45.4865 34.3399 45.7208 34.8149C45.9915 35.3639 46.5508 35.4029 46.7126 35.4052L46.7191 35.4053H48.3342C48.5941 35.4053 49.18 35.3223 49.4394 34.7568L57.5851 21.0548L65.5725 34.7114L65.6564 34.8265C65.6747 34.8633 65.6957 34.8998 65.7196 34.9356C65.8364 35.1108 65.9866 35.2178 66.1123 35.2806C66.3371 35.3931 66.5565 35.4015 66.6639 35.4015H68.2763C68.4167 35.4015 68.9401 35.39 69.2542 34.9189C69.5866 34.4204 69.3574 33.9172 69.29 33.7824L69.2766 33.7555L59.7546 17.4326L69.0961 1.64864L69.1109 1.61911C69.1572 1.5264 69.2124 1.39513 69.2387 1.23766C69.2652 1.07839 69.2707 0.835347 69.1445 0.582997C68.8672 0.0284197 68.2977 -7.61865e-06 68.1419 -7.61865e-06H66.5507Z" fill="#CD553E"/>
<path d="M88.1699 34.1998V1.15711C88.1655 1.12668 88.1683 1.09566 88.178 1.06649C88.1877 1.03733 88.204 1.01083 88.2258 0.989091C88.2475 0.967356 88.274 0.950986 88.3032 0.941278C88.3324 0.93157 88.3634 0.928792 88.3938 0.933164H89.7822C89.8127 0.928792 89.8437 0.93157 89.8729 0.941278C89.902 0.950986 89.9285 0.967356 89.9503 0.989091C89.972 1.01083 89.9884 1.03733 89.9981 1.06649C90.0078 1.09566 90.0106 1.12668 90.0062 1.15711V32.4083C90.001 32.4388 90.0032 32.4702 90.0126 32.4998C90.022 32.5293 90.0383 32.5562 90.0603 32.5781C90.0822 32.6 90.1091 32.6164 90.1386 32.6258C90.1682 32.6352 90.1996 32.6374 90.2301 32.6322H105.119C105.149 32.6278 105.18 32.6306 105.209 32.6403C105.238 32.65 105.265 32.6664 105.287 32.6881C105.308 32.7099 105.325 32.7364 105.334 32.7655C105.344 32.7947 105.347 32.8257 105.342 32.8561V34.1998C105.347 34.2302 105.344 34.2612 105.334 34.2904C105.325 34.3196 105.308 34.3461 105.287 34.3678C105.265 34.3895 105.238 34.4059 105.209 34.4156C105.18 34.4253 105.149 34.4281 105.119 34.4237H88.3938C88.3634 34.4281 88.3324 34.4253 88.3032 34.4156C88.274 34.4059 88.2475 34.3895 88.2258 34.3678C88.204 34.3461 88.1877 34.3196 88.178 34.2904C88.1683 34.2612 88.1655 34.2302 88.1699 34.1998V34.1998Z" fill="#231812"/>
<path fill-rule="evenodd" clip-rule="evenodd" d="M89.1029 32.7099V33.4905H89.787C89.6423 33.434 89.5107 33.348 89.4005 33.2378C89.2731 33.1104 89.1781 32.9543 89.1235 32.7827C89.1158 32.7587 89.1089 32.7344 89.1029 32.7099ZM89.1004 34.1997H88.1698L89.0934 34.3324C89.0998 34.2883 89.1021 34.2439 89.1004 34.1997ZM87.2368 34.1604V1.19626C87.2282 1.05272 87.247 0.908586 87.2926 0.771655C87.3481 0.604971 87.4417 0.453454 87.566 0.32916C87.6903 0.204881 87.8418 0.111302 88.0085 0.0558109C88.1454 0.0102223 88.2896 -0.008635 88.4331 -6.36285e-05H89.7429C89.8865 -0.008635 90.0306 0.0102223 90.1675 0.0558109C90.3343 0.111322 90.4858 0.204926 90.61 0.32916C90.7343 0.453382 90.8279 0.604874 90.8834 0.771655C90.929 0.908664 90.9478 1.0528 90.9393 1.19626V31.699H105.079C105.223 31.6904 105.367 31.7093 105.504 31.7548C105.671 31.8104 105.822 31.904 105.946 32.0282C106.071 32.1524 106.164 32.3039 106.22 32.4707C106.265 32.6077 106.284 32.7518 106.276 32.8953V34.1604C106.284 34.3038 106.265 34.448 106.22 34.585C106.164 34.7518 106.071 34.9033 105.946 35.0275C105.822 35.1517 105.671 35.2453 105.504 35.3008C105.367 35.3464 105.223 35.3653 105.079 35.3567H88.4331C88.2895 35.3653 88.1454 35.3464 88.0085 35.3008C87.8418 35.2453 87.6903 35.1518 87.566 35.0275C87.4417 34.9032 87.3481 34.7517 87.2926 34.585C87.247 34.448 87.2282 34.3039 87.2368 34.1604Z" fill="#231812"/>
<path d="M125.012 34.1549L136.997 1.11971C137.056 1.00027 137.131 0.940552 137.221 0.940552H138.74C138.829 0.940552 138.904 1.00027 138.964 1.11971L150.945 34.1624C151.004 34.3416 150.945 34.4311 150.765 34.4311H149.295C149.205 34.4311 149.131 34.3714 149.071 34.252L138.098 3.88539C138.068 3.79582 138.023 3.75103 137.963 3.75103C137.904 3.75103 137.859 3.79582 137.829 3.88539L126.901 34.2445C126.841 34.3639 126.766 34.4237 126.68 34.4237H125.188C125.041 34.4237 124.982 34.3341 125.012 34.1549Z" fill="#231812"/>
<path fill-rule="evenodd" clip-rule="evenodd" d="M137.716 1.87363L137.282 3.07061C137.44 2.92883 137.661 2.81792 137.963 2.81792C138.299 2.81792 138.535 2.95504 138.696 3.11924L138.245 1.87363H137.716ZM136.162 0.702401C136.293 0.440472 136.618 0.00744629 137.221 0.00744629H138.74C139.342 0.00744629 139.667 0.440472 139.798 0.702401L139.823 0.750779L151.826 33.8558L151.83 33.8673C151.885 34.0319 151.999 34.4651 151.721 34.8815C151.427 35.3219 150.957 35.3642 150.766 35.3642H149.295C148.693 35.3642 148.367 34.9312 148.236 34.6693L148.212 34.6204L137.965 6.26311L127.76 34.6124L127.735 34.6618C127.609 34.9141 127.286 35.3567 126.681 35.3567H125.188C124.928 35.3567 124.514 35.2677 124.252 34.8665C124.031 34.5281 124.063 34.1727 124.092 34.0015L124.106 33.9171L136.138 0.750707L136.162 0.702401Z" fill="#231812"/>
<path d="M170.842 15.7768H178.407C179.671 15.79 180.918 15.4831 182.032 14.8848C183.097 14.3209 184.003 13.4982 184.667 12.4923C185.309 11.5332 185.652 10.405 185.652 9.25075C185.652 8.09652 185.309 6.96828 184.667 6.00919C184.004 5.00249 183.097 4.17954 182.032 3.61674C180.918 3.01709 179.672 2.70893 178.407 2.72097H170.842C170.811 2.72534 170.78 2.72256 170.751 2.71286C170.722 2.70315 170.696 2.68678 170.674 2.66504C170.652 2.64331 170.636 2.61681 170.626 2.58764C170.616 2.55848 170.614 2.52745 170.618 2.49703V1.15711C170.614 1.12668 170.616 1.09566 170.626 1.06649C170.636 1.03733 170.652 1.01083 170.674 0.989091C170.696 0.967356 170.722 0.950986 170.751 0.941278C170.78 0.93157 170.811 0.928792 170.842 0.933164H178.407C179.99 0.920758 181.551 1.30575 182.946 2.05288C184.29 2.76029 185.424 3.80948 186.234 5.09476C187.033 6.35781 187.451 7.82407 187.44 9.31848C187.428 10.8129 186.986 12.2723 186.167 13.5225C185.32 14.8194 184.137 15.8627 182.744 16.5419C184.586 17.2307 186.198 18.4231 187.395 19.9832C188.572 21.4385 189.22 23.2508 189.231 25.1227C189.244 26.7717 188.812 28.3936 187.981 29.818C187.161 31.2317 185.99 32.4095 184.581 33.2368C183.178 34.0804 181.571 34.522 179.934 34.5133H170.842C170.811 34.5177 170.78 34.5149 170.751 34.5052C170.722 34.4955 170.696 34.4791 170.674 34.4574C170.652 34.4356 170.636 34.4091 170.626 34.38C170.616 34.3508 170.614 34.3198 170.618 34.2894V32.9457C170.614 32.9153 170.616 32.8843 170.626 32.8551C170.636 32.8259 170.652 32.7994 170.674 32.7777C170.696 32.756 170.722 32.7396 170.751 32.7299C170.78 32.7202 170.811 32.7174 170.842 32.7218H179.919C181.234 32.7297 182.525 32.3745 183.651 31.6954C184.785 31.0226 185.726 30.0671 186.38 28.9222C187.047 27.7676 187.393 26.456 187.384 25.1227C187.392 23.7468 186.954 22.4054 186.133 21.3007C185.287 20.1428 184.173 19.2068 182.886 18.5724C181.652 17.9233 180.28 17.5779 178.885 17.5646H170.842C170.811 17.569 170.78 17.5662 170.751 17.5565C170.722 17.5468 170.696 17.5304 170.674 17.5087C170.652 17.487 170.636 17.4605 170.626 17.4313C170.616 17.4021 170.614 17.3711 170.618 17.3407V16.0007C170.614 15.9703 170.616 15.9393 170.626 15.9101C170.636 15.881 170.652 15.8545 170.674 15.8327C170.696 15.811 170.722 15.7946 170.751 15.7849C170.78 15.7752 170.811 15.7724 170.842 15.7768V15.7768Z" fill="#231812"/>
<path fill-rule="evenodd" clip-rule="evenodd" d="M181.174 16.2697C180.618 16.4567 180.045 16.5854 179.462 16.6534C179.974 16.6884 180.483 16.7639 180.981 16.8787L180.384 16.6552L181.174 16.2697ZM170.842 16.6314V15.7767L170.718 16.6396L170.775 16.6314H170.842ZM170.718 16.6396L170.709 16.7003C170.712 16.7007 170.715 16.7011 170.718 16.7015C170.759 16.7069 170.801 16.7088 170.842 16.7072V16.6339C170.801 16.6324 170.759 16.6342 170.718 16.6396ZM170.881 14.8436H178.412L178.417 14.8436C179.524 14.8552 180.615 14.5865 181.59 14.0627L181.592 14.0613L181.595 14.06C182.522 13.5693 183.31 12.8535 183.888 11.9782L183.89 11.9756L183.891 11.973C184.431 11.1675 184.719 10.22 184.719 9.25062C184.719 8.28124 184.431 7.3337 183.891 6.5282L183.889 6.5252L183.887 6.52218C183.311 5.64676 182.523 4.93114 181.596 4.44173L181.592 4.43992L181.589 4.43807C180.615 3.91312 179.523 3.64334 178.416 3.65389L178.412 3.65393H170.881C170.738 3.6625 170.594 3.64365 170.457 3.59805C170.29 3.54254 170.138 3.44894 170.014 3.3247C169.89 3.20048 169.796 3.04899 169.741 2.88221C169.695 2.7452 169.676 2.60107 169.685 2.4576V1.19626C169.676 1.0528 169.695 0.908664 169.741 0.771655C169.796 0.604874 169.89 0.453382 170.014 0.32916C170.138 0.204926 170.29 0.111322 170.457 0.0558109C170.594 0.0102199 170.738 -0.00863456 170.881 -6.36337e-05H178.404C180.14 -0.0130491 181.852 0.409361 183.384 1.22857C184.871 2.01208 186.126 3.17342 187.023 4.59586C187.917 6.01028 188.386 7.65228 188.373 9.32579C188.359 10.999 187.865 12.633 186.948 14.0328C186.342 14.9598 185.582 15.7699 184.705 16.4304C186.028 17.1805 187.193 18.1904 188.128 19.4056C189.434 21.0239 190.152 23.0373 190.164 25.1168C190.178 26.9325 189.702 28.7184 188.788 30.287C187.888 31.838 186.603 33.1304 185.057 34.0389C183.51 34.9685 181.737 35.4553 179.932 35.4463H170.881C170.738 35.4548 170.594 35.436 170.457 35.3904C170.29 35.3349 170.138 35.2413 170.014 35.117C169.89 34.9928 169.796 34.8413 169.741 34.6746C169.695 34.5375 169.676 34.3934 169.685 34.25V32.9849C169.676 32.8414 169.695 32.6973 169.741 32.5603C169.796 32.3935 169.89 32.242 170.014 32.1178C170.138 31.9935 170.29 31.8999 170.457 31.8444C170.594 31.7988 170.738 31.78 170.881 31.7885H179.922L179.925 31.7886C181.068 31.7954 182.191 31.4866 183.169 30.8962L183.172 30.8945L183.175 30.8928C184.171 30.3023 184.995 29.4638 185.57 28.4591L185.572 28.4554C186.156 27.4446 186.459 26.2964 186.451 25.1291L186.451 25.1229L186.451 25.1167C186.458 23.9432 186.084 22.799 185.384 21.8568L185.382 21.8541L185.38 21.8513C184.622 20.8149 183.625 19.977 182.474 19.4091L182.463 19.4038L182.452 19.3982C181.35 18.8188 180.126 18.5101 178.881 18.4976H170.881C170.738 18.5061 170.594 18.4873 170.457 18.4417C170.29 18.3862 170.138 18.2926 170.014 18.1684C169.89 18.0441 169.796 17.8926 169.741 17.7259C169.695 17.5888 169.676 17.4447 169.685 17.3012V16.0399C169.676 15.8964 169.695 15.7523 169.741 15.6153C169.796 15.4485 169.89 15.297 170.014 15.1728C170.138 15.0486 170.29 14.955 170.457 14.8995C170.594 14.8539 170.738 14.835 170.881 14.8436Z" fill="#231812"/>
<path d="M207.684 30.4413L208.935 29.7732C208.983 29.7555 209.036 29.7548 209.085 29.7711C209.133 29.7873 209.175 29.8197 209.203 29.8627C209.83 30.8379 210.701 31.6319 211.73 32.1656C212.952 32.846 214.332 33.1923 215.731 33.1696C217.938 33.1696 219.772 32.5812 221.233 31.4042C221.936 30.8591 222.501 30.1561 222.881 29.352C223.262 28.5479 223.448 27.6654 223.424 26.7761C223.451 25.5651 223.132 24.3714 222.505 23.3348C221.881 22.3367 221.059 21.4768 220.091 20.808C218.849 19.9628 217.558 19.1938 216.224 18.5051C214.556 17.6399 212.936 16.6842 211.372 15.6424C210.29 14.8957 209.363 13.9479 208.64 12.8506C207.903 11.6803 207.53 10.3177 207.568 8.93534C207.574 7.49234 208.044 6.08942 208.908 4.93423C209.825 3.67983 211.04 2.67403 212.443 2.00805C213.869 1.30059 215.439 0.932685 217.03 0.933129C218.653 0.929853 220.258 1.26546 221.744 1.91848C223.096 2.46583 224.31 3.30435 225.301 4.37438C225.322 4.39644 225.338 4.42298 225.347 4.45202C225.356 4.48106 225.359 4.51182 225.355 4.54201C225.35 4.57219 225.339 4.601 225.322 4.62627C225.305 4.65154 225.283 4.67261 225.256 4.6879L224.092 5.40451C223.942 5.46423 223.838 5.4493 223.778 5.35972C223.281 4.73268 222.357 4.13675 221.009 3.57192C219.767 3.02612 218.428 2.73668 217.071 2.72094C215.757 2.71494 214.458 3.00583 213.272 3.57192C212.14 4.08905 211.156 4.88065 210.409 5.87479C209.718 6.78006 209.342 7.8862 209.338 9.02491C209.307 10.1772 209.652 11.3082 210.323 12.2459C210.961 13.1236 211.757 13.8742 212.671 14.4592C213.579 15.0415 215.046 15.8688 217.071 16.9413C218.624 17.7301 220.112 18.6412 221.52 19.6659C222.627 20.484 223.555 21.519 224.248 22.7078C224.943 23.9626 225.291 25.3797 225.256 26.8134C225.279 28.32 224.833 29.7965 223.98 31.0384C223.113 32.2919 221.924 33.2886 220.538 33.9236C219.047 34.6168 217.42 34.9675 215.776 34.95C214.117 34.9375 212.485 34.532 211.013 33.7668C209.595 33.1078 208.404 32.041 207.595 30.7025C207.545 30.5582 207.575 30.4711 207.684 30.4413Z" fill="#231812"/>
<path fill-rule="evenodd" clip-rule="evenodd" d="M222.107 1.05876C220.506 0.357225 218.777 -0.00335574 217.029 2.3534e-05C215.297 -0.000295216 213.588 0.399635 212.035 1.16857C210.497 1.90039 209.164 3.00388 208.158 4.37948C207.178 5.69129 206.644 7.28305 206.635 8.92067C206.594 10.4838 207.017 12.0242 207.85 13.3476L207.855 13.3559L207.861 13.364C208.65 14.5613 209.662 15.5955 210.842 16.4102L210.848 16.4147L210.854 16.419C212.447 17.4796 214.096 18.4525 215.794 19.3334L215.796 19.3343C217.096 20.0052 218.354 20.7543 219.563 21.5776C220.424 22.1725 221.155 22.9368 221.711 23.8236C222.243 24.707 222.514 25.7237 222.491 26.7552L222.49 26.7783L222.491 26.8013C222.511 27.5441 222.356 28.2811 222.038 28.9527C221.72 29.6243 221.248 30.2115 220.661 30.6668L220.654 30.6721L220.647 30.6776C219.381 31.6982 217.765 32.2365 215.731 32.2365H215.724L215.716 32.2366C214.481 32.2567 213.263 31.951 212.184 31.3503L212.172 31.3436L212.16 31.3373C211.275 30.8786 210.527 30.1963 209.988 29.3583L209.987 29.3557L209.985 29.3532C209.842 29.1336 209.628 28.9688 209.38 28.8858C209.131 28.8029 208.861 28.8067 208.615 28.8965L208.553 28.9191L207.298 29.5897C207.06 29.6899 206.813 29.8885 206.697 30.2264C206.583 30.5591 206.661 30.8565 206.712 31.0067L206.745 31.1006L206.796 31.1855C207.698 32.6767 209.023 33.8664 210.601 34.6042C212.199 35.4311 213.969 35.8693 215.768 35.883C217.55 35.9017 219.314 35.5216 220.93 34.7706C222.467 34.0657 223.785 32.9598 224.747 31.5692L224.749 31.5668C225.708 30.1704 226.211 28.5113 226.189 26.8176C226.225 25.2245 225.837 23.6504 225.065 22.2559L225.06 22.2467L225.054 22.2377C224.297 20.9394 223.283 19.809 222.075 18.9156L222.072 18.9135L222.069 18.9114C220.623 17.8591 219.095 16.9234 217.501 16.113C215.482 15.0442 214.047 14.2331 213.174 13.6737L213.174 13.6734C212.359 13.1518 211.649 12.4826 211.08 11.7004C210.529 10.9285 210.245 9.99807 210.27 9.05007L210.271 9.03924L210.271 9.02841C210.274 8.09304 210.583 7.18442 211.151 6.44081L211.153 6.43818L211.155 6.43554C211.809 5.56567 212.67 4.87302 213.659 4.42052L213.666 4.41733L213.673 4.41403C214.732 3.90892 215.891 3.64913 217.064 3.65399C218.293 3.6687 219.507 3.93132 220.633 4.42614L220.641 4.42942L220.648 4.43256C221.938 4.97277 222.681 5.4881 223.035 5.92416C223.209 6.15925 223.468 6.31876 223.769 6.36181C224.047 6.40141 224.285 6.3322 224.438 6.27085L224.513 6.24113L225.739 5.48642C225.881 5.40106 226.003 5.28562 226.096 5.14833C226.191 5.00625 226.254 4.84409 226.278 4.67395C226.303 4.50394 226.288 4.33073 226.236 4.16736C226.184 4.00708 226.098 3.86015 225.983 3.73728C224.902 2.5715 223.579 1.65715 222.107 1.05876Z" fill="#231812"/>
</g>
<defs>
<clipPath id="clip0">
<rect width="226.29" height="35.8905" fill="white"/>
</clipPath>
</defs>
</svg>
