<svg width="103" height="59" viewBox="0 0 103 59" fill="none" xmlns="http://www.w3.org/2000/svg">
<path d="M5.28205 0C2.13835 0.0044697 0.00352137 2.56382 0 5.36364V53.6364C0.00264103 56.6981 2.42358 59.0027 5.28205 59H97.7179C100.541 59.0018 103.005 56.657 103 53.6364V5.36364C103.004 2.42258 100.572 0.00357576 97.7179 0H5.28205ZM58.2619 6.51235C58.2989 11.6588 58.254 16.8052 58.2945 21.9507C60.3985 20.9155 62.7138 20.1869 65.0731 20.2522C68.1261 20.1878 71.2637 21.1506 73.5367 23.2737C76.1716 25.7374 77.4507 29.3543 77.8592 32.9041C78.2474 36.5871 77.9675 40.4803 76.2834 43.8298C74.8247 46.8594 72.1722 49.2283 69.0452 50.3377C66.0987 51.4355 62.874 51.397 59.7796 51.1628C57.0594 50.9215 54.3567 50.4361 51.7254 49.6726V38.923H44.9863L46.2945 32.315H51.7262C51.7298 24.0434 51.7148 15.7718 51.7412 7.49926C53.9157 7.13989 56.0866 6.7698 58.2593 6.41223L58.261 6.48106L58.2619 6.51235ZM36.7191 20.1235C39.3574 20.1262 42.0152 20.6026 44.4546 21.6244C43.9907 23.4257 43.5241 25.227 43.0549 27.0265C41.0336 26.2014 38.8442 25.7776 36.6636 25.9028C34.5789 25.952 32.4441 26.7815 31.1086 28.455C29.4184 30.5066 28.9456 33.2975 28.9844 35.9015C28.98 38.5136 29.5531 41.2964 31.3129 43.2917C32.8394 44.9777 35.2005 45.5087 37.374 45.5373C39.6242 45.5927 41.8849 45.1976 43.9942 44.402C44.2935 46.2211 44.6457 48.0698 44.901 49.872C43.0232 50.6855 40.9922 51.0135 38.9763 51.2129C35.6345 51.4712 32.1466 51.1789 29.1516 49.5233C26.2791 48.0099 24.1689 45.2557 23.1935 42.1501C22.2955 39.3458 22.0737 36.3449 22.373 33.4146C22.8132 29.4249 24.6496 25.4603 27.8346 23.0109C30.3621 21.0228 33.5577 20.0913 36.7191 20.1235V20.1235ZM63.7526 25.9323C61.822 25.9716 59.9169 26.5938 58.2892 27.6397L58.2777 32.315H66.5327L65.2245 38.923H58.2786V45.0554C60.2435 45.5078 62.2842 45.6419 64.2931 45.4774C66.2299 45.2718 68.0874 44.2875 69.2671 42.6972C70.9837 40.4758 71.3781 37.5213 71.2654 34.7769C71.1633 32.3561 70.6421 29.787 69.0346 27.9088C67.7238 26.3953 65.67 25.8795 63.7526 25.9323V25.9323Z" fill="black" fill-opacity="0.6"/>
</svg>
