<svg width="144" height="123" viewBox="0 0 144 123" fill="none" xmlns="http://www.w3.org/2000/svg">
<rect width="114.543" height="91.9981" rx="8.93861" transform="matrix(0.999989 -0.00461703 0.00485443 0.999988 28.6531 30.8163)" fill="#BBFFCA"/>
<path d="M12.6527 24.7626H12.1527V25.2626V99.2993V99.7993H12.6527H113.874H114.374V99.2993V25.2626V24.7626H113.874H12.6527ZM80.389 84.4538L72.1658 76.4342L86.2991 62.6388L86.6659 62.2808L86.299 61.923L72.1597 48.1338L80.389 40.1082L103.125 62.281L80.389 84.4538ZM46.135 84.4507L23.4025 62.281L46.1381 40.1082L54.3674 48.1338L40.2282 61.923L39.8612 62.2809L40.2281 62.6389L54.3612 76.4281L46.135 84.4507ZM113.874 111.139H12.6527C9.42562 111.139 6.33316 109.888 4.05499 107.667C1.77725 105.445 0.5 102.435 0.5 99.2993V12.9232C0.5 9.78728 1.77725 6.77719 4.05499 4.55584C6.33316 2.33407 9.42562 1.08374 12.6527 1.08374H113.874C117.102 1.08374 120.194 2.33407 122.472 4.55584C124.75 6.77719 126.027 9.78728 126.027 12.9232V99.2993C126.027 102.435 124.75 105.445 122.472 107.667C120.194 109.888 117.102 111.139 113.874 111.139Z" stroke="black"/>
</svg>
