<svg width="220" height="40" viewBox="0 0 220 40" fill="none" xmlns="http://www.w3.org/2000/svg">
<path d="M49.8561 23.0001C49.6694 23.0001 49.5107 22.9348 49.3801 22.8041C49.2494 22.6735 49.1841 22.5148 49.1841 22.3281V4.10012C49.1841 3.89478 49.2401 3.72678 49.3521 3.59612C49.4827 3.46545 49.6507 3.40012 49.8561 3.40012H62.0081C62.2134 3.40012 62.3814 3.46545 62.5121 3.59612C62.6427 3.72678 62.7081 3.89478 62.7081 4.10012V6.06012C62.7081 6.26545 62.6427 6.43345 62.5121 6.56412C62.3814 6.67612 62.2134 6.73212 62.0081 6.73212H53.0201V12.0521H61.4481C61.6534 12.0521 61.8214 12.1175 61.9521 12.2481C62.0827 12.3788 62.1481 12.5468 62.1481 12.7521V14.7121C62.1481 14.9175 62.0827 15.0855 61.9521 15.2161C61.8214 15.3281 61.6534 15.3841 61.4481 15.3841H53.0201V22.3281C53.0201 22.5335 52.9547 22.7015 52.8241 22.8321C52.6934 22.9441 52.5254 23.0001 52.3201 23.0001H49.8561Z" fill="#000033"/>
<path d="M66.3645 23.0001C66.1778 23.0001 66.0192 22.9348 65.8885 22.8041C65.7578 22.6735 65.6925 22.5148 65.6925 22.3281V3.79212C65.6925 3.58678 65.7578 3.42812 65.8885 3.31612C66.0192 3.18545 66.1778 3.12012 66.3645 3.12012H68.6885C68.8938 3.12012 69.0525 3.18545 69.1645 3.31612C69.2952 3.42812 69.3605 3.58678 69.3605 3.79212V22.3281C69.3605 22.5148 69.2952 22.6735 69.1645 22.8041C69.0525 22.9348 68.8938 23.0001 68.6885 23.0001H66.3645Z" fill="#000033"/>
<path d="M77.3026 23.2801C76.3506 23.2801 75.4733 23.0935 74.6706 22.7201C73.8866 22.3281 73.2613 21.8055 72.7946 21.1521C72.3466 20.4988 72.1226 19.7801 72.1226 18.9961C72.1226 17.7268 72.636 16.7001 73.6626 15.9161C74.6893 15.1321 76.0986 14.6001 77.8906 14.3201L81.7266 13.7601V13.1721C81.7266 12.3508 81.5213 11.7348 81.1106 11.3241C80.7 10.9135 80.0373 10.7081 79.1226 10.7081C78.5066 10.7081 78.0026 10.8295 77.6106 11.0721C77.2373 11.2961 76.9386 11.5201 76.7146 11.7441C76.4906 11.9868 76.3413 12.1455 76.2666 12.2201C76.192 12.4441 76.052 12.5561 75.8466 12.5561H73.6906C73.5226 12.5561 73.3733 12.5001 73.2426 12.3881C73.1306 12.2761 73.0746 12.1268 73.0746 11.9401C73.0933 11.4735 73.3173 10.9415 73.7466 10.3441C74.1946 9.74678 74.876 9.23345 75.7906 8.80412C76.7053 8.37478 77.8253 8.16012 79.1506 8.16012C81.3533 8.16012 82.9586 8.65478 83.9666 9.64412C84.9746 10.6335 85.4786 11.9308 85.4786 13.5361V22.3281C85.4786 22.5148 85.4133 22.6735 85.2826 22.8041C85.1706 22.9348 85.012 23.0001 84.8066 23.0001H82.5386C82.352 23.0001 82.1933 22.9348 82.0626 22.8041C81.932 22.6735 81.8666 22.5148 81.8666 22.3281V21.2361C81.456 21.8335 80.868 22.3281 80.1026 22.7201C79.356 23.0935 78.4226 23.2801 77.3026 23.2801ZM78.2546 20.6201C79.2813 20.6201 80.1213 20.2841 80.7746 19.6121C81.428 18.9401 81.7546 17.9601 81.7546 16.6721V16.0841L78.9546 16.5321C77.872 16.7001 77.0506 16.9708 76.4906 17.3441C75.9493 17.7175 75.6786 18.1748 75.6786 18.7161C75.6786 19.3135 75.9306 19.7801 76.4346 20.1161C76.9386 20.4521 77.5453 20.6201 78.2546 20.6201Z" fill="#000033"/>
<path d="M95.514 23.0001C93.8154 23.0001 92.5367 22.5615 91.678 21.6841C90.838 20.7881 90.418 19.4815 90.418 17.7641V11.4081H88.206C88.0193 11.4081 87.8607 11.3428 87.73 11.2121C87.5994 11.0628 87.534 10.8948 87.534 10.7081V9.11212C87.534 8.92545 87.5994 8.76678 87.73 8.63612C87.8607 8.50545 88.0193 8.44012 88.206 8.44012H90.418V3.79212C90.418 3.58678 90.4834 3.42812 90.614 3.31612C90.7447 3.18545 90.9034 3.12012 91.09 3.12012H93.358C93.5634 3.12012 93.722 3.18545 93.834 3.31612C93.9647 3.42812 94.03 3.58678 94.03 3.79212V8.44012H97.53C97.7354 8.44012 97.894 8.50545 98.006 8.63612C98.1367 8.74812 98.202 8.90678 98.202 9.11212V10.7081C98.202 10.9135 98.1367 11.0815 98.006 11.2121C97.8754 11.3428 97.7167 11.4081 97.53 11.4081H94.03V17.4841C94.03 18.2868 94.17 18.8935 94.45 19.3041C94.73 19.7148 95.1967 19.9201 95.85 19.9201H97.782C97.9687 19.9201 98.1274 19.9855 98.258 20.1161C98.3887 20.2468 98.454 20.4055 98.454 20.5921V22.3281C98.454 22.5148 98.3887 22.6735 98.258 22.8041C98.146 22.9348 97.9874 23.0001 97.782 23.0001H95.514Z" fill="#000033"/>
<path d="M101.946 23.0001C101.759 23.0001 101.601 22.9348 101.47 22.8041C101.339 22.6735 101.274 22.5148 101.274 22.3281V4.10012C101.274 3.89478 101.33 3.72678 101.442 3.59612C101.573 3.46545 101.741 3.40012 101.946 3.40012H114.098C114.303 3.40012 114.471 3.46545 114.602 3.59612C114.733 3.72678 114.798 3.89478 114.798 4.10012V6.06012C114.798 6.26545 114.733 6.43345 114.602 6.56412C114.471 6.67612 114.303 6.73212 114.098 6.73212H105.11V12.0521H113.538C113.743 12.0521 113.911 12.1175 114.042 12.2481C114.173 12.3788 114.238 12.5468 114.238 12.7521V14.7121C114.238 14.9175 114.173 15.0855 114.042 15.2161C113.911 15.3281 113.743 15.3841 113.538 15.3841H105.11V22.3281C105.11 22.5335 105.045 22.7015 104.914 22.8321C104.783 22.9441 104.615 23.0001 104.41 23.0001H101.946Z" fill="#000033"/>
<path d="M123.753 23.2801C121.681 23.2801 120.029 22.6828 118.797 21.4881C117.584 20.2748 116.94 18.5761 116.865 16.3921L116.837 15.6921L116.865 14.9921C116.958 12.8641 117.612 11.1935 118.825 9.98012C120.057 8.76678 121.7 8.16012 123.753 8.16012C125.956 8.16012 127.654 8.83212 128.849 10.1761C130.062 11.5201 130.669 13.3121 130.669 15.5521V16.1401C130.669 16.3268 130.604 16.4855 130.473 16.6161C130.342 16.7468 130.174 16.8121 129.969 16.8121H120.673V17.0361C120.71 18.0628 120.99 18.9308 121.513 19.6401C122.054 20.3308 122.792 20.6761 123.725 20.6761C124.826 20.6761 125.713 20.2468 126.385 19.3881C126.553 19.1828 126.684 19.0521 126.777 18.9961C126.889 18.9401 127.048 18.9121 127.253 18.9121H129.661C129.829 18.9121 129.969 18.9681 130.081 19.0801C130.212 19.1735 130.277 19.2948 130.277 19.4441C130.277 19.8921 130.006 20.4241 129.465 21.0401C128.942 21.6375 128.186 22.1601 127.197 22.6081C126.208 23.0561 125.06 23.2801 123.753 23.2801ZM126.861 14.4601V14.3761C126.861 13.2748 126.581 12.3881 126.021 11.7161C125.48 11.0441 124.724 10.7081 123.753 10.7081C122.782 10.7081 122.026 11.0441 121.485 11.7161C120.944 12.3881 120.673 13.2748 120.673 14.3761V14.4601H126.861Z" fill="#000033"/>
<path d="M139.913 23.2801C137.841 23.2801 136.189 22.6828 134.957 21.4881C133.744 20.2748 133.1 18.5761 133.025 16.3921L132.997 15.6921L133.025 14.9921C133.118 12.8641 133.772 11.1935 134.985 9.98012C136.217 8.76678 137.86 8.16012 139.913 8.16012C142.116 8.16012 143.814 8.83212 145.009 10.1761C146.222 11.5201 146.829 13.3121 146.829 15.5521V16.1401C146.829 16.3268 146.764 16.4855 146.633 16.6161C146.502 16.7468 146.334 16.8121 146.129 16.8121H136.833V17.0361C136.87 18.0628 137.15 18.9308 137.673 19.6401C138.214 20.3308 138.952 20.6761 139.885 20.6761C140.986 20.6761 141.873 20.2468 142.545 19.3881C142.713 19.1828 142.844 19.0521 142.937 18.9961C143.049 18.9401 143.208 18.9121 143.413 18.9121H145.821C145.989 18.9121 146.129 18.9681 146.241 19.0801C146.372 19.1735 146.437 19.2948 146.437 19.4441C146.437 19.8921 146.166 20.4241 145.625 21.0401C145.102 21.6375 144.346 22.1601 143.357 22.6081C142.368 23.0561 141.22 23.2801 139.913 23.2801ZM143.021 14.4601V14.3761C143.021 13.2748 142.741 12.3881 142.181 11.7161C141.64 11.0441 140.884 10.7081 139.913 10.7081C138.942 10.7081 138.186 11.0441 137.645 11.7161C137.104 12.3881 136.833 13.2748 136.833 14.3761V14.4601H143.021Z" fill="#000033"/>
<path d="M156.465 23.2801C155.009 23.2801 153.74 23.0468 152.657 22.5801C151.593 22.0948 150.772 21.4695 150.193 20.7041C149.633 19.9388 149.335 19.1175 149.297 18.2401C149.297 18.0908 149.353 17.9601 149.465 17.8481C149.577 17.7361 149.717 17.6801 149.885 17.6801H150.445C150.781 17.6801 150.987 17.8668 151.061 18.2401C151.192 19.1361 151.705 19.9201 152.601 20.5921C153.497 21.2641 154.785 21.6001 156.465 21.6001C158.239 21.6001 159.555 21.2828 160.413 20.6481C161.291 19.9948 161.729 19.0895 161.729 17.9321C161.729 17.2228 161.515 16.6441 161.085 16.1961C160.675 15.7295 160.068 15.3281 159.265 14.9921C158.463 14.6375 157.249 14.1988 155.625 13.6761C154.188 13.2095 153.059 12.7521 152.237 12.3041C151.435 11.8561 150.837 11.3055 150.445 10.6521C150.053 9.99878 149.857 9.16812 149.857 8.16012C149.857 7.20812 150.109 6.34945 150.613 5.58412C151.136 4.81878 151.883 4.22145 152.853 3.79212C153.824 3.34412 154.981 3.12012 156.325 3.12012C157.707 3.12012 158.892 3.37212 159.881 3.87612C160.871 4.36145 161.617 4.98678 162.121 5.75212C162.625 6.49878 162.896 7.25478 162.933 8.02012C162.933 8.16945 162.877 8.30012 162.765 8.41212C162.672 8.52412 162.532 8.58012 162.345 8.58012H161.785C161.655 8.58012 161.524 8.54278 161.393 8.46812C161.263 8.37478 161.188 8.22545 161.169 8.02012C161.057 7.08678 160.553 6.32145 159.657 5.72412C158.78 5.10812 157.669 4.80012 156.325 4.80012C154.888 4.80012 153.74 5.08012 152.881 5.64012C152.041 6.20012 151.621 7.04012 151.621 8.16012C151.621 8.88812 151.808 9.49478 152.181 9.98012C152.573 10.4468 153.152 10.8575 153.917 11.2121C154.683 11.5481 155.812 11.9588 157.305 12.4441C158.836 12.9295 160.031 13.3961 160.889 13.8441C161.748 14.2921 162.392 14.8335 162.821 15.4681C163.269 16.1028 163.493 16.9241 163.493 17.9321C163.493 19.6121 162.868 20.9281 161.617 21.8801C160.367 22.8134 158.649 23.2801 156.465 23.2801Z" fill="#000033"/>
<path d="M172.074 23.0001C170.693 23.0001 169.713 22.5895 169.134 21.7681C168.556 20.9281 168.266 19.7801 168.266 18.3241V10.0641H166.082C165.896 10.0641 165.746 10.0081 165.634 9.89612C165.522 9.78412 165.466 9.63478 165.466 9.44812V9.05612C165.466 8.86945 165.522 8.72012 165.634 8.60812C165.746 8.49612 165.896 8.44012 166.082 8.44012H168.266V3.73612C168.266 3.54945 168.322 3.40012 168.434 3.28812C168.546 3.17612 168.696 3.12012 168.882 3.12012H169.358C169.545 3.12012 169.694 3.17612 169.806 3.28812C169.918 3.40012 169.974 3.54945 169.974 3.73612V8.44012H173.446C173.633 8.44012 173.782 8.49612 173.894 8.60812C174.006 8.72012 174.062 8.86945 174.062 9.05612V9.44812C174.062 9.63478 174.006 9.78412 173.894 9.89612C173.782 10.0081 173.633 10.0641 173.446 10.0641H169.974V18.2121C169.974 19.2575 170.142 20.0508 170.478 20.5921C170.833 21.1148 171.412 21.3761 172.214 21.3761H173.726C173.913 21.3761 174.062 21.4321 174.174 21.5441C174.286 21.6561 174.342 21.8055 174.342 21.9921V22.3841C174.342 22.5708 174.286 22.7201 174.174 22.8321C174.062 22.9441 173.913 23.0001 173.726 23.0001H172.074Z" fill="#000033"/>
<path d="M181.157 23.2801C180.261 23.2801 179.43 23.0935 178.665 22.7201C177.899 22.3468 177.284 21.8428 176.817 21.2081C176.369 20.5735 176.145 19.8735 176.145 19.1081C176.145 17.8761 176.639 16.8681 177.629 16.0841C178.637 15.3001 179.99 14.7961 181.689 14.5721L186.113 13.9561V12.9761C186.113 11.9495 185.796 11.1655 185.161 10.6241C184.545 10.0641 183.593 9.78412 182.305 9.78412C181.353 9.78412 180.569 9.97078 179.953 10.3441C179.355 10.7175 178.973 11.1655 178.805 11.6881C178.73 11.9121 178.637 12.0708 178.525 12.1641C178.431 12.2388 178.301 12.2761 178.133 12.2761H177.741C177.573 12.2761 177.423 12.2201 177.293 12.1081C177.181 11.9775 177.125 11.8281 177.125 11.6601C177.125 11.2495 177.311 10.7735 177.685 10.2321C178.058 9.67212 178.637 9.18678 179.421 8.77612C180.205 8.36545 181.166 8.16012 182.305 8.16012C184.302 8.16012 185.721 8.63612 186.561 9.58812C187.401 10.5401 187.821 11.6975 187.821 13.0601V22.3841C187.821 22.5708 187.765 22.7201 187.653 22.8321C187.541 22.9441 187.391 23.0001 187.205 23.0001H186.729C186.542 23.0001 186.393 22.9441 186.281 22.8321C186.169 22.7201 186.113 22.5708 186.113 22.3841V21.0681C185.702 21.6841 185.096 22.2068 184.293 22.6361C183.509 23.0655 182.464 23.2801 181.157 23.2801ZM181.437 21.6561C182.799 21.6561 183.919 21.2081 184.797 20.3121C185.674 19.4161 186.113 18.1281 186.113 16.4481V15.4961L182.501 16.0001C180.97 16.2055 179.813 16.5601 179.029 17.0641C178.245 17.5681 177.853 18.2028 177.853 18.9681C177.853 19.8268 178.207 20.4895 178.917 20.9561C179.645 21.4228 180.485 21.6561 181.437 21.6561Z" fill="#000033"/>
<path d="M197.765 23.2801C195.823 23.2801 194.321 22.7201 193.257 21.6001C192.193 20.4615 191.633 18.8748 191.577 16.8401L191.549 15.7201L191.577 14.6001C191.633 12.5655 192.193 10.9881 193.257 9.86812C194.321 8.72945 195.823 8.16012 197.765 8.16012C198.997 8.16012 200.042 8.38412 200.901 8.83212C201.778 9.26145 202.431 9.82145 202.861 10.5121C203.29 11.1841 203.523 11.8841 203.561 12.6121C203.579 12.7801 203.523 12.9295 203.393 13.0601C203.262 13.1721 203.113 13.2281 202.945 13.2281H202.553C202.366 13.2281 202.226 13.1908 202.133 13.1161C202.058 13.0228 201.974 12.8641 201.881 12.6401C201.507 11.6135 200.985 10.8855 200.313 10.4561C199.641 10.0081 198.791 9.78412 197.765 9.78412C196.421 9.78412 195.347 10.1948 194.545 11.0161C193.761 11.8188 193.341 13.0601 193.285 14.7401L193.257 15.7201L193.285 16.7001C193.341 18.3801 193.761 19.6308 194.545 20.4521C195.347 21.2548 196.421 21.6561 197.765 21.6561C198.791 21.6561 199.641 21.4415 200.313 21.0121C200.985 20.5641 201.507 19.8268 201.881 18.8001C201.974 18.5761 202.058 18.4268 202.133 18.3521C202.226 18.2588 202.366 18.2121 202.553 18.2121H202.945C203.113 18.2121 203.262 18.2775 203.393 18.4081C203.523 18.5201 203.579 18.6601 203.561 18.8281C203.523 19.5561 203.29 20.2655 202.861 20.9561C202.431 21.6281 201.778 22.1881 200.901 22.6361C200.042 23.0655 198.997 23.2801 197.765 23.2801Z" fill="#000033"/>
<path d="M207.904 23.0001C207.718 23.0001 207.568 22.9441 207.456 22.8321C207.344 22.7201 207.288 22.5708 207.288 22.3841V3.73612C207.288 3.54945 207.344 3.40012 207.456 3.28812C207.568 3.17612 207.718 3.12012 207.904 3.12012H208.38C208.567 3.12012 208.716 3.17612 208.828 3.28812C208.94 3.40012 208.996 3.54945 208.996 3.73612V13.6481L215.24 8.91612C215.539 8.69212 215.744 8.56145 215.856 8.52412C215.968 8.46812 216.155 8.44012 216.416 8.44012H216.948C217.116 8.44012 217.247 8.49612 217.34 8.60812C217.452 8.70145 217.508 8.83212 217.508 9.00012C217.508 9.20545 217.387 9.39212 217.144 9.56012L210.06 14.9361L217.844 21.8801C218.087 22.1041 218.208 22.2908 218.208 22.4401C218.208 22.6081 218.152 22.7481 218.04 22.8601C217.947 22.9535 217.816 23.0001 217.648 23.0001H217.2C216.92 23.0001 216.715 22.9815 216.584 22.9441C216.454 22.8881 216.267 22.7481 216.024 22.5241L208.996 16.2801V22.3841C208.996 22.5708 208.94 22.7201 208.828 22.8321C208.716 22.9441 208.567 23.0001 208.38 23.0001H207.904Z" fill="#000033"/>
<path d="M195.32 39.0002C195.24 39.0002 195.172 38.9762 195.116 38.9282C195.068 38.8722 195.044 38.8042 195.044 38.7242V30.8882C195.044 30.8002 195.068 30.7322 195.116 30.6842C195.172 30.6282 195.24 30.6002 195.32 30.6002H198.608C199.464 30.6002 200.108 30.8042 200.54 31.2122C200.972 31.6202 201.188 32.1562 201.188 32.8202C201.188 33.2682 201.084 33.6402 200.876 33.9362C200.676 34.2322 200.436 34.4482 200.156 34.5842C200.492 34.7522 200.776 35.0122 201.008 35.3642C201.24 35.7162 201.356 36.1202 201.356 36.5762C201.356 37.0242 201.252 37.4322 201.044 37.8002C200.844 38.1682 200.544 38.4602 200.144 38.6762C199.744 38.8922 199.264 39.0002 198.704 39.0002H195.32ZM198.428 34.1522C198.932 34.1522 199.316 34.0362 199.58 33.8042C199.852 33.5722 199.988 33.2482 199.988 32.8322C199.988 32.4242 199.856 32.1122 199.592 31.8962C199.328 31.6802 198.94 31.5722 198.428 31.5722H196.22V34.1522H198.428ZM198.548 38.0282C199.052 38.0282 199.444 37.8922 199.724 37.6202C200.012 37.3482 200.156 37.0002 200.156 36.5762C200.156 36.1362 200.012 35.7842 199.724 35.5202C199.444 35.2482 199.052 35.1122 198.548 35.1122H196.22V38.0282H198.548Z" fill="#B3B3B3"/>
<path d="M205.4 39.1202C204.576 39.1202 203.916 38.8682 203.42 38.3642C202.932 37.8522 202.664 37.1562 202.616 36.2762L202.604 35.8682L202.616 35.4722C202.672 34.6082 202.944 33.9202 203.432 33.4082C203.928 32.8962 204.58 32.6402 205.388 32.6402C206.276 32.6402 206.964 32.9242 207.452 33.4922C207.94 34.0522 208.184 34.8122 208.184 35.7722V35.9762C208.184 36.0562 208.156 36.1242 208.1 36.1802C208.052 36.2282 207.988 36.2522 207.908 36.2522H203.756V36.3602C203.78 36.8802 203.936 37.3242 204.224 37.6922C204.52 38.0522 204.908 38.2322 205.388 38.2322C205.756 38.2322 206.056 38.1602 206.288 38.0162C206.528 37.8642 206.704 37.7082 206.816 37.5482C206.888 37.4522 206.94 37.3962 206.972 37.3802C207.012 37.3562 207.08 37.3442 207.176 37.3442H207.764C207.836 37.3442 207.896 37.3642 207.944 37.4042C207.992 37.4442 208.016 37.5002 208.016 37.5722C208.016 37.7482 207.904 37.9602 207.68 38.2082C207.464 38.4562 207.156 38.6722 206.756 38.8562C206.364 39.0322 205.912 39.1202 205.4 39.1202ZM207.044 35.4242V35.3882C207.044 34.8362 206.892 34.3882 206.588 34.0442C206.292 33.6922 205.892 33.5162 205.388 33.5162C204.884 33.5162 204.484 33.6922 204.188 34.0442C203.9 34.3882 203.756 34.8362 203.756 35.3882V35.4242H207.044Z" fill="#B3B3B3"/>
<path d="M212.019 39.0002C210.755 39.0002 210.123 38.2962 210.123 36.8882V33.7202H209.187C209.107 33.7202 209.039 33.6962 208.983 33.6482C208.935 33.5922 208.911 33.5242 208.911 33.4442V33.0362C208.911 32.9562 208.935 32.8922 208.983 32.8442C209.039 32.7882 209.107 32.7602 209.187 32.7602H210.123V30.7562C210.123 30.6762 210.147 30.6122 210.195 30.5642C210.251 30.5082 210.319 30.4802 210.399 30.4802H210.963C211.043 30.4802 211.107 30.5082 211.155 30.5642C211.211 30.6122 211.239 30.6762 211.239 30.7562V32.7602H212.727C212.807 32.7602 212.871 32.7882 212.919 32.8442C212.975 32.8922 213.003 32.9562 213.003 33.0362V33.4442C213.003 33.5242 212.975 33.5922 212.919 33.6482C212.871 33.6962 212.807 33.7202 212.727 33.7202H211.239V36.8042C211.239 37.2042 211.307 37.5082 211.443 37.7162C211.579 37.9162 211.803 38.0162 212.115 38.0162H212.847C212.927 38.0162 212.991 38.0442 213.039 38.1002C213.095 38.1482 213.123 38.2122 213.123 38.2922V38.7242C213.123 38.8042 213.095 38.8722 213.039 38.9282C212.991 38.9762 212.927 39.0002 212.847 39.0002H212.019Z" fill="#B3B3B3"/>
<path d="M216.011 39.1202C215.619 39.1202 215.255 39.0402 214.919 38.8802C214.583 38.7202 214.315 38.5042 214.115 38.2322C213.923 37.9522 213.827 37.6442 213.827 37.3082C213.827 36.7802 214.043 36.3482 214.475 36.0122C214.915 35.6682 215.507 35.4442 216.251 35.3402L218.039 35.0882V34.7402C218.039 33.9242 217.571 33.5162 216.635 33.5162C216.283 33.5162 215.995 33.5922 215.771 33.7442C215.547 33.8882 215.379 34.0602 215.267 34.2602C215.243 34.3322 215.211 34.3842 215.171 34.4162C215.139 34.4482 215.091 34.4642 215.027 34.4642H214.511C214.439 34.4642 214.375 34.4402 214.319 34.3922C214.271 34.3362 214.247 34.2722 214.247 34.2002C214.255 34.0082 214.343 33.7922 214.511 33.5522C214.687 33.3042 214.955 33.0922 215.315 32.9162C215.675 32.7322 216.119 32.6402 216.647 32.6402C217.543 32.6402 218.187 32.8522 218.579 33.2762C218.971 33.6922 219.167 34.2122 219.167 34.8362V38.7242C219.167 38.8042 219.139 38.8722 219.083 38.9282C219.035 38.9762 218.971 39.0002 218.891 39.0002H218.339C218.259 39.0002 218.191 38.9762 218.135 38.9282C218.087 38.8722 218.063 38.8042 218.063 38.7242V38.2082C217.887 38.4642 217.631 38.6802 217.295 38.8562C216.959 39.0322 216.531 39.1202 216.011 39.1202ZM216.263 38.2202C216.783 38.2202 217.207 38.0522 217.535 37.7162C217.871 37.3722 218.039 36.8802 218.039 36.2402V35.9042L216.647 36.1082C216.079 36.1882 215.651 36.3242 215.363 36.5162C215.075 36.7002 214.931 36.9362 214.931 37.2242C214.931 37.5442 215.063 37.7922 215.327 37.9682C215.591 38.1362 215.903 38.2202 216.263 38.2202Z" fill="#B3B3B3"/>
<g clip-path="url(#clip0)">
<path d="M-1 9.14935e-05V22.7199H39V9.14935e-05L34.122 0V19.4742H3.87805V9.14935e-05H-1Z" fill="black"/>
<path d="M6.01153 9.73626L6 3.24561L18 3.25781V9.73701L6.01153 9.73626Z" fill="#00E599"/>
<path d="M20.0115 9.73626L20 3.24561L32 3.25781V9.73701L20.0115 9.73626Z" fill="#00E599"/>
<path d="M6.01153 17.8505L6 11.3599L18 11.3721V17.8513L6.01153 17.8505Z" fill="#00E599"/>
<path d="M20.0115 17.8505L20 11.3599L32 11.3721V17.8513L20.0115 17.8505Z" fill="#00E599"/>
</g>
<defs>
<clipPath id="clip0">
<rect width="39" height="22.7199" fill="white"/>
</clipPath>
</defs>
</svg>
