<svg width="220" height="41" viewBox="0 0 220 41" fill="none" xmlns="http://www.w3.org/2000/svg">
<path d="M49.856 24.7124C49.6694 24.7124 49.5107 24.6471 49.38 24.5164C49.2494 24.3857 49.184 24.2271 49.184 24.0404V5.8124C49.184 5.60706 49.24 5.43906 49.352 5.3084C49.4827 5.17773 49.6507 5.1124 49.856 5.1124H62.008C62.2134 5.1124 62.3814 5.17773 62.512 5.3084C62.6427 5.43906 62.708 5.60706 62.708 5.8124V7.7724C62.708 7.97773 62.6427 8.14573 62.512 8.2764C62.3814 8.3884 62.2134 8.4444 62.008 8.4444H53.02V13.7644H61.448C61.6534 13.7644 61.8214 13.8297 61.952 13.9604C62.0827 14.0911 62.148 14.2591 62.148 14.4644V16.4244C62.148 16.6297 62.0827 16.7977 61.952 16.9284C61.8214 17.0404 61.6534 17.0964 61.448 17.0964H53.02V24.0404C53.02 24.2457 52.9547 24.4137 52.824 24.5444C52.6934 24.6564 52.5254 24.7124 52.32 24.7124H49.856Z" fill="white"/>
<path d="M66.3644 24.7124C66.1778 24.7124 66.0191 24.6471 65.8884 24.5164C65.7578 24.3857 65.6924 24.2271 65.6924 24.0404V5.5044C65.6924 5.29906 65.7578 5.1404 65.8884 5.0284C66.0191 4.89773 66.1778 4.8324 66.3644 4.8324H68.6884C68.8938 4.8324 69.0524 4.89773 69.1644 5.0284C69.2951 5.1404 69.3604 5.29906 69.3604 5.5044V24.0404C69.3604 24.2271 69.2951 24.3857 69.1644 24.5164C69.0524 24.6471 68.8938 24.7124 68.6884 24.7124H66.3644Z" fill="white"/>
<path d="M77.3026 24.9924C76.3506 24.9924 75.4733 24.8057 74.6706 24.4324C73.8866 24.0404 73.2613 23.5177 72.7946 22.8644C72.3466 22.2111 72.1226 21.4924 72.1226 20.7084C72.1226 19.4391 72.6359 18.4124 73.6626 17.6284C74.6893 16.8444 76.0986 16.3124 77.8906 16.0324L81.7266 15.4724V14.8844C81.7266 14.0631 81.5212 13.4471 81.1106 13.0364C80.6999 12.6257 80.0373 12.4204 79.1226 12.4204C78.5066 12.4204 78.0026 12.5417 77.6106 12.7844C77.2373 13.0084 76.9386 13.2324 76.7146 13.4564C76.4906 13.6991 76.3413 13.8577 76.2666 13.9324C76.1919 14.1564 76.0519 14.2684 75.8466 14.2684H73.6906C73.5226 14.2684 73.3733 14.2124 73.2426 14.1004C73.1306 13.9884 73.0746 13.8391 73.0746 13.6524C73.0933 13.1857 73.3173 12.6537 73.7466 12.0564C74.1946 11.4591 74.8759 10.9457 75.7906 10.5164C76.7052 10.0871 77.8253 9.8724 79.1506 9.8724C81.3532 9.8724 82.9586 10.3671 83.9666 11.3564C84.9746 12.3457 85.4786 13.6431 85.4786 15.2484V24.0404C85.4786 24.2271 85.4132 24.3857 85.2826 24.5164C85.1706 24.6471 85.0119 24.7124 84.8066 24.7124H82.5386C82.3519 24.7124 82.1932 24.6471 82.0626 24.5164C81.9319 24.3857 81.8666 24.2271 81.8666 24.0404V22.9484C81.4559 23.5457 80.8679 24.0404 80.1026 24.4324C79.3559 24.8057 78.4226 24.9924 77.3026 24.9924ZM78.2546 22.3324C79.2812 22.3324 80.1213 21.9964 80.7746 21.3244C81.4279 20.6524 81.7546 19.6724 81.7546 18.3844V17.7964L78.9546 18.2444C77.8719 18.4124 77.0506 18.6831 76.4906 19.0564C75.9492 19.4297 75.6786 19.8871 75.6786 20.4284C75.6786 21.0257 75.9306 21.4924 76.4346 21.8284C76.9386 22.1644 77.5452 22.3324 78.2546 22.3324Z" fill="white"/>
<path d="M95.514 24.7124C93.8153 24.7124 92.5366 24.2737 91.678 23.3964C90.838 22.5004 90.418 21.1937 90.418 19.4764V13.1204H88.206C88.0193 13.1204 87.8606 13.0551 87.73 12.9244C87.5993 12.7751 87.534 12.6071 87.534 12.4204V10.8244C87.534 10.6377 87.5993 10.4791 87.73 10.3484C87.8606 10.2177 88.0193 10.1524 88.206 10.1524H90.418V5.5044C90.418 5.29906 90.4833 5.1404 90.614 5.0284C90.7446 4.89773 90.9033 4.8324 91.09 4.8324H93.358C93.5633 4.8324 93.722 4.89773 93.834 5.0284C93.9646 5.1404 94.03 5.29906 94.03 5.5044V10.1524H97.53C97.7353 10.1524 97.894 10.2177 98.006 10.3484C98.1366 10.4604 98.202 10.6191 98.202 10.8244V12.4204C98.202 12.6257 98.1366 12.7937 98.006 12.9244C97.8753 13.0551 97.7166 13.1204 97.53 13.1204H94.03V19.1964C94.03 19.9991 94.17 20.6057 94.45 21.0164C94.73 21.4271 95.1966 21.6324 95.85 21.6324H97.782C97.9686 21.6324 98.1273 21.6977 98.258 21.8284C98.3886 21.9591 98.454 22.1177 98.454 22.3044V24.0404C98.454 24.2271 98.3886 24.3857 98.258 24.5164C98.146 24.6471 97.9873 24.7124 97.782 24.7124H95.514Z" fill="white"/>
<path d="M101.946 24.7124C101.759 24.7124 101.601 24.6471 101.47 24.5164C101.339 24.3857 101.274 24.2271 101.274 24.0404V5.8124C101.274 5.60706 101.33 5.43906 101.442 5.3084C101.573 5.17773 101.741 5.1124 101.946 5.1124H114.098C114.303 5.1124 114.471 5.17773 114.602 5.3084C114.733 5.43906 114.798 5.60706 114.798 5.8124V7.7724C114.798 7.97773 114.733 8.14573 114.602 8.2764C114.471 8.3884 114.303 8.4444 114.098 8.4444H105.11V13.7644H113.538C113.743 13.7644 113.911 13.8297 114.042 13.9604C114.173 14.0911 114.238 14.2591 114.238 14.4644V16.4244C114.238 16.6297 114.173 16.7977 114.042 16.9284C113.911 17.0404 113.743 17.0964 113.538 17.0964H105.11V24.0404C105.11 24.2457 105.045 24.4137 104.914 24.5444C104.783 24.6564 104.615 24.7124 104.41 24.7124H101.946Z" fill="white"/>
<path d="M123.753 24.9924C121.681 24.9924 120.029 24.3951 118.797 23.2004C117.584 21.9871 116.94 20.2884 116.865 18.1044L116.837 17.4044L116.865 16.7044C116.958 14.5764 117.612 12.9057 118.825 11.6924C120.057 10.4791 121.7 9.8724 123.753 9.8724C125.956 9.8724 127.654 10.5444 128.849 11.8884C130.062 13.2324 130.669 15.0244 130.669 17.2644V17.8524C130.669 18.0391 130.604 18.1977 130.473 18.3284C130.342 18.4591 130.174 18.5244 129.969 18.5244H120.673V18.7484C120.71 19.7751 120.99 20.6431 121.513 21.3524C122.054 22.0431 122.792 22.3884 123.725 22.3884C124.826 22.3884 125.713 21.9591 126.385 21.1004C126.553 20.8951 126.684 20.7644 126.777 20.7084C126.889 20.6524 127.048 20.6244 127.253 20.6244H129.661C129.829 20.6244 129.969 20.6804 130.081 20.7924C130.212 20.8857 130.277 21.0071 130.277 21.1564C130.277 21.6044 130.006 22.1364 129.465 22.7524C128.942 23.3497 128.186 23.8724 127.197 24.3204C126.208 24.7684 125.06 24.9924 123.753 24.9924ZM126.861 16.1724V16.0884C126.861 14.9871 126.581 14.1004 126.021 13.4284C125.479 12.7564 124.724 12.4204 123.753 12.4204C122.782 12.4204 122.026 12.7564 121.485 13.4284C120.943 14.1004 120.673 14.9871 120.673 16.0884V16.1724H126.861Z" fill="white"/>
<path d="M139.913 24.9924C137.841 24.9924 136.189 24.3951 134.957 23.2004C133.744 21.9871 133.1 20.2884 133.025 18.1044L132.997 17.4044L133.025 16.7044C133.118 14.5764 133.772 12.9057 134.985 11.6924C136.217 10.4791 137.86 9.8724 139.913 9.8724C142.116 9.8724 143.814 10.5444 145.009 11.8884C146.222 13.2324 146.829 15.0244 146.829 17.2644V17.8524C146.829 18.0391 146.764 18.1977 146.633 18.3284C146.502 18.4591 146.334 18.5244 146.129 18.5244H136.833V18.7484C136.87 19.7751 137.15 20.6431 137.673 21.3524C138.214 22.0431 138.952 22.3884 139.885 22.3884C140.986 22.3884 141.873 21.9591 142.545 21.1004C142.713 20.8951 142.844 20.7644 142.937 20.7084C143.049 20.6524 143.208 20.6244 143.413 20.6244H145.821C145.989 20.6244 146.129 20.6804 146.241 20.7924C146.372 20.8857 146.437 21.0071 146.437 21.1564C146.437 21.6044 146.166 22.1364 145.625 22.7524C145.102 23.3497 144.346 23.8724 143.357 24.3204C142.368 24.7684 141.22 24.9924 139.913 24.9924ZM143.021 16.1724V16.0884C143.021 14.9871 142.741 14.1004 142.181 13.4284C141.64 12.7564 140.884 12.4204 139.913 12.4204C138.942 12.4204 138.186 12.7564 137.645 13.4284C137.104 14.1004 136.833 14.9871 136.833 16.0884V16.1724H143.021Z" fill="white"/>
<path d="M156.465 24.9924C155.009 24.9924 153.74 24.7591 152.657 24.2924C151.593 23.8071 150.772 23.1817 150.193 22.4164C149.633 21.6511 149.334 20.8297 149.297 19.9524C149.297 19.8031 149.353 19.6724 149.465 19.5604C149.577 19.4484 149.717 19.3924 149.885 19.3924H150.445C150.781 19.3924 150.986 19.5791 151.061 19.9524C151.192 20.8484 151.705 21.6324 152.601 22.3044C153.497 22.9764 154.785 23.3124 156.465 23.3124C158.238 23.3124 159.554 22.9951 160.413 22.3604C161.29 21.7071 161.729 20.8017 161.729 19.6444C161.729 18.9351 161.514 18.3564 161.085 17.9084C160.674 17.4417 160.068 17.0404 159.265 16.7044C158.462 16.3497 157.249 15.9111 155.625 15.3884C154.188 14.9217 153.058 14.4644 152.237 14.0164C151.434 13.5684 150.837 13.0177 150.445 12.3644C150.053 11.7111 149.857 10.8804 149.857 9.8724C149.857 8.9204 150.109 8.06173 150.613 7.2964C151.136 6.53106 151.882 5.93373 152.853 5.5044C153.824 5.0564 154.981 4.8324 156.325 4.8324C157.706 4.8324 158.892 5.0844 159.881 5.5884C160.87 6.07373 161.617 6.69906 162.121 7.4644C162.625 8.21106 162.896 8.96706 162.933 9.7324C162.933 9.88173 162.877 10.0124 162.765 10.1244C162.672 10.2364 162.532 10.2924 162.345 10.2924H161.785C161.654 10.2924 161.524 10.2551 161.393 10.1804C161.262 10.0871 161.188 9.93773 161.169 9.7324C161.057 8.79906 160.553 8.03373 159.657 7.4364C158.78 6.8204 157.669 6.5124 156.325 6.5124C154.888 6.5124 153.74 6.7924 152.881 7.3524C152.041 7.9124 151.621 8.7524 151.621 9.8724C151.621 10.6004 151.808 11.2071 152.181 11.6924C152.573 12.1591 153.152 12.5697 153.917 12.9244C154.682 13.2604 155.812 13.6711 157.305 14.1564C158.836 14.6417 160.03 15.1084 160.889 15.5564C161.748 16.0044 162.392 16.5457 162.821 17.1804C163.269 17.8151 163.493 18.6364 163.493 19.6444C163.493 21.3244 162.868 22.6404 161.617 23.5924C160.366 24.5257 158.649 24.9924 156.465 24.9924Z" fill="white"/>
<path d="M172.074 24.7124C170.693 24.7124 169.713 24.3017 169.134 23.4804C168.556 22.6404 168.266 21.4924 168.266 20.0364V11.7764H166.082C165.896 11.7764 165.746 11.7204 165.634 11.6084C165.522 11.4964 165.466 11.3471 165.466 11.1604V10.7684C165.466 10.5817 165.522 10.4324 165.634 10.3204C165.746 10.2084 165.896 10.1524 166.082 10.1524H168.266V5.4484C168.266 5.26173 168.322 5.1124 168.434 5.0004C168.546 4.8884 168.696 4.8324 168.882 4.8324H169.358C169.545 4.8324 169.694 4.8884 169.806 5.0004C169.918 5.1124 169.974 5.26173 169.974 5.4484V10.1524H173.446C173.633 10.1524 173.782 10.2084 173.894 10.3204C174.006 10.4324 174.062 10.5817 174.062 10.7684V11.1604C174.062 11.3471 174.006 11.4964 173.894 11.6084C173.782 11.7204 173.633 11.7764 173.446 11.7764H169.974V19.9244C169.974 20.9697 170.142 21.7631 170.478 22.3044C170.833 22.8271 171.412 23.0884 172.214 23.0884H173.726C173.913 23.0884 174.062 23.1444 174.174 23.2564C174.286 23.3684 174.342 23.5177 174.342 23.7044V24.0964C174.342 24.2831 174.286 24.4324 174.174 24.5444C174.062 24.6564 173.913 24.7124 173.726 24.7124H172.074Z" fill="white"/>
<path d="M181.157 24.9924C180.261 24.9924 179.43 24.8057 178.665 24.4324C177.899 24.0591 177.283 23.5551 176.817 22.9204C176.369 22.2857 176.145 21.5857 176.145 20.8204C176.145 19.5884 176.639 18.5804 177.629 17.7964C178.637 17.0124 179.99 16.5084 181.689 16.2844L186.113 15.6684V14.6884C186.113 13.6617 185.795 12.8777 185.161 12.3364C184.545 11.7764 183.593 11.4964 182.305 11.4964C181.353 11.4964 180.569 11.6831 179.953 12.0564C179.355 12.4297 178.973 12.8777 178.805 13.4004C178.73 13.6244 178.637 13.7831 178.525 13.8764C178.431 13.9511 178.301 13.9884 178.133 13.9884H177.741C177.573 13.9884 177.423 13.9324 177.293 13.8204C177.181 13.6897 177.125 13.5404 177.125 13.3724C177.125 12.9617 177.311 12.4857 177.685 11.9444C178.058 11.3844 178.637 10.8991 179.421 10.4884C180.205 10.0777 181.166 9.8724 182.305 9.8724C184.302 9.8724 185.721 10.3484 186.561 11.3004C187.401 12.2524 187.821 13.4097 187.821 14.7724V24.0964C187.821 24.2831 187.765 24.4324 187.653 24.5444C187.541 24.6564 187.391 24.7124 187.205 24.7124H186.729C186.542 24.7124 186.393 24.6564 186.281 24.5444C186.169 24.4324 186.113 24.2831 186.113 24.0964V22.7804C185.702 23.3964 185.095 23.9191 184.293 24.3484C183.509 24.7777 182.463 24.9924 181.157 24.9924ZM181.437 23.3684C182.799 23.3684 183.919 22.9204 184.797 22.0244C185.674 21.1284 186.113 19.8404 186.113 18.1604V17.2084L182.501 17.7124C180.97 17.9177 179.813 18.2724 179.029 18.7764C178.245 19.2804 177.853 19.9151 177.853 20.6804C177.853 21.5391 178.207 22.2017 178.917 22.6684C179.645 23.1351 180.485 23.3684 181.437 23.3684Z" fill="white"/>
<path d="M197.764 24.9924C195.823 24.9924 194.32 24.4324 193.256 23.3124C192.192 22.1737 191.632 20.5871 191.576 18.5524L191.548 17.4324L191.576 16.3124C191.632 14.2777 192.192 12.7004 193.256 11.5804C194.32 10.4417 195.823 9.8724 197.764 9.8724C198.996 9.8724 200.042 10.0964 200.9 10.5444C201.778 10.9737 202.431 11.5337 202.86 12.2244C203.29 12.8964 203.523 13.5964 203.56 14.3244C203.579 14.4924 203.523 14.6417 203.392 14.7724C203.262 14.8844 203.112 14.9404 202.944 14.9404H202.552C202.366 14.9404 202.226 14.9031 202.132 14.8284C202.058 14.7351 201.974 14.5764 201.88 14.3524C201.507 13.3257 200.984 12.5977 200.312 12.1684C199.64 11.7204 198.791 11.4964 197.764 11.4964C196.42 11.4964 195.347 11.9071 194.544 12.7284C193.76 13.5311 193.34 14.7724 193.284 16.4524L193.256 17.4324L193.284 18.4124C193.34 20.0924 193.76 21.3431 194.544 22.1644C195.347 22.9671 196.42 23.3684 197.764 23.3684C198.791 23.3684 199.64 23.1537 200.312 22.7244C200.984 22.2764 201.507 21.5391 201.88 20.5124C201.974 20.2884 202.058 20.1391 202.132 20.0644C202.226 19.9711 202.366 19.9244 202.552 19.9244H202.944C203.112 19.9244 203.262 19.9897 203.392 20.1204C203.523 20.2324 203.579 20.3724 203.56 20.5404C203.523 21.2684 203.29 21.9777 202.86 22.6684C202.431 23.3404 201.778 23.9004 200.9 24.3484C200.042 24.7777 198.996 24.9924 197.764 24.9924Z" fill="white"/>
<path d="M207.904 24.7124C207.718 24.7124 207.568 24.6564 207.456 24.5444C207.344 24.4324 207.288 24.2831 207.288 24.0964V5.4484C207.288 5.26173 207.344 5.1124 207.456 5.0004C207.568 4.8884 207.718 4.8324 207.904 4.8324H208.38C208.567 4.8324 208.716 4.8884 208.828 5.0004C208.94 5.1124 208.996 5.26173 208.996 5.4484V15.3604L215.24 10.6284C215.539 10.4044 215.744 10.2737 215.856 10.2364C215.968 10.1804 216.155 10.1524 216.416 10.1524H216.948C217.116 10.1524 217.247 10.2084 217.34 10.3204C217.452 10.4137 217.508 10.5444 217.508 10.7124C217.508 10.9177 217.387 11.1044 217.144 11.2724L210.06 16.6484L217.844 23.5924C218.087 23.8164 218.208 24.0031 218.208 24.1524C218.208 24.3204 218.152 24.4604 218.04 24.5724C217.947 24.6657 217.816 24.7124 217.648 24.7124H217.2C216.92 24.7124 216.715 24.6937 216.584 24.6564C216.454 24.6004 216.267 24.4604 216.024 24.2364L208.996 17.9924V24.0964C208.996 24.2831 208.94 24.4324 208.828 24.5444C208.716 24.6564 208.567 24.7124 208.38 24.7124H207.904Z" fill="white"/>
<path d="M195.32 40.7124C195.24 40.7124 195.172 40.6884 195.116 40.6404C195.068 40.5844 195.044 40.5164 195.044 40.4364V32.6004C195.044 32.5124 195.068 32.4444 195.116 32.3964C195.172 32.3404 195.24 32.3124 195.32 32.3124H198.608C199.464 32.3124 200.108 32.5164 200.54 32.9244C200.972 33.3324 201.188 33.8684 201.188 34.5324C201.188 34.9804 201.084 35.3524 200.876 35.6484C200.676 35.9444 200.436 36.1604 200.156 36.2964C200.492 36.4644 200.776 36.7244 201.008 37.0764C201.24 37.4284 201.356 37.8324 201.356 38.2884C201.356 38.7364 201.252 39.1444 201.044 39.5124C200.844 39.8804 200.544 40.1724 200.144 40.3884C199.744 40.6044 199.264 40.7124 198.704 40.7124H195.32ZM198.428 35.8644C198.932 35.8644 199.316 35.7484 199.58 35.5164C199.852 35.2844 199.988 34.9604 199.988 34.5444C199.988 34.1364 199.856 33.8244 199.592 33.6084C199.328 33.3924 198.94 33.2844 198.428 33.2844H196.22V35.8644H198.428ZM198.548 39.7404C199.052 39.7404 199.444 39.6044 199.724 39.3324C200.012 39.0604 200.156 38.7124 200.156 38.2884C200.156 37.8484 200.012 37.4964 199.724 37.2324C199.444 36.9604 199.052 36.8244 198.548 36.8244H196.22V39.7404H198.548Z" fill="#7F9BAD"/>
<path d="M205.4 40.8324C204.576 40.8324 203.916 40.5804 203.42 40.0764C202.932 39.5644 202.664 38.8684 202.616 37.9884L202.604 37.5804L202.616 37.1844C202.672 36.3204 202.944 35.6324 203.432 35.1204C203.928 34.6084 204.58 34.3524 205.388 34.3524C206.276 34.3524 206.964 34.6364 207.452 35.2044C207.94 35.7644 208.184 36.5244 208.184 37.4844V37.6884C208.184 37.7684 208.156 37.8364 208.1 37.8924C208.052 37.9404 207.988 37.9644 207.908 37.9644H203.756V38.0724C203.78 38.5924 203.936 39.0364 204.224 39.4044C204.52 39.7644 204.908 39.9444 205.388 39.9444C205.756 39.9444 206.056 39.8724 206.288 39.7284C206.528 39.5764 206.704 39.4204 206.816 39.2604C206.888 39.1644 206.94 39.1084 206.972 39.0924C207.012 39.0684 207.08 39.0564 207.176 39.0564H207.764C207.836 39.0564 207.896 39.0764 207.944 39.1164C207.992 39.1564 208.016 39.2124 208.016 39.2844C208.016 39.4604 207.904 39.6724 207.68 39.9204C207.464 40.1684 207.156 40.3844 206.756 40.5684C206.364 40.7444 205.912 40.8324 205.4 40.8324ZM207.044 37.1364V37.1004C207.044 36.5484 206.892 36.1004 206.588 35.7564C206.292 35.4044 205.892 35.2284 205.388 35.2284C204.884 35.2284 204.484 35.4044 204.188 35.7564C203.9 36.1004 203.756 36.5484 203.756 37.1004V37.1364H207.044Z" fill="#7F9BAD"/>
<path d="M212.019 40.7124C210.755 40.7124 210.123 40.0084 210.123 38.6004V35.4324H209.187C209.107 35.4324 209.039 35.4084 208.983 35.3604C208.935 35.3044 208.911 35.2364 208.911 35.1564V34.7484C208.911 34.6684 208.935 34.6044 208.983 34.5564C209.039 34.5004 209.107 34.4724 209.187 34.4724H210.123V32.4684C210.123 32.3884 210.147 32.3244 210.195 32.2764C210.251 32.2204 210.319 32.1924 210.399 32.1924H210.963C211.043 32.1924 211.107 32.2204 211.155 32.2764C211.211 32.3244 211.239 32.3884 211.239 32.4684V34.4724H212.727C212.807 34.4724 212.871 34.5004 212.919 34.5564C212.975 34.6044 213.003 34.6684 213.003 34.7484V35.1564C213.003 35.2364 212.975 35.3044 212.919 35.3604C212.871 35.4084 212.807 35.4324 212.727 35.4324H211.239V38.5164C211.239 38.9164 211.307 39.2204 211.443 39.4284C211.579 39.6284 211.803 39.7284 212.115 39.7284H212.847C212.927 39.7284 212.991 39.7564 213.039 39.8124C213.095 39.8604 213.123 39.9244 213.123 40.0044V40.4364C213.123 40.5164 213.095 40.5844 213.039 40.6404C212.991 40.6884 212.927 40.7124 212.847 40.7124H212.019Z" fill="#7F9BAD"/>
<path d="M216.011 40.8324C215.619 40.8324 215.255 40.7524 214.919 40.5924C214.583 40.4324 214.315 40.2164 214.115 39.9444C213.923 39.6644 213.827 39.3564 213.827 39.0204C213.827 38.4924 214.043 38.0604 214.475 37.7244C214.915 37.3804 215.507 37.1564 216.251 37.0524L218.039 36.8004V36.4524C218.039 35.6364 217.571 35.2284 216.635 35.2284C216.283 35.2284 215.995 35.3044 215.771 35.4564C215.547 35.6004 215.379 35.7724 215.267 35.9724C215.243 36.0444 215.211 36.0964 215.171 36.1284C215.139 36.1604 215.091 36.1764 215.027 36.1764H214.511C214.439 36.1764 214.375 36.1524 214.319 36.1044C214.271 36.0484 214.247 35.9844 214.247 35.9124C214.255 35.7204 214.343 35.5044 214.511 35.2644C214.687 35.0164 214.955 34.8044 215.315 34.6284C215.675 34.4444 216.119 34.3524 216.647 34.3524C217.543 34.3524 218.187 34.5644 218.579 34.9884C218.971 35.4044 219.167 35.9244 219.167 36.5484V40.4364C219.167 40.5164 219.139 40.5844 219.083 40.6404C219.035 40.6884 218.971 40.7124 218.891 40.7124H218.339C218.259 40.7124 218.191 40.6884 218.135 40.6404C218.087 40.5844 218.063 40.5164 218.063 40.4364V39.9204C217.887 40.1764 217.631 40.3924 217.295 40.5684C216.959 40.7444 216.531 40.8324 216.011 40.8324ZM216.263 39.9324C216.783 39.9324 217.207 39.7644 217.535 39.4284C217.871 39.0844 218.039 38.5924 218.039 37.9524V37.6164L216.647 37.8204C216.079 37.9004 215.651 38.0364 215.363 38.2284C215.075 38.4124 214.931 38.6484 214.931 38.9364C214.931 39.2564 215.063 39.5044 215.327 39.6804C215.591 39.8484 215.903 39.9324 216.263 39.9324Z" fill="#7F9BAD"/>
<g clip-path="url(#clip0)">
<path d="M-1 0.712393V28.7123H39V0.712393L34.122 0.71228V24.7123H3.87805V0.712393H-1Z" fill="#F9F9F9"/>
<path d="M6.01153 12.7114L6 4.71228L18 4.72732V12.7123L6.01153 12.7114Z" fill="#00E599"/>
<path d="M20.0115 12.7114L20 4.71228L32 4.72732V12.7123L20.0115 12.7114Z" fill="#00E599"/>
<path d="M6.01153 22.7114L6 14.7123L18 14.7273V22.7123L6.01153 22.7114Z" fill="#00E599"/>
<path d="M20.0115 22.7114L20 14.7123L32 14.7273V22.7123L20.0115 22.7114Z" fill="#00E599"/>
</g>
<defs>
<clipPath id="clip0">
<rect width="39" height="28" fill="white" transform="translate(0 0.712402)"/>
</clipPath>
</defs>
</svg>
