<svg width="133" height="120" viewBox="0 0 133 120" fill="none" xmlns="http://www.w3.org/2000/svg">
<path d="M73.5621 84.2411C92.7687 84.2411 108.341 68.6106 108.341 49.3254V10.7523H38.7832V49.3254C38.7832 68.6106 54.3554 84.2411 73.5621 84.2411Z" fill="#BBFFCA"/>
<path fill-rule="evenodd" clip-rule="evenodd" d="M38.7834 58.8027V30.5378H15.5974C15.5974 49.382 27.1904 58.8027 38.7834 58.8027ZM108.341 58.8027V30.5378H131.527C131.527 49.382 119.934 58.8027 108.341 58.8027ZM73.5623 89.894V101.2V89.894Z" fill="#BBFFCA"/>
<path d="M73.5623 89.894V101.2M38.7834 58.8027V30.5378H15.5974C15.5974 49.382 27.1904 58.8027 38.7834 58.8027ZM108.341 58.8027V30.5378H131.527C131.527 49.382 119.934 58.8027 108.341 58.8027Z" stroke="#BBFFCA" stroke-linecap="round" stroke-linejoin="round"/>
<path d="M47.478 118.159L58.1725 101.2H88.178L99.6464 118.159H47.478Z" fill="#BBFFCA" stroke="#BBFFCA" stroke-width="2" stroke-linejoin="round"/>
<path d="M59.5271 74.9558C78.8559 74.9558 94.5271 59.226 94.5271 39.8183V1H24.5271V39.8183C24.5271 59.226 40.1984 74.9558 59.5271 74.9558Z" stroke="black" stroke-width="2" stroke-linejoin="round"/>
<path d="M59.5272 80.6447V92.0226M24.5272 49.3556V20.911H1.19385C1.19385 39.875 12.8605 49.3556 24.5272 49.3556ZM94.5271 49.3556V20.911H117.86C117.86 39.875 106.194 49.3556 94.5271 49.3556Z" stroke="black" stroke-width="2" stroke-linecap="round" stroke-linejoin="round"/>
<path d="M33.2773 109.089L44.0398 92.0226H74.2361L85.7773 109.089H33.2773Z" stroke="black" stroke-width="2" stroke-linejoin="round"/>
</svg>
