<svg width="161" height="104" viewBox="0 0 161 104" fill="none" xmlns="http://www.w3.org/2000/svg">
<path d="M37.8604 50.7568C39.2956 50.7568 40.3002 50.1927 40.8743 49.0645C41.4484 47.9362 41.4484 46.808 40.8743 45.6798C40.3002 44.5515 39.2956 43.9874 37.8604 43.9874C36.4252 43.9874 35.4206 44.5515 34.8465 45.6798C34.2725 46.808 34.2725 47.9362 34.8465 49.0645C35.4206 50.1927 36.4252 50.7568 37.8604 50.7568ZM117.136 47.6894C116.778 47.2311 116.087 46.3496 115.064 45.0451C114.042 43.7406 113.297 42.7886 112.831 42.1892C112.364 41.5899 111.683 40.7261 110.786 39.5978C109.889 38.4696 109.126 37.5352 108.498 36.7948C107.871 36.0544 107.144 35.2259 106.319 34.3092C105.494 33.3925 104.686 32.5287 103.897 31.7177L97.1695 39.1218C94.1914 42.4361 90.451 44.0579 85.9481 43.9874C81.4452 43.9169 77.7586 42.1892 74.8882 38.8045C72.8431 36.3717 71.8295 33.5864 71.8474 30.4485C71.8654 27.3105 72.9148 24.5428 74.9958 22.1453L84.5219 11.2507C83.7325 10.8628 82.8176 10.572 81.7771 10.3781C80.7366 10.1841 79.8844 10.0784 79.2207 10.0607C78.5569 10.0431 77.5433 10.0519 76.1799 10.0872C74.8164 10.1224 73.9374 10.1401 73.5427 10.1401C70.2418 10.1401 67.4073 11.3036 65.0393 13.6306L56.5358 21.9866H48.1938V50.7568C48.3732 50.7568 48.7499 50.748 49.324 50.7304C49.898 50.7128 50.2927 50.7128 50.508 50.7304C50.7233 50.748 51.0731 50.7833 51.5575 50.8362C52.0419 50.8891 52.4096 50.9684 52.6608 51.0742C52.9119 51.1799 53.2259 51.3298 53.6026 51.5237C53.9794 51.7176 54.3112 51.9556 54.5983 52.2377L70.5827 67.6805C74.7088 71.5941 78.7811 73.5509 82.7997 73.5509C85.5983 73.5509 87.8408 72.7223 89.5271 71.0652C91.5722 71.7704 93.5905 71.6294 95.5818 70.6421C97.5731 69.6549 98.8737 68.1565 99.4837 66.1468C102.139 66.3583 104.417 65.5827 106.319 63.8198C107.036 63.1852 107.682 62.383 108.256 61.4135C108.83 60.4439 109.081 59.5536 109.01 58.7427C109.369 59.0953 110.14 59.2716 111.324 59.2716C112.867 59.2716 114.248 58.9014 115.468 58.1609C116.688 57.4205 117.576 56.4862 118.132 55.358C118.688 54.2297 118.904 52.9693 118.778 51.5766C118.652 50.1839 118.105 48.8882 117.136 47.6894ZM125.694 50.7568H130.86V23.679H125.855L117.406 14.1594C115.038 11.4799 112.006 10.1401 108.31 10.1401H99.3222C96.1289 10.1401 93.5097 11.3212 91.4646 13.6835L80.2163 26.5349C79.2117 27.6984 78.7094 29.0205 78.7094 30.5013C78.7094 31.9822 79.1938 33.3043 80.1625 34.4678C81.7053 36.266 83.6787 37.1827 86.0827 37.2179C88.4866 37.2532 90.4779 36.3894 92.0566 34.6265L102.444 23.0972C103.341 22.2863 104.301 21.9073 105.323 21.9602C106.346 22.0131 107.189 22.489 107.853 23.3881C108.516 24.2872 108.669 25.2832 108.31 26.3762C108.884 27.0461 109.889 28.1567 111.324 29.708C112.759 31.2594 113.836 32.4581 114.553 33.3043C115.594 34.5736 117.074 36.4334 118.993 38.8838C120.913 41.3342 122.07 42.8239 122.465 43.3527C124.33 45.6798 125.407 48.1478 125.694 50.7568ZM141.194 50.7568C142.629 50.7568 143.634 50.1927 144.208 49.0645C144.782 47.9362 144.782 46.808 144.208 45.6798C143.634 44.5515 142.629 43.9874 141.194 43.9874C139.759 43.9874 138.754 44.5515 138.18 45.6798C137.606 46.808 137.606 47.9362 138.18 49.0645C138.754 50.1927 139.759 50.7568 141.194 50.7568ZM151.527 20.2943V54.1416C151.527 55.0583 151.186 55.8516 150.505 56.5215C149.823 57.1914 149.016 57.5263 148.083 57.5263H124.725C123.756 59.8181 122.285 61.6955 120.312 63.1587C118.338 64.6219 116.096 65.5298 113.584 65.8824C112.4 67.5747 110.956 69.0115 109.252 70.1926C107.548 71.3737 105.709 72.1759 103.735 72.5989C102.228 74.4676 100.354 75.9043 98.1113 76.9092C95.8688 77.914 93.5636 78.3459 91.1955 78.2049C89.0427 79.4037 86.7823 80.1 84.4143 80.2939C82.0462 80.4878 79.7589 80.241 77.5523 79.5535C75.3457 78.866 73.2467 77.9228 71.2554 76.7241C69.2641 75.5253 67.4073 74.0974 65.6851 72.4403L50.2389 57.5263H30.9715C30.0387 57.5263 29.2314 57.1914 28.5497 56.5215C27.868 55.8516 27.5271 55.0583 27.5271 54.1416V18.6019C27.5271 17.6852 27.868 16.8919 28.5497 16.222C29.2314 15.5521 30.0387 15.2172 30.9715 15.2172H53.6295C54.1318 14.7236 54.975 13.8774 56.159 12.6786C57.3431 11.4799 58.1952 10.6337 58.7155 10.1401C59.2357 9.64646 60.0251 8.94131 61.0835 8.02461C62.142 7.10791 63.0479 6.44683 63.8014 6.04137C64.5549 5.63591 65.4698 5.18637 66.5462 4.69277C67.6226 4.19916 68.7349 3.8554 69.883 3.66148C71.0311 3.46756 72.2511 3.37061 73.5427 3.37061H79.8396C83.3917 3.37061 86.6388 4.35782 89.5809 6.33225C92.523 4.35782 95.7701 3.37061 99.3222 3.37061H108.31C109.566 3.37061 110.768 3.47638 111.916 3.68792C113.064 3.89947 114.078 4.15509 114.957 4.45478C115.836 4.75447 116.76 5.22163 117.728 5.85627C118.697 6.4909 119.496 7.0374 120.123 7.49575C120.751 7.9541 121.523 8.65043 122.438 9.58476C123.353 10.5191 124.052 11.2595 124.537 11.806C125.021 12.3525 125.757 13.1987 126.743 14.3445C127.73 15.4904 128.474 16.3454 128.977 16.9095H148.083C149.016 16.9095 149.823 17.2445 150.505 17.9144C151.186 18.5843 151.527 19.3776 151.527 20.2943Z" fill="#BBFFCA"/>
<ellipse cx="89.5271" cy="66.65" rx="37.2" ry="34.1" fill="#BBFFCA"/>
<ellipse cx="107.352" cy="62" rx="27.125" ry="24.8" fill="#BBFFCA"/>
<ellipse cx="132.54" cy="74.4" rx="13.5625" ry="12.4" fill="#BBFFCA"/>
<ellipse cx="50.3896" cy="66.2625" rx="22.8625" ry="16.6625" fill="#BBFFCA"/>
<ellipse cx="80.2272" cy="90.2875" rx="18.6" ry="13.5625" fill="#BBFFCA"/>
<g clip-path="url(#clip0)">
<mask id="path-7-inside-1" fill="white">
<path d="M13.8604 62.6956C15.7123 62.6956 17.0086 61.9493 17.7493 60.4565C18.4901 58.9638 18.4901 57.471 17.7493 55.9783C17.0086 54.4855 15.7123 53.7391 13.8604 53.7391C12.0086 53.7391 10.7123 54.4855 9.97154 55.9783C9.2308 57.471 9.2308 58.9638 9.97154 60.4565C10.7123 61.9493 12.0086 62.6956 13.8604 62.6956ZM116.152 58.6372C115.689 58.0308 114.798 56.8646 113.478 55.1386C112.159 53.4126 111.198 52.1531 110.597 51.36C109.995 50.567 109.115 49.4241 107.958 47.9314C106.8 46.4386 105.816 45.2024 105.006 44.2228C104.196 43.2432 103.259 42.147 102.194 40.9341C101.129 39.7212 100.087 38.5783 99.0688 37.5054L90.3882 47.3016C86.5456 51.6866 81.7192 53.8324 75.909 53.7391C70.0989 53.6458 65.3419 51.36 61.6382 46.8818C58.9993 43.663 57.6915 39.9778 57.7146 35.8261C57.7378 31.6744 59.0919 28.0125 61.7771 24.8404L74.0688 10.4259C73.0502 9.91282 71.8697 9.52797 70.5271 9.2714C69.1845 9.01483 68.085 8.87489 67.2285 8.85156C66.372 8.82824 65.0641 8.8399 63.3049 8.88655C61.5456 8.9332 60.4114 8.95652 59.9021 8.95652C55.6428 8.95652 51.9854 10.4959 48.9299 13.5747L37.9577 24.6304H27.1938V62.6956C27.4252 62.6956 27.9114 62.684 28.6521 62.6607C29.3928 62.6373 29.9021 62.6373 30.1799 62.6607C30.4577 62.684 30.909 62.7306 31.534 62.8006C32.159 62.8706 32.6336 62.9755 32.9577 63.1155C33.2817 63.2554 33.6868 63.4537 34.1729 63.7102C34.659 63.9668 35.0873 64.2817 35.4577 64.6549L56.0827 85.0869C61.4067 90.2649 66.6614 92.8539 71.8465 92.8539C75.4577 92.8539 78.3512 91.7577 80.5271 89.5652C83.166 90.4982 85.7702 90.3116 88.3396 89.0054C90.909 87.6993 92.5873 85.7167 93.3743 83.0577C96.8002 83.3376 99.7401 82.3114 102.194 79.9789C103.12 79.1393 103.953 78.078 104.694 76.7952C105.435 75.5123 105.759 74.3345 105.666 73.2615C106.129 73.728 107.124 73.9613 108.652 73.9613C110.643 73.9613 112.425 73.4715 113.999 72.4918C115.573 71.5122 116.719 70.276 117.437 68.7833C118.154 67.2905 118.432 65.6228 118.27 63.7802C118.108 61.9376 117.402 60.2233 116.152 58.6372ZM127.194 62.6956H133.86V26.8696H127.402L116.499 14.2745C113.444 10.7292 109.532 8.95652 104.763 8.95652H93.166C89.0456 8.95652 85.666 10.5192 83.0271 13.6447L68.5132 30.6481C67.2169 32.1875 66.5688 33.9368 66.5688 35.8961C66.5688 37.8553 67.1938 39.6046 68.4438 41.144C70.4345 43.5231 72.9808 44.736 76.0827 44.7826C79.1845 44.8293 81.754 43.6864 83.791 41.3539L97.1938 26.0999C98.3512 25.0269 99.5896 24.5255 100.909 24.5954C102.228 24.6654 103.316 25.2952 104.173 26.4847C105.029 27.6742 105.226 28.9921 104.763 30.4382C105.504 31.3245 106.8 32.7939 108.652 34.8465C110.504 36.899 111.893 38.485 112.819 39.6046C114.161 41.284 116.071 43.7447 118.548 46.9868C121.025 50.2288 122.518 52.1997 123.027 52.8995C125.435 55.9783 126.823 59.2437 127.194 62.6956ZM147.194 62.6956C149.046 62.6956 150.342 61.9493 151.083 60.4565C151.823 58.9638 151.823 57.471 151.083 55.9783C150.342 54.4855 149.046 53.7391 147.194 53.7391C145.342 53.7391 144.046 54.4855 143.305 55.9783C142.564 57.471 142.564 58.9638 143.305 60.4565C144.046 61.9493 145.342 62.6956 147.194 62.6956ZM160.527 22.3913V67.1739C160.527 68.3868 160.087 69.4364 159.208 70.3227C158.328 71.209 157.286 71.6522 156.083 71.6522H125.944C124.694 74.6843 122.796 77.1684 120.249 79.1043C117.703 81.0402 114.81 82.2414 111.569 82.7079C110.041 84.947 108.178 86.8479 105.978 88.4107C103.779 89.9734 101.407 91.0346 98.8604 91.5944C96.916 94.0668 94.497 95.9677 91.6035 97.2972C88.71 98.6267 85.7354 99.1981 82.6799 99.0115C79.9021 100.598 76.9854 101.519 73.9299 101.775C70.8743 102.032 67.9229 101.705 65.0757 100.796C62.2285 99.8862 59.5202 98.6384 56.9507 97.0523C54.3813 95.4663 51.9854 93.577 49.7632 91.3845L29.8327 71.6522H4.97154C3.76784 71.6522 2.72617 71.209 1.84654 70.3227C0.966914 69.4364 0.5271 68.3868 0.5271 67.1739V20.1522C0.5271 18.9393 0.966914 17.8897 1.84654 17.0034C2.72617 16.1171 3.76784 15.6739 4.97154 15.6739H34.2077C34.8558 15.0208 35.9438 13.9013 37.4715 12.3152C38.9993 10.7292 40.0989 9.6096 40.7702 8.95652C41.4415 8.30344 42.46 7.37047 43.8257 6.15761C45.1915 4.94475 46.3604 4.07009 47.3327 3.53363C48.3049 2.99717 49.4854 2.4024 50.8743 1.74932C52.2632 1.09624 53.6984 0.641418 55.1799 0.38485C56.6614 0.128283 58.2354 0 59.9021 0H68.0271C72.6104 0 76.8003 1.30616 80.5965 3.91848C84.3928 1.30616 88.5827 0 93.166 0H104.763C106.384 0 107.935 0.139946 109.416 0.419837C110.897 0.699728 112.205 1.03793 113.34 1.43444C114.474 1.83096 115.666 2.44905 116.916 3.28872C118.166 4.1284 119.196 4.85145 120.006 5.45788C120.816 6.06431 121.812 6.98562 122.992 8.22181C124.173 9.45799 125.076 10.4376 125.701 11.1607C126.326 11.8837 127.275 13.0033 128.548 14.5194C129.821 16.0354 130.782 17.1667 131.43 17.913H156.083C157.286 17.913 158.328 18.3562 159.208 19.2425C160.087 20.1288 160.527 21.1784 160.527 22.3913Z"/>
</mask>
<path d="M13.8604 62.6956C15.7123 62.6956 17.0086 61.9493 17.7493 60.4565C18.4901 58.9638 18.4901 57.471 17.7493 55.9783C17.0086 54.4855 15.7123 53.7391 13.8604 53.7391C12.0086 53.7391 10.7123 54.4855 9.97154 55.9783C9.2308 57.471 9.2308 58.9638 9.97154 60.4565C10.7123 61.9493 12.0086 62.6956 13.8604 62.6956ZM116.152 58.6372C115.689 58.0308 114.798 56.8646 113.478 55.1386C112.159 53.4126 111.198 52.1531 110.597 51.36C109.995 50.567 109.115 49.4241 107.958 47.9314C106.8 46.4386 105.816 45.2024 105.006 44.2228C104.196 43.2432 103.259 42.147 102.194 40.9341C101.129 39.7212 100.087 38.5783 99.0688 37.5054L90.3882 47.3016C86.5456 51.6866 81.7192 53.8324 75.909 53.7391C70.0989 53.6458 65.3419 51.36 61.6382 46.8818C58.9993 43.663 57.6915 39.9778 57.7146 35.8261C57.7378 31.6744 59.0919 28.0125 61.7771 24.8404L74.0688 10.4259C73.0502 9.91282 71.8697 9.52797 70.5271 9.2714C69.1845 9.01483 68.085 8.87489 67.2285 8.85156C66.372 8.82824 65.0641 8.8399 63.3049 8.88655C61.5456 8.9332 60.4114 8.95652 59.9021 8.95652C55.6428 8.95652 51.9854 10.4959 48.9299 13.5747L37.9577 24.6304H27.1938V62.6956C27.4252 62.6956 27.9114 62.684 28.6521 62.6607C29.3928 62.6373 29.9021 62.6373 30.1799 62.6607C30.4577 62.684 30.909 62.7306 31.534 62.8006C32.159 62.8706 32.6336 62.9755 32.9577 63.1155C33.2817 63.2554 33.6868 63.4537 34.1729 63.7102C34.659 63.9668 35.0873 64.2817 35.4577 64.6549L56.0827 85.0869C61.4067 90.2649 66.6614 92.8539 71.8465 92.8539C75.4577 92.8539 78.3512 91.7577 80.5271 89.5652C83.166 90.4982 85.7702 90.3116 88.3396 89.0054C90.909 87.6993 92.5873 85.7167 93.3743 83.0577C96.8002 83.3376 99.7401 82.3114 102.194 79.9789C103.12 79.1393 103.953 78.078 104.694 76.7952C105.435 75.5123 105.759 74.3345 105.666 73.2615C106.129 73.728 107.124 73.9613 108.652 73.9613C110.643 73.9613 112.425 73.4715 113.999 72.4918C115.573 71.5122 116.719 70.276 117.437 68.7833C118.154 67.2905 118.432 65.6228 118.27 63.7802C118.108 61.9376 117.402 60.2233 116.152 58.6372ZM127.194 62.6956H133.86V26.8696H127.402L116.499 14.2745C113.444 10.7292 109.532 8.95652 104.763 8.95652H93.166C89.0456 8.95652 85.666 10.5192 83.0271 13.6447L68.5132 30.6481C67.2169 32.1875 66.5688 33.9368 66.5688 35.8961C66.5688 37.8553 67.1938 39.6046 68.4438 41.144C70.4345 43.5231 72.9808 44.736 76.0827 44.7826C79.1845 44.8293 81.754 43.6864 83.791 41.3539L97.1938 26.0999C98.3512 25.0269 99.5896 24.5255 100.909 24.5954C102.228 24.6654 103.316 25.2952 104.173 26.4847C105.029 27.6742 105.226 28.9921 104.763 30.4382C105.504 31.3245 106.8 32.7939 108.652 34.8465C110.504 36.899 111.893 38.485 112.819 39.6046C114.161 41.284 116.071 43.7447 118.548 46.9868C121.025 50.2288 122.518 52.1997 123.027 52.8995C125.435 55.9783 126.823 59.2437 127.194 62.6956ZM147.194 62.6956C149.046 62.6956 150.342 61.9493 151.083 60.4565C151.823 58.9638 151.823 57.471 151.083 55.9783C150.342 54.4855 149.046 53.7391 147.194 53.7391C145.342 53.7391 144.046 54.4855 143.305 55.9783C142.564 57.471 142.564 58.9638 143.305 60.4565C144.046 61.9493 145.342 62.6956 147.194 62.6956ZM160.527 22.3913V67.1739C160.527 68.3868 160.087 69.4364 159.208 70.3227C158.328 71.209 157.286 71.6522 156.083 71.6522H125.944C124.694 74.6843 122.796 77.1684 120.249 79.1043C117.703 81.0402 114.81 82.2414 111.569 82.7079C110.041 84.947 108.178 86.8479 105.978 88.4107C103.779 89.9734 101.407 91.0346 98.8604 91.5944C96.916 94.0668 94.497 95.9677 91.6035 97.2972C88.71 98.6267 85.7354 99.1981 82.6799 99.0115C79.9021 100.598 76.9854 101.519 73.9299 101.775C70.8743 102.032 67.9229 101.705 65.0757 100.796C62.2285 99.8862 59.5202 98.6384 56.9507 97.0523C54.3813 95.4663 51.9854 93.577 49.7632 91.3845L29.8327 71.6522H4.97154C3.76784 71.6522 2.72617 71.209 1.84654 70.3227C0.966914 69.4364 0.5271 68.3868 0.5271 67.1739V20.1522C0.5271 18.9393 0.966914 17.8897 1.84654 17.0034C2.72617 16.1171 3.76784 15.6739 4.97154 15.6739H34.2077C34.8558 15.0208 35.9438 13.9013 37.4715 12.3152C38.9993 10.7292 40.0989 9.6096 40.7702 8.95652C41.4415 8.30344 42.46 7.37047 43.8257 6.15761C45.1915 4.94475 46.3604 4.07009 47.3327 3.53363C48.3049 2.99717 49.4854 2.4024 50.8743 1.74932C52.2632 1.09624 53.6984 0.641418 55.1799 0.38485C56.6614 0.128283 58.2354 0 59.9021 0H68.0271C72.6104 0 76.8003 1.30616 80.5965 3.91848C84.3928 1.30616 88.5827 0 93.166 0H104.763C106.384 0 107.935 0.139946 109.416 0.419837C110.897 0.699728 112.205 1.03793 113.34 1.43444C114.474 1.83096 115.666 2.44905 116.916 3.28872C118.166 4.1284 119.196 4.85145 120.006 5.45788C120.816 6.06431 121.812 6.98562 122.992 8.22181C124.173 9.45799 125.076 10.4376 125.701 11.1607C126.326 11.8837 127.275 13.0033 128.548 14.5194C129.821 16.0354 130.782 17.1667 131.43 17.913H156.083C157.286 17.913 158.328 18.3562 159.208 19.2425C160.087 20.1288 160.527 21.1784 160.527 22.3913Z" stroke="black" stroke-width="2" mask="url(#path-7-inside-1)"/>
</g>
<defs>
<clipPath id="clip0">
<rect width="160" height="103" fill="white" transform="translate(0.5271)"/>
</clipPath>
</defs>
</svg>
