<svg xmlns="http://www.w3.org/2000/svg" xmlns:xlink="http://www.w3.org/1999/xlink" width="41.997" height="38.391" viewBox="0 0 11.112 10.158"><defs><linearGradient id="b"><stop offset="0" style="stop-color:#fffffc;stop-opacity:1"/><stop offset="1" style="stop-color:#fffffc;stop-opacity:0"/></linearGradient><linearGradient id="a"><stop offset="0" style="stop-color:#dbdbdb;stop-opacity:.76078433"/><stop offset=".778" style="stop-color:#b4b4b4;stop-opacity:.15686275"/><stop offset="1" style="stop-color:#c7c7c7;stop-opacity:.01960784"/></linearGradient><linearGradient xlink:href="#a" id="c" x1="77.674" x2="55.844" y1="209.021" y2="185.228" gradientTransform="translate(-1.369 -25.413)scale(.14293)" gradientUnits="userSpaceOnUse"/><linearGradient xlink:href="#b" id="d" x1="164.794" x2=".648" y1="218.645" y2="92.453" gradientTransform="matrix(.32485 0 0 .11442 -4.153 -11.508)" gradientUnits="userSpaceOnUse"/><linearGradient xlink:href="#b" id="e" x1="78.702" x2="80.755" y1="148.167" y2="151.342" gradientTransform="matrix(1.41786 0 0 1.00107 -111.854 -148.325)" gradientUnits="userSpaceOnUse"/><linearGradient xlink:href="#b" id="f" x1="78.702" x2="80.755" y1="148.167" y2="151.342" gradientTransform="matrix(1.41786 0 0 1 -111.854 -148.163)" gradientUnits="userSpaceOnUse"/><linearGradient xlink:href="#b" id="g" x1="78.702" x2="80.755" y1="148.167" y2="151.342" gradientTransform="matrix(1.41786 0 0 1.00107 -110.002 -145.944)" gradientUnits="userSpaceOnUse"/></defs><path d="M0 0v6.354H11.11V0H9.524v5.027H1.586V0Z" style="fill:#e9e9e9;fill-opacity:1;stroke:none;stroke-width:.027;stroke-linecap:butt;stroke-linejoin:miter;stroke-miterlimit:4;stroke-dasharray:none;stroke-opacity:1"/><path d="M2.38 4.502V2.915h2.91v1.587zm3.44 0V2.915h2.91v1.587z" style="fill:#18802a;fill-opacity:1;stroke:none;stroke-width:.0378795px;stroke-linecap:butt;stroke-linejoin:miter;stroke-opacity:1"/><path d="M2.38 2.65V1.062h2.91V2.65Zm3.44 0-.003-1.59 2.913.003V2.65Z" style="fill:#25c340;fill-opacity:1;stroke:none;stroke-width:.0378796px;stroke-linecap:butt;stroke-linejoin:miter;stroke-opacity:1"/><path d="M7.143 1.062 5.82 2.385v.265h2.91V1.062ZM5.291 2.915 3.703 4.502h1.588zm.53 0v1.587h2.91V2.915Z" style="fill:url(#c);fill-opacity:1;stroke:none;stroke-width:.0378795px;stroke-linecap:butt;stroke-linejoin:miter;stroke-opacity:1"/><path d="M9.523 5.027 7.936 6.354H0V0h1.587v5.027z" style="fill:url(#d);fill-opacity:1;fill-rule:evenodd;stroke:none;stroke-width:.0510104px;stroke-linecap:butt;stroke-linejoin:miter;stroke-opacity:1"/><path d="M0 0h1.586v2.384L0 3.973Z" style="opacity:.3368;fill:url(#e);fill-opacity:1;stroke-width:.315217"/><path d="M2.38 1.058h.53l-.53.534z" style="fill:url(#f);fill-opacity:1;stroke-width:.315049"/><path d="M1.586 5.027h1.588L1.851 6.354.263 6.35z" style="opacity:.3368;fill:url(#g);fill-opacity:1;stroke-width:.315217"/><path d="M4.802 10.125a.08.08 0 0 1-.054-.019.08.08 0 0 1-.02-.054V7.979q0-.036.02-.054a.07.07 0 0 1 .054-.022h.87q.34 0 .51.161.174.162.173.426a.5.5 0 0 1-.273.467.6.6 0 0 1 .225.206.65.65 0 0 1 .01.645.57.57 0 0 1-.238.231.8.8 0 0 1-.381.086zm.823-1.283q.2 0 .304-.092a.32.32 0 0 0 .108-.257q0-.162-.104-.248-.105-.085-.308-.085H5.04v.682zm.03 1.026a.43.43 0 0 0 .313-.108.36.36 0 0 0 .114-.276.36.36 0 0 0-.114-.28.43.43 0 0 0-.312-.108H5.04v.772zm1.814.289a.7.7 0 0 1-.524-.2q-.194-.204-.212-.553l-.003-.108.003-.104q.022-.343.216-.547a.69.69 0 0 1 .517-.203q.353 0 .546.226.195.222.194.603v.054q0 .032-.022.054a.07.07 0 0 1-.051.019h-1.1v.029a.6.6 0 0 0 .125.352.38.38 0 0 0 .308.143.45.45 0 0 0 .378-.181.2.2 0 0 1 .04-.044.1.1 0 0 1 .055-.01h.156a.07.07 0 0 1 .047.015q.02.016.02.045 0 .069-.09.168a.7.7 0 0 1-.244.172.9.9 0 0 1-.36.07m.435-.978v-.01a.52.52 0 0 0-.12-.356.4.4 0 0 0-.318-.14.4.4 0 0 0-.317.14.54.54 0 0 0-.115.356v.01zm1.317.946q-.502 0-.502-.559v-.838H8.47a.08.08 0 0 1-.054-.02.08.08 0 0 1-.02-.053v-.108q0-.032.02-.05a.07.07 0 0 1 .054-.023h.248v-.53q0-.032.02-.051a.07.07 0 0 1 .053-.022h.15q.03 0 .05.022.022.02.022.05v.531h.394a.06.06 0 0 1 .05.022q.024.02.023.051v.108q0 .032-.022.054a.07.07 0 0 1-.051.019h-.394v.816q0 .159.054.241.054.08.178.08h.194a.06.06 0 0 1 .05.022q.023.02.023.05v.115q0 .032-.022.054a.07.07 0 0 1-.051.019zm1.056.032a.7.7 0 0 1-.29-.064.55.55 0 0 1-.212-.171.42.42 0 0 1-.076-.245q0-.21.17-.343a.97.97 0 0 1 .47-.177l.474-.067v-.092q0-.324-.371-.324a.4.4 0 0 0-.362.197.1.1 0 0 1-.025.041q-.012.012-.04.013H9.88a.07.07 0 0 1-.05-.02.08.08 0 0 1-.02-.05.33.33 0 0 1 .07-.171.55.55 0 0 1 .213-.169.8.8 0 0 1 .352-.073q.356 0 .51.169.157.165.157.412v1.03q0 .03-.022.053a.07.07 0 0 1-.051.02h-.146a.08.08 0 0 1-.054-.02.08.08 0 0 1-.02-.054v-.136a.55.55 0 0 1-.202.171.7.7 0 0 1-.34.07m.067-.238a.45.45 0 0 0 .336-.134q.133-.135.133-.39v-.09l-.368.055a.8.8 0 0 0-.34.108q-.114.072-.114.187 0 .127.105.197.104.067.248.067" style="fill:#d3d3d3;fill-opacity:1;stroke-width:.264583"/></svg>