<svg xmlns="http://www.w3.org/2000/svg" width="80" height="80">
    <path d="m44.436 222.845-3.3 1.905-2.062-1.19-.824.476v.952l.824-.476 2.062 1.19 3.3-1.904z" style="fill:#e1efd3;fill-opacity:1;stroke:none;stroke-width:.1;stroke-dasharray:none;stroke-opacity:1" transform="matrix(4.2 0 0 4.2 -131.204 -907.95)"/><path d="m41.549 222.131-.825.476v.953l.825-.477z" style="fill:#e1efd3;fill-opacity:1;stroke:none;stroke-width:.1;stroke-dasharray:none;stroke-opacity:1" transform="matrix(4.2 0 0 4.2 -131.204 -907.95)"/><path d="m38.25 224.036.824-.476 2.062 1.19 3.3-1.905-1.65-.952-1.65.952-.412-.238.825-.476-2.887.238z" style="fill:#bbda9b;fill-opacity:1;stroke:none;stroke-width:.1;stroke-dasharray:none;stroke-opacity:1" transform="matrix(4.2 0 0 4.2 -131.204 -907.95)"/>
</svg>