<?xml version="1.0" encoding="UTF-8" standalone="no"?>
<svg
   viewBox="0 0 332.55374 292.25806"
   id="floor"
   version="1.1"
   sodipodi:docname="orig-press-lower-ink.svg"
   inkscape:version="1.4 (e7c3feb100, 2024-10-09)"
   width="332.55374"
   height="292.25806"
   xmlns:inkscape="http://www.inkscape.org/namespaces/inkscape"
   xmlns:sodipodi="http://sodipodi.sourceforge.net/DTD/sodipodi-0.dtd"
   xmlns="http://www.w3.org/2000/svg"
   xmlns:svg="http://www.w3.org/2000/svg">
  <defs
     id="defs18">
    <inkscape:path-effect
       effect="perspective-envelope"
       up_left_point="249.41532,216"
       up_right_point="249.41532,288"
       down_left_point="187.06149,252"
       down_right_point="187.06149,324"
       id="path-effect11"
       is_visible="true"
       lpeversion="1"
       deform_type="perspective"
       horizontal_mirror="false"
       vertical_mirror="false"
       overflow_perspective="false" />
  </defs>
  <sodipodi:namedview
     id="namedview18"
     pagecolor="#ffffff"
     bordercolor="#000000"
     borderopacity="0.25"
     inkscape:showpageshadow="2"
     inkscape:pageopacity="0.0"
     inkscape:pagecheckerboard="0"
     inkscape:deskcolor="#d1d1d1"
     showgrid="true"
     inkscape:zoom="3.328"
     inkscape:cx="204.02644"
     inkscape:cy="166.46634"
     inkscape:window-width="2560"
     inkscape:window-height="1371"
     inkscape:window-x="0"
     inkscape:window-y="0"
     inkscape:window-maximized="1"
     inkscape:current-layer="floor">
    <inkscape:grid
       type="axonomgrid"
       id="grid18"
       units="px"
       originx="0"
       originy="0"
       spacingx="3.7795276"
       spacingy="2"
       empcolor="#0099e5"
       empopacity="0.30196078"
       color="#0099e5"
       opacity="0.14901961"
       empspacing="12"
       dotted="false"
       gridanglex="30"
       gridanglez="30"
       enabled="true"
       visible="true" />
  </sodipodi:namedview>
  <g
     id="scrollingFloor"
     transform="translate(428.42327,-180)" />
  <path
     style="fill:#a3a3a3"
     d="M 20.78461,108 V 36 C 20.78461,36 8.66027,29 0,24 v 72 z"
     id="path7"
     sodipodi:nodetypes="ccccc" />
  <path
     style="fill:#e1e1e1"
     d="M 62.353829,84 V 12 L 20.78461,36 v 72 z"
     id="path1"
     sodipodi:nodetypes="ccccc" />
  <path
     id="path47-6"
     style="fill:#939393"
     d="M 55.085938,67.746094 C 50.996999,67.831792 46.411071,69.204057 41.568359,72 c -17.21854,9.94113 -31.175781,34.11775 -31.175781,54 0,9.94246 3.48956,16.92875 9.132813,20.18555 L 268.06836,289.64062 313.02734,213.81445 64.679688,70.494141 c -2.690274,-1.87549 -5.944116,-2.824539 -9.59375,-2.748047 z" />
  <path
     id="path11"
     d="m 290.98453,288 c -17.21853,9.94113 -31.17691,1.88225 -31.17691,-18 0,-19.88225 13.95838,-44.05887 31.17692,-54 17.21853,-9.94113 31.17691,-1.88225 31.17691,18 0,19.88225 -13.95838,44.05887 -31.17692,54 z"
     style="fill:#b9b9b9;fill-opacity:1;stroke-width:0.227122;-inkscape-stroke:none" />
  <path
     style="fill:#939393"
     d="M 20.78461,36 62.353829,12 311.76914,156 v 24 l -41.56921,24 v -24 z"
     id="path2"
     sodipodi:nodetypes="ccccccc" />
  <path
     style="fill:#606060"
     d="M 20.78461,60 332.55375,240 V 216 L 20.78461,36 Z"
     id="path3"
     sodipodi:nodetypes="ccccc" />
  <path
     style="fill:#bebebe"
     d="m 290.98453,192 41.56922,-24 -20.78461,-12 -41.56922,24 z"
     id="path4"
     sodipodi:nodetypes="ccccc" />
  <path
     style="fill:#a3a3a3"
     d="m 290.98453,264 v -72 l -20.78461,-12 v 72 z"
     id="path5"
     sodipodi:nodetypes="ccccc" />
  <path
     id="path6"
     style="fill:#e1e1e1"
     d="M 332.55469 168 L 290.98438 192 L 290.98438 264 L 306.57227 255 L 306.57227 279 L 316.96484 273 L 316.96484 249 L 332.55469 240 L 332.55469 168 z " />
  <path
     style="fill:#bebebe"
     d="M 20.78461,36 62.353829,12 41.569219,0 0,24 Z"
     id="path8"
     sodipodi:nodetypes="ccccc" />
  <path
     style="fill:#a3a3a3;fill-opacity:1"
     d="m 306.57299,279 -20.78461,-12 v -6 l 5.19615,3 15.58846,-9 z"
     id="path9"
     sodipodi:nodetypes="cccccc" />
</svg>
