<?xml version="1.0" encoding="UTF-8" standalone="no"?>
<svg
   viewBox="0 0 441.673 335.12082"
   id="floor"
   version="1.1"
   sodipodi:docname="test-snap-2.svg"
   inkscape:version="1.4 (e7c3feb100, 2024-10-09)"
   width="441.673"
   height="335.12082"
   xmlns:inkscape="http://www.inkscape.org/namespaces/inkscape"
   xmlns:sodipodi="http://sodipodi.sourceforge.net/DTD/sodipodi-0.dtd"
   xmlns="http://www.w3.org/2000/svg"
   xmlns:svg="http://www.w3.org/2000/svg">
  <defs
     id="defs18" />
  <sodipodi:namedview
     id="namedview18"
     pagecolor="#ffffff"
     bordercolor="#000000"
     borderopacity="0.25"
     inkscape:showpageshadow="2"
     inkscape:pageopacity="0.0"
     inkscape:pagecheckerboard="0"
     inkscape:deskcolor="#d1d1d1"
     showgrid="true"
     inkscape:zoom="1.1766257"
     inkscape:cx="410.92083"
     inkscape:cy="305.10978"
     inkscape:window-width="1920"
     inkscape:window-height="1043"
     inkscape:window-x="26"
     inkscape:window-y="23"
     inkscape:window-maximized="0"
     inkscape:current-layer="floor">
    <inkscape:grid
       type="axonomgrid"
       id="grid18"
       units="px"
       originx="0"
       originy="0"
       spacingx="3.7795276"
       spacingy="2"
       empcolor="#0099e5"
       empopacity="0.30196078"
       color="#0099e5"
       opacity="0.14901961"
       empspacing="5"
       dotted="false"
       gridanglex="30"
       gridanglez="30"
       enabled="true"
       visible="true" />
  </sodipodi:namedview>
  <g
     id="scrollingFloor"
     transform="translate(428.42327,-180)" />
  <path
     style="fill:#e1e1e1"
     d="m 77.94232,75 c 0,-20 0,-40 0,-60 -17.32051,10 -34.64101,20 -51.96152,30 0,20 0,40 0,60 C 43.30131,95 60.62181,85 77.94232,75 Z"
     id="path1" />
  <path
     style="fill:#939393"
     d="M 25.9808,45 C 43.30131,35 60.62181,25 77.94232,15 c 112.5833,65 225.16661,130 337.74991,195 -10.19951,15.39269 10.79942,15.22659 -4e-5,30 -8.68191,5.14484 -43.27961,24.85516 -51.96152,30 -0.008,-11.5 0.008,-18.5 0,-30 C 252.59075,175.83333 137.12072,109.16667 25.9808,45 Z"
     id="path2"
     sodipodi:nodetypes="ccccccc" />
  <path
     style="fill:#606060"
     d="m 25.9808,75 c 112.5833,65 225.16661,130 337.74991,195 0,-10 0,-20 0,-30 C 251.14741,175 138.5641,110 25.9808,45 c 0,10 0,20 0,30 z"
     id="path3" />
  <path
     style="fill:#bebebe"
     d="m 389.71147,255 c 17.32051,-10 34.64101,-20 51.96152,-30 -8.66025,-5 -17.32051,-10 -25.98076,-15 -17.32051,10 -34.64101,20 -51.96152,30 8.66025,5 17.32051,10 25.98076,15 z"
     id="path4" />
  <path
     style="fill:#a3a3a3"
     d="m 389.71147,315 c 0,-20 0,-40 0,-60 -8.66025,-5 -17.32051,-10 -25.98076,-15 0,20 0,40 0,60 8.66025,5 17.32051,10 25.98076,15 z"
     id="path5" />
  <path
     style="fill:#e1e1e1"
     d="m 441.67299,285 c 0,-20 0,-40 0,-60 -17.32051,10 -34.64101,20 -51.96152,30 0,20 0,40 0,60 17.32051,-10 34.64101,-20 51.96152,-30 z"
     id="path6" />
  <path
     style="fill:#a3a3a3"
     d="m 25.9808,105 c 0,-20 0,-40 0,-60 C 17.32053,40 8.66027,35 0,30 c 0,20 0,40 0,60 8.66027,5 17.32053,10 25.9808,15 z"
     id="path7" />
  <path
     style="fill:#bebebe"
     d="M 25.9808,45 C 43.30131,35 60.62181,25 77.94232,15 69.28207,10 60.62181,5 51.96156,0 34.64104,10 17.32052,20 0,30 8.66027,35 17.32053,40 25.9808,45 Z"
     id="path8" />
  <path
     style="fill:#a3a3a3;fill-opacity:1"
     d="m 407.03198,335 -17.32051,-10 -4e-5,-10 17.32051,-10 z"
     id="path9"
     sodipodi:nodetypes="ccccc" />
  <path
     style="fill:#e1e1e1;fill-opacity:1"
     d="m 407.03198,335 c 5.7735,-3.33333 11.547,-6.66667 17.3205,-10 0,-10 0,-20 0,-30 -5.7735,3.33333 -11.547,6.66667 -17.3205,10 0,10 0,20 0,30 z"
     id="path10" />
</svg>
