<svg xmlns="http://www.w3.org/2000/svg" width="332.554" height="292.258">
    <path d="M20.785 108V36L0 24v72z" style="fill:#a3a3a3"/><path d="M62.354 84V12l-41.57 24v72z" style="fill:#e1e1e1"/><path d="M55.086 67.746c-4.089.086-8.675 1.458-13.518 4.254-17.218 9.941-31.175 34.118-31.175 54 0 9.942 3.49 16.929 9.132 20.186L268.068 289.64l44.96-75.827L64.68 70.494c-2.69-1.875-5.944-2.824-9.594-2.748" style="fill:#939393"/><path d="M290.985 288c-17.219 9.941-31.177 1.882-31.177-18s13.958-44.059 31.177-54c17.218-9.941 31.176-1.882 31.176 18s-13.958 44.059-31.176 54" style="fill:#b9b9b9;fill-opacity:1;stroke-width:.227122;-inkscape-stroke:none"/><path d="m20.785 36 41.569-24 249.415 144v24l-41.57 24v-24z" style="fill:#939393"/><path d="m20.785 60 311.769 180v-24L20.784 36Z" style="fill:#606060"/><path d="m290.985 192 41.569-24-20.785-12-41.57 24z" style="fill:#bebebe"/><path d="M290.985 264v-72L270.2 180v72z" style="fill:#a3a3a3"/><path d="m332.555 168-41.57 24v72l15.587-9v24l10.393-6v-24l15.59-9z" style="fill:#e1e1e1"/><path d="m20.785 36 41.569-24L41.569 0 0 24Z" style="fill:#bebebe"/><path d="m306.573 279-20.785-12v-6l5.197 3 15.588-9z" style="fill:#a3a3a3;fill-opacity:1"/>
</svg>