<svg xmlns="http://www.w3.org/2000/svg" width="80" height="80">
    <path d="m43.33 230.967 1.675-.967v-.967L43.33 230z" style="fill:#e1efd3;fill-opacity:1;stroke:none;stroke-width:.1;stroke-dasharray:none;stroke-opacity:1" transform="matrix(4.13596 0 0 4.13596 -130.713 -919.273)"/><path d="m41.236 231.693.837-.484L39.98 230l3.35-1.934 1.675.967-1.675.967.419.242.851-.492-.433 1.701z" style="fill:#bbda9b;fill-opacity:1;stroke:none;stroke-width:.1;stroke-dasharray:none;stroke-opacity:1" transform="matrix(4.13596 0 0 4.13596 -130.713 -919.273)"/><path d="M39.98 230.967V230l2.093 1.21-.837.483z" style="fill:#e1efd3;fill-opacity:1;stroke:none;stroke-width:.1;stroke-dasharray:none;stroke-opacity:1" transform="matrix(4.13596 0 0 4.13596 -130.713 -919.273)"/><path d="m44.6 229.75-.433 1.701-2.93.242v.967l2.93-.242.42-1.692z" style="fill:#e1efd3;fill-opacity:1;stroke:none;stroke-width:.1;stroke-dasharray:none;stroke-opacity:1" transform="matrix(4.13596 0 0 4.13596 -130.713 -919.273)"/>
</svg>