<?xml version="1.0" encoding="UTF-8" standalone="no"?>
<svg
   viewBox="0 0 441.673 335.12082"
   id="floor"
   version="1.1"
   sodipodi:docname="test-snap-roll.svg"
   inkscape:version="1.4 (e7c3feb100, 2024-10-09)"
   width="441.673"
   height="335.12082"
   xmlns:inkscape="http://www.inkscape.org/namespaces/inkscape"
   xmlns:sodipodi="http://sodipodi.sourceforge.net/DTD/sodipodi-0.dtd"
   xmlns="http://www.w3.org/2000/svg"
   xmlns:svg="http://www.w3.org/2000/svg">
  <defs
     id="defs18" />
  <sodipodi:namedview
     id="namedview18"
     pagecolor="#ffffff"
     bordercolor="#000000"
     borderopacity="0.25"
     inkscape:showpageshadow="2"
     inkscape:pageopacity="0.0"
     inkscape:pagecheckerboard="0"
     inkscape:deskcolor="#d1d1d1"
     showgrid="true"
     inkscape:zoom="1.1766257"
     inkscape:cx="198.44884"
     inkscape:cy="295.76101"
     inkscape:window-width="1920"
     inkscape:window-height="1043"
     inkscape:window-x="0"
     inkscape:window-y="0"
     inkscape:window-maximized="1"
     inkscape:current-layer="floor">
    <inkscape:grid
       type="axonomgrid"
       id="grid18"
       units="px"
       originx="0"
       originy="0"
       spacingx="3.7795276"
       spacingy="2"
       empcolor="#0099e5"
       empopacity="0.30196078"
       color="#0099e5"
       opacity="0.14901961"
       empspacing="5"
       dotted="false"
       gridanglex="30"
       gridanglez="30"
       enabled="true"
       visible="true" />
  </sodipodi:namedview>
  <g
     id="scrollingFloor"
     transform="translate(428.42327,-180)" />
  <path
     id="path47-6"
     style="fill:#939393"
     d="m 75.391,66 c -24.49344,7.699704 -42.84703,36.23294 -36.55508,61.83377 3.99341,14.72384 19.97531,18.04849 31.04861,25.82898 103.66761,60.03439 207.12566,119.5004 310.79328,179.53478 10.66667,-23.33333 21.5429,-46.0983 32.20957,-69.43163 C 302.05525,199.84393 191.22313,135.92197 80.391,72 c -6.04149,1.013581 -5.1109,-0.834842 -5,-6 z"
     sodipodi:nodetypes="ccccccc" />
  <path
     id="wheel"
     style="fill:#b9b9b9"
     d="m 426.391,282 c -1.32283,21.80373 -14.54211,44.84959 -35.43311,52.97925 -22.98159,2.53011 -21.20839,-29.51439 -12.75293,-43.00098 6.45791,-15.29368 29.62435,-42.97117 45.14649,-22.99463 2.19753,3.95221 3.03068,8.53314 3.03955,13.01636 z" />
</svg>
