<svg xmlns="http://www.w3.org/2000/svg" width="441.673" height="335.121"><path d="M75.391 66c-24.493 7.7-42.847 36.233-36.555 61.834 3.993 14.724 19.975 18.048 31.049 25.829 103.667 60.034 207.125 119.5 310.793 179.535 10.666-23.334 21.543-46.099 32.21-69.432L80.39 72c-6.041 1.014-5.11-.835-5-6" style="fill:#939393"/><path d="M426.391 282c-1.323 21.804-14.542 44.85-35.433 52.98-22.982 2.53-21.209-29.515-12.753-43.002 6.458-15.293 29.624-42.97 45.146-22.994 2.198 3.952 3.031 8.533 3.04 13.016" style="fill:#b9b9b9"/><path d="M77.942 75V15L25.981 45v60z" style="fill:#e1e1e1"/><path d="m25.98 45 51.962-30 337.75 195c-10.2 15.393-19.424 31.792-30.223 46.565L359.423 272l-.022-34.5z" style="fill:#939393"/><path d="m25.98 75 337.75 195v-30L25.98 45z" style="fill:#606060"/><path d="m389.711 255 51.962-30-25.98-15-51.962 30z" style="fill:#bebebe"/><path d="M389.711 315v-60l-25.98-15v60z" style="fill:#a3a3a3"/><path d="M441.673 285v-60l-51.962 30v60z" style="fill:#e1e1e1"/><path d="M25.98 105V45L0 30v60z" style="fill:#a3a3a3"/><path d="m25.98 45 51.962-30-25.98-15L0 30z" style="fill:#bebebe"/><path d="m407.032 335-17.32-10v-10l17.32-10z" style="fill:#a3a3a3;fill-opacity:1"/><path d="m407.032 335 17.32-10v-30l-17.32 10z" style="fill:#e1e1e1;fill-opacity:1"/></svg>