<?xml version="1.0" encoding="UTF-8" standalone="no"?>
<!-- Created with Inkscape (http://www.inkscape.org/) -->

<svg
   version="1.1"
   id="svg950"
   width="52.875973"
   height="64.108063"
   viewBox="0 0 52.875976 64.108063"
   sodipodi:docname="atlas.svg"
   inkscape:version="1.1 (c4e8f9ed74, 2021-05-24)"
   xmlns:inkscape="http://www.inkscape.org/namespaces/inkscape"
   xmlns:sodipodi="http://sodipodi.sourceforge.net/DTD/sodipodi-0.dtd"
   xmlns:xlink="http://www.w3.org/1999/xlink"
   xmlns="http://www.w3.org/2000/svg"
   xmlns:svg="http://www.w3.org/2000/svg"
   xmlns:rdf="http://www.w3.org/1999/02/22-rdf-syntax-ns#"
   xmlns:cc="http://creativecommons.org/ns#"
   xmlns:dc="http://purl.org/dc/elements/1.1/">
  <metadata
     id="metadata956">
    <rdf:RDF>
      <cc:Work
         rdf:about="">
        <dc:format>image/svg+xml</dc:format>
        <dc:type
           rdf:resource="http://purl.org/dc/dcmitype/StillImage" />
      </cc:Work>
    </rdf:RDF>
  </metadata>
  <defs
     id="defs954">
    <linearGradient
       inkscape:collect="always"
       id="linearGradient1908">
      <stop
         style="stop-color:#abb068;stop-opacity:1;"
         offset="0"
         id="stop1904" />
      <stop
         style="stop-color:#abb068;stop-opacity:0;"
         offset="1"
         id="stop1906" />
    </linearGradient>
    <linearGradient
       inkscape:collect="always"
       id="linearGradient1888">
      <stop
         style="stop-color:#d9e459;stop-opacity:1;"
         offset="0"
         id="stop1884" />
      <stop
         style="stop-color:#ffffff;stop-opacity:1"
         offset="1"
         id="stop1886" />
    </linearGradient>
    <linearGradient
       inkscape:collect="always"
       id="linearGradient1880">
      <stop
         style="stop-color:#3a3a3a;stop-opacity:1"
         offset="0"
         id="stop1876" />
      <stop
         style="stop-color:#6e6e6e;stop-opacity:1"
         offset="1"
         id="stop1878" />
    </linearGradient>
    <linearGradient
       inkscape:collect="always"
       id="linearGradient1864">
      <stop
         style="stop-color:#313231;stop-opacity:1;"
         offset="0"
         id="stop1860" />
      <stop
         style="stop-color:#313231;stop-opacity:0;"
         offset="1"
         id="stop1862" />
    </linearGradient>
    <linearGradient
       inkscape:collect="always"
       id="linearGradient1848">
      <stop
         style="stop-color:#facdae;stop-opacity:1;"
         offset="0"
         id="stop1844" />
      <stop
         style="stop-color:#dab398;stop-opacity:1"
         offset="1"
         id="stop1846" />
    </linearGradient>
    <linearGradient
       inkscape:collect="always"
       id="linearGradient1840">
      <stop
         style="stop-color:#242426;stop-opacity:1;"
         offset="0"
         id="stop1836" />
      <stop
         style="stop-color:#525213;stop-opacity:1"
         offset="1"
         id="stop1838" />
    </linearGradient>
    <linearGradient
       inkscape:collect="always"
       xlink:href="#linearGradient1840"
       id="linearGradient1842"
       x1="47.205566"
       y1="66.049667"
       x2="58.394222"
       y2="66.049667"
       gradientUnits="userSpaceOnUse"
       gradientTransform="translate(-46.351299,-49.220626)" />
    <linearGradient
       inkscape:collect="always"
       xlink:href="#linearGradient1848"
       id="linearGradient1850"
       x1="53.646713"
       y1="67.96019"
       x2="61.18705"
       y2="67.96019"
       gradientUnits="userSpaceOnUse"
       gradientTransform="translate(-46.351299,-49.220626)" />
    <linearGradient
       inkscape:collect="always"
       xlink:href="#linearGradient1848"
       id="linearGradient1858"
       x1="72.327942"
       y1="54.688442"
       x2="78.891342"
       y2="54.688442"
       gradientUnits="userSpaceOnUse"
       gradientTransform="translate(-46.351299,-49.220626)" />
    <linearGradient
       inkscape:collect="always"
       xlink:href="#linearGradient1864"
       id="linearGradient1866"
       x1="78.35186"
       y1="88.722321"
       x2="72.727211"
       y2="77.736687"
       gradientUnits="userSpaceOnUse"
       gradientTransform="translate(-46.351299,-49.220626)" />
    <linearGradient
       inkscape:collect="always"
       xlink:href="#linearGradient1880"
       id="linearGradient1882"
       x1="65.772842"
       y1="96.832207"
       x2="58.075325"
       y2="90.693176"
       gradientUnits="userSpaceOnUse"
       gradientTransform="translate(-46.351299,-49.220626)" />
    <radialGradient
       inkscape:collect="always"
       xlink:href="#linearGradient1888"
       id="radialGradient1892"
       cx="73.025848"
       cy="79.300896"
       fx="73.025848"
       fy="79.300896"
       r="11.492104"
       gradientTransform="matrix(1.0454927,-1.6765935,2.1434649,1.3366251,-219.65213,47.758082)"
       gradientUnits="userSpaceOnUse" />
    <linearGradient
       inkscape:collect="always"
       xlink:href="#linearGradient1908"
       id="linearGradient1910"
       x1="74.538658"
       y1="78.943802"
       x2="72.253952"
       y2="79.058037"
       gradientUnits="userSpaceOnUse"
       gradientTransform="matrix(1,0,0,1.2262445,-46.351299,-67.863042)" />
  </defs>
  <sodipodi:namedview
     pagecolor="#ffffff"
     bordercolor="#666666"
     borderopacity="1"
     objecttolerance="10"
     gridtolerance="10"
     guidetolerance="10"
     inkscape:pageopacity="0"
     inkscape:pageshadow="2"
     inkscape:window-width="2061"
     inkscape:window-height="1176"
     id="namedview952"
     showgrid="false"
     inkscape:zoom="6.1899041"
     inkscape:cx="44.26563"
     inkscape:cy="5.0081552"
     inkscape:window-x="26"
     inkscape:window-y="23"
     inkscape:window-maximized="0"
     inkscape:current-layer="svg950"
     fit-margin-top="0"
     fit-margin-left="0"
     fit-margin-right="0"
     fit-margin-bottom="0"
     inkscape:pagecheckerboard="0" />
  <ellipse
     style="opacity:0.93;fill:#b2b2b2;fill-opacity:1;stroke:none;stroke-width:7.17325;stroke-opacity:0"
     id="path901"
     cx="74.995766"
     cy="59.148575"
     rx="21.545982"
     ry="19.892296"
     transform="matrix(0.98155391,0.19118556,-0.79755768,0.60324269,0,0)" />
  <path
     style="fill:url(#linearGradient1842);fill-opacity:1;fill-rule:evenodd;stroke:none;stroke-width:0.245669;stroke-linecap:butt;stroke-linejoin:miter;stroke-miterlimit:4;stroke-dasharray:none;stroke-opacity:1"
     d="m 1.7574282,14.162892 c -0.705114,1.83339 -0.536073,1.15206 -0.615317,3.30853 0.170605,0.95544 0.494351,1.96045 0.971002,2.7131 0.476651,0.75264 1.084874,1.35703 1.742091,1.74209 0.657217,0.38506 1.525485,0.55799 2.02768,0.57118 0.502195,0.0132 0.472221,0.0334 0.885325,-0.19992 0.413104,-0.23333 1.342267,-1.39938 1.342267,-1.39938 l 1.313709,-2.02768 2.4846218,0.0286 -0.05712,-0.65686 -0.342707,-0.25703 -1.199472,-0.3427 -0.127009,-0.81041 0.999074,-1.195 -1.7384948,-0.10031 -2.1702,-0.28098 -2.298594,-0.34103 z"
     id="path1156"
     inkscape:connector-curvature="0"
     sodipodi:nodetypes="cczzzzcccccccccccc" />
  <path
     style="fill:url(#linearGradient1850);fill-opacity:1;fill-rule:evenodd;stroke:none;stroke-width:0.245669;stroke-linecap:butt;stroke-linejoin:miter;stroke-miterlimit:4;stroke-dasharray:none;stroke-opacity:1"
     d="m 7.5107392,21.669582 c 0,0 0.976517,0.11995 1.456503,0.0857 0.479986,-0.0343 1.3993838,-0.28559 1.3993838,-0.28559 l 1.28515,-0.1428 c 0,0 0.849969,-0.44662 1.170914,-0.99956 0.320945,-0.55293 0.428383,-2.25615 0.428383,-2.25615 l 0.371265,-0.59973 0.656854,-0.11424 0.63592,-1.36917 -3.733539,-0.35065 -0.999074,1.195 0.127009,0.81041 1.199472,0.34271 0.342707,0.25703 0.05712,0.65685 -2.4846218,-0.0286 z"
     id="path1158"
     inkscape:connector-curvature="0"
     sodipodi:nodetypes="czcczcccccccccccc" />
  <path
     style="fill:url(#radialGradient1892);fill-opacity:1;fill-rule:evenodd;stroke:none;stroke-width:0.245669;stroke-linecap:butt;stroke-linejoin:miter;stroke-miterlimit:4;stroke-dasharray:none;stroke-opacity:1"
     d="m 14.915112,15.988022 4.052147,0.20143 4.780859,-0.0956 4.325446,-0.34672 -0.543054,-5.67242 0.485501,-0.0857 0.25703,0.7425297 1.056678,0.19991 1.456503,-0.42838 0.371265,-0.28559 0.199912,-0.7425297 0.342707,-0.11424 2.627416,11.7376997 -0.05712,1.37082 -0.999561,1.39939 -0.828207,0.65685 -1.770651,-0.0286 -1.199472,-0.45694 -1.28515,-0.54262 0.571178,3.71266 0.628295,2.94156 0.971002,3.02724 -3.826889,2.51318 -2.027681,0.17136 -9.053163,-5.39763 -0.485501,-4.74078 -3.312829,-4.39806 c 0,0 0.849969,-0.44662 1.170914,-0.99956 0.320945,-0.55294 0.428383,-2.25615 0.428383,-2.25615 l 0.371265,-0.59974 0.656854,-0.11423 z"
     id="path1162"
     inkscape:connector-curvature="0"
     sodipodi:nodetypes="ccccccccccccccccccccccccccczcccc" />
  <path
     style="fill:#333333;fill-opacity:1;fill-rule:evenodd;stroke:none;stroke-width:0.245669;stroke-linecap:butt;stroke-linejoin:miter;stroke-miterlimit:4;stroke-dasharray:none;stroke-opacity:1"
     d="m 15.450103,30.465702 1.170917,9.62435 4.340949,-6.28295 z"
     id="path1164"
     inkscape:connector-curvature="0"
     sodipodi:nodetypes="cccc" />
  <path
     style="fill:url(#linearGradient1882);fill-opacity:1;fill-rule:evenodd;stroke:none;stroke-width:0.245669;stroke-linecap:butt;stroke-linejoin:miter;stroke-miterlimit:4;stroke-dasharray:none;stroke-opacity:1"
     d="m 20.961969,33.807102 -6.425747,9.22452 v 2.94156 l 2.513181,11.82337 2.141916,0.45695 2.456063,-0.51406 1.028119,-0.45695 -0.885325,-11.50922 3.255712,-2.71309 2.655975,-3.1986 1.856327,-2.59886 0.942443,-2.85588 -0.142797,-1.22804 -3.826889,2.51318 -2.027681,0.17135 z"
     id="path1166"
     inkscape:connector-curvature="0" />
  <path
     style="fill:url(#linearGradient1866);fill-opacity:1;fill-rule:evenodd;stroke:none;stroke-width:0.245669;stroke-linecap:butt;stroke-linejoin:miter;stroke-miterlimit:4;stroke-dasharray:none;stroke-opacity:1"
     d="m 29.55819,37.262722 2.941564,-1.79921 1.456503,0.85677 1.342267,2.31327 -0.05712,1.22803 -1.056678,0.91389 -6.85413,5.16915 -4.769332,3.74121 h -0.542618 l -0.228472,-3.91256 3.255712,-2.71309 z"
     id="path1168"
     inkscape:connector-curvature="0"
     sodipodi:nodetypes="cccccccccccc" />
  <path
     style="fill:#1a1a1a;fill-opacity:1;fill-rule:evenodd;stroke:none;stroke-width:0.245669;stroke-linecap:butt;stroke-linejoin:miter;stroke-miterlimit:4;stroke-dasharray:none;stroke-opacity:1"
     d="m 17.049403,57.796552 -1.656415,1.85633 -1.942003,1.51362 -0.656854,1.02812 0.199912,1.14236 1.656415,0.77108 2.199033,-0.57117 2.456063,-1.51362 1.02812,-0.79965 -0.02856,-0.65686 0.685413,0.54262 1.285149,-0.8282 0.599737,-0.31415 -0.199913,-2.68454 -1.028119,0.45695 -2.456063,0.51406 z"
     id="path1170"
     inkscape:connector-curvature="0" />
  <path
     style="fill:#1a1a1a;fill-opacity:1;fill-rule:evenodd;stroke:none;stroke-width:0.245669;stroke-linecap:butt;stroke-linejoin:miter;stroke-miterlimit:4;stroke-dasharray:none;stroke-opacity:1"
     d="m 32.499754,35.463512 1.399385,-1.11379 0.999561,-0.22847 1.313708,0.42838 0.599736,1.02812 0.05712,2.54174 -0.114235,2.94156 -0.399825,1.91345 -0.628295,0.94244 -1.170914,0.34271 -1.25659,-0.0571 -0.799649,-0.57118 -0.399824,-0.74253 0.05712,-0.57118 3.084356,-2.45606 0.05712,-1.22803 -1.342267,-2.31327 -1.456503,-0.85677"
     id="path1172"
     inkscape:connector-curvature="0" />
  <path
     style="fill:url(#linearGradient1858);fill-opacity:1;fill-rule:evenodd;stroke:none;stroke-width:0.245669;stroke-linecap:butt;stroke-linejoin:miter;stroke-miterlimit:4;stroke-dasharray:none;stroke-opacity:1"
     d="m 27.963261,9.7867523 -0.666407,-1.71651 -0.323107,-1.7165 -0.105875,-1.77565 -0.611319,-2.03962 c 0,0 -0.273203,-0.8476 -0.09894,-0.90467 0.17426,-0.0571 0.573802,-0.0237 0.573802,-0.0237 0,0 0.02249,-0.43013 0.179716,-0.65661001 0.157226,-0.22649 0.315265,-0.36733 0.506884,-0.35513 0.191619,0.0122 0.501389,0.11364 0.501389,0.11364 0,0 0.194144,-0.41607 0.407349,-0.55791 0.213205,-0.14184 0.340508,-0.19568 0.541778,-0.11943 0.20127,0.0762 0.291328,0.0886 0.48669,0.24418 0,0 0.269101,-0.0261 0.447141,-0.12069 0.150319,-0.0799 0.290725,-0.19083 0.510472,-0.0151 0.219747,0.17571 0.224883,1.15579001 0.224883,1.15579001 l 0.48669,1.80624 c 0.394437,0.6843 0.514657,-0.42036 0.514657,-0.42036 0,0 0.369102,-0.6363 0.649679,-0.54119 0.280576,0.0951 0.106465,0.91245 0.106465,0.91245 0,0 0.165373,0.81023 0.110769,1.50046 -0.0546,0.69023 -0.605824,2.64543 -0.605824,2.64543 l -0.341784,2.35382 -0.300885,0.6617597 -0.371265,0.28559 -1.456503,0.42838 -1.056678,-0.19991 z"
     id="path1174"
     inkscape:connector-curvature="0"
     sodipodi:nodetypes="ccccczczzczzcszccczczccccccc" />
  <path
     style="fill:url(#linearGradient1910);fill-opacity:1;fill-rule:evenodd;stroke:none;stroke-width:0.272044;stroke-linecap:butt;stroke-linejoin:miter;stroke-miterlimit:4;stroke-dasharray:none;stroke-opacity:1"
     d="m 24.189122,18.611202 2.341825,17.08078 3.826889,-2.51318 -0.971002,-3.71214 -1.199473,-5.96932 z"
     id="path1894"
     inkscape:connector-curvature="0"
     sodipodi:nodetypes="cccccc" />
</svg>
