<svg xmlns="http://www.w3.org/2000/svg" viewBox="0 0 640 333"><defs><linearGradient id="a" y1="1" x2="0"><stop stop-color="#009bfa"/><stop offset=".5" stop-color="#00b4dd"/><stop offset="1" stop-color="#00d3bc"/></linearGradient></defs><path d="M53 245H39L0 333h16l30-70 30 70h16zm290 0v88h61v-14h-46v-74zm-143 88l-32-45 31-43h-18l-22 31-22-31h-18l31 43-32 45h18l23-33 23 33zm102-88h-65v88h65v-14h-50v-23h50v-14h-50v-23h50zm188 54a35 35 0 0 0 17-9 26 26 0 0 0 6-17c0-4-1-8-2-12a25 25 0 0 0-17-14c-4-1-9-2-14-2h-39v88h15v-31h19l22 31h18zm8-25c0 5-2 8-5 11s-8 4-13 4h-23v-30h23c6 0 10 1 13 4s5 6 5 11zm104-29h-16l-41 88h19l30-70 29 70H640z" fill="#04274c"/><path d="M407 138l-26 41h53zm-39-76l-37 58 36 51 70-110zM319 0L205 180h67l81-128z" fill="url(#a)"/></svg>