<?xml version="1.0" encoding="UTF-8" standalone="no"?>
<svg
   xmlns:dc="http://purl.org/dc/elements/1.1/"
   xmlns:cc="http://creativecommons.org/ns#"
   xmlns:rdf="http://www.w3.org/1999/02/22-rdf-syntax-ns#"
   xmlns:svg="http://www.w3.org/2000/svg"
   xmlns="http://www.w3.org/2000/svg"
   xmlns:sodipodi="http://sodipodi.sourceforge.net/DTD/sodipodi-0.dtd"
   xmlns:inkscape="http://www.inkscape.org/namespaces/inkscape"
   width="37.611328"
   height="28.199219"
   version="1.1"
   id="svg6"
   sodipodi:docname="favicon.svg"
   inkscape:version="0.92.5 (2060ec1f9f, 2020-04-08)">
  <metadata
     id="metadata12">
    <rdf:RDF>
      <cc:Work
         rdf:about="">
        <dc:format>image/svg+xml</dc:format>
        <dc:type
           rdf:resource="http://purl.org/dc/dcmitype/StillImage" />
        <dc:title></dc:title>
      </cc:Work>
    </rdf:RDF>
  </metadata>
  <defs
     id="defs10" />
  <sodipodi:namedview
     pagecolor="#ffffff"
     bordercolor="#666666"
     borderopacity="1"
     objecttolerance="10"
     gridtolerance="10"
     guidetolerance="10"
     inkscape:pageopacity="0"
     inkscape:pageshadow="2"
     inkscape:window-width="1920"
     inkscape:window-height="1016"
     id="namedview8"
     showgrid="false"
     fit-margin-top="0"
     fit-margin-left="0"
     fit-margin-right="0"
     fit-margin-bottom="0"
     inkscape:zoom="52.407855"
     inkscape:cx="39.645628"
     inkscape:cy="6.8535484"
     inkscape:window-x="1920"
     inkscape:window-y="27"
     inkscape:window-maximized="1"
     inkscape:current-layer="svg6" />
  <path
     style="font-weight:700;line-height:1.25;font-family:'Ubuntu Mono';-inkscape-font-specification:'Ubuntu Mono Bold';letter-spacing:0;word-spacing:0;fill:#062000;fill-opacity:1"
     d="M 12.080078,0 C 11.066745,0 10.079141,0.13372363 9.1191406,0.40039062 8.1591406,0.64039063 7.3052608,1.0663545 6.5585938,1.6796875 5.8119268,2.2663545 5.2130987,3.0667451 4.7597656,4.0800781 4.3330986,5.0667451 4.1191406,6.3198438 4.1191406,7.8398438 V 8.9199219 H 0 V 13 H 4.1191406 V 27.720703 H 9.0800782 V 13 H 16.798828 V 8.9199219 H 9.0800782 v -1 C 9.0800781,7.1199219 9.172708,6.48 9.359375,6 9.546042,5.493333 9.7867452,5.1065107 10.080078,4.8398438 c 0.32,-0.266667 0.680078,-0.4395313 1.080078,-0.5195313 0.426667,-0.08 0.865027,-0.1210937 1.31836,-0.1210937 0.826666,-10e-8 1.694895,0.1213281 2.601562,0.3613281 0.933333,0.213333 1.706979,0.4253389 2.320312,0.6386719 l 0.839844,-4 C 17.360234,0.77255175 16.372629,0.46596388 15.279296,0.27929688 14.185963,0.09262687 13.120078,0 12.080078,0 Z m 8.291015,0.24023438 V 4.3203125 h 5.199219 V 20.279297 c 0,2.587 0.520547,4.559922 1.560547,5.919922 1.04,1.333 2.694937,2 4.960937,2 0.827,0 1.559219,-0.05316 2.199219,-0.160157 0.667,-0.106999 1.226688,-0.226375 1.679688,-0.359374 0.454,-0.16 0.814078,-0.306454 1.080078,-0.439454 0.192246,-0.08173 0.379815,-0.174537 0.560547,-0.279296 L 36.970703,23 c -0.213,0.08 -0.653313,0.252531 -1.320313,0.519531 -0.666,0.267 -1.491515,0.400391 -2.478515,0.400391 -0.773,0 -1.412922,-0.226688 -1.919922,-0.679688 -0.506,-0.453 -0.759766,-1.319609 -0.759766,-2.599609 V 0.24023438 Z"
     id="path2"
     inkscape:connector-curvature="0"
     sodipodi:nodetypes="scccsccccccccccscccsccccscccscsccccccscscc" />
  <text
     xml:space="preserve"
     style="font-style:normal;font-variant:normal;font-weight:normal;font-stretch:normal;font-size:48px;line-height:125%;font-family:sans-serif;-inkscape-font-specification:sans-serif;letter-spacing:0px;word-spacing:0px;fill:#000000;fill-opacity:1;stroke:none;stroke-width:1px;stroke-linecap:butt;stroke-linejoin:miter;stroke-opacity:1"
     x="51.960442"
     y="-21.020206"
     id="text824"><tspan
       sodipodi:role="line"
       id="tspan822"
       x="51.960442"
       y="22.216005" /></text>
</svg>
