<?xml version="1.0" encoding="UTF-8" standalone="no"?>
<svg
   xmlns:dc="http://purl.org/dc/elements/1.1/"
   xmlns:cc="http://creativecommons.org/ns#"
   xmlns:rdf="http://www.w3.org/1999/02/22-rdf-syntax-ns#"
   xmlns:svg="http://www.w3.org/2000/svg"
   xmlns="http://www.w3.org/2000/svg"
   xmlns:sodipodi="http://sodipodi.sourceforge.net/DTD/sodipodi-0.dtd"
   xmlns:inkscape="http://www.inkscape.org/namespaces/inkscape"
   width="220.11133"
   height="28.199219"
   version="1.1"
   id="svg6"
   sodipodi:docname="logo.svg"
   inkscape:version="0.92.5 (2060ec1f9f, 2020-04-08)">
  <metadata
     id="metadata12">
    <rdf:RDF>
      <cc:Work
         rdf:about="">
        <dc:format>image/svg+xml</dc:format>
        <dc:type
           rdf:resource="http://purl.org/dc/dcmitype/StillImage" />
        <dc:title></dc:title>
      </cc:Work>
    </rdf:RDF>
  </metadata>
  <defs
     id="defs10" />
  <sodipodi:namedview
     pagecolor="#ffffff"
     bordercolor="#666666"
     borderopacity="1"
     objecttolerance="10"
     gridtolerance="10"
     guidetolerance="10"
     inkscape:pageopacity="0"
     inkscape:pageshadow="2"
     inkscape:window-width="1920"
     inkscape:window-height="1043"
     id="namedview8"
     showgrid="false"
     fit-margin-top="0"
     fit-margin-left="0"
     fit-margin-right="0"
     fit-margin-bottom="0"
     inkscape:zoom="6.5509819"
     inkscape:cx="44.359227"
     inkscape:cy="7.3215345"
     inkscape:window-x="3840"
     inkscape:window-y="0"
     inkscape:window-maximized="1"
     inkscape:current-layer="svg6" />
  <path
     style="font-weight:700;line-height:1.25;font-family:'Ubuntu Mono';-inkscape-font-specification:'Ubuntu Mono Bold';letter-spacing:0;word-spacing:0;fill:#062000;fill-opacity:1"
     d="M 12.080078,0 C 11.066745,0 10.079141,0.13372363 9.1191406,0.40039062 8.1591406,0.64039063 7.3052608,1.0663545 6.5585938,1.6796875 5.8119268,2.2663545 5.2130987,3.0667451 4.7597656,4.0800781 4.3330986,5.0667451 4.1191406,6.3198438 4.1191406,7.8398438 V 8.9199219 H 0 V 13 H 4.1191406 V 27.720703 H 9.0800782 V 13 H 16.798828 V 8.9199219 H 9.0800782 v -1 C 9.0800781,7.1199219 9.172708,6.48 9.359375,6 9.546042,5.493333 9.7867452,5.1065107 10.080078,4.8398438 c 0.32,-0.266667 0.680078,-0.4395313 1.080078,-0.5195313 0.426667,-0.08 0.865027,-0.1210937 1.31836,-0.1210937 0.826666,-10e-8 1.694895,0.1213281 2.601562,0.3613281 0.933333,0.213333 1.706979,0.4253389 2.320312,0.6386719 l 0.839844,-4 C 17.360234,0.77255175 16.372629,0.46596388 15.279296,0.27929688 14.185963,0.09262687 13.120078,0 12.080078,0 Z M 208.11132,0 203.15234,0.83984375 V 27.759766 h 4.95898 v -8.878907 c 0.50667,0.48 1.05396,1.093177 1.64063,1.839844 0.61333,0.72 1.21411,1.491692 1.80078,2.318359 0.58667,0.8 1.132,1.627136 1.63867,2.480469 0.53333,0.826667 0.96125,1.573568 1.28125,2.240235 h 5.63867 c -0.37333,-0.746667 -0.87953,-1.600547 -1.51953,-2.560547 -0.61333,-0.96 -1.29239,-1.918906 -2.03906,-2.878907 -0.74667,-0.96 -1.50792,-1.879765 -2.28125,-2.759765 -0.77333,-0.906667 -1.49349,-1.680313 -2.16016,-2.320313 0.53333,-0.586667 1.12172,-1.226589 1.76172,-1.919922 0.66667,-0.693333 1.31899,-1.413489 1.95899,-2.160156 0.66667,-0.746667 1.30659,-1.479218 1.91992,-2.199218 0.61333,-0.72 1.16062,-1.3866672 1.64062,-2.0000005 h -5.91992 c -0.32,0.56 -0.69442,1.1588285 -1.12109,1.7988285 -0.42667,0.613333 -0.87938,1.253254 -1.35938,1.919922 -0.45333,0.666667 -0.93278,1.320937 -1.43945,1.960937 -0.48,0.613333 -0.96141,1.199766 -1.44141,1.759766 z M 87.296875,0.0390625 c -1.013333,0 -1.998985,0.13372396 -2.958985,0.40039062 -0.96,0.24 -1.81388,0.66791668 -2.560547,1.28124998 -0.746667,0.5866667 -1.347448,1.3851042 -1.800781,2.3984375 -0.426667,0.9866667 -0.638672,2.2417188 -0.638672,3.7617188 v 1.0800781 h -4.121094 v 4.0781245 h 4.121094 v 14.720704 h 4.958985 V 13.039062 h 7.720703 V 8.9609375 h -7.720703 v -1 c 0,-0.8 0.09458,-1.441875 0.28125,-1.921875 0.186667,-0.5066667 0.425417,-0.8915364 0.71875,-1.1582031 0.32,-0.2666667 0.680078,-0.4414844 1.080078,-0.5214844 0.426667,-0.08 0.866979,-0.1191406 1.320312,-0.1191406 0.826667,0 1.692943,0.119375 2.59961,0.359375 0.933333,0.2133333 1.706979,0.4272917 2.320312,0.640625 l 0.839844,-4 c -0.88,-0.4266667 -1.865651,-0.73325523 -2.958985,-0.9199219 -1.093333,-0.18666667 -2.161171,-0.28125 -3.201171,-0.28125 z M 20.371093,0.24023438 V 4.3203125 h 5.199219 V 20.279297 c 0,2.587 0.520547,4.559922 1.560547,5.919922 1.04,1.333 2.694937,2 4.960937,2 0.827,0 1.559219,-0.05316 2.199219,-0.160157 0.667,-0.106999 1.226688,-0.226375 1.679688,-0.359374 0.454,-0.16 0.814078,-0.306454 1.080078,-0.439454 0.192246,-0.08173 0.379815,-0.174537 0.560547,-0.279296 L 36.970703,23 c -0.213,0.08 -0.653313,0.252531 -1.320313,0.519531 -0.666,0.267 -1.491515,0.400391 -2.478515,0.400391 -0.773,0 -1.412922,-0.226688 -1.919922,-0.679688 -0.506,-0.453 -0.759766,-1.319609 -0.759766,-2.599609 V 0.24023438 Z m 44.81836,3.19921872 -4.919922,0.8007813 v 4.7207031 h -4.279297 v 4.0781245 h 4.279297 v 7.720704 c 0,1.573333 0.160469,2.853176 0.480469,3.839843 0.32,0.96 0.787057,1.706902 1.40039,2.240235 0.613333,0.533333 1.360235,0.893411 2.240235,1.080078 0.88,0.18667 1.892395,0.279297 3.039062,0.279297 0.986667,0 2.001016,-0.07828 3.041016,-0.238281 1.066667,-0.16 2.052317,-0.427449 2.958984,-0.800782 L 72.75,22.919922 c -0.453333,0.213333 -0.879297,0.386198 -1.279297,0.519531 -0.373333,0.133333 -0.747761,0.240313 -1.121094,0.320313 -0.346667,0.05333 -0.719141,0.09442 -1.119141,0.121093 -0.373333,0.02667 -0.786901,0.03906 -1.240234,0.03906 -0.426667,0 -0.813489,-0.03914 -1.160156,-0.119141 -0.346667,-0.08 -0.638906,-0.240469 -0.878906,-0.480469 -0.240001,-0.239999 -0.427214,-0.573333 -0.560547,-1 -0.13333,-0.426667 -0.201172,-0.986354 -0.201172,-1.679687 v -7.601563 h 7.880859 V 8.9609375 h -7.880859 z m 92.269527,0 -4.91992,0.8007813 v 4.7207031 h -4.28125 v 4.0781245 h 4.28125 v 7.720704 c 0,1.573333 0.15851,2.853176 0.47851,3.839843 0.32,0.96 0.78706,1.706902 1.40039,2.240235 0.61333,0.533333 1.36024,0.893411 2.24024,1.080078 0.88,0.18667 1.89239,0.279297 3.03906,0.279297 0.98667,0 2.00102,-0.07828 3.04102,-0.238281 1.06667,-0.16 2.05231,-0.427449 2.95898,-0.800782 l -0.67969,-4.240234 c -0.45333,0.213333 -0.87929,0.386198 -1.27929,0.519531 -0.37333,0.133333 -0.74581,0.240313 -1.11914,0.320313 -0.34667,0.05333 -0.7211,0.09442 -1.1211,0.121093 -0.37333,0.02667 -0.7869,0.03906 -1.24023,0.03906 -0.42667,0 -0.81349,-0.03914 -1.16016,-0.119141 -0.34667,-0.08 -0.6389,-0.240469 -0.8789,-0.480469 -0.24,-0.239999 -0.42722,-0.573333 -0.56055,-1 -0.1333,-0.426667 -0.19922,-0.986354 -0.19922,-1.679687 v -7.601563 h 7.87891 V 8.9609375 h -7.87891 z M 46.21289,8.4804688 c -1.2,0 -2.360469,0.09263 -3.480468,0.2792968 -1.120001,0.16 -1.986277,0.3472136 -2.59961,0.5605469 L 40.8125,13.279297 c 0.533333,-0.186667 1.226745,-0.345183 2.080078,-0.478516 0.88,-0.13333 1.785417,-0.201172 2.71875,-0.201172 1.44,0 2.454348,0.320938 3.041015,0.960938 0.586667,0.613333 0.88086,1.386979 0.88086,2.320312 v 0.59961 c -0.986667,-0.213333 -2.120391,-0.320313 -3.400391,-0.320313 -1.013333,0 -1.986589,0.10698 -2.919922,0.320313 -0.933333,0.186667 -1.760469,0.505651 -2.480468,0.958984 -0.72,0.453333 -1.294037,1.054114 -1.720704,1.800781 -0.426667,0.746667 -0.638672,1.666433 -0.638672,2.759766 0,1.146667 0.185261,2.119922 0.558594,2.919922 0.373333,0.773333 0.90823,1.413255 1.601563,1.919922 0.693333,0.48 1.518515,0.827682 2.478515,1.041015 0.986667,0.213333 2.08125,0.31836 3.28125,0.31836 1.76,0 3.346433,-0.105027 4.759766,-0.31836 1.413333,-0.213333 2.479219,-0.400546 3.199219,-0.560547 V 16.119141 c 0,-1.173333 -0.133724,-2.224871 -0.400391,-3.158203 C 53.584895,12.000937 53.146536,11.200547 52.533203,10.560547 51.91987,9.8938802 51.092734,9.3857292 50.052734,9.0390625 49.039401,8.6657292 47.759557,8.4804688 46.21289,8.4804688 Z m 55.36524,0 c -1.12,0 -2.214588,0.2120051 -3.281255,0.6386718 -1.066667,0.4266667 -2.013177,1.0665894 -2.839844,1.9199214 -0.826667,0.826668 -1.493333,1.867761 -2,3.121094 -0.506667,1.253333 -0.759766,2.706042 -0.759766,4.359375 0,1.6 0.240703,3.001172 0.720703,4.201172 0.48,1.2 1.159063,2.212396 2.039063,3.039063 0.906667,0.8 1.986901,1.413176 3.240234,1.839843 1.28,0.4 2.720315,0.59961 4.320305,0.59961 1.2,0 2.28024,-0.105027 3.24024,-0.31836 0.96,-0.186667 1.86542,-0.42737 2.71875,-0.720703 l -0.67969,-4.199218 c -0.61333,0.213333 -1.37263,0.425338 -2.2793,0.638671 -0.88,0.213333 -1.81411,0.320313 -2.80078,0.320313 -1.59999,0 -2.90658,-0.34573 -3.919915,-1.039063 -1.013333,-0.72 -1.519532,-1.693255 -1.519532,-2.919921 h 12.199217 c 0.0267,-0.213333 0.041,-0.49513 0.041,-0.841797 0.0267,-0.346667 0.0391,-0.68 0.0391,-1 0,-3.146667 -0.72016,-5.531537 -2.16016,-7.158203 -1.44,-1.6533338 -3.54503,-2.4804692 -6.31835,-2.4804692 z m 19.48437,0 c -1.12,0 -2.21263,0.2120051 -3.2793,0.6386718 -1.06667,0.4266667 -2.01513,1.0665894 -2.8418,1.9199214 -0.82667,0.826668 -1.49333,1.867761 -2,3.121094 -0.50667,1.253333 -0.75976,2.706042 -0.75976,4.359375 0,1.6 0.2407,3.001172 0.7207,4.201172 0.48,1.2 1.15906,2.212396 2.03906,3.039063 0.90667,0.8 1.98691,1.413176 3.24024,1.839843 1.28,0.4 2.72031,0.59961 4.32031,0.59961 1.2,0 2.28023,-0.105027 3.24023,-0.31836 0.96,-0.186667 1.86738,-0.42737 2.72071,-0.720703 l -0.67969,-4.199218 c -0.61333,0.213333 -1.37458,0.425338 -2.28125,0.638671 -0.88,0.213333 -1.81216,0.320313 -2.79883,0.320313 -1.6,0 -2.90659,-0.34573 -3.91992,-1.039063 -1.01333,-0.72 -1.52149,-1.693255 -1.52149,-2.919921 h 12.20118 c 0.0267,-0.213333 0.0391,-0.49513 0.0391,-0.841797 0.0267,-0.346667 0.041,-0.68 0.041,-1 0,-3.146667 -0.72015,-5.531537 -2.16015,-7.158203 -1.44,-1.6533338 -3.54698,-2.4804692 -6.32031,-2.4804692 z m 19.01367,0 c -1.41333,0 -2.6273,0.1604687 -3.64063,0.4804687 -1.01333,0.2933333 -1.85286,0.7192969 -2.51953,1.2792965 -0.64,0.533333 -1.12141,1.158907 -1.4414,1.878907 -0.29333,0.693333 -0.43946,1.440234 -0.43946,2.240234 0,0.986667 0.19961,1.813802 0.59961,2.480469 0.4,0.64 0.9062,1.172942 1.51953,1.599609 0.61333,0.426667 1.29435,0.786745 2.04102,1.080078 0.74667,0.266667 1.47922,0.50737 2.19922,0.720703 0.50667,0.16 0.98807,0.320469 1.4414,0.480469 0.48,0.16 0.89357,0.332864 1.24024,0.519531 0.37333,0.16 0.65317,0.35961 0.83984,0.59961 0.21333,0.24 0.31836,0.534192 0.31836,0.880859 0,0.533333 -0.31898,0.893411 -0.95898,1.080078 -0.64,0.16 -1.55977,0.238281 -2.75977,0.238281 -1.09333,10e-7 -2.17356,-0.158515 -3.24023,-0.478515 -1.04,-0.32 -2.02761,-0.667683 -2.96094,-1.041016 l -0.75977,4.121094 c 0.69333,0.293333 1.6131,0.626667 2.75977,1 1.14667,0.373333 2.53349,0.558594 4.16016,0.558594 1.6,0 2.94768,-0.14612 4.04101,-0.439453 1.09333,-0.293333 1.972,-0.692552 2.63867,-1.199219 0.69333,-0.506667 1.18714,-1.107448 1.48047,-1.800781 0.29333,-0.693333 0.44141,-1.425886 0.44141,-2.199219 0,-0.986667 -0.20156,-1.813802 -0.60156,-2.480469 -0.40001,-0.693333 -0.9186,-1.25302 -1.5586,-1.679687 -0.61333,-0.453333 -1.30675,-0.827761 -2.08008,-1.121094 -0.77333,-0.293333 -1.52023,-0.558828 -2.24023,-0.798828 -0.50667,-0.16 -0.98808,-0.320469 -1.44141,-0.480469 -0.42667,-0.186667 -0.81153,-0.37388 -1.1582,-0.560547 -0.32,-0.186667 -0.58745,-0.386276 -0.80078,-0.599609 -0.1867,-0.24 -0.2793,-0.507448 -0.2793,-0.800782 0,-0.346666 0.212,-0.665651 0.63867,-0.958984 0.45333,-0.32 1.30722,-0.480469 2.56055,-0.480469 1.2,0 2.28023,0.160469 3.24023,0.480469 0.96,0.293333 1.66582,0.507292 2.11915,0.640625 l 0.75976,-4.1601561 c -0.77333,-0.3466667 -1.6931,-0.6141146 -2.75976,-0.8007813 -1.04,-0.186667 -2.17177,-0.2792968 -3.39844,-0.2792968 z m 34.79687,0 c -1.2,0 -2.36047,0.09263 -3.48047,0.2792968 -1.12,0.16 -1.98628,0.3472136 -2.59961,0.5605469 l 0.67969,3.9589845 c 0.53333,-0.186667 1.22675,-0.345183 2.08008,-0.478516 0.88,-0.13333 1.78542,-0.201172 2.71875,-0.201172 1.44,0 2.45435,0.320938 3.04102,0.960938 0.58667,0.613333 0.8789,1.386979 0.8789,2.320312 v 0.59961 c -0.98667,-0.213333 -2.11844,-0.320313 -3.39844,-0.320313 -1.01333,0 -1.98659,0.10698 -2.91992,0.320313 -0.93333,0.186667 -1.76047,0.505651 -2.48047,0.958984 -0.72,0.453333 -1.29403,1.054114 -1.7207,1.800781 -0.42667,0.746667 -0.63867,1.666433 -0.63867,2.759766 0,1.146667 0.18526,2.119922 0.55859,2.919922 0.37333,0.773333 0.90628,1.413255 1.59961,1.919922 0.69333,0.48 1.52047,0.827682 2.48047,1.041015 0.98667,0.213333 2.08125,0.31836 3.28125,0.31836 1.76,0 3.34644,-0.105027 4.75977,-0.31836 1.41333,-0.213333 2.47922,-0.400546 3.19922,-0.560547 V 16.119141 c 0,-1.173333 -0.13373,-2.224871 -0.4004,-3.158203 -0.26667,-0.960001 -0.70698,-1.760391 -1.32031,-2.400391 -0.61333,-0.6666668 -1.43851,-1.1748178 -2.47851,-1.5214845 -1.01333,-0.3733333 -2.29318,-0.5585937 -3.83985,-0.5585937 z m 20.59961,0 c -1.86667,0 -3.47984,0.2654948 -4.83984,0.7988281 -1.33333,0.5066667 -2.44031,1.2144271 -3.32031,2.1210941 -0.88,0.88 -1.53427,1.91914 -1.96094,3.11914 -0.42667,1.2 -0.63867,2.479844 -0.63867,3.839844 0,1.386667 0.19961,2.680859 0.59961,3.880859 0.42667,1.2 1.07898,2.239141 1.95898,3.119141 0.88,0.88 2.00133,1.573411 3.36133,2.080078 1.38667,0.506667 3.03898,0.759766 4.95898,0.759766 1.33333,0 2.4938,-0.09263 3.48047,-0.279297 0.98667,-0.16 1.8262,-0.373958 2.51953,-0.640625 l -0.71875,-4.039063 c -0.69333,0.24 -1.46698,0.412865 -2.32031,0.519532 -0.82667,0.10667 -1.62706,0.160156 -2.40039,0.160156 -2.34667,0 -4.01333,-0.493802 -5,-1.480469 -0.96,-0.986667 -1.43945,-2.346745 -1.43945,-4.080078 0,-0.8 0.10698,-1.546901 0.32031,-2.240234 0.21333,-0.693333 0.55906,-1.279766 1.03906,-1.759766 0.48,-0.506667 1.10753,-0.893489 1.88086,-1.160156 0.8,-0.293333 1.78566,-0.439453 2.95899,-0.439453 1.01332,0 1.84046,0.08023 2.48046,0.240234 0.66667,0.133333 1.2655,0.293802 1.79883,0.480469 l 1.08008,-3.9609378 c -0.93333,-0.3733332 -1.8531,-0.6388281 -2.75977,-0.7988281 -0.90667,-0.16 -1.91906,-0.2402343 -3.03906,-0.2402343 z M 101.6582,12.599609 c 0.66667,0 1.22636,0.121328 1.67969,0.361329 0.45333,0.213332 0.82581,0.505573 1.11914,0.878906 0.29333,0.373333 0.50729,0.799297 0.64062,1.279297 0.1333,0.453333 0.19922,0.934739 0.19922,1.441406 h -7.519527 c 0.05333,-0.506667 0.160313,-1.000469 0.320313,-1.480469 0.186667,-0.48 0.425417,-0.905964 0.71875,-1.279297 0.32,-0.373333 0.706823,-0.667526 1.160156,-0.880859 0.479998,-0.213333 1.041638,-0.320313 1.681638,-0.320313 z m 19.48437,0 c 0.66667,0 1.22636,0.121328 1.67969,0.361329 0.45333,0.213332 0.82581,0.505573 1.11914,0.878906 0.29333,0.373333 0.5073,0.799297 0.64063,1.279297 0.1333,0.453333 0.20117,0.934739 0.20117,1.441406 h -7.52149 c 0.0533,-0.506667 0.16032,-1.000469 0.32032,-1.480469 0.18667,-0.48 0.42737,-0.905964 0.7207,-1.279297 0.32,-0.373333 0.70683,-0.667526 1.16016,-0.880859 0.48,-0.213333 1.03968,-0.320313 1.67968,-0.320313 z m -74.009758,7 c 0.373333,0 0.786901,0.02675 1.240234,0.08008 0.453333,0.02667 0.840157,0.06776 1.160157,0.121093 v 4.31836 c -0.373333,0.05333 -0.813646,0.09442 -1.320313,0.121093 h -1.560547 c -1.013333,0 -1.840468,-0.172864 -2.480468,-0.519531 -0.64,-0.373333 -0.958985,-0.986511 -0.958985,-1.839844 0,-0.48 0.10698,-0.866823 0.320313,-1.160156 0.213333,-0.293333 0.493177,-0.52164 0.839843,-0.681641 0.373334,-0.159999 0.799297,-0.265029 1.279297,-0.318359 0.48,-0.08 0.973802,-0.121094 1.480469,-0.121095 z m 128.660148,0 c 0.37333,0 0.78691,0.02675 1.24024,0.08008 0.45333,0.02667 0.8382,0.06776 1.1582,0.121093 v 4.31836 c -0.37333,0.05333 -0.81169,0.09442 -1.31836,0.121093 h -1.56054 c -1.01333,0 -1.84047,-0.172864 -2.48047,-0.519531 -0.64,-0.373333 -0.95899,-0.986511 -0.95899,-1.839844 0,-0.48 0.10503,-0.866823 0.31836,-1.160156 0.21333,-0.293333 0.49513,-0.52164 0.8418,-0.681641 0.37333,-0.159999 0.7993,-0.265029 1.2793,-0.318359 0.48,-0.08 0.97379,-0.121094 1.48046,-0.121095 z"
     id="path2"
     inkscape:connector-curvature="0" />
  <text
     xml:space="preserve"
     style="font-style:normal;font-variant:normal;font-weight:normal;font-stretch:normal;font-size:48px;line-height:125%;font-family:sans-serif;-inkscape-font-specification:sans-serif;letter-spacing:0px;word-spacing:0px;fill:#000000;fill-opacity:1;stroke:none;stroke-width:1px;stroke-linecap:butt;stroke-linejoin:miter;stroke-opacity:1"
     x="51.960442"
     y="-21.020206"
     id="text824"><tspan
       sodipodi:role="line"
       id="tspan822"
       x="51.960442"
       y="22.216005" /></text>
</svg>
