<svg xmlns="http://www.w3.org/2000/svg" width="217.372" height="28.2"><path style="line-height:1.25;-inkscape-font-specification:'Ubuntu Mono Bold'" fill="#06623b" d="M0 .24h15.16v5.84H0m0 5h9.88v6.08H0m4.92 4.5v6.1H0v-6.1M34.871 26.96a5.08 5.08 0 0 1-.56.28c-.266.133-.626.28-1.08.44-.453.133-1.013.253-1.68.36-.64.107-1.373.16-2.2.16-2.266 0-3.92-.667-4.96-2-1.04-1.36-1.56-3.333-1.56-5.92V4.32h-5.2V.24h10.12v20.4c0 1.28.254 2.147.76 2.6.507.453 1.147.68 1.92.68.987 0 1.814-.133 2.48-.4.667-.267 1.107-.44 1.32-.52zM43.912 24.24h1.56q.76-.04 1.32-.12V19.8q-.48-.08-1.16-.12-.68-.08-1.24-.08-.76 0-1.48.12-.72.08-1.28.32-.52.24-.84.68-.32.44-.32 1.16 0 1.28.96 1.84.96.52 2.48.52zm-.44-15.76q2.32 0 3.84.56 1.56.52 2.48 1.52.92.96 1.32 2.4.4 1.4.4 3.16v11.2q-1.08.24-3.2.56-2.12.32-4.76.32-1.8 0-3.28-.32-1.44-.32-2.48-1.04-1.04-.76-1.6-1.92-.56-1.2-.56-2.92 0-1.64.64-2.76.64-1.12 1.72-1.8 1.08-.68 2.48-.96 1.4-.32 2.92-.32 1.92 0 3.4.32v-.6q0-1.4-.88-2.32-.88-.96-3.04-.96-1.4 0-2.72.2-1.28.2-2.08.48l-.68-3.96q.92-.32 2.6-.56 1.68-.28 3.48-.28zM57.53 13.04h-4.28V8.96h4.28V4.24l4.92-.8v5.52h7.88v4.08h-7.88v7.6q0 1.04.2 1.68.2.64.56 1 .36.36.88.48t1.16.12q.68 0 1.24-.04.6-.04 1.12-.12.56-.12 1.12-.32.6-.2 1.28-.52l.68 4.24q-1.36.56-2.96.8-1.56.24-3.04.24-1.72 0-3.04-.28t-2.24-1.08q-.92-.8-1.4-2.24-.48-1.48-.48-3.84zM76.597 27.76V13.04h-4.12V8.96h4.12V7.88q0-2.28.64-3.76.68-1.52 1.8-2.4 1.12-.92 2.56-1.28 1.44-.4 2.96-.4 1.56 0 3.2.28 1.64.28 2.96.92l-.84 4q-.92-.32-2.32-.64-1.36-.36-2.6-.36-.68 0-1.32.12-.6.12-1.08.52-.44.4-.72 1.16-.28.72-.28 1.92v1h7.72v4.08h-7.72v14.72zM89.957 18.52q0-2.48.76-4.36.76-1.88 2-3.12 1.24-1.28 2.84-1.92 1.6-.64 3.28-.64 4.16 0 6.32 2.48 2.16 2.44 2.16 7.16 0 .48-.04 1 0 .52-.04.84h-12.2q0 1.84 1.52 2.92 1.52 1.04 3.92 1.04 1.48 0 2.8-.32 1.36-.32 2.28-.64l.68 4.2q-1.28.44-2.72.72-1.44.32-3.24.32-2.4 0-4.32-.6-1.88-.64-3.24-1.84-1.32-1.24-2.04-3.04t-.72-4.2zm12.6-1.96q0-.76-.2-1.44-.2-.72-.64-1.28t-1.12-.88q-.68-.36-1.68-.36-.96 0-1.68.32-.68.32-1.16.88-.44.56-.72 1.28-.24.72-.32 1.48zM109.442 18.52q0-2.48.76-4.36.76-1.88 2-3.12 1.24-1.28 2.84-1.92 1.6-.64 3.28-.64 4.16 0 6.32 2.48 2.16 2.44 2.16 7.16 0 .48-.04 1 0 .52-.04.84h-12.2q0 1.84 1.52 2.92 1.52 1.04 3.92 1.04 1.48 0 2.8-.32 1.36-.32 2.28-.64l.68 4.2q-1.28.44-2.72.72-1.44.32-3.24.32-2.4 0-4.32-.6-1.88-.64-3.24-1.84-1.32-1.24-2.04-3.04t-.72-4.2zm12.6-1.96q0-.76-.2-1.44-.2-.72-.64-1.28t-1.12-.88q-.68-.36-1.68-.36-.96 0-1.68.32-.68.32-1.16.88-.44.56-.72 1.28-.24.72-.32 1.48zM135.775 24.04q1.8 0 2.76-.24.96-.28.96-1.08 0-.52-.32-.88-.28-.36-.84-.6-.52-.28-1.24-.52-.68-.24-1.44-.48-1.08-.32-2.2-.72-1.12-.44-2.04-1.08-.92-.64-1.52-1.6-.6-1-.6-2.48 0-1.2.44-2.24.48-1.08 1.44-1.88 1-.84 2.52-1.28 1.52-.48 3.64-.48 1.84 0 3.4.28 1.6.28 2.76.8l-.76 4.16q-.68-.2-2.12-.64-1.44-.48-3.24-.48-1.88 0-2.56.48-.64.44-.64.96 0 .44.28.8.32.32.8.6.52.28 1.16.56.68.24 1.44.48 1.08.36 2.24.8 1.16.44 2.08 1.12.96.64 1.56 1.68.6 1 .6 2.48 0 1.16-.44 2.2-.44 1.04-1.48 1.8-1 .76-2.64 1.2-1.64.44-4.04.44-2.44 0-4.16-.56-1.72-.56-2.76-1l.76-4.12q1.4.56 2.96 1.04 1.6.48 3.24.48zM149.798 13.04h-4.28V8.96h4.28V4.24l4.92-.8v5.52h7.88v4.08h-7.88v7.6q0 1.04.2 1.68.2.64.56 1 .36.36.88.48t1.16.12q.68 0 1.24-.04.6-.04 1.12-.12.56-.12 1.12-.32.6-.2 1.28-.52l.68 4.24q-1.36.56-2.96.8-1.56.24-3.04.24-1.72 0-3.04-.28t-2.24-1.08q-.92-.8-1.4-2.24-.48-1.48-.48-3.84zM172.572 24.24h1.56q.76-.04 1.32-.12V19.8q-.48-.08-1.16-.12-.68-.08-1.24-.08-.76 0-1.48.12-.72.08-1.28.32-.52.24-.84.68-.32.44-.32 1.16 0 1.28.96 1.84.96.52 2.48.52zm-.44-15.76q2.32 0 3.84.56 1.56.52 2.48 1.52.92.96 1.32 2.4.4 1.4.4 3.16v11.2q-1.08.24-3.2.56-2.12.32-4.76.32-1.8 0-3.28-.32-1.44-.32-2.48-1.04-1.04-.76-1.6-1.92-.56-1.2-.56-2.92 0-1.64.64-2.76.64-1.12 1.72-1.8 1.08-.68 2.48-.96 1.4-.32 2.92-.32 1.92 0 3.4.32v-.6q0-1.4-.88-2.32-.88-.96-3.04-.96-1.4 0-2.72.2-1.28.2-2.08.48l-.68-3.96q.92-.32 2.6-.56 1.68-.28 3.48-.28zM181.972 18.36q0-2.04.64-3.84.64-1.8 1.96-3.12 1.32-1.36 3.32-2.12 2.04-.8 4.84-.8 1.68 0 3.04.24t2.76.8l-1.08 3.96q-.8-.28-1.8-.48-.96-.24-2.48-.24-1.76 0-2.96.44-1.16.4-1.88 1.16-.72.72-1.04 1.76-.32 1.04-.32 2.24 0 2.6 1.44 4.08 1.48 1.48 5 1.48 1.16 0 2.4-.16 1.28-.16 2.32-.52l.72 4.04q-1.04.4-2.52.64-1.48.28-3.48.28-2.88 0-4.96-.76-2.04-.76-3.36-2.08-1.32-1.32-1.96-3.12-.6-1.8-.6-3.88zM205.372 16.4q.72-.84 1.44-1.76.76-.96 1.44-1.96.72-1 1.36-1.92.64-.96 1.12-1.8h5.92q-.72.92-1.64 2-.92 1.08-1.92 2.2-.96 1.12-1.96 2.16-.96 1.04-1.76 1.92 1 .96 2.16 2.32 1.16 1.32 2.28 2.76 1.12 1.44 2.04 2.88.96 1.44 1.52 2.56h-5.64q-.48-1-1.28-2.24-.76-1.28-1.64-2.48-.88-1.24-1.8-2.32-.88-1.12-1.64-1.84v8.88h-4.96V.84l4.96-.84z" font-weight="700" font-family="Ubuntu Mono" letter-spacing="0" word-spacing="0"/><path style="line-height:1.25;-inkscape-font-specification:'Ubuntu Mono Bold'" d="M9.88 11.08h5.28v6.08H9.88m5.28 4.5v6.1H4.92v-6.1" font-weight="700" font-family="Ubuntu Mono" letter-spacing="0" word-spacing="0" fill="#649d66" fill-opacity=".502"/></svg>
