<?xml version="1.0" encoding="UTF-8" standalone="no"?>
<svg
   xmlns:dc="http://purl.org/dc/elements/1.1/"
   xmlns:cc="http://creativecommons.org/ns#"
   xmlns:rdf="http://www.w3.org/1999/02/22-rdf-syntax-ns#"
   xmlns:svg="http://www.w3.org/2000/svg"
   xmlns="http://www.w3.org/2000/svg"
   xmlns:xlink="http://www.w3.org/1999/xlink"
   xmlns:sodipodi="http://sodipodi.sourceforge.net/DTD/sodipodi-0.dtd"
   xmlns:inkscape="http://www.inkscape.org/namespaces/inkscape"
   width="57.718025mm"
   height="10.15694mm"
   viewBox="0 0 57.71803 10.15694"
   version="1.1"
   id="svg8"
   inkscape:version="0.92.5 (2060ec1f9f, 2020-04-08)"
   sodipodi:docname="logo-text-b2.svg">
  <defs
     id="defs2">
    <linearGradient
       inkscape:collect="always"
       id="linearGradient974">
      <stop
         style="stop-color:#fffffc;stop-opacity:1;"
         offset="0"
         id="stop970" />
      <stop
         style="stop-color:#fffffc;stop-opacity:0;"
         offset="1"
         id="stop972" />
    </linearGradient>
    <linearGradient
       inkscape:collect="always"
       id="linearGradient913-2">
      <stop
         style="stop-color:#000009;stop-opacity:0.76169264"
         offset="0"
         id="stop909" />
      <stop
         id="stop923"
         offset="0.77777785"
         style="stop-color:#000000;stop-opacity:0.15812917" />
      <stop
         style="stop-color:#000000;stop-opacity:0.02004454"
         offset="1"
         id="stop911" />
    </linearGradient>
    <linearGradient
       inkscape:collect="always"
       xlink:href="#linearGradient913-2"
       id="linearGradient921"
       x1="77.674332"
       y1="209.02084"
       x2="55.843857"
       y2="185.22803"
       gradientUnits="userSpaceOnUse"
       gradientTransform="matrix(0.14293328,0,0,0.14293328,77.478473,124.33724)" />
    <linearGradient
       inkscape:collect="always"
       xlink:href="#linearGradient974"
       id="linearGradient976"
       x1="164.79381"
       y1="218.64523"
       x2="0.64764029"
       y2="92.452614"
       gradientUnits="userSpaceOnUse"
       gradientTransform="matrix(0.32484835,0,0,0.11442273,74.693709,138.2423)" />
    <linearGradient
       inkscape:collect="always"
       xlink:href="#linearGradient974"
       id="linearGradient870"
       x1="78.702065"
       y1="148.16666"
       x2="80.754753"
       y2="151.34166"
       gradientUnits="userSpaceOnUse"
       gradientTransform="matrix(1.4178553,0,0,1.0010674,-33.006887,1.4251136)" />
    <linearGradient
       inkscape:collect="always"
       xlink:href="#linearGradient974"
       id="linearGradient870-3"
       x1="78.702065"
       y1="148.16666"
       x2="80.754753"
       y2="151.34166"
       gradientUnits="userSpaceOnUse"
       gradientTransform="matrix(1.4178553,0,0,1,-33.006887,1.5874996)" />
    <linearGradient
       inkscape:collect="always"
       xlink:href="#linearGradient974"
       id="linearGradient870-35"
       x1="78.702065"
       y1="148.16666"
       x2="80.754753"
       y2="151.34166"
       gradientUnits="userSpaceOnUse"
       gradientTransform="matrix(1.4178553,0,0,1.0010674,-31.154803,3.8063697)" />
  </defs>
  <sodipodi:namedview
     id="base"
     pagecolor="#ffffff"
     bordercolor="#666666"
     borderopacity="1.0"
     inkscape:pageopacity="0.0"
     inkscape:pageshadow="2"
     inkscape:zoom="5.6568543"
     inkscape:cx="97.202428"
     inkscape:cy="-4.4101324"
     inkscape:document-units="mm"
     inkscape:current-layer="layer1"
     inkscape:document-rotation="0"
     showgrid="true"
     inkscape:window-width="2416"
     inkscape:window-height="1312"
     inkscape:window-x="144"
     inkscape:window-y="54"
     inkscape:window-maximized="1"
     fit-margin-top="0"
     fit-margin-left="0"
     fit-margin-right="0"
     fit-margin-bottom="0">
    <inkscape:grid
       type="xygrid"
       id="grid12"
       originx="-78.845847"
       originy="-144.35973" />
  </sodipodi:namedview>
  <metadata
     id="metadata5">
    <rdf:RDF>
      <cc:Work
         rdf:about="">
        <dc:format>image/svg+xml</dc:format>
        <dc:type
           rdf:resource="http://purl.org/dc/dcmitype/StillImage" />
        <dc:title></dc:title>
      </cc:Work>
    </rdf:RDF>
  </metadata>
  <g
     inkscape:label="Layer 1"
     inkscape:groupmode="layer"
     id="layer1"
     transform="translate(-78.845835,-149.74993)">
    <path
       style="fill:#000000;fill-opacity:1;stroke:none;stroke-width:0.02732436px;stroke-linecap:butt;stroke-linejoin:miter;stroke-opacity:1"
       d="m 78.845835,149.74993 v 6.35423 h 11.112502 v -6.35423 h -1.5875 l -2e-6,5.02709 h -7.9375 v -5.02708 z"
       id="path10"
       sodipodi:nodetypes="ccccccccc"
       inkscape:connector-curvature="0" />
    <path
       style="fill:#18802a;fill-opacity:1;stroke:none;stroke-width:0.0378795px;stroke-linecap:butt;stroke-linejoin:miter;stroke-opacity:1"
       d="m 81.227085,154.25207 v -1.5875 h 2.910417 v 1.5875 z"
       id="path855"
       sodipodi:nodetypes="ccccc"
       inkscape:connector-curvature="0" />
    <path
       style="fill:#18802a;fill-opacity:1;stroke:none;stroke-width:0.0378795px;stroke-linecap:butt;stroke-linejoin:miter;stroke-opacity:1"
       d="m 84.666669,154.25207 v -1.5875 h 2.910416 v 1.5875 z"
       id="path855-3"
       sodipodi:nodetypes="ccccc"
       inkscape:connector-curvature="0" />
    <path
       style="fill:#25c340;fill-opacity:1;stroke:none;stroke-width:0.0378796px;stroke-linecap:butt;stroke-linejoin:miter;stroke-opacity:1"
       d="m 81.227085,152.39999 v -1.5875 h 2.910417 v 1.5875 z"
       id="path855-7"
       sodipodi:nodetypes="ccccc"
       inkscape:connector-curvature="0" />
    <path
       style="fill:#25c340;fill-opacity:1;stroke:none;stroke-width:0.0378796px;stroke-linecap:butt;stroke-linejoin:miter;stroke-opacity:1"
       d="m 84.666669,152.39999 -0.0028,-1.59032 2.913237,0.003 v 1.5875 z"
       id="path855-7-3"
       sodipodi:nodetypes="ccccc"
       inkscape:connector-curvature="0" />
    <path
       style="fill:url(#linearGradient921);fill-opacity:1;stroke:none;stroke-width:0.0378795px;stroke-linecap:butt;stroke-linejoin:miter;stroke-opacity:1"
       d="m 85.989585,150.81249 -1.322916,1.32292 -2.1e-5,0.26458 h 2.910437 l -2.1e-5,-1.5875 z m -1.852083,1.85208 -1.5875,1.5875 h 1.5875 z m 0.529167,0 v 1.5875 h 2.910416 v -1.5875 z"
       id="path855-36"
       inkscape:connector-curvature="0"
       sodipodi:nodetypes="ccccccccccccccc" />
    <path
       style="fill:url(#linearGradient976);fill-opacity:1;fill-rule:evenodd;stroke:none;stroke-width:0.05101041px;stroke-linecap:butt;stroke-linejoin:miter;stroke-opacity:1"
       d="m 88.370835,154.77702 -1.5875,1.32714 h -7.9375 v -6.35423 h 1.5875 v 5.02709 z"
       id="path968"
       inkscape:connector-curvature="0"
       sodipodi:nodetypes="ccccccc" />
    <path
       id="rect861"
       style="opacity:0.33680019;fill:url(#linearGradient870);fill-opacity:1;stroke-width:0.31521708"
       d="m 78.845835,149.74993 h 1.5875 v 2.3838 l -1.5875,1.58919 z"
       sodipodi:nodetypes="ccccc"
       inkscape:connector-curvature="0" />
    <path
       id="rect861-5"
       style="fill:url(#linearGradient870-3);fill-opacity:1;stroke-width:0.31504902"
       d="m 81.227085,150.80827 h 0.529167 l -0.529167,0.5334 z"
       sodipodi:nodetypes="cccc"
       inkscape:connector-curvature="0" />
    <path
       id="rect861-9"
       style="opacity:0.33680019;fill:url(#linearGradient870-35);fill-opacity:1;stroke-width:0.31521708"
       d="m 80.433335,154.77702 h 1.5875 l -1.322916,1.32715 -1.5875,-0.004 z"
       sodipodi:nodetypes="ccccc"
       inkscape:connector-curvature="0" />
    <path
       inkscape:connector-curvature="0"
       style="fill:#000a00;fill-opacity:1;stroke-width:0.26458332"
       d="m 91.767022,155.64167 c -0.0494,0 -0.09139,-0.0173 -0.125942,-0.0519 -0.03458,-0.0345 -0.05186,-0.0765 -0.05186,-0.12594 v -4.82282 c 0,-0.0543 0.01482,-0.0988 0.04445,-0.13335 0.03455,-0.0346 0.079,-0.0519 0.13335,-0.0519 h 3.215217 c 0.05432,0 0.09877,0.0173 0.13335,0.0519 0.03455,0.0346 0.05186,0.079 0.05186,0.13335 v 0.51858 c 0,0.0543 -0.0173,0.0988 -0.05186,0.13335 -0.03458,0.0296 -0.07903,0.0445 -0.13335,0.0445 h -2.378075 v 1.40757 h 2.229908 c 0.05432,0 0.09877,0.0173 0.13335,0.0519 0.03455,0.0346 0.05186,0.079 0.05186,0.13335 v 0.51858 c 0,0.0543 -0.0173,0.0988 -0.05186,0.13335 -0.03458,0.0296 -0.07903,0.0444 -0.13335,0.0444 h -2.229908 v 1.83727 c 0,0.0543 -0.0173,0.0988 -0.05186,0.13335 -0.03458,0.0296 -0.07903,0.0444 -0.13335,0.0444 z"
       id="path2" />
    <path
       inkscape:connector-curvature="0"
       style="fill:#000a00;fill-opacity:1;stroke-width:0.26458332"
       d="m 96.134869,155.64167 c -0.0494,0 -0.09136,-0.0173 -0.125941,-0.0519 -0.03458,-0.0345 -0.05186,-0.0765 -0.05186,-0.12594 v -4.90431 c 0,-0.0543 0.01728,-0.0963 0.05186,-0.12594 0.03458,-0.0346 0.07654,-0.0519 0.125941,-0.0519 h 0.614892 c 0.05432,0 0.09631,0.0173 0.125942,0.0519 0.03458,0.0296 0.05186,0.0716 0.05186,0.12594 v 4.90431 c 0,0.0494 -0.01728,0.0914 -0.05186,0.12594 -0.02963,0.0346 -0.07162,0.0519 -0.125942,0.0519 z"
       id="path4" />
    <path
       inkscape:connector-curvature="0"
       style="fill:#000a00;fill-opacity:1;stroke-width:0.26458332"
       d="m 99.028908,155.71575 c -0.25188,0 -0.484002,-0.0494 -0.696383,-0.14816 -0.207433,-0.10372 -0.372877,-0.24199 -0.496358,-0.41487 -0.118534,-0.17285 -0.1778,-0.36301 -0.1778,-0.57044 0,-0.33584 0.135837,-0.60748 0.407458,-0.81492 0.271648,-0.20743 0.644523,-0.34819 1.11865,-0.42227 l 1.014945,-0.14817 v -0.15557 c 0,-0.21731 -0.0543,-0.38029 -0.16299,-0.48895 -0.108625,-0.10864 -0.283965,-0.16299 -0.525985,-0.16299 -0.16298,0 -0.29633,0.0321 -0.400047,0.0963 -0.0988,0.0593 -0.1778,0.11853 -0.23707,0.1778 -0.0593,0.0642 -0.0988,0.10621 -0.11853,0.12594 -0.0197,0.0593 -0.0568,0.0889 -0.11112,0.0889 h -0.570445 c -0.04445,0 -0.08395,-0.0148 -0.118533,-0.0445 -0.02963,-0.0296 -0.04445,-0.0691 -0.04445,-0.11853 0.0049,-0.12345 0.06421,-0.26421 0.1778,-0.42228 0.118533,-0.15804 0.298821,-0.29385 0.540808,-0.40745 0.24201,-0.11359 0.538347,-0.17039 0.888997,-0.17039 0.582795,0 1.007525,0.13088 1.274225,0.39264 0.2667,0.26178 0.40005,0.60502 0.40005,1.02975 v 2.32622 c 0,0.0494 -0.0173,0.0914 -0.0519,0.12594 -0.0296,0.0346 -0.0716,0.0519 -0.12594,0.0519 h -0.60007 c -0.0494,0 -0.0914,-0.0173 -0.12594,-0.0519 -0.0345,-0.0345 -0.0519,-0.0765 -0.0519,-0.12594 v -0.28892 c -0.10864,0.15806 -0.264215,0.28892 -0.466725,0.39264 -0.19754,0.0988 -0.4445,0.14816 -0.740827,0.14816 z m 0.251877,-0.70379 c 0.27165,0 0.4939,-0.0889 0.66675,-0.2667 0.172875,-0.1778 0.259285,-0.43709 0.259285,-0.77787 v -0.15558 l -0.740825,0.11854 c -0.28644,0.0445 -0.503767,0.11607 -0.651927,0.21484 -0.14322,0.0988 -0.21484,0.21979 -0.21484,0.36301 0,0.15806 0.0667,0.28151 0.20002,0.37041 0.13335,0.0889 0.29387,0.13335 0.481537,0.13335 z"
       id="path6" />
    <path
       inkscape:connector-curvature="0"
       style="fill:#000a00;fill-opacity:1;stroke-width:0.26458332"
       d="m 103.84733,155.64167 c -0.44942,0 -0.78774,-0.11604 -1.01494,-0.34819 -0.22225,-0.23707 -0.33337,-0.58277 -0.33337,-1.03717 v -1.68169 h -0.58526 c -0.0494,0 -0.0914,-0.0173 -0.12594,-0.0519 -0.0345,-0.0395 -0.0519,-0.0839 -0.0519,-0.13335 v -0.42227 c 0,-0.0494 0.0173,-0.0914 0.0519,-0.12594 0.0346,-0.0346 0.0765,-0.0519 0.12594,-0.0519 h 0.58526 v -1.22978 c 0,-0.0543 0.0173,-0.0963 0.0519,-0.12594 0.0346,-0.0346 0.0766,-0.0519 0.12594,-0.0519 h 0.60007 c 0.0543,0 0.0963,0.0173 0.12594,0.0519 0.0346,0.0296 0.0519,0.0716 0.0519,0.12594 v 1.22978 h 0.92605 c 0.0543,0 0.0963,0.0173 0.12594,0.0519 0.0346,0.0296 0.0519,0.0716 0.0519,0.12594 v 0.42227 c 0,0.0543 -0.0173,0.0988 -0.0519,0.13335 -0.0346,0.0346 -0.0765,0.0519 -0.12594,0.0519 h -0.92605 v 1.60761 c 0,0.21238 0.037,0.3729 0.11113,0.48154 0.0741,0.10867 0.19756,0.16298 0.37042,0.16298 h 0.51117 c 0.0494,0 0.0914,0.0173 0.12594,0.0519 0.0346,0.0346 0.0519,0.0766 0.0519,0.12594 v 0.45932 c 0,0.0494 -0.0173,0.0914 -0.0519,0.12594 -0.0296,0.0346 -0.0716,0.0519 -0.12594,0.0519 z"
       id="path8" />
    <path
       inkscape:connector-curvature="0"
       style="fill:#000a00;fill-opacity:1;stroke-width:0.26458332"
       d="m 105.54913,155.64167 c -0.0495,0 -0.0913,-0.0173 -0.12594,-0.0519 -0.0347,-0.0345 -0.0519,-0.0765 -0.0519,-0.12594 v -4.82282 c 0,-0.0543 0.0148,-0.0988 0.0444,-0.13335 0.0347,-0.0346 0.0791,-0.0519 0.13335,-0.0519 h 3.21522 c 0.0542,0 0.0987,0.0173 0.13335,0.0519 0.0347,0.0346 0.0519,0.079 0.0519,0.13335 v 0.51858 c 0,0.0543 -0.0172,0.0988 -0.0519,0.13335 -0.0347,0.0296 -0.0791,0.0445 -0.13335,0.0445 h -2.37808 v 1.40757 h 2.22991 c 0.0542,0 0.0987,0.0173 0.13335,0.0519 0.0347,0.0346 0.0519,0.079 0.0519,0.13335 v 0.51858 c 0,0.0543 -0.0172,0.0988 -0.0519,0.13335 -0.0347,0.0296 -0.0791,0.0444 -0.13335,0.0444 h -2.22991 v 1.83727 c 0,0.0543 -0.0172,0.0988 -0.0519,0.13335 -0.0347,0.0296 -0.0791,0.0444 -0.13335,0.0444 z"
       id="path10-9" />
    <path
       inkscape:connector-curvature="0"
       style="fill:#000a00;fill-opacity:1;stroke-width:0.26458332"
       d="m 111.3189,155.71575 c -0.54822,0 -0.98531,-0.15803 -1.31127,-0.47413 -0.32094,-0.32102 -0.49133,-0.77047 -0.51118,-1.34832 l -0.007,-0.1852 0.007,-0.18521 c 0.0246,-0.56304 0.19765,-1.00505 0.51858,-1.32609 0.32597,-0.32103 0.76068,-0.48154 1.30387,-0.48154 0.58288,0 1.03214,0.1778 1.34832,0.53339 0.32094,0.3556 0.48154,0.82974 0.48154,1.4224 v 0.15558 c 0,0.0494 -0.0172,0.0914 -0.0519,0.12594 -0.0347,0.0346 -0.0791,0.0519 -0.13335,0.0519 h -2.45957 v 0.0593 c 0.01,0.27164 0.0839,0.5013 0.22225,0.68897 0.14314,0.18275 0.33841,0.27411 0.58526,0.27411 0.29131,0 0.52599,-0.11359 0.70379,-0.34078 0.0444,-0.0543 0.0791,-0.0889 0.10372,-0.10372 0.0296,-0.0148 0.0717,-0.0222 0.12594,-0.0222 h 0.63712 c 0.0445,0 0.0815,0.0148 0.11113,0.0444 0.0347,0.0247 0.0519,0.0568 0.0519,0.0963 0,0.11854 -0.0717,0.25929 -0.21484,0.42228 -0.13838,0.15806 -0.3384,0.29633 -0.60007,0.41486 -0.26168,0.11854 -0.56542,0.1778 -0.91123,0.1778 z m 0.82233,-2.33362 v -0.0222 c 0,-0.29138 -0.0741,-0.52599 -0.22225,-0.70379 -0.14314,-0.1778 -0.34317,-0.2667 -0.60008,-0.2667 -0.25691,0 -0.45693,0.0889 -0.60007,0.2667 -0.14314,0.1778 -0.21485,0.41241 -0.21485,0.70379 v 0.0222 z"
       id="path12" />
    <path
       inkscape:connector-curvature="0"
       style="fill:#000a00;fill-opacity:1;stroke-width:0.26458332"
       d="m 115.59457,155.71575 c -0.54822,0 -0.98531,-0.15803 -1.31128,-0.47413 -0.32093,-0.32102 -0.49133,-0.77047 -0.51117,-1.34832 l -0.007,-0.1852 0.007,-0.18521 c 0.0246,-0.56304 0.19764,-1.00505 0.51858,-1.32609 0.32597,-0.32103 0.76068,-0.48154 1.30387,-0.48154 0.58288,0 1.03214,0.1778 1.34832,0.53339 0.32094,0.3556 0.48154,0.82974 0.48154,1.4224 v 0.15558 c 0,0.0494 -0.0172,0.0914 -0.0519,0.12594 -0.0347,0.0346 -0.0791,0.0519 -0.13335,0.0519 h -2.45957 v 0.0593 c 0.01,0.27164 0.0839,0.5013 0.22225,0.68897 0.14314,0.18275 0.33841,0.27411 0.58526,0.27411 0.29131,0 0.52599,-0.11359 0.70379,-0.34078 0.0445,-0.0543 0.0791,-0.0889 0.10372,-0.10372 0.0296,-0.0148 0.0717,-0.0222 0.12594,-0.0222 h 0.63712 c 0.0444,0 0.0815,0.0148 0.11112,0.0444 0.0347,0.0247 0.0519,0.0568 0.0519,0.0963 0,0.11854 -0.0717,0.25929 -0.21484,0.42228 -0.13838,0.15806 -0.3384,0.29633 -0.60008,0.41486 -0.26167,0.11854 -0.56541,0.1778 -0.91122,0.1778 z m 0.82232,-2.33362 v -0.0222 c 0,-0.29138 -0.0741,-0.52599 -0.22225,-0.70379 -0.14313,-0.1778 -0.34316,-0.2667 -0.60007,-0.2667 -0.25691,0 -0.45694,0.0889 -0.60008,0.2667 -0.14313,0.1778 -0.21484,0.41241 -0.21484,0.70379 v 0.0222 z"
       id="path14" />
    <path
       inkscape:connector-curvature="0"
       style="fill:#000a00;fill-opacity:1;stroke-width:0.26458332"
       d="m 119.97395,155.71575 c -0.38523,0 -0.72099,-0.0617 -1.00753,-0.1852 -0.28152,-0.12841 -0.49874,-0.29385 -0.65193,-0.49636 -0.14817,-0.20249 -0.22702,-0.41979 -0.23707,-0.65194 0,-0.0395 0.0148,-0.0741 0.0444,-0.10371 0.0296,-0.0296 0.0667,-0.0445 0.11112,-0.0445 h 0.14817 c 0.0889,0 0.14341,0.0494 0.16298,0.14816 0.0347,0.23707 0.1704,0.4445 0.40746,0.6223 0.23707,0.1778 0.57785,0.2667 1.02235,0.2667 0.46937,0 0.81757,-0.0839 1.04458,-0.25188 0.2323,-0.17285 0.34819,-0.41238 0.34819,-0.71861 0,-0.18767 -0.0566,-0.34078 -0.17039,-0.45931 -0.10848,-0.12346 -0.26908,-0.22966 -0.48154,-0.31856 -0.2122,-0.0938 -0.5334,-0.2099 -0.96309,-0.34819 -0.3802,-0.12346 -0.67892,-0.24448 -0.89641,-0.36301 -0.21219,-0.11854 -0.37041,-0.26421 -0.47413,-0.43709 -0.10372,-0.17286 -0.15557,-0.39264 -0.15557,-0.65934 0,-0.25188 0.0667,-0.47907 0.20002,-0.68157 0.13838,-0.20249 0.33602,-0.36054 0.59267,-0.47413 0.25691,-0.11853 0.56303,-0.1778 0.91863,-0.1778 0.36566,0 0.67919,0.0667 0.94086,0.20003 0.26194,0.12841 0.45932,0.29386 0.59267,0.49635 0.13335,0.19756 0.20505,0.39758 0.21484,0.60008 0,0.0395 -0.0148,0.0741 -0.0444,0.10371 -0.0246,0.0296 -0.0617,0.0444 -0.11113,0.0444 h -0.14816 c -0.0344,0 -0.0691,-0.01 -0.10372,-0.0296 -0.0344,-0.0247 -0.0542,-0.0642 -0.0593,-0.11853 -0.0296,-0.24695 -0.16298,-0.44944 -0.40005,-0.60749 -0.23204,-0.16298 -0.52599,-0.24447 -0.88159,-0.24447 -0.3802,0 -0.68395,0.0741 -0.91122,0.22225 -0.22225,0.14817 -0.33338,0.37042 -0.33338,0.66675 0,0.19262 0.0495,0.35313 0.14817,0.48154 0.10371,0.12348 0.25691,0.23214 0.45931,0.32596 0.20268,0.0889 0.50139,0.19757 0.89641,0.32597 0.40508,0.12843 0.72126,0.25188 0.94827,0.37042 0.22728,0.11853 0.39767,0.26178 0.51117,0.42968 0.11854,0.16793 0.1778,0.38523 0.1778,0.65193 0,0.4445 -0.16536,0.79269 -0.49635,1.04458 -0.33073,0.24693 -0.78529,0.37041 -1.36314,0.37041 z"
       id="path16" />
    <path
       inkscape:connector-curvature="0"
       style="fill:#000a00;fill-opacity:1;stroke-width:0.26458332"
       d="m 124.10383,155.64167 c -0.36539,0 -0.62468,-0.10864 -0.77787,-0.32597 -0.15293,-0.22225 -0.22966,-0.52599 -0.22966,-0.91122 v -2.18546 h -0.57785 c -0.0492,0 -0.0889,-0.0148 -0.11853,-0.0444 -0.0296,-0.0296 -0.0445,-0.0692 -0.0445,-0.11854 v -0.10371 c 0,-0.0494 0.0148,-0.0889 0.0445,-0.11854 0.0296,-0.0296 0.0693,-0.0445 0.11853,-0.0445 h 0.57785 v -1.2446 c 0,-0.0494 0.0148,-0.0889 0.0444,-0.11853 0.0296,-0.0296 0.0693,-0.0444 0.11853,-0.0444 h 0.12595 c 0.0495,0 0.0889,0.0148 0.11853,0.0444 0.0296,0.0296 0.0444,0.0691 0.0444,0.11853 v 1.2446 h 0.91863 c 0.0495,0 0.0889,0.0148 0.11854,0.0445 0.0296,0.0296 0.0444,0.0691 0.0444,0.11854 v 0.10371 c 0,0.0494 -0.0148,0.0889 -0.0444,0.11854 -0.0296,0.0296 -0.0691,0.0444 -0.11854,0.0444 h -0.91863 v 2.15583 c 0,0.27659 0.0444,0.48649 0.13335,0.6297 0.0939,0.1383 0.24712,0.20744 0.45932,0.20744 h 0.40005 c 0.0495,0 0.0889,0.0148 0.11853,0.0444 0.0296,0.0296 0.0445,0.0692 0.0445,0.11853 v 0.10372 c 0,0.0494 -0.0148,0.0889 -0.0445,0.11853 -0.0296,0.0296 -0.0691,0.0444 -0.11853,0.0444 z"
       id="path18" />
    <path
       inkscape:connector-curvature="0"
       style="fill:#000a00;fill-opacity:1;stroke-width:0.26458332"
       d="m 126.50704,155.71575 c -0.23706,0 -0.45693,-0.0494 -0.65934,-0.14816 -0.20267,-0.0988 -0.36539,-0.23212 -0.48895,-0.40005 -0.11853,-0.16791 -0.1778,-0.35311 -0.1778,-0.55563 0,-0.32596 0.13071,-0.59266 0.39264,-0.8001 0.2667,-0.20743 0.62469,-0.34078 1.07421,-0.40005 l 1.17052,-0.16298 v -0.25929 c 0,-0.27162 -0.0839,-0.47906 -0.25188,-0.6223 -0.16299,-0.14817 -0.41487,-0.22225 -0.75565,-0.22225 -0.25189,0 -0.45932,0.0494 -0.6223,0.14816 -0.15822,0.0988 -0.2593,0.21733 -0.30375,0.3556 -0.0198,0.0593 -0.0445,0.10126 -0.0741,0.12595 -0.0249,0.0198 -0.0593,0.0296 -0.10372,0.0296 h -0.10371 c -0.0444,0 -0.0841,-0.0148 -0.11854,-0.0445 -0.0296,-0.0345 -0.0444,-0.0741 -0.0444,-0.11853 0,-0.10864 0.0492,-0.23458 0.14817,-0.37783 0.0987,-0.14816 0.25188,-0.27657 0.45932,-0.38523 0.20743,-0.10865 0.4617,-0.16298 0.76306,-0.16298 0.52837,0 0.90381,0.12594 1.12606,0.37782 0.22225,0.25188 0.33338,0.55811 0.33338,0.91863 v 2.46698 c 0,0.0494 -0.0148,0.0889 -0.0444,0.11853 -0.0296,0.0296 -0.0693,0.0444 -0.11854,0.0444 h -0.12594 c -0.0495,0 -0.0889,-0.0148 -0.11853,-0.0444 -0.0296,-0.0296 -0.0444,-0.0691 -0.0444,-0.11853 v -0.34819 c -0.10874,0.16298 -0.26908,0.30128 -0.48154,0.41486 -0.20744,0.11362 -0.48392,0.17039 -0.82974,0.17039 z m 0.0741,-0.42968 c 0.36036,0 0.65669,-0.11853 0.889,-0.3556 0.23204,-0.23707 0.34819,-0.57785 0.34819,-1.02235 v -0.25188 l -0.95568,0.13335 c -0.40507,0.0543 -0.7112,0.14816 -0.91863,0.28151 -0.20743,0.13335 -0.31115,0.30129 -0.31115,0.50377 0,0.2272 0.0937,0.40254 0.28152,0.52599 0.19261,0.12348 0.41486,0.18521 0.66675,0.18521 z"
       id="path20" />
    <path
       inkscape:connector-curvature="0"
       style="fill:#000a00;fill-opacity:1;stroke-width:0.26458332"
       d="m 130.90124,155.71575 c -0.51382,0 -0.91122,-0.14816 -1.19274,-0.4445 -0.28151,-0.30125 -0.42968,-0.72106 -0.4445,-1.25941 l -0.007,-0.29634 0.007,-0.29633 c 0.0148,-0.53832 0.16299,-0.95567 0.4445,-1.252 0.28152,-0.30127 0.67892,-0.45191 1.19274,-0.45191 0.32597,0 0.60246,0.0593 0.82974,0.1778 0.23204,0.11359 0.40481,0.26176 0.51858,0.44449 0.11351,0.1778 0.17516,0.36301 0.18521,0.55563 0.005,0.0445 -0.01,0.084 -0.0444,0.11853 -0.0347,0.0296 -0.0741,0.0444 -0.11853,0.0444 h -0.10372 c -0.0495,0 -0.0865,-0.01 -0.11113,-0.0296 -0.0198,-0.0247 -0.0421,-0.0667 -0.0667,-0.12594 -0.0989,-0.27162 -0.23707,-0.46424 -0.41487,-0.57785 -0.1778,-0.11854 -0.40269,-0.1778 -0.67416,-0.1778 -0.3556,0 -0.63976,0.10866 -0.85195,0.32596 -0.20744,0.21239 -0.31856,0.54081 -0.33338,0.98531 l -0.007,0.25929 0.007,0.2593 c 0.0148,0.4445 0.12594,0.77541 0.33338,0.99271 0.21219,0.21238 0.49635,0.31856 0.85195,0.31856 0.27147,0 0.49636,-0.0568 0.67416,-0.17039 0.1778,-0.11853 0.31592,-0.31361 0.41487,-0.58526 0.0246,-0.0593 0.0468,-0.0988 0.0667,-0.11853 0.0246,-0.0247 0.0617,-0.037 0.11113,-0.037 h 0.10372 c 0.0445,0 0.0839,0.0173 0.11853,0.0519 0.0344,0.0296 0.0492,0.0667 0.0444,0.11113 -0.01,0.19262 -0.0717,0.38031 -0.18521,0.56303 -0.11377,0.1778 -0.28654,0.32597 -0.51858,0.4445 -0.22728,0.11362 -0.50377,0.17039 -0.82974,0.17039 z"
       id="path22" />
    <path
       inkscape:connector-curvature="0"
       style="fill:#000a00;fill-opacity:1;stroke-width:0.26458332"
       d="m 133.58386,155.64167 c -0.0492,0 -0.0889,-0.0148 -0.11854,-0.0444 -0.0296,-0.0296 -0.0444,-0.0691 -0.0444,-0.11853 v -4.93395 c 0,-0.0494 0.0148,-0.0889 0.0444,-0.11853 0.0296,-0.0296 0.0693,-0.0444 0.11854,-0.0444 h 0.12594 c 0.0495,0 0.0889,0.0148 0.11853,0.0444 0.0296,0.0296 0.0444,0.0691 0.0444,0.11853 v 2.62255 l 1.65206,-1.25201 c 0.0791,-0.0593 0.13335,-0.0938 0.16298,-0.10371 0.0296,-0.0148 0.0791,-0.0222 0.14817,-0.0222 h 0.14076 c 0.0445,0 0.0791,0.0148 0.10371,0.0445 0.0296,0.0247 0.0444,0.0593 0.0444,0.10372 0,0.0543 -0.032,0.10372 -0.0963,0.14817 l -1.87431,1.42239 2.05951,1.83727 c 0.0643,0.0593 0.0963,0.10866 0.0963,0.14816 0,0.0444 -0.0148,0.0815 -0.0444,0.11113 -0.0246,0.0247 -0.0593,0.037 -0.10371,0.037 h -0.11854 c -0.0741,0 -0.12832,-0.005 -0.16298,-0.0148 -0.0344,-0.0148 -0.0839,-0.0519 -0.14817,-0.11112 l -1.85949,-1.65206 v 1.61502 c 0,0.0494 -0.0148,0.0889 -0.0444,0.11853 -0.0296,0.0296 -0.0691,0.0444 -0.11853,0.0444 z"
       id="path24" />
    <path
       inkscape:connector-curvature="0"
       style="fill:#b3b3b3;stroke-width:0.26458332"
       d="m 130.25434,159.87503 c -0.0212,0 -0.0392,-0.006 -0.054,-0.019 -0.0127,-0.0148 -0.0191,-0.0328 -0.0191,-0.054 v -2.07328 c 0,-0.0233 0.006,-0.0413 0.0191,-0.054 0.0148,-0.0148 0.0328,-0.0222 0.054,-0.0222 h 0.86995 c 0.22648,0 0.39687,0.054 0.51117,0.16193 0.1143,0.10795 0.17145,0.24976 0.17145,0.42545 0,0.11853 -0.0275,0.21695 -0.0825,0.29527 -0.0529,0.0783 -0.11641,0.13547 -0.1905,0.17145 0.0889,0.0444 0.16405,0.11324 0.22543,0.20638 0.0614,0.0931 0.0921,0.20002 0.0921,0.32067 0,0.11853 -0.0275,0.22648 -0.0825,0.32385 -0.0529,0.0974 -0.13229,0.17463 -0.23812,0.23178 -0.10583,0.0572 -0.23283,0.0857 -0.381,0.0857 z m 0.82232,-1.2827 c 0.13335,0 0.23495,-0.0307 0.3048,-0.0921 0.072,-0.0614 0.10795,-0.14711 0.10795,-0.25718 0,-0.10795 -0.0349,-0.1905 -0.10477,-0.24765 -0.0699,-0.0571 -0.17251,-0.0857 -0.30798,-0.0857 h -0.5842 v 0.68262 z m 0.0318,1.02553 c 0.13335,0 0.23707,-0.036 0.31115,-0.10795 0.0762,-0.072 0.1143,-0.16405 0.1143,-0.27623 0,-0.11642 -0.0381,-0.20955 -0.1143,-0.2794 -0.0741,-0.072 -0.1778,-0.10795 -0.31115,-0.10795 h -0.61595 v 0.77153 z"
       id="path26" />
    <path
       inkscape:connector-curvature="0"
       style="fill:#b3b3b3;stroke-width:0.26458332"
       d="m 132.92134,159.90678 c -0.21802,0 -0.39264,-0.0667 -0.52388,-0.20002 -0.12911,-0.13547 -0.20002,-0.31962 -0.21272,-0.55245 l -0.003,-0.10795 0.003,-0.10478 c 0.0148,-0.2286 0.0868,-0.41063 0.2159,-0.5461 0.13123,-0.13547 0.30374,-0.2032 0.51752,-0.2032 0.23495,0 0.41699,0.0751 0.5461,0.22543 0.12912,0.14816 0.19368,0.34925 0.19368,0.60325 v 0.054 c 0,0.0212 -0.007,0.0392 -0.0222,0.054 -0.0127,0.0127 -0.0296,0.019 -0.0508,0.019 h -1.09855 v 0.0286 c 0.006,0.13758 0.0476,0.25506 0.12383,0.35243 0.0783,0.0952 0.18097,0.14287 0.30797,0.14287 0.0974,0 0.17675,-0.019 0.23813,-0.0571 0.0635,-0.0402 0.11007,-0.0815 0.1397,-0.12382 0.019,-0.0254 0.0328,-0.0402 0.0413,-0.0444 0.0106,-0.006 0.0286,-0.01 0.054,-0.01 h 0.15557 c 0.019,0 0.0349,0.005 0.0476,0.0159 0.0127,0.0106 0.019,0.0254 0.019,0.0444 0,0.0466 -0.0296,0.10265 -0.0889,0.16827 -0.0572,0.0656 -0.13864,0.12277 -0.24448,0.17145 -0.10371,0.0466 -0.2233,0.0699 -0.35877,0.0699 z m 0.43497,-0.9779 v -0.01 c 0,-0.14605 -0.0402,-0.26459 -0.12065,-0.3556 -0.0783,-0.0931 -0.18415,-0.1397 -0.3175,-0.1397 -0.13335,0 -0.23918,0.0466 -0.3175,0.1397 -0.0762,0.091 -0.1143,0.20955 -0.1143,0.3556 v 0.01 z"
       id="path28" />
    <path
       inkscape:connector-curvature="0"
       style="fill:#b3b3b3;stroke-width:0.26458332"
       d="m 134.67262,159.87503 c -0.33444,0 -0.50165,-0.18627 -0.50165,-0.5588 v -0.8382 h -0.24765 c -0.0212,0 -0.0392,-0.006 -0.054,-0.0191 -0.0127,-0.0148 -0.0191,-0.0328 -0.0191,-0.054 v -0.10795 c 0,-0.0212 0.006,-0.0381 0.0191,-0.0508 0.0148,-0.0148 0.0328,-0.0222 0.054,-0.0222 h 0.24765 v -0.53022 c 0,-0.0212 0.006,-0.0381 0.0191,-0.0508 0.0148,-0.0148 0.0328,-0.0222 0.054,-0.0222 h 0.14923 c 0.0212,0 0.0381,0.007 0.0508,0.0222 0.0148,0.0127 0.0222,0.0296 0.0222,0.0508 v 0.53022 h 0.3937 c 0.0212,0 0.0381,0.007 0.0508,0.0222 0.0148,0.0127 0.0222,0.0296 0.0222,0.0508 v 0.10795 c 0,0.0212 -0.007,0.0392 -0.0222,0.054 -0.0127,0.0127 -0.0296,0.0191 -0.0508,0.0191 h -0.3937 v 0.81598 c 0,0.10583 0.018,0.18626 0.054,0.2413 0.036,0.0529 0.0952,0.0794 0.1778,0.0794 h 0.19367 c 0.0212,0 0.0381,0.007 0.0508,0.0222 0.0148,0.0127 0.0222,0.0296 0.0222,0.0508 v 0.1143 c 0,0.0212 -0.007,0.0392 -0.0222,0.054 -0.0127,0.0127 -0.0296,0.019 -0.0508,0.019 z"
       id="path30" />
    <path
       inkscape:connector-curvature="0"
       style="fill:#b3b3b3;stroke-width:0.26458332"
       d="m 135.72883,159.90678 c -0.10371,0 -0.20002,-0.0212 -0.28892,-0.0635 -0.0889,-0.0423 -0.15981,-0.0995 -0.21273,-0.17145 -0.0508,-0.0741 -0.0762,-0.15557 -0.0762,-0.24447 0,-0.1397 0.0571,-0.254 0.17145,-0.3429 0.11642,-0.091 0.27305,-0.15029 0.4699,-0.1778 l 0.47308,-0.0667 v -0.0921 c 0,-0.2159 -0.12383,-0.32385 -0.37148,-0.32385 -0.0931,0 -0.16933,0.0201 -0.2286,0.0603 -0.0593,0.0381 -0.10371,0.0836 -0.13335,0.13653 -0.006,0.019 -0.0148,0.0328 -0.0254,0.0413 -0.008,0.008 -0.0212,0.0127 -0.0381,0.0127 h -0.13652 c -0.019,0 -0.036,-0.006 -0.0508,-0.019 -0.0127,-0.0148 -0.019,-0.0317 -0.019,-0.0508 0.002,-0.0508 0.0254,-0.10795 0.0698,-0.17145 0.0466,-0.0656 0.11747,-0.12171 0.21272,-0.16827 0.0953,-0.0487 0.21273,-0.073 0.35243,-0.073 0.23706,0 0.40746,0.0561 0.51117,0.16828 0.10372,0.11006 0.15558,0.24765 0.15558,0.41275 v 1.0287 c 0,0.0212 -0.007,0.0392 -0.0222,0.054 -0.0127,0.0127 -0.0296,0.019 -0.0508,0.019 h -0.14605 c -0.0212,0 -0.0392,-0.006 -0.054,-0.019 -0.0127,-0.0148 -0.0191,-0.0328 -0.0191,-0.054 v -0.13653 c -0.0466,0.0677 -0.1143,0.12488 -0.2032,0.17145 -0.0889,0.0466 -0.20214,0.0699 -0.33973,0.0699 z m 0.0667,-0.23812 c 0.13758,0 0.24976,-0.0445 0.33655,-0.13335 0.0889,-0.091 0.13335,-0.2212 0.13335,-0.39053 v -0.0889 l -0.3683,0.054 c -0.15029,0.0212 -0.26353,0.0572 -0.33973,0.10795 -0.0762,0.0487 -0.1143,0.11112 -0.1143,0.18732 0,0.0847 0.0349,0.15028 0.10478,0.19685 0.0699,0.0445 0.1524,0.0667 0.24765,0.0667 z"
       id="path32" />
  </g>
</svg>
