<svg xmlns="http://www.w3.org/2000/svg" width="332.554" height="292.258">
    <path d="M20.785 108V36L0 24v72z" style="fill:#a3a3a3"/><path d="M62.354 84V12l-41.57 24v72z" style="fill:#e1e1e1"/><path d="m20.785 36 41.569-24 249.415 144v24l-41.57 24v-24z" style="fill:#939393"/><path d="m20.785 60 311.769 180v-24L20.784 36Z" style="fill:#606060"/><path d="m290.985 192 41.569-24-20.785-12-41.57 24z" style="fill:#bebebe"/><path d="M290.985 264v-72L270.2 180v72z" style="fill:#a3a3a3"/><path d="m332.555 168-41.57 24v72l15.587-9v24l10.393-6v-24l15.59-9z" style="fill:#e1e1e1"/><path d="m20.785 36 41.569-24L41.569 0 0 24Z" style="fill:#bebebe"/><path d="m306.573 279-20.785-12v-6l5.197 3 15.588-9z" style="fill:#a3a3a3;fill-opacity:1"/>
</svg>