<svg xmlns="http://www.w3.org/2000/svg" width="80" height="80">

    <g style="font-variation-settings:normal;opacity:1;vector-effect:none;fill:#e63835;fill-opacity:1;stroke-width:.0486029;stroke-linecap:butt;stroke-linejoin:miter;stroke-miterlimit:4;stroke-dasharray:none;stroke-dashoffset:0;stroke-opacity:1;-inkscape-stroke:none;stop-color:#000;stop-opacity:1"><path d="M31.99 225.998c-5.718 3.301-5.67 8.681.106 12.016 5.777 3.336 15.096 3.364 20.815.063 5.718-3.302 5.67-8.682-.108-12.018-5.777-3.335-15.096-3.363-20.814-.061m5.26 3.037c2.842-1.64 7.474-1.627 10.346.03 2.873 1.658 2.896 4.333.054 5.974s-7.475 1.627-10.347-.03c-2.87-1.659-2.895-4.333-.053-5.974" style="font-variation-settings:normal;vector-effect:none;fill:#e63835;fill-opacity:1;stroke:none;stroke-width:.0486029;stroke-linecap:butt;stroke-linejoin:miter;stroke-miterlimit:4;stroke-dasharray:none;stroke-dashoffset:0;stroke-opacity:1;-inkscape-stroke:none;stop-color:#000;stop-opacity:1" transform="translate(-.988 -196.054)"/><path d="M32.203 222.032c-5.717 3.301-5.67 8.681.108 12.017 5.777 3.335 15.096 3.363 20.814.062s5.67-8.682-.107-12.018c-5.778-3.335-15.097-3.363-20.815-.061m5.261 3.037c2.843-1.64 7.475-1.627 10.347.03 2.872 1.659 2.896 4.333.053 5.974s-7.475 1.627-10.346-.03c-2.872-1.659-2.895-4.333-.054-5.974" style="font-variation-settings:normal;vector-effect:none;fill:#ca1c19;fill-opacity:1;stroke:none;stroke-width:.0486029;stroke-linecap:butt;stroke-linejoin:miter;stroke-miterlimit:4;stroke-dasharray:none;stroke-dashoffset:0;stroke-opacity:1;-inkscape-stroke:none;stop-color:#000;stop-opacity:1" transform="translate(-.988 -196.054)"/><path d="M28.58 230.453a5.8 5.8 0 0 1-.625-2.507h-.036l-.177 3.579zM57.353 227.998c.007.828-.167 1.771-.573 2.563l.384 1.778z" style="font-variation-settings:normal;vector-effect:none;fill:#e63835;fill-opacity:1;stroke-width:.0486029;stroke-linecap:butt;stroke-linejoin:miter;stroke-miterlimit:4;stroke-dasharray:none;stroke-dashoffset:0;stroke-opacity:1;-inkscape-stroke:none;stop-color:#000;stop-opacity:1" transform="translate(-.988 -196.054)"/></g>
</svg>