<svg xmlns="http://www.w3.org/2000/svg" viewBox="-100 0 800 900" id="floor">
    <g id="floorGroup" transform="translate(528.5999999999908,-70.29999999999538)"><g data-row="8"><g><path d="m -256,128 l 32,16 32,-16 -32,-16 z" fill="#ddd0c8"></path><path d="m -256,128 l 32,16 0,3 -32,-16 z" fill="#eaebdb"></path><path d="m -224,144 l 32,-16 0,3 -32,16 z" fill="#9f958b"></path></g><g><path d="m -224,144 l 32,16 32,-16 -32,-16 z" fill="#ece5df"></path><path d="m -224,144 l 32,16 0,3 -32,-16 z" fill="#eaebdb"></path><path d="m -192,160 l 32,-16 0,3 -32,16 z" fill="#9f958b"></path></g><g><path d="m -192,160 l 32,16 32,-16 -32,-16 z" fill="#ddd0c8"></path><path d="m -192,160 l 32,16 0,3 -32,-16 z" fill="#eaebdb"></path><path d="m -160,176 l 32,-16 0,3 -32,16 z" fill="#9f958b"></path></g><g><path d="m -160,176 l 32,16 32,-16 -32,-16 z" fill="#ece5df"></path><path d="m -160,176 l 32,16 0,3 -32,-16 z" fill="#eaebdb"></path><path d="m -128,192 l 32,-16 0,3 -32,16 z" fill="#9f958b"></path></g><g><path d="m -128,192 l 32,16 32,-16 -32,-16 z" fill="#ddd0c8"></path><path d="m -128,192 l 32,16 0,3 -32,-16 z" fill="#eaebdb"></path><path d="m -96,208 l 32,-16 0,3 -32,16 z" fill="#9f958b"></path></g><g><path d="m -96,208 l 32,16 32,-16 -32,-16 z" fill="#ece5df"></path><path d="m -96,208 l 32,16 0,3 -32,-16 z" fill="#eaebdb"></path><path d="m -64,224 l 32,-16 0,3 -32,16 z" fill="#9f958b"></path></g><g><path d="m -64,224 l 32,16 32,-16 -32,-16 z" fill="#ddd0c8"></path><path d="m -64,224 l 32,16 0,3 -32,-16 z" fill="#eaebdb"></path><path d="m -32,240 l 32,-16 0,3 -32,16 z" fill="#9f958b"></path></g><g><path d="m -32,240 l 32,16 32,-16 -32,-16 z" fill="#ece5df"></path><path d="m -32,240 l 32,16 0,3 -32,-16 z" fill="#eaebdb"></path><path d="m 0,256 l 32,-16 0,3 -32,16 z" fill="#9f958b"></path></g><g><path d="m 0,256 l 32,16 32,-16 -32,-16 z" fill="#ddd0c8"></path><path d="m 0,256 l 32,16 0,3 -32,-16 z" fill="#eaebdb"></path><path d="m 32,272 l 32,-16 0,3 -32,16 z" fill="#9f958b"></path></g><g><path d="m 32,272 l 32,16 32,-16 -32,-16 z" fill="#ece5df"></path><path d="m 32,272 l 32,16 0,3 -32,-16 z" fill="#eaebdb"></path><path d="m 64,288 l 32,-16 0,3 -32,16 z" fill="#9f958b"></path></g><g><path d="m 64,288 l 32,16 32,-16 -32,-16 z" fill="#ddd0c8"></path><path d="m 64,288 l 32,16 0,3 -32,-16 z" fill="#eaebdb"></path><path d="m 96,304 l 32,-16 0,3 -32,16 z" fill="#9f958b"></path></g><g><path d="m 96,304 l 32,16 32,-16 -32,-16 z" fill="#ece5df"></path><path d="m 96,304 l 32,16 0,3 -32,-16 z" fill="#eaebdb"></path><path d="m 128,320 l 32,-16 0,3 -32,16 z" fill="#9f958b"></path></g></g><g data-row="9"><g><path d="m -288,144 l 32,16 32,-16 -32,-16 z" fill="#ece5df"></path><path d="m -288,144 l 32,16 0,3 -32,-16 z" fill="#eaebdb"></path><path d="m -256,160 l 32,-16 0,3 -32,16 z" fill="#9f958b"></path></g><g><path d="m -256,160 l 32,16 32,-16 -32,-16 z" fill="#ddd0c8"></path><path d="m -256,160 l 32,16 0,3 -32,-16 z" fill="#eaebdb"></path><path d="m -224,176 l 32,-16 0,3 -32,16 z" fill="#9f958b"></path></g><g><path d="m -224,176 l 32,16 32,-16 -32,-16 z" fill="#ece5df"></path><path d="m -224,176 l 32,16 0,3 -32,-16 z" fill="#eaebdb"></path><path d="m -192,192 l 32,-16 0,3 -32,16 z" fill="#9f958b"></path></g><g><path d="m -192,192 l 32,16 32,-16 -32,-16 z" fill="#ddd0c8"></path><path d="m -192,192 l 32,16 0,3 -32,-16 z" fill="#eaebdb"></path><path d="m -160,208 l 32,-16 0,3 -32,16 z" fill="#9f958b"></path></g><g><path d="m -160,208 l 32,16 32,-16 -32,-16 z" fill="#ece5df"></path><path d="m -160,208 l 32,16 0,3 -32,-16 z" fill="#eaebdb"></path><path d="m -128,224 l 32,-16 0,3 -32,16 z" fill="#9f958b"></path></g><g><path d="m -128,224 l 32,16 32,-16 -32,-16 z" fill="#ddd0c8"></path><path d="m -128,224 l 32,16 0,3 -32,-16 z" fill="#eaebdb"></path><path d="m -96,240 l 32,-16 0,3 -32,16 z" fill="#9f958b"></path></g><g><path d="m -96,240 l 32,16 32,-16 -32,-16 z" fill="#ece5df"></path><path d="m -96,240 l 32,16 0,3 -32,-16 z" fill="#eaebdb"></path><path d="m -64,256 l 32,-16 0,3 -32,16 z" fill="#9f958b"></path></g><g><path d="m -64,256 l 32,16 32,-16 -32,-16 z" fill="#ddd0c8"></path><path d="m -64,256 l 32,16 0,3 -32,-16 z" fill="#eaebdb"></path><path d="m -32,272 l 32,-16 0,3 -32,16 z" fill="#9f958b"></path></g><g><path d="m -32,272 l 32,16 32,-16 -32,-16 z" fill="#ece5df"></path><path d="m -32,272 l 32,16 0,3 -32,-16 z" fill="#eaebdb"></path><path d="m 0,288 l 32,-16 0,3 -32,16 z" fill="#9f958b"></path></g><g><path d="m 0,288 l 32,16 32,-16 -32,-16 z" fill="#ddd0c8"></path><path d="m 0,288 l 32,16 0,3 -32,-16 z" fill="#eaebdb"></path><path d="m 32,304 l 32,-16 0,3 -32,16 z" fill="#9f958b"></path></g><g><path d="m 32,304 l 32,16 32,-16 -32,-16 z" fill="#ece5df"></path><path d="m 32,304 l 32,16 0,3 -32,-16 z" fill="#eaebdb"></path><path d="m 64,320 l 32,-16 0,3 -32,16 z" fill="#9f958b"></path></g><g><path d="m 64,320 l 32,16 32,-16 -32,-16 z" fill="#ddd0c8"></path><path d="m 64,320 l 32,16 0,3 -32,-16 z" fill="#eaebdb"></path><path d="m 96,336 l 32,-16 0,3 -32,16 z" fill="#9f958b"></path></g></g><g data-row="10"><g><path d="m -320,160 l 32,16 32,-16 -32,-16 z" fill="#ddd0c8"></path><path d="m -320,160 l 32,16 0,3 -32,-16 z" fill="#eaebdb"></path><path d="m -288,176 l 32,-16 0,3 -32,16 z" fill="#9f958b"></path></g><g><path d="m -288,176 l 32,16 32,-16 -32,-16 z" fill="#ece5df"></path><path d="m -288,176 l 32,16 0,3 -32,-16 z" fill="#eaebdb"></path><path d="m -256,192 l 32,-16 0,3 -32,16 z" fill="#9f958b"></path></g><g><path d="m -256,192 l 32,16 32,-16 -32,-16 z" fill="#ddd0c8"></path><path d="m -256,192 l 32,16 0,3 -32,-16 z" fill="#eaebdb"></path><path d="m -224,208 l 32,-16 0,3 -32,16 z" fill="#9f958b"></path></g><g><path d="m -224,208 l 32,16 32,-16 -32,-16 z" fill="#ece5df"></path><path d="m -224,208 l 32,16 0,3 -32,-16 z" fill="#eaebdb"></path><path d="m -192,224 l 32,-16 0,3 -32,16 z" fill="#9f958b"></path></g><g><path d="m -192,224 l 32,16 32,-16 -32,-16 z" fill="#ddd0c8"></path><path d="m -192,224 l 32,16 0,3 -32,-16 z" fill="#eaebdb"></path><path d="m -160,240 l 32,-16 0,3 -32,16 z" fill="#9f958b"></path></g><g><path d="m -160,240 l 32,16 32,-16 -32,-16 z" fill="#ece5df"></path><path d="m -160,240 l 32,16 0,3 -32,-16 z" fill="#eaebdb"></path><path d="m -128,256 l 32,-16 0,3 -32,16 z" fill="#9f958b"></path></g><g><path d="m -128,256 l 32,16 32,-16 -32,-16 z" fill="#ddd0c8"></path><path d="m -128,256 l 32,16 0,3 -32,-16 z" fill="#eaebdb"></path><path d="m -96,272 l 32,-16 0,3 -32,16 z" fill="#9f958b"></path></g><g><path d="m -96,272 l 32,16 32,-16 -32,-16 z" fill="#ece5df"></path><path d="m -96,272 l 32,16 0,3 -32,-16 z" fill="#eaebdb"></path><path d="m -64,288 l 32,-16 0,3 -32,16 z" fill="#9f958b"></path></g><g><path d="m -64,288 l 32,16 32,-16 -32,-16 z" fill="#ddd0c8"></path><path d="m -64,288 l 32,16 0,3 -32,-16 z" fill="#eaebdb"></path><path d="m -32,304 l 32,-16 0,3 -32,16 z" fill="#9f958b"></path></g><g><path d="m -32,304 l 32,16 32,-16 -32,-16 z" fill="#ece5df"></path><path d="m -32,304 l 32,16 0,3 -32,-16 z" fill="#eaebdb"></path><path d="m 0,320 l 32,-16 0,3 -32,16 z" fill="#9f958b"></path></g><g><path d="m 0,320 l 32,16 32,-16 -32,-16 z" fill="#ddd0c8"></path><path d="m 0,320 l 32,16 0,3 -32,-16 z" fill="#eaebdb"></path><path d="m 32,336 l 32,-16 0,3 -32,16 z" fill="#9f958b"></path></g><g><path d="m 32,336 l 32,16 32,-16 -32,-16 z" fill="#ece5df"></path><path d="m 32,336 l 32,16 0,3 -32,-16 z" fill="#eaebdb"></path><path d="m 64,352 l 32,-16 0,3 -32,16 z" fill="#9f958b"></path></g></g><g data-row="11"><g><path d="m -352,176 l 32,16 32,-16 -32,-16 z" fill="#ece5df"></path><path d="m -352,176 l 32,16 0,3 -32,-16 z" fill="#eaebdb"></path><path d="m -320,192 l 32,-16 0,3 -32,16 z" fill="#9f958b"></path></g><g><path d="m -320,192 l 32,16 32,-16 -32,-16 z" fill="#ddd0c8"></path><path d="m -320,192 l 32,16 0,3 -32,-16 z" fill="#eaebdb"></path><path d="m -288,208 l 32,-16 0,3 -32,16 z" fill="#9f958b"></path></g><g><path d="m -288,208 l 32,16 32,-16 -32,-16 z" fill="#ece5df"></path><path d="m -288,208 l 32,16 0,3 -32,-16 z" fill="#eaebdb"></path><path d="m -256,224 l 32,-16 0,3 -32,16 z" fill="#9f958b"></path></g><g><path d="m -256,224 l 32,16 32,-16 -32,-16 z" fill="#ddd0c8"></path><path d="m -256,224 l 32,16 0,3 -32,-16 z" fill="#eaebdb"></path><path d="m -224,240 l 32,-16 0,3 -32,16 z" fill="#9f958b"></path></g><g><path d="m -224,240 l 32,16 32,-16 -32,-16 z" fill="#ece5df"></path><path d="m -224,240 l 32,16 0,3 -32,-16 z" fill="#eaebdb"></path><path d="m -192,256 l 32,-16 0,3 -32,16 z" fill="#9f958b"></path></g><g><path d="m -192,256 l 32,16 32,-16 -32,-16 z" fill="#ddd0c8"></path><path d="m -192,256 l 32,16 0,3 -32,-16 z" fill="#eaebdb"></path><path d="m -160,272 l 32,-16 0,3 -32,16 z" fill="#9f958b"></path></g><g><path d="m -160,272 l 32,16 32,-16 -32,-16 z" fill="#ece5df"></path><path d="m -160,272 l 32,16 0,3 -32,-16 z" fill="#eaebdb"></path><path d="m -128,288 l 32,-16 0,3 -32,16 z" fill="#9f958b"></path></g><g><path d="m -128,288 l 32,16 32,-16 -32,-16 z" fill="#ddd0c8"></path><path d="m -128,288 l 32,16 0,3 -32,-16 z" fill="#eaebdb"></path><path d="m -96,304 l 32,-16 0,3 -32,16 z" fill="#9f958b"></path></g><g><path d="m -96,304 l 32,16 32,-16 -32,-16 z" fill="#ece5df"></path><path d="m -96,304 l 32,16 0,3 -32,-16 z" fill="#eaebdb"></path><path d="m -64,320 l 32,-16 0,3 -32,16 z" fill="#9f958b"></path></g><g><path d="m -64,320 l 32,16 32,-16 -32,-16 z" fill="#ddd0c8"></path><path d="m -64,320 l 32,16 0,3 -32,-16 z" fill="#eaebdb"></path><path d="m -32,336 l 32,-16 0,3 -32,16 z" fill="#9f958b"></path></g><g><path d="m -32,336 l 32,16 32,-16 -32,-16 z" fill="#ece5df"></path><path d="m -32,336 l 32,16 0,3 -32,-16 z" fill="#eaebdb"></path><path d="m 0,352 l 32,-16 0,3 -32,16 z" fill="#9f958b"></path></g><g><path d="m 0,352 l 32,16 32,-16 -32,-16 z" fill="#ddd0c8"></path><path d="m 0,352 l 32,16 0,3 -32,-16 z" fill="#eaebdb"></path><path d="m 32,368 l 32,-16 0,3 -32,16 z" fill="#9f958b"></path></g></g><g data-row="12"><g><path d="m -384,192 l 32,16 32,-16 -32,-16 z" fill="#ddd0c8"></path><path d="m -384,192 l 32,16 0,3 -32,-16 z" fill="#eaebdb"></path><path d="m -352,208 l 32,-16 0,3 -32,16 z" fill="#9f958b"></path></g><g><path d="m -352,208 l 32,16 32,-16 -32,-16 z" fill="#ece5df"></path><path d="m -352,208 l 32,16 0,3 -32,-16 z" fill="#eaebdb"></path><path d="m -320,224 l 32,-16 0,3 -32,16 z" fill="#9f958b"></path></g><g><path d="m -320,224 l 32,16 32,-16 -32,-16 z" fill="#ddd0c8"></path><path d="m -320,224 l 32,16 0,3 -32,-16 z" fill="#eaebdb"></path><path d="m -288,240 l 32,-16 0,3 -32,16 z" fill="#9f958b"></path></g><g><path d="m -288,240 l 32,16 32,-16 -32,-16 z" fill="#ece5df"></path><path d="m -288,240 l 32,16 0,3 -32,-16 z" fill="#eaebdb"></path><path d="m -256,256 l 32,-16 0,3 -32,16 z" fill="#9f958b"></path></g><g><path d="m -256,256 l 32,16 32,-16 -32,-16 z" fill="#ddd0c8"></path><path d="m -256,256 l 32,16 0,3 -32,-16 z" fill="#eaebdb"></path><path d="m -224,272 l 32,-16 0,3 -32,16 z" fill="#9f958b"></path></g><g><path d="m -224,272 l 32,16 32,-16 -32,-16 z" fill="#ece5df"></path><path d="m -224,272 l 32,16 0,3 -32,-16 z" fill="#eaebdb"></path><path d="m -192,288 l 32,-16 0,3 -32,16 z" fill="#9f958b"></path></g><g><path d="m -192,288 l 32,16 32,-16 -32,-16 z" fill="#ddd0c8"></path><path d="m -192,288 l 32,16 0,3 -32,-16 z" fill="#eaebdb"></path><path d="m -160,304 l 32,-16 0,3 -32,16 z" fill="#9f958b"></path></g><g><path d="m -160,304 l 32,16 32,-16 -32,-16 z" fill="#ece5df"></path><path d="m -160,304 l 32,16 0,3 -32,-16 z" fill="#eaebdb"></path><path d="m -128,320 l 32,-16 0,3 -32,16 z" fill="#9f958b"></path></g><g><path d="m -128,320 l 32,16 32,-16 -32,-16 z" fill="#ddd0c8"></path><path d="m -128,320 l 32,16 0,3 -32,-16 z" fill="#eaebdb"></path><path d="m -96,336 l 32,-16 0,3 -32,16 z" fill="#9f958b"></path></g><g><path d="m -96,336 l 32,16 32,-16 -32,-16 z" fill="#ece5df"></path><path d="m -96,336 l 32,16 0,3 -32,-16 z" fill="#eaebdb"></path><path d="m -64,352 l 32,-16 0,3 -32,16 z" fill="#9f958b"></path></g><g><path d="m -64,352 l 32,16 32,-16 -32,-16 z" fill="#ddd0c8"></path><path d="m -64,352 l 32,16 0,3 -32,-16 z" fill="#eaebdb"></path><path d="m -32,368 l 32,-16 0,3 -32,16 z" fill="#9f958b"></path></g><g><path d="m -32,368 l 32,16 32,-16 -32,-16 z" fill="#ece5df"></path><path d="m -32,368 l 32,16 0,3 -32,-16 z" fill="#eaebdb"></path><path d="m 0,384 l 32,-16 0,3 -32,16 z" fill="#9f958b"></path></g></g><g data-row="13"><g><path d="m -416,208 l 32,16 32,-16 -32,-16 z" fill="#ece5df"></path><path d="m -416,208 l 32,16 0,3 -32,-16 z" fill="#eaebdb"></path><path d="m -384,224 l 32,-16 0,3 -32,16 z" fill="#9f958b"></path></g><g><path d="m -384,224 l 32,16 32,-16 -32,-16 z" fill="#ddd0c8"></path><path d="m -384,224 l 32,16 0,3 -32,-16 z" fill="#eaebdb"></path><path d="m -352,240 l 32,-16 0,3 -32,16 z" fill="#9f958b"></path></g><g><path d="m -352,240 l 32,16 32,-16 -32,-16 z" fill="#ece5df"></path><path d="m -352,240 l 32,16 0,3 -32,-16 z" fill="#eaebdb"></path><path d="m -320,256 l 32,-16 0,3 -32,16 z" fill="#9f958b"></path></g><g><path d="m -320,256 l 32,16 32,-16 -32,-16 z" fill="#ddd0c8"></path><path d="m -320,256 l 32,16 0,3 -32,-16 z" fill="#eaebdb"></path><path d="m -288,272 l 32,-16 0,3 -32,16 z" fill="#9f958b"></path></g><g><path d="m -288,272 l 32,16 32,-16 -32,-16 z" fill="#ece5df"></path><path d="m -288,272 l 32,16 0,3 -32,-16 z" fill="#eaebdb"></path><path d="m -256,288 l 32,-16 0,3 -32,16 z" fill="#9f958b"></path></g><g><path d="m -256,288 l 32,16 32,-16 -32,-16 z" fill="#ddd0c8"></path><path d="m -256,288 l 32,16 0,3 -32,-16 z" fill="#eaebdb"></path><path d="m -224,304 l 32,-16 0,3 -32,16 z" fill="#9f958b"></path></g><g><path d="m -224,304 l 32,16 32,-16 -32,-16 z" fill="#ece5df"></path><path d="m -224,304 l 32,16 0,3 -32,-16 z" fill="#eaebdb"></path><path d="m -192,320 l 32,-16 0,3 -32,16 z" fill="#9f958b"></path></g><g><path d="m -192,320 l 32,16 32,-16 -32,-16 z" fill="#ddd0c8"></path><path d="m -192,320 l 32,16 0,3 -32,-16 z" fill="#eaebdb"></path><path d="m -160,336 l 32,-16 0,3 -32,16 z" fill="#9f958b"></path></g><g><path d="m -160,336 l 32,16 32,-16 -32,-16 z" fill="#ece5df"></path><path d="m -160,336 l 32,16 0,3 -32,-16 z" fill="#eaebdb"></path><path d="m -128,352 l 32,-16 0,3 -32,16 z" fill="#9f958b"></path></g><g><path d="m -128,352 l 32,16 32,-16 -32,-16 z" fill="#ddd0c8"></path><path d="m -128,352 l 32,16 0,3 -32,-16 z" fill="#eaebdb"></path><path d="m -96,368 l 32,-16 0,3 -32,16 z" fill="#9f958b"></path></g><g><path d="m -96,368 l 32,16 32,-16 -32,-16 z" fill="#ece5df"></path><path d="m -96,368 l 32,16 0,3 -32,-16 z" fill="#eaebdb"></path><path d="m -64,384 l 32,-16 0,3 -32,16 z" fill="#9f958b"></path></g><g><path d="m -64,384 l 32,16 32,-16 -32,-16 z" fill="#ddd0c8"></path><path d="m -64,384 l 32,16 0,3 -32,-16 z" fill="#eaebdb"></path><path d="m -32,400 l 32,-16 0,3 -32,16 z" fill="#9f958b"></path></g></g><g data-row="14"><g><path d="m -448,224 l 32,16 32,-16 -32,-16 z" fill="#ddd0c8"></path><path d="m -448,224 l 32,16 0,3 -32,-16 z" fill="#eaebdb"></path><path d="m -416,240 l 32,-16 0,3 -32,16 z" fill="#9f958b"></path></g><g><path d="m -416,240 l 32,16 32,-16 -32,-16 z" fill="#ece5df"></path><path d="m -416,240 l 32,16 0,3 -32,-16 z" fill="#eaebdb"></path><path d="m -384,256 l 32,-16 0,3 -32,16 z" fill="#9f958b"></path></g><g><path d="m -384,256 l 32,16 32,-16 -32,-16 z" fill="#ddd0c8"></path><path d="m -384,256 l 32,16 0,3 -32,-16 z" fill="#eaebdb"></path><path d="m -352,272 l 32,-16 0,3 -32,16 z" fill="#9f958b"></path></g><g><path d="m -352,272 l 32,16 32,-16 -32,-16 z" fill="#ece5df"></path><path d="m -352,272 l 32,16 0,3 -32,-16 z" fill="#eaebdb"></path><path d="m -320,288 l 32,-16 0,3 -32,16 z" fill="#9f958b"></path></g><g><path d="m -320,288 l 32,16 32,-16 -32,-16 z" fill="#ddd0c8"></path><path d="m -320,288 l 32,16 0,3 -32,-16 z" fill="#eaebdb"></path><path d="m -288,304 l 32,-16 0,3 -32,16 z" fill="#9f958b"></path></g><g><path d="m -288,304 l 32,16 32,-16 -32,-16 z" fill="#ece5df"></path><path d="m -288,304 l 32,16 0,3 -32,-16 z" fill="#eaebdb"></path><path d="m -256,320 l 32,-16 0,3 -32,16 z" fill="#9f958b"></path></g><g><path d="m -256,320 l 32,16 32,-16 -32,-16 z" fill="#ddd0c8"></path><path d="m -256,320 l 32,16 0,3 -32,-16 z" fill="#eaebdb"></path><path d="m -224,336 l 32,-16 0,3 -32,16 z" fill="#9f958b"></path></g><g><path d="m -224,336 l 32,16 32,-16 -32,-16 z" fill="#ece5df"></path><path d="m -224,336 l 32,16 0,3 -32,-16 z" fill="#eaebdb"></path><path d="m -192,352 l 32,-16 0,3 -32,16 z" fill="#9f958b"></path></g><g><path d="m -192,352 l 32,16 32,-16 -32,-16 z" fill="#ddd0c8"></path><path d="m -192,352 l 32,16 0,3 -32,-16 z" fill="#eaebdb"></path><path d="m -160,368 l 32,-16 0,3 -32,16 z" fill="#9f958b"></path></g><g><path d="m -160,368 l 32,16 32,-16 -32,-16 z" fill="#ece5df"></path><path d="m -160,368 l 32,16 0,3 -32,-16 z" fill="#eaebdb"></path><path d="m -128,384 l 32,-16 0,3 -32,16 z" fill="#9f958b"></path></g><g><path d="m -128,384 l 32,16 32,-16 -32,-16 z" fill="#ddd0c8"></path><path d="m -128,384 l 32,16 0,3 -32,-16 z" fill="#eaebdb"></path><path d="m -96,400 l 32,-16 0,3 -32,16 z" fill="#9f958b"></path></g><g><path d="m -96,400 l 32,16 32,-16 -32,-16 z" fill="#ece5df"></path><path d="m -96,400 l 32,16 0,3 -32,-16 z" fill="#eaebdb"></path><path d="m -64,416 l 32,-16 0,3 -32,16 z" fill="#9f958b"></path></g></g><g data-row="15"><g><path d="m -480,240 l 32,16 32,-16 -32,-16 z" fill="#ece5df"></path><path d="m -480,240 l 32,16 0,3 -32,-16 z" fill="#eaebdb"></path><path d="m -448,256 l 32,-16 0,3 -32,16 z" fill="#9f958b"></path></g><g><path d="m -448,256 l 32,16 32,-16 -32,-16 z" fill="#ddd0c8"></path><path d="m -448,256 l 32,16 0,3 -32,-16 z" fill="#eaebdb"></path><path d="m -416,272 l 32,-16 0,3 -32,16 z" fill="#9f958b"></path></g><g><path d="m -416,272 l 32,16 32,-16 -32,-16 z" fill="#ece5df"></path><path d="m -416,272 l 32,16 0,3 -32,-16 z" fill="#eaebdb"></path><path d="m -384,288 l 32,-16 0,3 -32,16 z" fill="#9f958b"></path></g><g><path d="m -384,288 l 32,16 32,-16 -32,-16 z" fill="#ddd0c8"></path><path d="m -384,288 l 32,16 0,3 -32,-16 z" fill="#eaebdb"></path><path d="m -352,304 l 32,-16 0,3 -32,16 z" fill="#9f958b"></path></g><g><path d="m -352,304 l 32,16 32,-16 -32,-16 z" fill="#ece5df"></path><path d="m -352,304 l 32,16 0,3 -32,-16 z" fill="#eaebdb"></path><path d="m -320,320 l 32,-16 0,3 -32,16 z" fill="#9f958b"></path></g><g><path d="m -320,320 l 32,16 32,-16 -32,-16 z" fill="#ddd0c8"></path><path d="m -320,320 l 32,16 0,3 -32,-16 z" fill="#eaebdb"></path><path d="m -288,336 l 32,-16 0,3 -32,16 z" fill="#9f958b"></path></g><g><path d="m -288,336 l 32,16 32,-16 -32,-16 z" fill="#ece5df"></path><path d="m -288,336 l 32,16 0,3 -32,-16 z" fill="#eaebdb"></path><path d="m -256,352 l 32,-16 0,3 -32,16 z" fill="#9f958b"></path></g><g><path d="m -256,352 l 32,16 32,-16 -32,-16 z" fill="#ddd0c8"></path><path d="m -256,352 l 32,16 0,3 -32,-16 z" fill="#eaebdb"></path><path d="m -224,368 l 32,-16 0,3 -32,16 z" fill="#9f958b"></path></g><g><path d="m -224,368 l 32,16 32,-16 -32,-16 z" fill="#ece5df"></path><path d="m -224,368 l 32,16 0,3 -32,-16 z" fill="#eaebdb"></path><path d="m -192,384 l 32,-16 0,3 -32,16 z" fill="#9f958b"></path></g><g><path d="m -192,384 l 32,16 32,-16 -32,-16 z" fill="#ddd0c8"></path><path d="m -192,384 l 32,16 0,3 -32,-16 z" fill="#eaebdb"></path><path d="m -160,400 l 32,-16 0,3 -32,16 z" fill="#9f958b"></path></g><g><path d="m -160,400 l 32,16 32,-16 -32,-16 z" fill="#ece5df"></path><path d="m -160,400 l 32,16 0,3 -32,-16 z" fill="#eaebdb"></path><path d="m -128,416 l 32,-16 0,3 -32,16 z" fill="#9f958b"></path></g><g><path d="m -128,416 l 32,16 32,-16 -32,-16 z" fill="#ddd0c8"></path><path d="m -128,416 l 32,16 0,3 -32,-16 z" fill="#eaebdb"></path><path d="m -96,432 l 32,-16 0,3 -32,16 z" fill="#9f958b"></path></g></g><g data-row="16"><g><path d="m -512,256 l 32,16 32,-16 -32,-16 z" fill="#ddd0c8"></path><path d="m -512,256 l 32,16 0,3 -32,-16 z" fill="#eaebdb"></path><path d="m -480,272 l 32,-16 0,3 -32,16 z" fill="#9f958b"></path></g><g><path d="m -480,272 l 32,16 32,-16 -32,-16 z" fill="#ece5df"></path><path d="m -480,272 l 32,16 0,3 -32,-16 z" fill="#eaebdb"></path><path d="m -448,288 l 32,-16 0,3 -32,16 z" fill="#9f958b"></path></g><g><path d="m -448,288 l 32,16 32,-16 -32,-16 z" fill="#ddd0c8"></path><path d="m -448,288 l 32,16 0,3 -32,-16 z" fill="#eaebdb"></path><path d="m -416,304 l 32,-16 0,3 -32,16 z" fill="#9f958b"></path></g><g><path d="m -416,304 l 32,16 32,-16 -32,-16 z" fill="#ece5df"></path><path d="m -416,304 l 32,16 0,3 -32,-16 z" fill="#eaebdb"></path><path d="m -384,320 l 32,-16 0,3 -32,16 z" fill="#9f958b"></path></g><g><path d="m -384,320 l 32,16 32,-16 -32,-16 z" fill="#ddd0c8"></path><path d="m -384,320 l 32,16 0,3 -32,-16 z" fill="#eaebdb"></path><path d="m -352,336 l 32,-16 0,3 -32,16 z" fill="#9f958b"></path></g><g><path d="m -352,336 l 32,16 32,-16 -32,-16 z" fill="#ece5df"></path><path d="m -352,336 l 32,16 0,3 -32,-16 z" fill="#eaebdb"></path><path d="m -320,352 l 32,-16 0,3 -32,16 z" fill="#9f958b"></path></g><g><path d="m -320,352 l 32,16 32,-16 -32,-16 z" fill="#ddd0c8"></path><path d="m -320,352 l 32,16 0,3 -32,-16 z" fill="#eaebdb"></path><path d="m -288,368 l 32,-16 0,3 -32,16 z" fill="#9f958b"></path></g><g><path d="m -288,368 l 32,16 32,-16 -32,-16 z" fill="#ece5df"></path><path d="m -288,368 l 32,16 0,3 -32,-16 z" fill="#eaebdb"></path><path d="m -256,384 l 32,-16 0,3 -32,16 z" fill="#9f958b"></path></g><g><path d="m -256,384 l 32,16 32,-16 -32,-16 z" fill="#ddd0c8"></path><path d="m -256,384 l 32,16 0,3 -32,-16 z" fill="#eaebdb"></path><path d="m -224,400 l 32,-16 0,3 -32,16 z" fill="#9f958b"></path></g><g><path d="m -224,400 l 32,16 32,-16 -32,-16 z" fill="#ece5df"></path><path d="m -224,400 l 32,16 0,3 -32,-16 z" fill="#eaebdb"></path><path d="m -192,416 l 32,-16 0,3 -32,16 z" fill="#9f958b"></path></g><g><path d="m -192,416 l 32,16 32,-16 -32,-16 z" fill="#ddd0c8"></path><path d="m -192,416 l 32,16 0,3 -32,-16 z" fill="#eaebdb"></path><path d="m -160,432 l 32,-16 0,3 -32,16 z" fill="#9f958b"></path></g><g><path d="m -160,432 l 32,16 32,-16 -32,-16 z" fill="#ece5df"></path><path d="m -160,432 l 32,16 0,3 -32,-16 z" fill="#eaebdb"></path><path d="m -128,448 l 32,-16 0,3 -32,16 z" fill="#9f958b"></path></g></g><g data-row="17"><g><path d="m -544,272 l 32,16 32,-16 -32,-16 z" fill="#ece5df"></path><path d="m -544,272 l 32,16 0,3 -32,-16 z" fill="#eaebdb"></path><path d="m -512,288 l 32,-16 0,3 -32,16 z" fill="#9f958b"></path></g><g><path d="m -512,288 l 32,16 32,-16 -32,-16 z" fill="#ddd0c8"></path><path d="m -512,288 l 32,16 0,3 -32,-16 z" fill="#eaebdb"></path><path d="m -480,304 l 32,-16 0,3 -32,16 z" fill="#9f958b"></path></g><g><path d="m -480,304 l 32,16 32,-16 -32,-16 z" fill="#ece5df"></path><path d="m -480,304 l 32,16 0,3 -32,-16 z" fill="#eaebdb"></path><path d="m -448,320 l 32,-16 0,3 -32,16 z" fill="#9f958b"></path></g><g><path d="m -448,320 l 32,16 32,-16 -32,-16 z" fill="#ddd0c8"></path><path d="m -448,320 l 32,16 0,3 -32,-16 z" fill="#eaebdb"></path><path d="m -416,336 l 32,-16 0,3 -32,16 z" fill="#9f958b"></path></g><g><path d="m -416,336 l 32,16 32,-16 -32,-16 z" fill="#ece5df"></path><path d="m -416,336 l 32,16 0,3 -32,-16 z" fill="#eaebdb"></path><path d="m -384,352 l 32,-16 0,3 -32,16 z" fill="#9f958b"></path></g><g><path d="m -384,352 l 32,16 32,-16 -32,-16 z" fill="#ddd0c8"></path><path d="m -384,352 l 32,16 0,3 -32,-16 z" fill="#eaebdb"></path><path d="m -352,368 l 32,-16 0,3 -32,16 z" fill="#9f958b"></path></g><g><path d="m -352,368 l 32,16 32,-16 -32,-16 z" fill="#ece5df"></path><path d="m -352,368 l 32,16 0,3 -32,-16 z" fill="#eaebdb"></path><path d="m -320,384 l 32,-16 0,3 -32,16 z" fill="#9f958b"></path></g><g><path d="m -320,384 l 32,16 32,-16 -32,-16 z" fill="#ddd0c8"></path><path d="m -320,384 l 32,16 0,3 -32,-16 z" fill="#eaebdb"></path><path d="m -288,400 l 32,-16 0,3 -32,16 z" fill="#9f958b"></path></g><g><path d="m -288,400 l 32,16 32,-16 -32,-16 z" fill="#ece5df"></path><path d="m -288,400 l 32,16 0,3 -32,-16 z" fill="#eaebdb"></path><path d="m -256,416 l 32,-16 0,3 -32,16 z" fill="#9f958b"></path></g><g><path d="m -256,416 l 32,16 32,-16 -32,-16 z" fill="#ddd0c8"></path><path d="m -256,416 l 32,16 0,3 -32,-16 z" fill="#eaebdb"></path><path d="m -224,432 l 32,-16 0,3 -32,16 z" fill="#9f958b"></path></g><g><path d="m -224,432 l 32,16 32,-16 -32,-16 z" fill="#ece5df"></path><path d="m -224,432 l 32,16 0,3 -32,-16 z" fill="#eaebdb"></path><path d="m -192,448 l 32,-16 0,3 -32,16 z" fill="#9f958b"></path></g><g><path d="m -192,448 l 32,16 32,-16 -32,-16 z" fill="#ddd0c8"></path><path d="m -192,448 l 32,16 0,3 -32,-16 z" fill="#eaebdb"></path><path d="m -160,464 l 32,-16 0,3 -32,16 z" fill="#9f958b"></path></g></g><g data-row="18"><g><path d="m -576,288 l 32,16 32,-16 -32,-16 z" fill="#ddd0c8"></path><path d="m -576,288 l 32,16 0,3 -32,-16 z" fill="#eaebdb"></path><path d="m -544,304 l 32,-16 0,3 -32,16 z" fill="#9f958b"></path></g><g><path d="m -544,304 l 32,16 32,-16 -32,-16 z" fill="#ece5df"></path><path d="m -544,304 l 32,16 0,3 -32,-16 z" fill="#eaebdb"></path><path d="m -512,320 l 32,-16 0,3 -32,16 z" fill="#9f958b"></path></g><g><path d="m -512,320 l 32,16 32,-16 -32,-16 z" fill="#ddd0c8"></path><path d="m -512,320 l 32,16 0,3 -32,-16 z" fill="#eaebdb"></path><path d="m -480,336 l 32,-16 0,3 -32,16 z" fill="#9f958b"></path></g><g><path d="m -480,336 l 32,16 32,-16 -32,-16 z" fill="#ece5df"></path><path d="m -480,336 l 32,16 0,3 -32,-16 z" fill="#eaebdb"></path><path d="m -448,352 l 32,-16 0,3 -32,16 z" fill="#9f958b"></path></g><g><path d="m -448,352 l 32,16 32,-16 -32,-16 z" fill="#ddd0c8"></path><path d="m -448,352 l 32,16 0,3 -32,-16 z" fill="#eaebdb"></path><path d="m -416,368 l 32,-16 0,3 -32,16 z" fill="#9f958b"></path></g><g><path d="m -416,368 l 32,16 32,-16 -32,-16 z" fill="#ece5df"></path><path d="m -416,368 l 32,16 0,3 -32,-16 z" fill="#eaebdb"></path><path d="m -384,384 l 32,-16 0,3 -32,16 z" fill="#9f958b"></path></g><g><path d="m -384,384 l 32,16 32,-16 -32,-16 z" fill="#ddd0c8"></path><path d="m -384,384 l 32,16 0,3 -32,-16 z" fill="#eaebdb"></path><path d="m -352,400 l 32,-16 0,3 -32,16 z" fill="#9f958b"></path></g><g><path d="m -352,400 l 32,16 32,-16 -32,-16 z" fill="#ece5df"></path><path d="m -352,400 l 32,16 0,3 -32,-16 z" fill="#eaebdb"></path><path d="m -320,416 l 32,-16 0,3 -32,16 z" fill="#9f958b"></path></g><g><path d="m -320,416 l 32,16 32,-16 -32,-16 z" fill="#ddd0c8"></path><path d="m -320,416 l 32,16 0,3 -32,-16 z" fill="#eaebdb"></path><path d="m -288,432 l 32,-16 0,3 -32,16 z" fill="#9f958b"></path></g><g><path d="m -288,432 l 32,16 32,-16 -32,-16 z" fill="#ece5df"></path><path d="m -288,432 l 32,16 0,3 -32,-16 z" fill="#eaebdb"></path><path d="m -256,448 l 32,-16 0,3 -32,16 z" fill="#9f958b"></path></g><g><path d="m -256,448 l 32,16 32,-16 -32,-16 z" fill="#ddd0c8"></path><path d="m -256,448 l 32,16 0,3 -32,-16 z" fill="#eaebdb"></path><path d="m -224,464 l 32,-16 0,3 -32,16 z" fill="#9f958b"></path></g><g><path d="m -224,464 l 32,16 32,-16 -32,-16 z" fill="#ece5df"></path><path d="m -224,464 l 32,16 0,3 -32,-16 z" fill="#eaebdb"></path><path d="m -192,480 l 32,-16 0,3 -32,16 z" fill="#9f958b"></path></g></g><g data-row="19"><g><path d="m -608,304 l 32,16 32,-16 -32,-16 z" fill="#ece5df"></path><path d="m -608,304 l 32,16 0,3 -32,-16 z" fill="#eaebdb"></path><path d="m -576,320 l 32,-16 0,3 -32,16 z" fill="#9f958b"></path></g><g><path d="m -576,320 l 32,16 32,-16 -32,-16 z" fill="#ddd0c8"></path><path d="m -576,320 l 32,16 0,3 -32,-16 z" fill="#eaebdb"></path><path d="m -544,336 l 32,-16 0,3 -32,16 z" fill="#9f958b"></path></g><g><path d="m -544,336 l 32,16 32,-16 -32,-16 z" fill="#ece5df"></path><path d="m -544,336 l 32,16 0,3 -32,-16 z" fill="#eaebdb"></path><path d="m -512,352 l 32,-16 0,3 -32,16 z" fill="#9f958b"></path></g><g><path d="m -512,352 l 32,16 32,-16 -32,-16 z" fill="#ddd0c8"></path><path d="m -512,352 l 32,16 0,3 -32,-16 z" fill="#eaebdb"></path><path d="m -480,368 l 32,-16 0,3 -32,16 z" fill="#9f958b"></path></g><g><path d="m -480,368 l 32,16 32,-16 -32,-16 z" fill="#ece5df"></path><path d="m -480,368 l 32,16 0,3 -32,-16 z" fill="#eaebdb"></path><path d="m -448,384 l 32,-16 0,3 -32,16 z" fill="#9f958b"></path></g><g><path d="m -448,384 l 32,16 32,-16 -32,-16 z" fill="#ddd0c8"></path><path d="m -448,384 l 32,16 0,3 -32,-16 z" fill="#eaebdb"></path><path d="m -416,400 l 32,-16 0,3 -32,16 z" fill="#9f958b"></path></g><g><path d="m -416,400 l 32,16 32,-16 -32,-16 z" fill="#ece5df"></path><path d="m -416,400 l 32,16 0,3 -32,-16 z" fill="#eaebdb"></path><path d="m -384,416 l 32,-16 0,3 -32,16 z" fill="#9f958b"></path></g><g><path d="m -384,416 l 32,16 32,-16 -32,-16 z" fill="#ddd0c8"></path><path d="m -384,416 l 32,16 0,3 -32,-16 z" fill="#eaebdb"></path><path d="m -352,432 l 32,-16 0,3 -32,16 z" fill="#9f958b"></path></g><g><path d="m -352,432 l 32,16 32,-16 -32,-16 z" fill="#ece5df"></path><path d="m -352,432 l 32,16 0,3 -32,-16 z" fill="#eaebdb"></path><path d="m -320,448 l 32,-16 0,3 -32,16 z" fill="#9f958b"></path></g><g><path d="m -320,448 l 32,16 32,-16 -32,-16 z" fill="#ddd0c8"></path><path d="m -320,448 l 32,16 0,3 -32,-16 z" fill="#eaebdb"></path><path d="m -288,464 l 32,-16 0,3 -32,16 z" fill="#9f958b"></path></g><g><path d="m -288,464 l 32,16 32,-16 -32,-16 z" fill="#ece5df"></path><path d="m -288,464 l 32,16 0,3 -32,-16 z" fill="#eaebdb"></path><path d="m -256,480 l 32,-16 0,3 -32,16 z" fill="#9f958b"></path></g><g><path d="m -256,480 l 32,16 32,-16 -32,-16 z" fill="#ddd0c8"></path><path d="m -256,480 l 32,16 0,3 -32,-16 z" fill="#eaebdb"></path><path d="m -224,496 l 32,-16 0,3 -32,16 z" fill="#9f958b"></path></g></g><g data-row="20"><g><path d="m -640,320 l 32,16 32,-16 -32,-16 z" fill="#ddd0c8"></path><path d="m -640,320 l 32,16 0,3 -32,-16 z" fill="#eaebdb"></path><path d="m -608,336 l 32,-16 0,3 -32,16 z" fill="#9f958b"></path></g><g><path d="m -608,336 l 32,16 32,-16 -32,-16 z" fill="#ece5df"></path><path d="m -608,336 l 32,16 0,3 -32,-16 z" fill="#eaebdb"></path><path d="m -576,352 l 32,-16 0,3 -32,16 z" fill="#9f958b"></path></g><g><path d="m -576,352 l 32,16 32,-16 -32,-16 z" fill="#ddd0c8"></path><path d="m -576,352 l 32,16 0,3 -32,-16 z" fill="#eaebdb"></path><path d="m -544,368 l 32,-16 0,3 -32,16 z" fill="#9f958b"></path></g><g><path d="m -544,368 l 32,16 32,-16 -32,-16 z" fill="#ece5df"></path><path d="m -544,368 l 32,16 0,3 -32,-16 z" fill="#eaebdb"></path><path d="m -512,384 l 32,-16 0,3 -32,16 z" fill="#9f958b"></path></g><g><path d="m -512,384 l 32,16 32,-16 -32,-16 z" fill="#ddd0c8"></path><path d="m -512,384 l 32,16 0,3 -32,-16 z" fill="#eaebdb"></path><path d="m -480,400 l 32,-16 0,3 -32,16 z" fill="#9f958b"></path></g><g><path d="m -480,400 l 32,16 32,-16 -32,-16 z" fill="#ece5df"></path><path d="m -480,400 l 32,16 0,3 -32,-16 z" fill="#eaebdb"></path><path d="m -448,416 l 32,-16 0,3 -32,16 z" fill="#9f958b"></path></g><g><path d="m -448,416 l 32,16 32,-16 -32,-16 z" fill="#ddd0c8"></path><path d="m -448,416 l 32,16 0,3 -32,-16 z" fill="#eaebdb"></path><path d="m -416,432 l 32,-16 0,3 -32,16 z" fill="#9f958b"></path></g><g><path d="m -416,432 l 32,16 32,-16 -32,-16 z" fill="#ece5df"></path><path d="m -416,432 l 32,16 0,3 -32,-16 z" fill="#eaebdb"></path><path d="m -384,448 l 32,-16 0,3 -32,16 z" fill="#9f958b"></path></g><g><path d="m -384,448 l 32,16 32,-16 -32,-16 z" fill="#ddd0c8"></path><path d="m -384,448 l 32,16 0,3 -32,-16 z" fill="#eaebdb"></path><path d="m -352,464 l 32,-16 0,3 -32,16 z" fill="#9f958b"></path></g><g><path d="m -352,464 l 32,16 32,-16 -32,-16 z" fill="#ece5df"></path><path d="m -352,464 l 32,16 0,3 -32,-16 z" fill="#eaebdb"></path><path d="m -320,480 l 32,-16 0,3 -32,16 z" fill="#9f958b"></path></g><g><path d="m -320,480 l 32,16 32,-16 -32,-16 z" fill="#ddd0c8"></path><path d="m -320,480 l 32,16 0,3 -32,-16 z" fill="#eaebdb"></path><path d="m -288,496 l 32,-16 0,3 -32,16 z" fill="#9f958b"></path></g><g><path d="m -288,496 l 32,16 32,-16 -32,-16 z" fill="#ece5df"></path><path d="m -288,496 l 32,16 0,3 -32,-16 z" fill="#eaebdb"></path><path d="m -256,512 l 32,-16 0,3 -32,16 z" fill="#9f958b"></path></g></g><g data-row="21"><g><path d="m -672,336 l 32,16 32,-16 -32,-16 z" fill="#ece5df"></path><path d="m -672,336 l 32,16 0,3 -32,-16 z" fill="#eaebdb"></path><path d="m -640,352 l 32,-16 0,3 -32,16 z" fill="#9f958b"></path></g><g><path d="m -640,352 l 32,16 32,-16 -32,-16 z" fill="#ddd0c8"></path><path d="m -640,352 l 32,16 0,3 -32,-16 z" fill="#eaebdb"></path><path d="m -608,368 l 32,-16 0,3 -32,16 z" fill="#9f958b"></path></g><g><path d="m -608,368 l 32,16 32,-16 -32,-16 z" fill="#ece5df"></path><path d="m -608,368 l 32,16 0,3 -32,-16 z" fill="#eaebdb"></path><path d="m -576,384 l 32,-16 0,3 -32,16 z" fill="#9f958b"></path></g><g><path d="m -576,384 l 32,16 32,-16 -32,-16 z" fill="#ddd0c8"></path><path d="m -576,384 l 32,16 0,3 -32,-16 z" fill="#eaebdb"></path><path d="m -544,400 l 32,-16 0,3 -32,16 z" fill="#9f958b"></path></g><g><path d="m -544,400 l 32,16 32,-16 -32,-16 z" fill="#ece5df"></path><path d="m -544,400 l 32,16 0,3 -32,-16 z" fill="#eaebdb"></path><path d="m -512,416 l 32,-16 0,3 -32,16 z" fill="#9f958b"></path></g><g><path d="m -512,416 l 32,16 32,-16 -32,-16 z" fill="#ddd0c8"></path><path d="m -512,416 l 32,16 0,3 -32,-16 z" fill="#eaebdb"></path><path d="m -480,432 l 32,-16 0,3 -32,16 z" fill="#9f958b"></path></g><g><path d="m -480,432 l 32,16 32,-16 -32,-16 z" fill="#ece5df"></path><path d="m -480,432 l 32,16 0,3 -32,-16 z" fill="#eaebdb"></path><path d="m -448,448 l 32,-16 0,3 -32,16 z" fill="#9f958b"></path></g><g><path d="m -448,448 l 32,16 32,-16 -32,-16 z" fill="#ddd0c8"></path><path d="m -448,448 l 32,16 0,3 -32,-16 z" fill="#eaebdb"></path><path d="m -416,464 l 32,-16 0,3 -32,16 z" fill="#9f958b"></path></g><g><path d="m -416,464 l 32,16 32,-16 -32,-16 z" fill="#ece5df"></path><path d="m -416,464 l 32,16 0,3 -32,-16 z" fill="#eaebdb"></path><path d="m -384,480 l 32,-16 0,3 -32,16 z" fill="#9f958b"></path></g><g><path d="m -384,480 l 32,16 32,-16 -32,-16 z" fill="#ddd0c8"></path><path d="m -384,480 l 32,16 0,3 -32,-16 z" fill="#eaebdb"></path><path d="m -352,496 l 32,-16 0,3 -32,16 z" fill="#9f958b"></path></g><g><path d="m -352,496 l 32,16 32,-16 -32,-16 z" fill="#ece5df"></path><path d="m -352,496 l 32,16 0,3 -32,-16 z" fill="#eaebdb"></path><path d="m -320,512 l 32,-16 0,3 -32,16 z" fill="#9f958b"></path></g><g><path d="m -320,512 l 32,16 32,-16 -32,-16 z" fill="#ddd0c8"></path><path d="m -320,512 l 32,16 0,3 -32,-16 z" fill="#eaebdb"></path><path d="m -288,528 l 32,-16 0,3 -32,16 z" fill="#9f958b"></path></g></g><g data-row="22"><g><path d="m -704,352 l 32,16 32,-16 -32,-16 z" fill="#ddd0c8"></path><path d="m -704,352 l 32,16 0,3 -32,-16 z" fill="#eaebdb"></path><path d="m -672,368 l 32,-16 0,3 -32,16 z" fill="#9f958b"></path></g><g><path d="m -672,368 l 32,16 32,-16 -32,-16 z" fill="#ece5df"></path><path d="m -672,368 l 32,16 0,3 -32,-16 z" fill="#eaebdb"></path><path d="m -640,384 l 32,-16 0,3 -32,16 z" fill="#9f958b"></path></g><g><path d="m -640,384 l 32,16 32,-16 -32,-16 z" fill="#ddd0c8"></path><path d="m -640,384 l 32,16 0,3 -32,-16 z" fill="#eaebdb"></path><path d="m -608,400 l 32,-16 0,3 -32,16 z" fill="#9f958b"></path></g><g><path d="m -608,400 l 32,16 32,-16 -32,-16 z" fill="#ece5df"></path><path d="m -608,400 l 32,16 0,3 -32,-16 z" fill="#eaebdb"></path><path d="m -576,416 l 32,-16 0,3 -32,16 z" fill="#9f958b"></path></g><g><path d="m -576,416 l 32,16 32,-16 -32,-16 z" fill="#ddd0c8"></path><path d="m -576,416 l 32,16 0,3 -32,-16 z" fill="#eaebdb"></path><path d="m -544,432 l 32,-16 0,3 -32,16 z" fill="#9f958b"></path></g><g><path d="m -544,432 l 32,16 32,-16 -32,-16 z" fill="#ece5df"></path><path d="m -544,432 l 32,16 0,3 -32,-16 z" fill="#eaebdb"></path><path d="m -512,448 l 32,-16 0,3 -32,16 z" fill="#9f958b"></path></g><g><path d="m -512,448 l 32,16 32,-16 -32,-16 z" fill="#ddd0c8"></path><path d="m -512,448 l 32,16 0,3 -32,-16 z" fill="#eaebdb"></path><path d="m -480,464 l 32,-16 0,3 -32,16 z" fill="#9f958b"></path></g><g><path d="m -480,464 l 32,16 32,-16 -32,-16 z" fill="#ece5df"></path><path d="m -480,464 l 32,16 0,3 -32,-16 z" fill="#eaebdb"></path><path d="m -448,480 l 32,-16 0,3 -32,16 z" fill="#9f958b"></path></g><g><path d="m -448,480 l 32,16 32,-16 -32,-16 z" fill="#ddd0c8"></path><path d="m -448,480 l 32,16 0,3 -32,-16 z" fill="#eaebdb"></path><path d="m -416,496 l 32,-16 0,3 -32,16 z" fill="#9f958b"></path></g><g><path d="m -416,496 l 32,16 32,-16 -32,-16 z" fill="#ece5df"></path><path d="m -416,496 l 32,16 0,3 -32,-16 z" fill="#eaebdb"></path><path d="m -384,512 l 32,-16 0,3 -32,16 z" fill="#9f958b"></path></g><g><path d="m -384,512 l 32,16 32,-16 -32,-16 z" fill="#ddd0c8"></path><path d="m -384,512 l 32,16 0,3 -32,-16 z" fill="#eaebdb"></path><path d="m -352,528 l 32,-16 0,3 -32,16 z" fill="#9f958b"></path></g><g><path d="m -352,528 l 32,16 32,-16 -32,-16 z" fill="#ece5df"></path><path d="m -352,528 l 32,16 0,3 -32,-16 z" fill="#eaebdb"></path><path d="m -320,544 l 32,-16 0,3 -32,16 z" fill="#9f958b"></path></g></g><g data-row="23"><g><path d="m -736,368 l 32,16 32,-16 -32,-16 z" fill="#ece5df"></path><path d="m -736,368 l 32,16 0,3 -32,-16 z" fill="#eaebdb"></path><path d="m -704,384 l 32,-16 0,3 -32,16 z" fill="#9f958b"></path></g><g><path d="m -704,384 l 32,16 32,-16 -32,-16 z" fill="#ddd0c8"></path><path d="m -704,384 l 32,16 0,3 -32,-16 z" fill="#eaebdb"></path><path d="m -672,400 l 32,-16 0,3 -32,16 z" fill="#9f958b"></path></g><g><path d="m -672,400 l 32,16 32,-16 -32,-16 z" fill="#ece5df"></path><path d="m -672,400 l 32,16 0,3 -32,-16 z" fill="#eaebdb"></path><path d="m -640,416 l 32,-16 0,3 -32,16 z" fill="#9f958b"></path></g><g><path d="m -640,416 l 32,16 32,-16 -32,-16 z" fill="#ddd0c8"></path><path d="m -640,416 l 32,16 0,3 -32,-16 z" fill="#eaebdb"></path><path d="m -608,432 l 32,-16 0,3 -32,16 z" fill="#9f958b"></path></g><g><path d="m -608,432 l 32,16 32,-16 -32,-16 z" fill="#ece5df"></path><path d="m -608,432 l 32,16 0,3 -32,-16 z" fill="#eaebdb"></path><path d="m -576,448 l 32,-16 0,3 -32,16 z" fill="#9f958b"></path></g><g><path d="m -576,448 l 32,16 32,-16 -32,-16 z" fill="#ddd0c8"></path><path d="m -576,448 l 32,16 0,3 -32,-16 z" fill="#eaebdb"></path><path d="m -544,464 l 32,-16 0,3 -32,16 z" fill="#9f958b"></path></g><g><path d="m -544,464 l 32,16 32,-16 -32,-16 z" fill="#ece5df"></path><path d="m -544,464 l 32,16 0,3 -32,-16 z" fill="#eaebdb"></path><path d="m -512,480 l 32,-16 0,3 -32,16 z" fill="#9f958b"></path></g><g><path d="m -512,480 l 32,16 32,-16 -32,-16 z" fill="#ddd0c8"></path><path d="m -512,480 l 32,16 0,3 -32,-16 z" fill="#eaebdb"></path><path d="m -480,496 l 32,-16 0,3 -32,16 z" fill="#9f958b"></path></g><g><path d="m -480,496 l 32,16 32,-16 -32,-16 z" fill="#ece5df"></path><path d="m -480,496 l 32,16 0,3 -32,-16 z" fill="#eaebdb"></path><path d="m -448,512 l 32,-16 0,3 -32,16 z" fill="#9f958b"></path></g><g><path d="m -448,512 l 32,16 32,-16 -32,-16 z" fill="#ddd0c8"></path><path d="m -448,512 l 32,16 0,3 -32,-16 z" fill="#eaebdb"></path><path d="m -416,528 l 32,-16 0,3 -32,16 z" fill="#9f958b"></path></g><g><path d="m -416,528 l 32,16 32,-16 -32,-16 z" fill="#ece5df"></path><path d="m -416,528 l 32,16 0,3 -32,-16 z" fill="#eaebdb"></path><path d="m -384,544 l 32,-16 0,3 -32,16 z" fill="#9f958b"></path></g><g><path d="m -384,544 l 32,16 32,-16 -32,-16 z" fill="#ddd0c8"></path><path d="m -384,544 l 32,16 0,3 -32,-16 z" fill="#eaebdb"></path><path d="m -352,560 l 32,-16 0,3 -32,16 z" fill="#9f958b"></path></g></g><g data-row="24"><g><path d="m -768,384 l 32,16 32,-16 -32,-16 z" fill="#ddd0c8"></path><path d="m -768,384 l 32,16 0,3 -32,-16 z" fill="#eaebdb"></path><path d="m -736,400 l 32,-16 0,3 -32,16 z" fill="#9f958b"></path></g><g><path d="m -736,400 l 32,16 32,-16 -32,-16 z" fill="#ece5df"></path><path d="m -736,400 l 32,16 0,3 -32,-16 z" fill="#eaebdb"></path><path d="m -704,416 l 32,-16 0,3 -32,16 z" fill="#9f958b"></path></g><g><path d="m -704,416 l 32,16 32,-16 -32,-16 z" fill="#ddd0c8"></path><path d="m -704,416 l 32,16 0,3 -32,-16 z" fill="#eaebdb"></path><path d="m -672,432 l 32,-16 0,3 -32,16 z" fill="#9f958b"></path></g><g><path d="m -672,432 l 32,16 32,-16 -32,-16 z" fill="#ece5df"></path><path d="m -672,432 l 32,16 0,3 -32,-16 z" fill="#eaebdb"></path><path d="m -640,448 l 32,-16 0,3 -32,16 z" fill="#9f958b"></path></g><g><path d="m -640,448 l 32,16 32,-16 -32,-16 z" fill="#ddd0c8"></path><path d="m -640,448 l 32,16 0,3 -32,-16 z" fill="#eaebdb"></path><path d="m -608,464 l 32,-16 0,3 -32,16 z" fill="#9f958b"></path></g><g><path d="m -608,464 l 32,16 32,-16 -32,-16 z" fill="#ece5df"></path><path d="m -608,464 l 32,16 0,3 -32,-16 z" fill="#eaebdb"></path><path d="m -576,480 l 32,-16 0,3 -32,16 z" fill="#9f958b"></path></g><g><path d="m -576,480 l 32,16 32,-16 -32,-16 z" fill="#ddd0c8"></path><path d="m -576,480 l 32,16 0,3 -32,-16 z" fill="#eaebdb"></path><path d="m -544,496 l 32,-16 0,3 -32,16 z" fill="#9f958b"></path></g><g><path d="m -544,496 l 32,16 32,-16 -32,-16 z" fill="#ece5df"></path><path d="m -544,496 l 32,16 0,3 -32,-16 z" fill="#eaebdb"></path><path d="m -512,512 l 32,-16 0,3 -32,16 z" fill="#9f958b"></path></g><g><path d="m -512,512 l 32,16 32,-16 -32,-16 z" fill="#ddd0c8"></path><path d="m -512,512 l 32,16 0,3 -32,-16 z" fill="#eaebdb"></path><path d="m -480,528 l 32,-16 0,3 -32,16 z" fill="#9f958b"></path></g><g><path d="m -480,528 l 32,16 32,-16 -32,-16 z" fill="#ece5df"></path><path d="m -480,528 l 32,16 0,3 -32,-16 z" fill="#eaebdb"></path><path d="m -448,544 l 32,-16 0,3 -32,16 z" fill="#9f958b"></path></g><g><path d="m -448,544 l 32,16 32,-16 -32,-16 z" fill="#ddd0c8"></path><path d="m -448,544 l 32,16 0,3 -32,-16 z" fill="#eaebdb"></path><path d="m -416,560 l 32,-16 0,3 -32,16 z" fill="#9f958b"></path></g><g><path d="m -416,560 l 32,16 32,-16 -32,-16 z" fill="#ece5df"></path><path d="m -416,560 l 32,16 0,3 -32,-16 z" fill="#eaebdb"></path><path d="m -384,576 l 32,-16 0,3 -32,16 z" fill="#9f958b"></path></g></g><g data-row="25"><g><path d="m -800,400 l 32,16 32,-16 -32,-16 z" fill="#ece5df"></path><path d="m -800,400 l 32,16 0,3 -32,-16 z" fill="#eaebdb"></path><path d="m -768,416 l 32,-16 0,3 -32,16 z" fill="#9f958b"></path></g><g><path d="m -768,416 l 32,16 32,-16 -32,-16 z" fill="#ddd0c8"></path><path d="m -768,416 l 32,16 0,3 -32,-16 z" fill="#eaebdb"></path><path d="m -736,432 l 32,-16 0,3 -32,16 z" fill="#9f958b"></path></g><g><path d="m -736,432 l 32,16 32,-16 -32,-16 z" fill="#ece5df"></path><path d="m -736,432 l 32,16 0,3 -32,-16 z" fill="#eaebdb"></path><path d="m -704,448 l 32,-16 0,3 -32,16 z" fill="#9f958b"></path></g><g><path d="m -704,448 l 32,16 32,-16 -32,-16 z" fill="#ddd0c8"></path><path d="m -704,448 l 32,16 0,3 -32,-16 z" fill="#eaebdb"></path><path d="m -672,464 l 32,-16 0,3 -32,16 z" fill="#9f958b"></path></g><g><path d="m -672,464 l 32,16 32,-16 -32,-16 z" fill="#ece5df"></path><path d="m -672,464 l 32,16 0,3 -32,-16 z" fill="#eaebdb"></path><path d="m -640,480 l 32,-16 0,3 -32,16 z" fill="#9f958b"></path></g><g><path d="m -640,480 l 32,16 32,-16 -32,-16 z" fill="#ddd0c8"></path><path d="m -640,480 l 32,16 0,3 -32,-16 z" fill="#eaebdb"></path><path d="m -608,496 l 32,-16 0,3 -32,16 z" fill="#9f958b"></path></g><g><path d="m -608,496 l 32,16 32,-16 -32,-16 z" fill="#ece5df"></path><path d="m -608,496 l 32,16 0,3 -32,-16 z" fill="#eaebdb"></path><path d="m -576,512 l 32,-16 0,3 -32,16 z" fill="#9f958b"></path></g><g><path d="m -576,512 l 32,16 32,-16 -32,-16 z" fill="#ddd0c8"></path><path d="m -576,512 l 32,16 0,3 -32,-16 z" fill="#eaebdb"></path><path d="m -544,528 l 32,-16 0,3 -32,16 z" fill="#9f958b"></path></g><g><path d="m -544,528 l 32,16 32,-16 -32,-16 z" fill="#ece5df"></path><path d="m -544,528 l 32,16 0,3 -32,-16 z" fill="#eaebdb"></path><path d="m -512,544 l 32,-16 0,3 -32,16 z" fill="#9f958b"></path></g><g><path d="m -512,544 l 32,16 32,-16 -32,-16 z" fill="#ddd0c8"></path><path d="m -512,544 l 32,16 0,3 -32,-16 z" fill="#eaebdb"></path><path d="m -480,560 l 32,-16 0,3 -32,16 z" fill="#9f958b"></path></g><g><path d="m -480,560 l 32,16 32,-16 -32,-16 z" fill="#ece5df"></path><path d="m -480,560 l 32,16 0,3 -32,-16 z" fill="#eaebdb"></path><path d="m -448,576 l 32,-16 0,3 -32,16 z" fill="#9f958b"></path></g><g><path d="m -448,576 l 32,16 32,-16 -32,-16 z" fill="#ddd0c8"></path><path d="m -448,576 l 32,16 0,3 -32,-16 z" fill="#eaebdb"></path><path d="m -416,592 l 32,-16 0,3 -32,16 z" fill="#9f958b"></path></g></g><g data-row="26"><g><path d="m -832,416 l 32,16 32,-16 -32,-16 z" fill="#ddd0c8"></path><path d="m -832,416 l 32,16 0,3 -32,-16 z" fill="#eaebdb"></path><path d="m -800,432 l 32,-16 0,3 -32,16 z" fill="#9f958b"></path></g><g><path d="m -800,432 l 32,16 32,-16 -32,-16 z" fill="#ece5df"></path><path d="m -800,432 l 32,16 0,3 -32,-16 z" fill="#eaebdb"></path><path d="m -768,448 l 32,-16 0,3 -32,16 z" fill="#9f958b"></path></g><g><path d="m -768,448 l 32,16 32,-16 -32,-16 z" fill="#ddd0c8"></path><path d="m -768,448 l 32,16 0,3 -32,-16 z" fill="#eaebdb"></path><path d="m -736,464 l 32,-16 0,3 -32,16 z" fill="#9f958b"></path></g><g><path d="m -736,464 l 32,16 32,-16 -32,-16 z" fill="#ece5df"></path><path d="m -736,464 l 32,16 0,3 -32,-16 z" fill="#eaebdb"></path><path d="m -704,480 l 32,-16 0,3 -32,16 z" fill="#9f958b"></path></g><g><path d="m -704,480 l 32,16 32,-16 -32,-16 z" fill="#ddd0c8"></path><path d="m -704,480 l 32,16 0,3 -32,-16 z" fill="#eaebdb"></path><path d="m -672,496 l 32,-16 0,3 -32,16 z" fill="#9f958b"></path></g><g><path d="m -672,496 l 32,16 32,-16 -32,-16 z" fill="#ece5df"></path><path d="m -672,496 l 32,16 0,3 -32,-16 z" fill="#eaebdb"></path><path d="m -640,512 l 32,-16 0,3 -32,16 z" fill="#9f958b"></path></g><g><path d="m -640,512 l 32,16 32,-16 -32,-16 z" fill="#ddd0c8"></path><path d="m -640,512 l 32,16 0,3 -32,-16 z" fill="#eaebdb"></path><path d="m -608,528 l 32,-16 0,3 -32,16 z" fill="#9f958b"></path></g><g><path d="m -608,528 l 32,16 32,-16 -32,-16 z" fill="#ece5df"></path><path d="m -608,528 l 32,16 0,3 -32,-16 z" fill="#eaebdb"></path><path d="m -576,544 l 32,-16 0,3 -32,16 z" fill="#9f958b"></path></g><g><path d="m -576,544 l 32,16 32,-16 -32,-16 z" fill="#ddd0c8"></path><path d="m -576,544 l 32,16 0,3 -32,-16 z" fill="#eaebdb"></path><path d="m -544,560 l 32,-16 0,3 -32,16 z" fill="#9f958b"></path></g><g><path d="m -544,560 l 32,16 32,-16 -32,-16 z" fill="#ece5df"></path><path d="m -544,560 l 32,16 0,3 -32,-16 z" fill="#eaebdb"></path><path d="m -512,576 l 32,-16 0,3 -32,16 z" fill="#9f958b"></path></g><g><path d="m -512,576 l 32,16 32,-16 -32,-16 z" fill="#ddd0c8"></path><path d="m -512,576 l 32,16 0,3 -32,-16 z" fill="#eaebdb"></path><path d="m -480,592 l 32,-16 0,3 -32,16 z" fill="#9f958b"></path></g><g><path d="m -480,592 l 32,16 32,-16 -32,-16 z" fill="#ece5df"></path><path d="m -480,592 l 32,16 0,3 -32,-16 z" fill="#eaebdb"></path><path d="m -448,608 l 32,-16 0,3 -32,16 z" fill="#9f958b"></path></g></g><g data-row="27"><g><path d="m -864,432 l 32,16 32,-16 -32,-16 z" fill="#ece5df"></path><path d="m -864,432 l 32,16 0,3 -32,-16 z" fill="#eaebdb"></path><path d="m -832,448 l 32,-16 0,3 -32,16 z" fill="#9f958b"></path></g><g><path d="m -832,448 l 32,16 32,-16 -32,-16 z" fill="#ddd0c8"></path><path d="m -832,448 l 32,16 0,3 -32,-16 z" fill="#eaebdb"></path><path d="m -800,464 l 32,-16 0,3 -32,16 z" fill="#9f958b"></path></g><g><path d="m -800,464 l 32,16 32,-16 -32,-16 z" fill="#ece5df"></path><path d="m -800,464 l 32,16 0,3 -32,-16 z" fill="#eaebdb"></path><path d="m -768,480 l 32,-16 0,3 -32,16 z" fill="#9f958b"></path></g><g><path d="m -768,480 l 32,16 32,-16 -32,-16 z" fill="#ddd0c8"></path><path d="m -768,480 l 32,16 0,3 -32,-16 z" fill="#eaebdb"></path><path d="m -736,496 l 32,-16 0,3 -32,16 z" fill="#9f958b"></path></g><g><path d="m -736,496 l 32,16 32,-16 -32,-16 z" fill="#ece5df"></path><path d="m -736,496 l 32,16 0,3 -32,-16 z" fill="#eaebdb"></path><path d="m -704,512 l 32,-16 0,3 -32,16 z" fill="#9f958b"></path></g><g><path d="m -704,512 l 32,16 32,-16 -32,-16 z" fill="#ddd0c8"></path><path d="m -704,512 l 32,16 0,3 -32,-16 z" fill="#eaebdb"></path><path d="m -672,528 l 32,-16 0,3 -32,16 z" fill="#9f958b"></path></g><g><path d="m -672,528 l 32,16 32,-16 -32,-16 z" fill="#ece5df"></path><path d="m -672,528 l 32,16 0,3 -32,-16 z" fill="#eaebdb"></path><path d="m -640,544 l 32,-16 0,3 -32,16 z" fill="#9f958b"></path></g><g><path d="m -640,544 l 32,16 32,-16 -32,-16 z" fill="#ddd0c8"></path><path d="m -640,544 l 32,16 0,3 -32,-16 z" fill="#eaebdb"></path><path d="m -608,560 l 32,-16 0,3 -32,16 z" fill="#9f958b"></path></g><g><path d="m -608,560 l 32,16 32,-16 -32,-16 z" fill="#ece5df"></path><path d="m -608,560 l 32,16 0,3 -32,-16 z" fill="#eaebdb"></path><path d="m -576,576 l 32,-16 0,3 -32,16 z" fill="#9f958b"></path></g><g><path d="m -576,576 l 32,16 32,-16 -32,-16 z" fill="#ddd0c8"></path><path d="m -576,576 l 32,16 0,3 -32,-16 z" fill="#eaebdb"></path><path d="m -544,592 l 32,-16 0,3 -32,16 z" fill="#9f958b"></path></g><g><path d="m -544,592 l 32,16 32,-16 -32,-16 z" fill="#ece5df"></path><path d="m -544,592 l 32,16 0,3 -32,-16 z" fill="#eaebdb"></path><path d="m -512,608 l 32,-16 0,3 -32,16 z" fill="#9f958b"></path></g><g><path d="m -512,608 l 32,16 32,-16 -32,-16 z" fill="#ddd0c8"></path><path d="m -512,608 l 32,16 0,3 -32,-16 z" fill="#eaebdb"></path><path d="m -480,624 l 32,-16 0,3 -32,16 z" fill="#9f958b"></path></g></g><g data-row="28"><g><path d="m -896,448 l 32,16 32,-16 -32,-16 z" fill="#ddd0c8"></path><path d="m -896,448 l 32,16 0,3 -32,-16 z" fill="#eaebdb"></path><path d="m -864,464 l 32,-16 0,3 -32,16 z" fill="#9f958b"></path></g><g><path d="m -864,464 l 32,16 32,-16 -32,-16 z" fill="#ece5df"></path><path d="m -864,464 l 32,16 0,3 -32,-16 z" fill="#eaebdb"></path><path d="m -832,480 l 32,-16 0,3 -32,16 z" fill="#9f958b"></path></g><g><path d="m -832,480 l 32,16 32,-16 -32,-16 z" fill="#ddd0c8"></path><path d="m -832,480 l 32,16 0,3 -32,-16 z" fill="#eaebdb"></path><path d="m -800,496 l 32,-16 0,3 -32,16 z" fill="#9f958b"></path></g><g><path d="m -800,496 l 32,16 32,-16 -32,-16 z" fill="#ece5df"></path><path d="m -800,496 l 32,16 0,3 -32,-16 z" fill="#eaebdb"></path><path d="m -768,512 l 32,-16 0,3 -32,16 z" fill="#9f958b"></path></g><g><path d="m -768,512 l 32,16 32,-16 -32,-16 z" fill="#ddd0c8"></path><path d="m -768,512 l 32,16 0,3 -32,-16 z" fill="#eaebdb"></path><path d="m -736,528 l 32,-16 0,3 -32,16 z" fill="#9f958b"></path></g><g><path d="m -736,528 l 32,16 32,-16 -32,-16 z" fill="#ece5df"></path><path d="m -736,528 l 32,16 0,3 -32,-16 z" fill="#eaebdb"></path><path d="m -704,544 l 32,-16 0,3 -32,16 z" fill="#9f958b"></path></g><g><path d="m -704,544 l 32,16 32,-16 -32,-16 z" fill="#ddd0c8"></path><path d="m -704,544 l 32,16 0,3 -32,-16 z" fill="#eaebdb"></path><path d="m -672,560 l 32,-16 0,3 -32,16 z" fill="#9f958b"></path></g><g><path d="m -672,560 l 32,16 32,-16 -32,-16 z" fill="#ece5df"></path><path d="m -672,560 l 32,16 0,3 -32,-16 z" fill="#eaebdb"></path><path d="m -640,576 l 32,-16 0,3 -32,16 z" fill="#9f958b"></path></g><g><path d="m -640,576 l 32,16 32,-16 -32,-16 z" fill="#ddd0c8"></path><path d="m -640,576 l 32,16 0,3 -32,-16 z" fill="#eaebdb"></path><path d="m -608,592 l 32,-16 0,3 -32,16 z" fill="#9f958b"></path></g><g><path d="m -608,592 l 32,16 32,-16 -32,-16 z" fill="#ece5df"></path><path d="m -608,592 l 32,16 0,3 -32,-16 z" fill="#eaebdb"></path><path d="m -576,608 l 32,-16 0,3 -32,16 z" fill="#9f958b"></path></g><g><path d="m -576,608 l 32,16 32,-16 -32,-16 z" fill="#ddd0c8"></path><path d="m -576,608 l 32,16 0,3 -32,-16 z" fill="#eaebdb"></path><path d="m -544,624 l 32,-16 0,3 -32,16 z" fill="#9f958b"></path></g><g><path d="m -544,624 l 32,16 32,-16 -32,-16 z" fill="#ece5df"></path><path d="m -544,624 l 32,16 0,3 -32,-16 z" fill="#eaebdb"></path><path d="m -512,640 l 32,-16 0,3 -32,16 z" fill="#9f958b"></path></g></g><g data-row="29"><g><path d="m -928,464 l 32,16 32,-16 -32,-16 z" fill="#ece5df"></path><path d="m -928,464 l 32,16 0,3 -32,-16 z" fill="#eaebdb"></path><path d="m -896,480 l 32,-16 0,3 -32,16 z" fill="#9f958b"></path></g><g><path d="m -896,480 l 32,16 32,-16 -32,-16 z" fill="#ddd0c8"></path><path d="m -896,480 l 32,16 0,3 -32,-16 z" fill="#eaebdb"></path><path d="m -864,496 l 32,-16 0,3 -32,16 z" fill="#9f958b"></path></g><g><path d="m -864,496 l 32,16 32,-16 -32,-16 z" fill="#ece5df"></path><path d="m -864,496 l 32,16 0,3 -32,-16 z" fill="#eaebdb"></path><path d="m -832,512 l 32,-16 0,3 -32,16 z" fill="#9f958b"></path></g><g><path d="m -832,512 l 32,16 32,-16 -32,-16 z" fill="#ddd0c8"></path><path d="m -832,512 l 32,16 0,3 -32,-16 z" fill="#eaebdb"></path><path d="m -800,528 l 32,-16 0,3 -32,16 z" fill="#9f958b"></path></g><g><path d="m -800,528 l 32,16 32,-16 -32,-16 z" fill="#ece5df"></path><path d="m -800,528 l 32,16 0,3 -32,-16 z" fill="#eaebdb"></path><path d="m -768,544 l 32,-16 0,3 -32,16 z" fill="#9f958b"></path></g><g><path d="m -768,544 l 32,16 32,-16 -32,-16 z" fill="#ddd0c8"></path><path d="m -768,544 l 32,16 0,3 -32,-16 z" fill="#eaebdb"></path><path d="m -736,560 l 32,-16 0,3 -32,16 z" fill="#9f958b"></path></g><g><path d="m -736,560 l 32,16 32,-16 -32,-16 z" fill="#ece5df"></path><path d="m -736,560 l 32,16 0,3 -32,-16 z" fill="#eaebdb"></path><path d="m -704,576 l 32,-16 0,3 -32,16 z" fill="#9f958b"></path></g><g><path d="m -704,576 l 32,16 32,-16 -32,-16 z" fill="#ddd0c8"></path><path d="m -704,576 l 32,16 0,3 -32,-16 z" fill="#eaebdb"></path><path d="m -672,592 l 32,-16 0,3 -32,16 z" fill="#9f958b"></path></g><g><path d="m -672,592 l 32,16 32,-16 -32,-16 z" fill="#ece5df"></path><path d="m -672,592 l 32,16 0,3 -32,-16 z" fill="#eaebdb"></path><path d="m -640,608 l 32,-16 0,3 -32,16 z" fill="#9f958b"></path></g><g><path d="m -640,608 l 32,16 32,-16 -32,-16 z" fill="#ddd0c8"></path><path d="m -640,608 l 32,16 0,3 -32,-16 z" fill="#eaebdb"></path><path d="m -608,624 l 32,-16 0,3 -32,16 z" fill="#9f958b"></path></g><g><path d="m -608,624 l 32,16 32,-16 -32,-16 z" fill="#ece5df"></path><path d="m -608,624 l 32,16 0,3 -32,-16 z" fill="#eaebdb"></path><path d="m -576,640 l 32,-16 0,3 -32,16 z" fill="#9f958b"></path></g><g><path d="m -576,640 l 32,16 32,-16 -32,-16 z" fill="#ddd0c8"></path><path d="m -576,640 l 32,16 0,3 -32,-16 z" fill="#eaebdb"></path><path d="m -544,656 l 32,-16 0,3 -32,16 z" fill="#9f958b"></path></g></g><g data-row="30"><g><path d="m -960,480 l 32,16 32,-16 -32,-16 z" fill="#ddd0c8"></path><path d="m -960,480 l 32,16 0,3 -32,-16 z" fill="#eaebdb"></path><path d="m -928,496 l 32,-16 0,3 -32,16 z" fill="#9f958b"></path></g><g><path d="m -928,496 l 32,16 32,-16 -32,-16 z" fill="#ece5df"></path><path d="m -928,496 l 32,16 0,3 -32,-16 z" fill="#eaebdb"></path><path d="m -896,512 l 32,-16 0,3 -32,16 z" fill="#9f958b"></path></g><g><path d="m -896,512 l 32,16 32,-16 -32,-16 z" fill="#ddd0c8"></path><path d="m -896,512 l 32,16 0,3 -32,-16 z" fill="#eaebdb"></path><path d="m -864,528 l 32,-16 0,3 -32,16 z" fill="#9f958b"></path></g><g><path d="m -864,528 l 32,16 32,-16 -32,-16 z" fill="#ece5df"></path><path d="m -864,528 l 32,16 0,3 -32,-16 z" fill="#eaebdb"></path><path d="m -832,544 l 32,-16 0,3 -32,16 z" fill="#9f958b"></path></g><g><path d="m -832,544 l 32,16 32,-16 -32,-16 z" fill="#ddd0c8"></path><path d="m -832,544 l 32,16 0,3 -32,-16 z" fill="#eaebdb"></path><path d="m -800,560 l 32,-16 0,3 -32,16 z" fill="#9f958b"></path></g><g><path d="m -800,560 l 32,16 32,-16 -32,-16 z" fill="#ece5df"></path><path d="m -800,560 l 32,16 0,3 -32,-16 z" fill="#eaebdb"></path><path d="m -768,576 l 32,-16 0,3 -32,16 z" fill="#9f958b"></path></g><g><path d="m -768,576 l 32,16 32,-16 -32,-16 z" fill="#ddd0c8"></path><path d="m -768,576 l 32,16 0,3 -32,-16 z" fill="#eaebdb"></path><path d="m -736,592 l 32,-16 0,3 -32,16 z" fill="#9f958b"></path></g><g><path d="m -736,592 l 32,16 32,-16 -32,-16 z" fill="#ece5df"></path><path d="m -736,592 l 32,16 0,3 -32,-16 z" fill="#eaebdb"></path><path d="m -704,608 l 32,-16 0,3 -32,16 z" fill="#9f958b"></path></g><g><path d="m -704,608 l 32,16 32,-16 -32,-16 z" fill="#ddd0c8"></path><path d="m -704,608 l 32,16 0,3 -32,-16 z" fill="#eaebdb"></path><path d="m -672,624 l 32,-16 0,3 -32,16 z" fill="#9f958b"></path></g><g><path d="m -672,624 l 32,16 32,-16 -32,-16 z" fill="#ece5df"></path><path d="m -672,624 l 32,16 0,3 -32,-16 z" fill="#eaebdb"></path><path d="m -640,640 l 32,-16 0,3 -32,16 z" fill="#9f958b"></path></g><g><path d="m -640,640 l 32,16 32,-16 -32,-16 z" fill="#ddd0c8"></path><path d="m -640,640 l 32,16 0,3 -32,-16 z" fill="#eaebdb"></path><path d="m -608,656 l 32,-16 0,3 -32,16 z" fill="#9f958b"></path></g><g><path d="m -608,656 l 32,16 32,-16 -32,-16 z" fill="#ece5df"></path><path d="m -608,656 l 32,16 0,3 -32,-16 z" fill="#eaebdb"></path><path d="m -576,672 l 32,-16 0,3 -32,16 z" fill="#9f958b"></path></g></g><g data-row="31"><g><path d="m -992,496 l 32,16 32,-16 -32,-16 z" fill="#ece5df"></path><path d="m -992,496 l 32,16 0,3 -32,-16 z" fill="#eaebdb"></path><path d="m -960,512 l 32,-16 0,3 -32,16 z" fill="#9f958b"></path></g><g><path d="m -960,512 l 32,16 32,-16 -32,-16 z" fill="#ddd0c8"></path><path d="m -960,512 l 32,16 0,3 -32,-16 z" fill="#eaebdb"></path><path d="m -928,528 l 32,-16 0,3 -32,16 z" fill="#9f958b"></path></g><g><path d="m -928,528 l 32,16 32,-16 -32,-16 z" fill="#ece5df"></path><path d="m -928,528 l 32,16 0,3 -32,-16 z" fill="#eaebdb"></path><path d="m -896,544 l 32,-16 0,3 -32,16 z" fill="#9f958b"></path></g><g><path d="m -896,544 l 32,16 32,-16 -32,-16 z" fill="#ddd0c8"></path><path d="m -896,544 l 32,16 0,3 -32,-16 z" fill="#eaebdb"></path><path d="m -864,560 l 32,-16 0,3 -32,16 z" fill="#9f958b"></path></g><g><path d="m -864,560 l 32,16 32,-16 -32,-16 z" fill="#ece5df"></path><path d="m -864,560 l 32,16 0,3 -32,-16 z" fill="#eaebdb"></path><path d="m -832,576 l 32,-16 0,3 -32,16 z" fill="#9f958b"></path></g><g><path d="m -832,576 l 32,16 32,-16 -32,-16 z" fill="#ddd0c8"></path><path d="m -832,576 l 32,16 0,3 -32,-16 z" fill="#eaebdb"></path><path d="m -800,592 l 32,-16 0,3 -32,16 z" fill="#9f958b"></path></g><g><path d="m -800,592 l 32,16 32,-16 -32,-16 z" fill="#ece5df"></path><path d="m -800,592 l 32,16 0,3 -32,-16 z" fill="#eaebdb"></path><path d="m -768,608 l 32,-16 0,3 -32,16 z" fill="#9f958b"></path></g><g><path d="m -768,608 l 32,16 32,-16 -32,-16 z" fill="#ddd0c8"></path><path d="m -768,608 l 32,16 0,3 -32,-16 z" fill="#eaebdb"></path><path d="m -736,624 l 32,-16 0,3 -32,16 z" fill="#9f958b"></path></g><g><path d="m -736,624 l 32,16 32,-16 -32,-16 z" fill="#ece5df"></path><path d="m -736,624 l 32,16 0,3 -32,-16 z" fill="#eaebdb"></path><path d="m -704,640 l 32,-16 0,3 -32,16 z" fill="#9f958b"></path></g><g><path d="m -704,640 l 32,16 32,-16 -32,-16 z" fill="#ddd0c8"></path><path d="m -704,640 l 32,16 0,3 -32,-16 z" fill="#eaebdb"></path><path d="m -672,656 l 32,-16 0,3 -32,16 z" fill="#9f958b"></path></g><g><path d="m -672,656 l 32,16 32,-16 -32,-16 z" fill="#ece5df"></path><path d="m -672,656 l 32,16 0,3 -32,-16 z" fill="#eaebdb"></path><path d="m -640,672 l 32,-16 0,3 -32,16 z" fill="#9f958b"></path></g><g><path d="m -640,672 l 32,16 32,-16 -32,-16 z" fill="#ddd0c8"></path><path d="m -640,672 l 32,16 0,3 -32,-16 z" fill="#eaebdb"></path><path d="m -608,688 l 32,-16 0,3 -32,16 z" fill="#9f958b"></path></g></g></g>
</svg>