<svg xmlns="http://www.w3.org/2000/svg" xmlns:xlink="http://www.w3.org/1999/xlink" version="1.1" id="Layer_1" x="0" y="0" viewBox="0 0 75.591 75.591" xml:space="preserve" width="2cm" height="2cm"><defs id="defs11"><linearGradient id="SVGID_1_" gradientUnits="userSpaceOnUse" x1="756.987" y1="822.319" x2="1792.932" y2="1708.097" gradientTransform="matrix(1.25 0 0 -1.25 -159.784 3002)"><stop offset="0" style="stop-color:#beea2e" id="stop4"/><stop offset="1" style="stop-color:#52ba00" id="stop6"/></linearGradient><linearGradient xlink:href="#SVGID_1_" id="linearGradient872" gradientUnits="userSpaceOnUse" gradientTransform="matrix(.0216 0 0 -.0216 10.748 54.864)" x1="756.987" y1="822.319" x2="1792.932" y2="1708.097"/></defs><style type="text/css" id="style2">.st0{fill:url(#SVGID_1_)}</style><path class="st0" d="m13.51 9.903 12.208 5.775v23.759L13.51 33.662Zm18.478-6.93-17.892 6.36 12.1 5.812 17.836-6.397Zm-.33 10.87v14.538l12.705 4.949V9.279Z" id="path9" style="fill:url(#linearGradient872);stroke-width:.01728548"/><g id="g822" transform="translate(-4.078 68.802) scale(.01566)"><path style="fill:#1e1e1e" id="path4" d="M1705.5-2566.01c-522.8 2.1-946.1 425.4-948.2 948.2 0 104.7 16.9 208.7 50 308 24.7 67.6 98 104 166.8 83.1 66.5-25.5 101.8-98.2 80.6-166.2-28.1-77.4-40.6-159.5-36.9-241.7 11.4-377.6 326.7-674.5 704.3-663.1 377.6 11.4 674.5 326.7 663.1 704.3-10.7 353.5-289.1 640.6-642.2 662.1 0 0-133.1 8.1-199.3 16.2-24.4 3.5-48.6 8.3-72.5 14.4-3.4 3.5-8.9 3.5-12.4.1l-.1-.1c-2.4-3.1-2.4-7.5 0-10.6l20.6-112.4 125-562.2c15-70.2-29.7-139.3-99.9-154.3s-139.3 29.7-154.3 99.9c0 0-297.3 1376.1-297.3 1388.6-17 66.9 23.4 134.9 90.3 151.9.7.2 1.5.4 2.2.5h6.9c66.8 17.3 135-22.9 152.2-89.7.3-1.1.6-2.2.8-3.4-.2-2.1-.2-4.2 0-6.2 3.7-16.2 41.2-199.3 41.2-199.3 28.4-138.2 139.8-244.1 279.2-265.5 28.7-4.4 149.3-12.5 149.3-12.5 520.8-51.9 900.9-516.2 848.9-1037-47.4-475-440.9-840.7-918.3-853.1z" class="st0"/><path style="fill:#e6007a" id="path6" d="M1763-379.71c-85.5-17.8-169.1 37.1-186.9 122.5-.2.8-.3 1.6-.5 2.4-18.5 84.9 35.3 168.8 120.3 187.3.1 0 .2 0 .3.1h4.4c83.2 20.1 166.9-31.1 186.9-114.2.2-.6.3-1.3.5-1.9v-8.7c14.7-85.8-40.1-168.1-125-187.5z"/></g><g id="g913" transform="translate(-36.631 -67.372)"><path id="path876" d="M89.093 117.267v11.596l14.198-20.05z" style="fill:#3c3c3b;stroke-width:.1083767"/><path id="path878" d="m89.093 82.478 14.198 23.626-14.198 8.454-14.305-8.454" style="fill:#343434;stroke-width:.1083767"/><path id="path880" d="M89.093 82.478v17.124l-14.305 6.502m0 2.71 14.305 8.453v11.596" style="fill:#8c8c8c;stroke-width:.1083767"/><path id="path882" d="M89.093 99.602v14.956l14.198-8.454" style="fill:#141414;stroke-width:.1083767"/><path id="path884" d="m74.788 106.104 14.305-6.502v14.956" style="fill:#393939;stroke-width:.1083767"/></g></svg>