<svg xmlns="http://www.w3.org/2000/svg" width="2cm" height="2cm" viewBox="0 0 75.591 75.591"><path d="M47.904 70.533c-3.012-.541-5.547-1.028-5.634-1.082-.087-.054-.158-.226-.158-.384 0-.52 1.304-7.753 1.518-8.42.116-.36.523-2.57.906-4.91.524-3.205.658-4.319.54-4.508-.188-.301-3.542-2.636-3.798-2.645-.1-.003-.499-.202-.889-.442s-.781-.436-.87-.436c-.088 0-.532.638-.985 1.418-.454.78-1.004 1.614-1.222 1.854-.218.24-1.2 1.81-2.183 3.49-.982 1.679-1.875 3.158-1.985 3.286-.176.206-1.037.242-7.476.308-4.194.043-7.334.132-7.412.21-.075.075-.236.918-.36 1.873-.277 2.163-.39 2.52-.978 3.076-.736.696-.994.77-2.697.77-1.528 0-1.595-.013-1.68-.327-.165-.62-.102-11.45.07-11.77.16-.3.167-.3 8.416-.193l8.255.107.671-2.015c.37-1.108.672-2.138.672-2.289 0-.15.401-1.492.891-2.98.89-2.701.891-2.71.924-4.597.022-1.292.133-2.35.35-3.344.443-2.035 1.768-9.976 1.686-10.108-.037-.06-.837.11-1.777.378-.941.268-1.9.49-2.13.492-.637.008-1.546.32-1.678.576-.065.126-.163 1.417-.219 2.87-.099 2.606-.096 2.65.254 3.344.547 1.086 1.117 2.776 1.117 3.313 0 .677-.386 1.084-1.152 1.212l-.643.108-.172.86c-.179.898-.683 1.535-1.213 1.535-.683 0-1.86-.498-2.361-1-.897-.897-1.026-1.948-.637-5.18.142-1.176.212-3.25.214-6.368.003-4.878.055-5.298.688-5.55.143-.056 1.11-.402 2.15-.767 1.04-.366 2.023-.75 2.185-.855.161-.104 1.732-.674 3.49-1.265l3.195-1.076 1.624.146c.894.08 1.728.105 1.854.057.187-.072.23-.35.23-1.514v-1.426l-1.03-1.014c-.565-.558-1.2-1.304-1.41-1.659-.356-.6-.386-.79-.441-2.762-.088-3.186.23-4.419 1.46-5.665.342-.345.948-.8 1.348-1.012l.727-.385h10.614l.042 1.269c.06 1.837-.291 2.389-1.642 2.576l-.581.08-.041 1.713-.041 1.712.731 1.424c.403.783.732 1.498.732 1.59 0 .09-.294.294-.654.453l-.655.29v1.088c0 1.462-.14 1.605-1.437 1.448a17.94 17.94 0 0 0-1.689-.118l-.727-.003-.042 1.2c-.05 1.433-.06 1.424 1.885 1.567.912.067 1.317.16 1.466.335.249.294 3.598 7.177 3.598 7.395 0 .255.7 1.756.867 1.86.086.052 1.021-.385 2.079-.972 1.752-.973 1.985-1.151 2.623-2.01.967-1.3 1.832-2.173 2.393-2.415.41-.176.53-.175.878.004.222.115.494.378.604.585.233.435.364.454 1.075.158 1.472-.616 2.421.232 2.421 2.163 0 1.546-.79 2.231-4.289 3.723-.88.375-3.202 1.582-5.162 2.682-1.959 1.1-3.764 2.034-4.012 2.075-.842.139-1.21-.22-2.444-2.38-1.084-1.899-2.081-3.393-2.264-3.393-.045 0-.634 2.217-1.307 4.925l-1.226 4.925 1.52 1.63c.835.897 1.579 1.74 1.653 1.873.074.133 1.186 1.343 2.472 2.689 2.396 2.509 2.683 2.866 2.7 3.37.006.16-.513 3.005-1.153 6.324-1.077 5.59-1.367 7.221-1.569 8.83l-.077.615 1.945.923c2.764 1.311 3.184 1.87 2.988 3.97-.106 1.128-.293 1.516-.721 1.494-.177-.01-2.786-.46-5.798-1.002z" style="fill:none;stroke-width:1.5;stroke:#000;stroke-opacity:1;stroke-miterlimit:4;stroke-dasharray:none"/></svg>