<?xml version="1.0" standalone="no"?>
<!DOCTYPE svg PUBLIC "-//W3C//DTD SVG 20010904//EN"
 "http://www.w3.org/TR/2001/REC-SVG-20010904/DTD/svg10.dtd">
<svg version="1.0" xmlns="http://www.w3.org/2000/svg"
 width="1344.000000pt" height="1344.000000pt" viewBox="0 0 1344.000000 1344.000000"
 preserveAspectRatio="xMidYMid meet">
<metadata>
Created by potrace 1.14, written by Peter Selinger 2001-2017
</metadata>
<g transform="translate(0.000000,1344.000000) scale(0.100000,-0.100000)"
fill="#000000" stroke="none">
<path d="M10 6720 l0 -3840 6714 0 6714 0 0 3840 0 3840 -958 0 -958 0 -1 -65
c-1 -36 -1 -73 -1 -82 0 -10 0 -68 1 -130 1 -61 -2 -116 -6 -122 -3 -6 -3 -11
2 -11 4 0 7 -46 5 -102 -1 -57 -2 -110 -2 -118 2 -237 1 -300 -5 -309 -3 -6
-3 -11 2 -11 4 0 8 -56 8 -125 0 -69 -4 -125 -8 -125 -5 0 -5 -5 -1 -11 8 -14
8 -194 0 -208 -4 -6 -4 -11 1 -11 4 0 8 -56 8 -125 0 -69 -4 -125 -8 -125 -5
0 -5 -5 -1 -11 8 -14 8 -194 0 -208 -4 -6 -4 -11 1 -11 9 0 8 -542 -1 -565 -3
-8 -2 -15 2 -15 4 0 6 -46 4 -102 -1 -57 -2 -110 -2 -118 2 -195 1 -240 -5
-249 -3 -6 -3 -11 2 -11 4 0 7 -46 5 -102 -1 -57 -2 -110 -2 -118 2 -237 1
-300 -5 -309 -3 -6 -3 -11 2 -11 4 0 8 -56 8 -125 0 -69 -4 -125 -8 -125 -5 0
-5 -5 -1 -11 3 -6 6 -53 6 -104 0 -51 -3 -98 -6 -104 -4 -6 -4 -11 1 -11 4 0
8 -56 8 -125 0 -69 -4 -125 -8 -125 -5 0 -5 -5 -1 -11 8 -14 8 -194 0 -208 -4
-6 -4 -11 1 -11 9 0 8 -542 -1 -565 -3 -8 -2 -15 2 -15 4 0 6 -46 4 -102 -1
-57 -2 -110 -2 -118 2 -195 1 -240 -5 -249 -3 -6 -3 -11 2 -11 4 0 7 -46 5
-102 -1 -57 -3 -107 -2 -113 0 -5 0 -68 1 -140 0 -71 0 -144 0 -160 l-1 -30
-4789 0 c-2634 0 -4793 3 -4796 7 -4 4 -7 1371 -7 3038 l1 3030 -959 0 -960 0
0 -3840z"/>
<path d="M2908 9283 c-10 -3 -18 -10 -19 -16 -4 -59 1 -1900 5 -1905 8 -7
3505 -9 3507 -2 1 3 2 432 3 953 1 624 -2 951 -9 956 -5 4 -682 7 -1503 7
-843 -1 -1492 3 -1492 8 0 5 -6 4 -12 0 -16 -11 -68 -11 -85 -1 -7 5 -13 4
-13 0 0 -10 -61 -10 -78 1 -7 4 -12 4 -12 -1 0 -4 -16 -8 -35 -8 -19 0 -35 4
-35 9 0 5 -6 4 -12 0 -16 -11 -68 -11 -85 -1 -7 5 -13 4 -13 0 0 -9 -70 -10
-86 -1 -5 2 -17 3 -26 1z"/>
<path d="M7196 9283 c-3 -3 -39 -6 -81 -5 l-74 1 3 -34 c1 -19 -2 -35 -6 -35
-5 0 -6 -6 -2 -12 5 -7 8 -22 8 -33 0 -11 -3 -26 -8 -33 -4 -6 -3 -12 1 -12 5
0 8 -15 6 -32 -2 -18 -3 -43 -3 -55 0 -13 0 -36 0 -53 0 -16 0 -37 0 -45 0
-21 0 -132 0 -147 0 -7 1 -44 3 -83 1 -38 -1 -76 -6 -82 -5 -7 -6 -13 -1 -13
5 0 9 -274 9 -621 0 -394 3 -623 10 -627 13 -8 3484 -9 3497 -1 12 7 16 698 5
716 -4 6 -4 13 0 16 5 6 8 599 3 622 -1 6 -2 12 -1 15 2 5 3 482 2 525 -1 20
-8 20 -1664 20 -914 0 -1669 3 -1678 7 -9 4 -19 4 -23 1z"/>
<path d="M3467 7043 c-3 -5 -134 -8 -291 -8 -252 1 -286 -1 -287 -15 -4 -110
0 -1893 5 -1897 9 -10 50 -10 64 0 6 5 12 6 12 1 0 -5 29 -9 65 -9 36 0 65 4
65 8 0 5 6 5 12 1 16 -10 149 -11 155 -1 2 4 9 4 16 0 16 -10 58 -10 63 -1 3
5 10 5 17 1 16 -10 58 -10 63 -1 3 5 10 5 17 1 16 -10 58 -10 63 -1 3 5 10 5
17 1 16 -10 58 -10 63 -1 3 5 10 5 17 1 16 -10 58 -10 63 -1 3 5 10 5 17 1 16
-10 58 -10 63 -1 3 5 10 5 17 1 15 -9 57 -10 63 -1 3 4 10 5 17 3 26 -10 77
-12 77 -3 0 5 5 6 12 2 17 -11 78 -11 78 -1 0 4 5 5 12 1 17 -11 78 -11 78 -1
0 4 5 5 12 1 17 -11 78 -11 78 -1 0 4 5 5 12 1 17 -11 108 -11 108 -1 0 5 5 5
12 1 18 -11 78 -11 78 -1 0 6 5 6 13 0 14 -10 107 -10 125 1 7 4 12 3 12 -1 0
-5 19 -8 43 -6 49 4 46 4 120 0 31 -1 57 2 57 6 0 6 5 6 13 1 15 -11 67 -11
85 -1 6 5 12 5 12 0 0 -4 29 -8 65 -8 36 0 65 4 65 8 0 5 6 5 13 0 16 -10 68
-11 88 -1 9 4 19 4 23 1 9 -10 116 -9 116 0 0 5 6 5 13 0 17 -10 69 -10 85 1
6 4 12 5 12 0 0 -11 121 -11 138 0 7 4 12 4 12 -1 0 -4 23 -8 50 -8 28 0 50 4
50 9 0 5 6 4 13 -1 15 -10 97 -10 115 0 6 5 12 4 12 0 0 -5 26 -7 58 -6 68 4
67 4 117 0 22 -2 46 1 53 6 6 5 12 6 12 1 0 -11 151 -11 168 0 7 4 12 4 12 -1
0 -4 23 -8 50 -8 28 0 50 4 50 9 0 5 6 4 13 -1 10 -7 66 -9 112 -4 12 1 15
1903 3 1911 -4 3 -82 6 -173 5 -104 0 -165 4 -165 10 0 7 -3 7 -8 0 -8 -12
-311 -14 -329 -2 -7 5 -13 5 -13 0 0 -10 -931 -10 -947 0 -7 5 -13 5 -13 0 0
-12 -603 -10 -612 2 -5 7 -8 7 -8 0 0 -6 -60 -10 -160 -10 -88 0 -160 4 -160
9 0 5 -6 4 -12 -1 -15 -11 -297 -11 -315 0 -6 4 -14 4 -16 0z"/>
<path d="M7120 7043 c0 -5 -17 -8 -37 -8 l-38 0 0 -957 c0 -527 2 -958 5 -959
29 -5 80 -3 80 4 0 4 5 5 12 1 17 -11 108 -11 108 0 0 5 6 4 13 -1 6 -5 37 -7
67 -6 30 2 61 3 68 3 6 0 32 0 57 0 73 0 76 0 170 -3 50 -1 96 2 103 7 7 5 12
5 12 0 0 -5 25 -9 55 -9 30 0 55 4 55 8 0 5 5 5 12 1 17 -11 108 -11 108 0 0
5 6 4 13 -1 6 -5 30 -8 52 -6 22 2 46 3 53 3 6 0 32 0 57 0 25 0 52 0 60 0 8
0 35 0 60 0 25 0 52 0 60 0 8 0 34 -1 58 -3 23 -1 48 2 55 7 7 5 12 5 12 0 0
-11 91 -11 108 0 7 4 12 4 12 -1 0 -10 91 -10 108 1 7 4 12 3 12 -1 0 -5 26
-7 58 -6 31 2 62 3 67 3 6 0 67 -1 138 -3 70 -1 127 2 127 7 0 5 6 4 13 -1 6
-5 44 -7 82 -6 88 4 77 4 163 0 39 -1 72 2 72 7 0 5 5 5 13 -1 15 -10 127 -10
145 0 7 5 12 3 12 -3 0 -8 6 -8 20 0 11 6 20 7 20 3 0 -10 241 -9 258 1 7 4
12 4 12 -1 0 -4 43 -8 95 -8 52 0 95 4 95 8 0 5 5 5 12 1 17 -11 228 -11 228
-1 0 5 5 5 12 1 19 -12 228 -11 229 1 3 38 1 104 -4 117 -3 9 -3 19 0 22 9 8
9 266 1 266 -4 0 -5 7 -1 16 9 24 9 614 0 614 -5 0 -5 5 -1 11 6 10 9 595 4
624 -1 6 -1 15 0 20 6 26 4 198 -2 208 -5 8 -44 13 -105 14 -118 3 -90 3 -256
0 -86 -1 -137 2 -137 8 0 7 -3 7 -8 0 -8 -12 -211 -13 -229 -2 -7 5 -13 5 -13
0 0 -4 -35 -7 -77 -6 -100 3 -82 3 -201 0 -57 -1 -106 1 -109 6 -2 4 -10 4
-16 0 -17 -10 -300 -10 -314 0 -7 5 -13 6 -13 1 0 -5 -45 -9 -100 -9 -60 0
-100 4 -100 10 0 6 -3 6 -8 0 -4 -7 -62 -11 -147 -11 -85 0 -143 4 -147 11 -5
7 -8 7 -8 0 0 -12 -258 -14 -277 -2 -6 4 -14 4 -16 -1 -6 -9 -288 -9 -303 0
-6 4 -14 4 -18 0 -10 -10 -526 -9 -526 1 0 5 -6 5 -12 0 -18 -11 -271 -11
-285 0 -8 6 -13 6 -13 0z"/>
</g>
</svg>
