<svg xmlns="http://www.w3.org/2000/svg" viewBox="0 0 606.29 96.16"><defs><style>.cls-1,.cls-2{fill:#cd553e;stroke:#cd553e;stroke-miterlimit:10;stroke-width:5px}.cls-2{fill:#231812;stroke:#231812}</style></defs><g id="Layer_2" data-name="Layer 2"><g id="Camada_1" data-name="Camada 1"><path class="cls-1" d="M2.52 91.51 34.62 3q.24-.48.6-.48h4.08c.24 0 .43.16.6.48L72 91.51q.24.72-.48.72h-4q-.36 0-.6-.48l-29.3-81.34q-.12-.36-.36-.36t-.36.36L7.55 91.75q-.24.48-.6.48H3q-.6 0-.48-.72ZM124.83 91.63l26.47-44.69a.59.59 0 0 0 0-.71l-25.15-43c-.24-.48-.09-.72.48-.72h4.19q.6 0 .6.12l.12.24 22.4 38.33q.36.72.72 0l22.88-38.34a.81.81 0 0 1 .72-.36h4.31q.72 0 .36.72l-25.52 43.12a1.11 1.11 0 0 0 0 .72l26 44.57q.36.72-.48.72h-4.32q-.48 0-.48-.24l-.35-.48-23.12-39.53q-.36-.72-.72 0L130.22 92q-.12.36-.72.36h-4.31q-.72-.01-.36-.73Z"/><path class="cls-2" d="M236.23 91.63V3.1a.53.53 0 0 1 .6-.6h3.72a.53.53 0 0 1 .6.6v83.73a.52.52 0 0 0 .6.6h39.89a.53.53 0 0 1 .6.6v3.6a.53.53 0 0 1-.6.6h-44.81a.53.53 0 0 1-.6-.6ZM334.94 91.51 367.05 3q.24-.48.6-.48h4.07q.36 0 .6.48l32.1 88.53q.24.72-.48.72H400q-.36 0-.6-.48L370 10.41q-.12-.36-.36-.36t-.36.36L340 91.75c-.16.32-.36.48-.59.48h-4q-.59 0-.47-.72ZM457.73 42.27H478a20.07 20.07 0 0 0 9.71-2.39 19.25 19.25 0 0 0 7.06-6.41 15.61 15.61 0 0 0 0-17.37 19.17 19.17 0 0 0-7.06-6.41 20.07 20.07 0 0 0-9.71-2.4h-20.27a.53.53 0 0 1-.6-.6V3.1a.53.53 0 0 1 .6-.6H478a25.34 25.34 0 0 1 12.16 3 23.16 23.16 0 0 1 8.81 8.15 20.86 20.86 0 0 1-.18 22.58 23 23 0 0 1-9.17 8.09 28.12 28.12 0 0 1 12.46 9.22A22.11 22.11 0 0 1 507 67.31a24.6 24.6 0 0 1-3.35 12.58 25.39 25.39 0 0 1-9.11 9.16 23.91 23.91 0 0 1-12.45 3.42h-24.36a.53.53 0 0 1-.6-.6v-3.6a.53.53 0 0 1 .6-.6h24.32a19.14 19.14 0 0 0 10-2.75 20.42 20.42 0 0 0 7.31-7.43 20.07 20.07 0 0 0 2.69-10.18 17 17 0 0 0-3.35-10.24 23.84 23.84 0 0 0-8.7-7.31 23.52 23.52 0 0 0-10.72-2.7h-21.55a.53.53 0 0 1-.6-.6v-3.59a.53.53 0 0 1 .6-.6ZM556.44 81.56l3.35-1.79a.61.61 0 0 1 .72.24 17.78 17.78 0 0 0 6.77 6.17A21.33 21.33 0 0 0 578 88.87q8.87 0 14.74-4.73a15.17 15.17 0 0 0 5.87-12.4 17.08 17.08 0 0 0-2.46-9.22 23.13 23.13 0 0 0-6.47-6.77 99.38 99.38 0 0 0-10.36-6.17 138.42 138.42 0 0 1-13-7.67 27.44 27.44 0 0 1-7.32-7.48 18.72 18.72 0 0 1-2.87-10.49 18 18 0 0 1 3.59-10.72 25 25 0 0 1 9.47-7.84 27.63 27.63 0 0 1 12.29-2.88 31.23 31.23 0 0 1 12.63 2.64 26.59 26.59 0 0 1 9.53 6.58.54.54 0 0 1-.12.84l-3.12 1.92q-.6.24-.84-.12-2-2.52-7.42-4.79a27 27 0 0 0-10.55-2.28 23.39 23.39 0 0 0-10.18 2.28 20 20 0 0 0-7.67 6.17 14 14 0 0 0-2.87 8.44 14.18 14.18 0 0 0 2.64 8.63 23.32 23.32 0 0 0 6.29 5.93q3.65 2.34 11.79 6.65a88 88 0 0 1 11.92 7.3 27.14 27.14 0 0 1 7.31 8.15 21.64 21.64 0 0 1 2.7 11 19.47 19.47 0 0 1-3.42 11.32 22.72 22.72 0 0 1-9.22 7.73 29.52 29.52 0 0 1-12.76 2.75 28.12 28.12 0 0 1-12.76-3.17 21.09 21.09 0 0 1-9.16-8.21q-.2-.58.24-.7Z"/></g></g></svg>