<svg xmlns="http://www.w3.org/2000/svg" xmlns:xlink="http://www.w3.org/1999/xlink" width="218.147" height="38.388" viewBox="0 0 57.718 10.157"><defs><linearGradient id="b"><stop style="stop-color:#fffffc;stop-opacity:1" offset="0"/><stop style="stop-color:#fffffc;stop-opacity:0" offset="1"/></linearGradient><linearGradient id="a"><stop style="stop-color:#000009;stop-opacity:.76169264" offset="0"/><stop offset=".778" style="stop-color:#000;stop-opacity:.15812917"/><stop style="stop-color:#000;stop-opacity:.02004454" offset="1"/></linearGradient><linearGradient xlink:href="#a" id="c" x1="77.674" y1="209.021" x2="55.844" y2="185.228" gradientUnits="userSpaceOnUse" gradientTransform="matrix(.14293 0 0 .14293 77.478 124.337)"/><linearGradient xlink:href="#b" id="d" x1="164.794" y1="218.645" x2=".648" y2="92.453" gradientUnits="userSpaceOnUse" gradientTransform="matrix(.32485 0 0 .11442 74.694 138.242)"/><linearGradient xlink:href="#b" id="e" x1="78.702" y1="148.167" x2="80.755" y2="151.342" gradientUnits="userSpaceOnUse" gradientTransform="matrix(1.41786 0 0 1.00107 -33.007 1.425)"/><linearGradient xlink:href="#b" id="f" x1="78.702" y1="148.167" x2="80.755" y2="151.342" gradientUnits="userSpaceOnUse" gradientTransform="matrix(1.41786 0 0 1 -33.007 1.587)"/><linearGradient xlink:href="#b" id="g" x1="78.702" y1="148.167" x2="80.755" y2="151.342" gradientUnits="userSpaceOnUse" gradientTransform="matrix(1.41786 0 0 1.00107 -31.155 3.806)"/></defs><path style="fill:#000;fill-opacity:1;stroke:none;stroke-width:.02732436px;stroke-linecap:butt;stroke-linejoin:miter;stroke-opacity:1" d="M78.846 149.75v6.354h11.112v-6.354h-1.587v5.027h-7.938v-5.027z" transform="translate(-78.846 -149.75)"/><path style="fill:#18802a;fill-opacity:1;stroke:none;stroke-width:.0378795px;stroke-linecap:butt;stroke-linejoin:miter;stroke-opacity:1" d="M81.227 154.252v-1.587h2.91v1.587zM84.667 154.252v-1.587h2.91v1.587z" transform="translate(-78.846 -149.75)"/><path style="fill:#25c340;fill-opacity:1;stroke:none;stroke-width:.0378796px;stroke-linecap:butt;stroke-linejoin:miter;stroke-opacity:1" d="M81.227 152.4v-1.588h2.91v1.588zM84.667 152.4l-.003-1.59 2.913.003v1.587z" transform="translate(-78.846 -149.75)"/><path style="fill:url(#c);fill-opacity:1;stroke:none;stroke-width:.0378795px;stroke-linecap:butt;stroke-linejoin:miter;stroke-opacity:1" d="m85.99 150.812-1.323 1.323v.265h2.91v-1.588zm-1.852 1.853-1.588 1.587h1.588zm.529 0v1.587h2.91v-1.587z" transform="translate(-78.846 -149.75)"/><path style="fill:url(#d);fill-opacity:1;fill-rule:evenodd;stroke:none;stroke-width:.05101041px;stroke-linecap:butt;stroke-linejoin:miter;stroke-opacity:1" d="m88.37 154.777-1.587 1.327h-7.937v-6.354h1.587v5.027z" transform="translate(-78.846 -149.75)"/><path style="opacity:.33680019;fill:url(#e);fill-opacity:1;stroke-width:.31521708" d="M78.846 149.75h1.587v2.384l-1.587 1.589z" transform="translate(-78.846 -149.75)"/><path style="fill:url(#f);fill-opacity:1;stroke-width:.31504902" d="M81.227 150.808h.53l-.53.534z" transform="translate(-78.846 -149.75)"/><path style="opacity:.33680019;fill:url(#g);fill-opacity:1;stroke-width:.31521708" d="M80.433 154.777h1.588l-1.323 1.327-1.588-.004z" transform="translate(-78.846 -149.75)"/><path style="fill:#000a00;fill-opacity:1;stroke-width:.26458332" d="M91.767 155.642a.171.171 0 0 1-.126-.052.171.171 0 0 1-.052-.126v-4.823c0-.054.015-.099.045-.133a.18.18 0 0 1 .133-.052h3.215a.18.18 0 0 1 .134.052.18.18 0 0 1 .051.133v.519a.18.18 0 0 1-.051.133.198.198 0 0 1-.134.044h-2.378v1.408h2.23a.18.18 0 0 1 .133.052.18.18 0 0 1 .052.133v.519a.18.18 0 0 1-.052.133.198.198 0 0 1-.133.045h-2.23v1.837a.18.18 0 0 1-.052.133.198.198 0 0 1-.133.045zM96.135 155.642a.171.171 0 0 1-.126-.052.171.171 0 0 1-.052-.126v-4.904c0-.055.017-.097.052-.126a.171.171 0 0 1 .126-.052h.615c.054 0 .096.017.126.052.034.03.052.071.052.126v4.904c0 .05-.018.091-.052.126a.157.157 0 0 1-.126.052zM99.029 155.716c-.252 0-.484-.05-.696-.148a1.324 1.324 0 0 1-.497-.415.987.987 0 0 1-.178-.57c0-.337.136-.608.408-.816.271-.207.644-.348 1.118-.422l1.015-.148v-.156c0-.217-.054-.38-.163-.489-.108-.108-.284-.163-.526-.163a.75.75 0 0 0-.4.097c-.098.059-.177.118-.237.178-.059.064-.098.106-.118.125-.02.06-.057.09-.111.09h-.57a.177.177 0 0 1-.12-.045.16.16 0 0 1-.044-.119c.005-.123.064-.264.178-.422.119-.158.299-.294.54-.407.243-.114.54-.17.89-.17.583 0 1.007.13 1.274.392.267.262.4.605.4 1.03v2.326c0 .05-.017.091-.052.126a.157.157 0 0 1-.126.052h-.6a.171.171 0 0 1-.126-.052.172.172 0 0 1-.052-.126v-.29a1.232 1.232 0 0 1-.466.394c-.198.098-.445.148-.741.148zm.252-.704a.89.89 0 0 0 .667-.267c.172-.178.259-.437.259-.778v-.155l-.741.118c-.286.045-.504.116-.652.215-.143.099-.215.22-.215.363 0 .158.067.282.2.37a.848.848 0 0 0 .482.134zM103.847 155.642c-.45 0-.787-.116-1.015-.349-.222-.237-.333-.582-.333-1.037v-1.681h-.585a.171.171 0 0 1-.126-.052.198.198 0 0 1-.052-.134v-.422c0-.05.017-.091.052-.126a.171.171 0 0 1 .126-.052h.585v-1.23c0-.054.017-.096.052-.125a.172.172 0 0 1 .126-.052h.6c.054 0 .096.017.126.052.034.03.052.071.052.125v1.23h.926c.054 0 .096.018.126.052.034.03.052.072.052.126v.422a.18.18 0 0 1-.052.134.171.171 0 0 1-.126.052h-.926v1.607c0 .213.037.373.11.482.075.108.198.163.371.163h.511c.05 0 .092.017.126.052a.172.172 0 0 1 .052.126v.459c0 .05-.017.091-.052.126a.157.157 0 0 1-.126.052zM105.55 155.642a.171.171 0 0 1-.127-.052.17.17 0 0 1-.052-.126v-4.823c0-.054.015-.099.045-.133a.18.18 0 0 1 .133-.052h3.215a.18.18 0 0 1 .134.052.18.18 0 0 1 .052.133v.519a.18.18 0 0 1-.052.133.198.198 0 0 1-.134.044h-2.378v1.408h2.23a.18.18 0 0 1 .133.052.18.18 0 0 1 .052.133v.519a.18.18 0 0 1-.052.133.198.198 0 0 1-.133.045h-2.23v1.837a.18.18 0 0 1-.052.133.198.198 0 0 1-.133.045zM111.319 155.716c-.548 0-.985-.158-1.311-.474-.321-.321-.492-.77-.512-1.349l-.007-.185.007-.185c.025-.563.198-1.005.519-1.326.326-.321.76-.482 1.304-.482.583 0 1.032.178 1.348.534.321.355.482.83.482 1.422v.156a.17.17 0 0 1-.052.126.18.18 0 0 1-.133.051h-2.46v.06c.01.271.084.501.222.689a.704.704 0 0 0 .585.274.85.85 0 0 0 .704-.34.494.494 0 0 1 .104-.105.288.288 0 0 1 .126-.022h.637a.15.15 0 0 1 .111.045.113.113 0 0 1 .052.096c0 .118-.072.26-.215.422a1.737 1.737 0 0 1-.6.415 2.189 2.189 0 0 1-.911.178zm.822-2.334v-.022c0-.291-.074-.526-.222-.704-.143-.178-.343-.267-.6-.267-.257 0-.457.09-.6.267-.143.178-.215.413-.215.704v.022zM115.595 155.716c-.549 0-.986-.158-1.312-.474-.32-.321-.491-.77-.51-1.349l-.008-.185.007-.185c.025-.563.198-1.005.519-1.326.326-.321.76-.482 1.304-.482.582 0 1.032.178 1.348.534.32.355.481.83.481 1.422v.156a.17.17 0 0 1-.051.126.18.18 0 0 1-.134.051h-2.46v.06c.01.271.085.501.223.689a.704.704 0 0 0 .585.274.85.85 0 0 0 .704-.34.496.496 0 0 1 .104-.105.288.288 0 0 1 .126-.022h.637a.15.15 0 0 1 .11.045.113.113 0 0 1 .053.096c0 .118-.072.26-.215.422a1.737 1.737 0 0 1-.6.415 2.189 2.189 0 0 1-.911.178zm.822-2.334v-.022c0-.291-.074-.526-.222-.704-.143-.178-.344-.267-.6-.267-.257 0-.457.09-.6.267-.144.178-.215.413-.215.704v.022zM119.974 155.716a2.53 2.53 0 0 1-1.008-.185 1.658 1.658 0 0 1-.652-.497 1.172 1.172 0 0 1-.237-.652c0-.04.015-.074.045-.103a.15.15 0 0 1 .11-.045h.15c.088 0 .143.05.162.148.035.237.17.445.408.622.237.178.577.267 1.022.267.47 0 .817-.084 1.044-.252a.845.845 0 0 0 .349-.718.636.636 0 0 0-.17-.46 1.296 1.296 0 0 0-.482-.318c-.212-.094-.534-.21-.963-.348a5.451 5.451 0 0 1-.897-.363 1.24 1.24 0 0 1-.474-.437c-.104-.173-.155-.393-.155-.66 0-.252.066-.479.2-.681.138-.203.336-.36.592-.474.257-.119.563-.178.919-.178.366 0 .679.066.94.2.263.128.46.294.593.496.134.198.205.398.215.6 0 .04-.015.074-.044.104-.025.03-.062.044-.111.044h-.148a.21.21 0 0 1-.104-.03c-.035-.024-.054-.064-.06-.118-.03-.247-.162-.45-.4-.607-.232-.163-.526-.245-.881-.245-.38 0-.684.074-.911.222-.223.149-.334.37-.334.667 0 .193.05.353.148.482.104.123.257.232.46.326.202.089.501.197.896.326.405.128.721.252.948.37.228.119.398.262.512.43.118.168.177.385.177.652 0 .444-.165.792-.496 1.044-.33.247-.785.37-1.363.37zM124.104 155.642c-.366 0-.625-.109-.778-.326-.153-.223-.23-.526-.23-.912v-2.185h-.578a.16.16 0 0 1-.118-.044.16.16 0 0 1-.045-.119v-.104a.16.16 0 0 1 .045-.118.16.16 0 0 1 .118-.045h.578v-1.244a.16.16 0 0 1 .045-.119.16.16 0 0 1 .118-.044h.126a.16.16 0 0 1 .119.044c.03.03.044.07.044.119v1.244h.919a.16.16 0 0 1 .118.045c.03.03.045.069.045.118v.104a.16.16 0 0 1-.045.119.16.16 0 0 1-.118.044h-.919v2.156c0 .276.045.486.133.63.094.138.248.207.46.207h.4a.16.16 0 0 1 .118.044c.03.03.045.07.045.119v.104a.16.16 0 0 1-.045.118.16.16 0 0 1-.118.045zM126.507 155.716c-.237 0-.457-.05-.66-.148a1.303 1.303 0 0 1-.488-.4.942.942 0 0 1-.178-.556c0-.326.13-.593.393-.8.266-.208.624-.341 1.074-.4l1.17-.163v-.26c0-.271-.084-.479-.252-.622-.163-.148-.414-.222-.755-.222-.252 0-.46.05-.623.148a.668.668 0 0 0-.303.356.274.274 0 0 1-.074.126.162.162 0 0 1-.104.03h-.104a.177.177 0 0 1-.118-.045.177.177 0 0 1-.045-.119c0-.108.05-.234.148-.378.1-.148.252-.276.46-.385.207-.108.461-.163.763-.163.528 0 .904.126 1.126.378.222.252.333.558.333.919v2.467a.16.16 0 0 1-.044.118.16.16 0 0 1-.119.045h-.126a.16.16 0 0 1-.118-.045.16.16 0 0 1-.045-.118v-.349c-.108.163-.269.302-.481.415-.208.114-.484.17-.83.17zm.074-.43c.36 0 .657-.118.89-.356.231-.237.347-.577.347-1.022v-.252l-.955.134c-.405.054-.712.148-.919.281-.207.133-.311.301-.311.504 0 .227.094.402.281.526.193.123.415.185.667.185zM130.901 155.716c-.514 0-.911-.148-1.193-.445-.281-.301-.43-.72-.444-1.26l-.007-.295.007-.297c.015-.538.163-.956.445-1.252.281-.301.678-.452 1.192-.452.326 0 .603.06.83.178.232.114.405.262.519.445.113.177.175.363.185.555a.14.14 0 0 1-.045.119.177.177 0 0 1-.118.044h-.104c-.05 0-.086-.01-.111-.03a.553.553 0 0 1-.067-.125c-.099-.272-.237-.465-.415-.578-.177-.119-.402-.178-.674-.178-.355 0-.64.109-.852.326-.207.212-.318.54-.333.985l-.007.26.007.259c.015.444.126.775.333.992.212.213.497.319.852.319.272 0 .497-.057.674-.17.178-.119.316-.314.415-.586a.39.39 0 0 1 .067-.118c.025-.025.062-.037.111-.037h.104c.044 0 .084.017.118.052.035.03.05.066.045.11-.01.194-.072.381-.185.564a1.294 1.294 0 0 1-.519.444c-.227.114-.504.17-.83.17zM133.584 155.642a.16.16 0 0 1-.119-.045.16.16 0 0 1-.044-.118v-4.934a.16.16 0 0 1 .044-.119.16.16 0 0 1 .119-.044h.126a.16.16 0 0 1 .118.044c.03.03.045.07.045.119v2.622l1.652-1.252a.769.769 0 0 1 .163-.103.357.357 0 0 1 .148-.023h.14c.045 0 .08.015.104.045.03.025.045.06.045.104 0 .054-.032.103-.096.148l-1.875 1.422 2.06 1.837c.064.06.096.11.096.149a.15.15 0 0 1-.044.11.14.14 0 0 1-.104.038h-.119a.652.652 0 0 1-.163-.015.625.625 0 0 1-.148-.111l-1.86-1.652v1.615a.16.16 0 0 1-.044.118.16.16 0 0 1-.118.045z" transform="translate(-78.846 -149.75)"/><path style="fill:#b3b3b3;stroke-width:.26458332" d="M130.254 159.875a.079.079 0 0 1-.054-.019.08.08 0 0 1-.019-.054v-2.073c0-.024.006-.042.02-.054a.074.074 0 0 1 .053-.022h.87c.227 0 .397.054.511.161.115.108.172.25.172.426a.501.501 0 0 1-.273.467.58.58 0 0 1 .225.206.647.647 0 0 1 .01.645.572.572 0 0 1-.238.231.79.79 0 0 1-.381.086zm.823-1.283c.133 0 .235-.03.304-.092a.32.32 0 0 0 .108-.257c0-.108-.034-.19-.104-.248-.07-.057-.173-.085-.308-.085h-.585v.682zm.031 1.026a.428.428 0 0 0 .312-.108.363.363 0 0 0 .114-.276.36.36 0 0 0-.114-.28.428.428 0 0 0-.312-.108h-.615v.772zM132.921 159.907a.702.702 0 0 1-.524-.2c-.129-.136-.2-.32-.212-.553l-.003-.108.003-.104c.015-.229.087-.411.216-.547a.688.688 0 0 1 .517-.203c.235 0 .417.075.546.226.13.148.194.349.194.603v.054c0 .021-.007.04-.022.054a.069.069 0 0 1-.051.019h-1.099v.029a.599.599 0 0 0 .124.352.38.38 0 0 0 .308.143.446.446 0 0 0 .378-.181.169.169 0 0 1 .041-.044.115.115 0 0 1 .054-.01h.156a.07.07 0 0 1 .047.015c.013.011.02.026.02.045 0 .046-.03.102-.09.168a.715.715 0 0 1-.244.172.867.867 0 0 1-.359.07zm.435-.978v-.01a.517.517 0 0 0-.12-.356.393.393 0 0 0-.318-.14.393.393 0 0 0-.317.14.535.535 0 0 0-.115.356v.01zM134.673 159.875c-.335 0-.502-.186-.502-.559v-.838h-.248a.078.078 0 0 1-.054-.02.08.08 0 0 1-.019-.053v-.108c0-.021.006-.038.02-.05a.074.074 0 0 1 .053-.023h.248v-.53c0-.021.006-.038.02-.051a.074.074 0 0 1 .053-.022h.15c.02 0 .037.007.05.022.015.013.022.03.022.05v.531h.394c.021 0 .038.007.05.022.016.013.023.03.023.051v.108c0 .021-.007.04-.022.054a.069.069 0 0 1-.051.019h-.394v.816c0 .106.018.186.054.241.036.053.095.08.178.08h.194c.021 0 .038.007.05.022.015.013.023.03.023.05v.115c0 .021-.007.04-.022.054a.069.069 0 0 1-.051.019zM135.729 159.907a.664.664 0 0 1-.29-.064.553.553 0 0 1-.212-.171.423.423 0 0 1-.076-.245c0-.14.057-.254.171-.343a.969.969 0 0 1 .47-.177l.473-.067v-.092c0-.216-.123-.324-.371-.324a.4.4 0 0 0-.362.197.084.084 0 0 1-.025.041c-.008.008-.022.013-.039.013h-.136a.074.074 0 0 1-.05-.02.076.076 0 0 1-.02-.05.334.334 0 0 1 .07-.171.55.55 0 0 1 .213-.169.769.769 0 0 1 .352-.073c.237 0 .408.056.511.169.104.11.156.247.156.412v1.03c0 .02-.007.038-.022.053a.069.069 0 0 1-.051.02h-.146a.079.079 0 0 1-.054-.02.08.08 0 0 1-.02-.054v-.136a.55.55 0 0 1-.202.171.729.729 0 0 1-.34.07zm.067-.238a.45.45 0 0 0 .336-.134c.089-.09.133-.22.133-.39v-.09l-.368.055a.833.833 0 0 0-.34.108c-.076.049-.114.11-.114.187 0 .085.035.15.105.197.07.044.152.067.248.067z" transform="translate(-78.846 -149.75)"/></svg>