<svg xmlns="http://www.w3.org/2000/svg" width="2cm" height="2cm" viewBox="0 0 75.591 75.591"><path d="M47.904 70.533c-3.012-.541-5.547-1.028-5.634-1.082-.087-.054-.158-.226-.158-.384 0-.52 1.304-7.753 1.518-8.42.116-.36.523-2.57.906-4.91.524-3.205.658-4.319.54-4.508-.188-.301-3.542-2.636-3.798-2.645-.1-.003-.499-.202-.889-.442s-.781-.436-.87-.436c-.088 0-.532.638-.985 1.418-.454.78-1.004 1.614-1.222 1.854-.218.24-1.2 1.81-2.183 3.49-.982 1.679-1.875 3.158-1.985 3.286-.176.206-1.037.242-7.476.308-4.194.043-7.334.132-7.412.21-.075.075-.236.918-.36 1.873-.277 2.163-.39 2.52-.978 3.076-.736.696-.994.77-2.697.77-1.528 0-1.595-.013-1.68-.327-.165-.62-.102-11.45.07-11.77.16-.3.167-.3 8.416-.193l8.255.107.671-2.015c.37-1.108.672-2.138.672-2.289 0-.15.401-1.492.891-2.98.89-2.701.891-2.71.924-4.597.022-1.292.133-2.35.35-3.344.443-2.035 1.768-9.976 1.686-10.108-.037-.06-.837.11-1.777.378-.941.268-1.9.49-2.13.492-.637.008-1.546.32-1.678.576-.065.126-.163 1.417-.219 2.87-.099 2.606-.096 2.65.254 3.344.547 1.086 1.117 2.776 1.117 3.313 0 .677-.386 1.084-1.152 1.212l-.643.108-.172.86c-.179.898-.683 1.535-1.213 1.535-.683 0-1.86-.498-2.361-1-.897-.897-1.026-1.948-.637-5.18.142-1.176.212-3.25.214-6.368.003-4.878.055-5.298.688-5.55.143-.056 1.11-.402 2.15-.767 1.04-.366 2.023-.75 2.185-.855.161-.104 1.732-.674 3.49-1.265l3.195-1.076 1.624.146c.894.08 1.728.105 1.854.057.187-.072.23-.35.23-1.514v-1.426l-1.03-1.014c-.565-.558-1.2-1.304-1.41-1.659-.356-.6-.386-.79-.441-2.762-.088-3.186.23-4.419 1.46-5.665.342-.345.948-.8 1.348-1.012l.727-.385h10.614l.042 1.269c.06 1.837-.291 2.389-1.642 2.576l-.581.08-.041 1.713-.041 1.712.731 1.424c.403.783.732 1.498.732 1.59 0 .09-.294.294-.654.453l-.655.29v1.088c0 1.462-.14 1.605-1.437 1.448a17.94 17.94 0 0 0-1.689-.118l-.727-.003-.042 1.2c-.05 1.433-.06 1.424 1.885 1.567.912.067 1.317.16 1.466.335.249.294 3.598 7.177 3.598 7.395 0 .255.7 1.756.867 1.86.086.052 1.021-.385 2.079-.972 1.752-.973 1.985-1.151 2.623-2.01.967-1.3 1.832-2.173 2.393-2.415.41-.176.53-.175.878.004.222.115.494.378.604.585.233.435.364.454 1.075.158 1.472-.616 2.421.232 2.421 2.163 0 1.546-.79 2.231-4.289 3.723-.88.375-3.202 1.582-5.162 2.682-1.959 1.1-3.764 2.034-4.012 2.075-.842.139-1.21-.22-2.444-2.38-1.084-1.899-2.081-3.393-2.264-3.393-.045 0-.634 2.217-1.307 4.925l-1.226 4.925 1.52 1.63c.835.897 1.579 1.74 1.653 1.873.074.133 1.186 1.343 2.472 2.689 2.396 2.509 2.683 2.866 2.7 3.37.006.16-.513 3.005-1.153 6.324-1.077 5.59-1.367 7.221-1.569 8.83l-.077.615 1.945.923c2.764 1.311 3.184 1.87 2.988 3.97-.106 1.128-.293 1.516-.721 1.494-.177-.01-2.786-.46-5.798-1.002z" style="fill:#fad2c3;stroke-width:.14539942"/><path d="M33.958 48.8c-2.377-1.345-3.017-1.77-3.017-2.003 0-.163.364-1.373.81-2.69.809-2.387.811-2.4.864-4.43.04-1.537-.079-2.371.205-3.579.679-2.885 1.354-9.27 1.673-10.108-.257.613-.731.567-1.697.84-.966.272-1.722.41-1.817.373-.177-.068-1.638-5.076-1.638-5.603 0-.325-.216-.233 3.695-1.563l2.75-.935 1.685.166c.927.092 1.703-.055 1.793.016.09.07.258.597.304.828.123.613.886 1.407 1.624 1.69 1.244.474 2.594-.035 3.253-1.228l.346-.627.817.091 1.59.178.77.086 1.747 3.58c1.117 2.292 1.982 3.427 1.906 3.548-.065.104-1.28.932-2.36 1.568l-2.284 1.547-.213-.307c-.187-.269-.23-.326-.307-.278-.13.08-1.396 5.993-2.256 8.547l-.363 1.078.592.7c.325.386.99 1.091 1.475 1.569.486.477.884.971.884 1.098 0 .198-4.912 4.821-5.431 5.112-.108.06-.53-.102-.994-.381-.444-.267-.87-.444-.946-.393-.076.051-.559.797-1.072 1.656-.531.89-1.027 1.563-1.152 1.562-.12-.001-1.577-.77-3.236-1.709z" style="fill:#f3b94e;stroke-width:.14539942"/><path d="M33.958 48.8c-2.377-1.345-3.017-1.77-3.017-2.003 0-.163.364-1.373.81-2.69.809-2.387.811-2.4.864-4.43.04-1.537-.079-2.371.205-3.579.679-2.885 1.354-9.27 1.673-10.108-.257.613-.731.567-1.697.84-.966.272-1.722.41-1.817.373-.177-.068-1.638-5.076-1.638-5.603 0-.325-.216-.233 3.695-1.563l2.75-.935 1.685.166c.927.092 1.703-.055 1.793.016.09.07.258.597.304.828.123.613.886 1.407 1.624 1.69-5.107 14.445-4.644 16.004-7.234 26.997z" style="fill:#efa621;fill-opacity:1;stroke-width:.14539942"/><path d="M33.958 49.194a118.486 118.486 0 0 0-3.265-1.773c-.038-.52.338-1.373.828-2.911.863-2.717.945-2.73.933-4.213-.012-1.52.328-4.66.596-4.826.119-.074 11.246 1.936 11.374 2.064.036.035-.101.733-.237 1.312-.135.579-.244.824-.243.97.001.147.834.881 1.614 1.719.78.837 1.43 1.722 1.43 1.722.051.143-5.741 5.26-6.014 5.319-.108.024-.476-.36-.886-.615-.57-.355-.623-.23-.773-.105-.108.09-.49.85-.985 1.692-.495.841-1.059 1.557-1.118 1.556-.058 0-1.614-.983-3.254-1.911z" style="fill:#639d50;stroke-width:.14539942"/><path d="M47.666 70.475c-2.834-.51-5.476-1.037-5.533-1.097-.119-.127.576-4.54.747-4.727-.272-.089.747.158 1.11.408 1.626 1.118 3.014 1.354 4.411.748l1.089-.659 2.244 1.083c2.169 1.046 2.216 1.359 2.605 2.122.25.488.094 1.216.027 1.933-.117 1.244-.313 1.29-.852 1.272-.251-.008-3.013-.571-5.848-1.083zm-35.27-12.55.248-6.214 2.3-.056c1.12-.023 2.305-.048 2.48-.005l.557.024-.812 1.39c-.806 1.723-.732 3.19.233 4.593l.866.635-.41 2.307c-.55 3.083-1.033 3.517-3.41 3.407l-1.936-.09zm25.268-42.598c-.557-.601-1.205-1.447-1.297-1.753-.097-.326-.14-1.529-.108-3.145.047-2.506.15-3.066.52-3.771.463-.88 2.12-2.215 3.042-2.642.645-.298.714-.222 5.531-.187l5.41.04.047 1.226c.076 2.007-.696 2.4-3.083 2.4-1.71 0-1.515-.175-2.569 2.29-.385.9-.74 1.635-.79 1.635-.051 0-.27-.327-.489-.728-.62-1.138-1.649-1.478-2.634-.869-.656.406-.852.899-1.383 3.488-.254 1.24-.51 2.306-.57 2.37-.06.065-1.096.22-1.627-.354z" style="fill:#494b51;stroke-width:.14539942"/><path d="M30.693 47.421c-.038-.52.338-1.373.828-2.911.863-2.717.945-2.73.933-4.213-.012-1.52.328-4.66.596-4.826.119-.074 3.386.456 3.514.584-1.54 11.937-3.483 10.276-3.962 12.27-2.247-1.34.513.372-1.91-.904z" style="fill:#49743b;fill-opacity:1;stroke-width:.14539942"/><path d="M37.664 15.327c-.557-.601-1.205-1.447-1.297-1.753-.097-.326-.14-1.529-.108-3.145.047-2.506.15-3.066.52-3.771.463-.88 2.12-2.215 3.042-2.642.489 6.97-.724 2.501.04 9.295-.254 1.24-.51 2.306-.57 2.37-.06.065-1.096.22-1.627-.354z" style="fill:#2b2d30;fill-opacity:1;stroke-width:.14539942"/><path d="m12.397 57.925.247-6.214 2.3-.056c-.337 6.05-.581 5.404-.495 12.35l-1.937-.089z" style="fill:#141516;fill-opacity:1;stroke-width:.14539942"/><path d="M47.666 70.475c-2.834-.51-5.476-1.037-5.533-1.097-.119-.127-.035.274.205-2.558 5.994 3.036 5.86-.172 12.028 3.466-.117 1.244-.313 1.29-.852 1.272-.251-.009-3.013-.571-5.848-1.083z" style="fill:#212224;fill-opacity:1;stroke-width:.14539942"/></svg>