<svg xmlns="http://www.w3.org/2000/svg" viewBox="0 0 75.591 75.591" xml:space="preserve" width="2cm" height="2cm"><g style="stroke:#000;stroke-opacity:1;stroke-width:18.79271467;stroke-miterlimit:4;stroke-dasharray:none;fill:none"><path style="fill:none;stroke:#000;stroke-width:2;stroke-miterlimit:4;stroke-dasharray:none;stroke-opacity:1" d="M17.846 29.7a7.115 7.115 0 0 0-7.108 7.107v17.767a3.56 3.56 0 0 0 3.555 3.555h2.37v5.33c0 .982.793 1.777 1.774 1.777h7.108c.981 0 1.777-.795 1.777-1.777v-5.33h21.323v5.33c0 .982.793 1.777 1.775 1.777h7.107c.982 0 1.778-.795 1.778-1.777v-5.33h2.369a3.56 3.56 0 0 0 3.555-3.555V36.807a7.115 7.115 0 0 0-7.108-7.108c-3.92 0-7.068 3.189-7.107 7.108l-.069 6.7h-26.06l.068-6.7a7.115 7.115 0 0 0-7.107-7.108z"/></g><path style="fill:none;stroke:#000;stroke-width:2;stroke-miterlimit:4;stroke-dasharray:none;stroke-opacity:1" d="M59.305 43.69H16.66V23.185c0-6.858 5.58-12.438 12.438-12.438h17.768c6.858 0 12.438 5.58 12.438 12.438v20.507z"/><g transform="matrix(.10642 0 0 .10642 10.738 10.746)" style="stroke-width:18.79271467;stroke-miterlimit:4;stroke-dasharray:none;stroke:none;stroke-opacity:1;fill:#000;fill-opacity:1"><circle style="fill:#000;stroke-width:18.79271467;stroke-miterlimit:4;stroke-dasharray:none;stroke:none;stroke-opacity:1;fill-opacity:1" cx="205.913" cy="116.87" r="16.696"/><circle style="fill:#000;stroke-width:18.79271467;stroke-miterlimit:4;stroke-dasharray:none;stroke:none;stroke-opacity:1;fill-opacity:1" cx="205.913" cy="228.174" r="16.696"/><circle style="fill:#000;stroke-width:18.79271467;stroke-miterlimit:4;stroke-dasharray:none;stroke:none;stroke-opacity:1;fill-opacity:1" cx="306.087" cy="116.87" r="16.696"/></g><circle style="fill:#000;stroke-width:.10642422;fill-opacity:1" cx="43.314" cy="35.03" r="1.777"/></svg>